<svg width="21" height="22" viewBox="0 0 21 22" fill="none" xmlns="http://www.w3.org/2000/svg">
<path d="M3.93062 1.43032C6.21303 0.817732 8.60925 1.06997 10.9502 0.994629C13.4082 1.09946 16.1685 0.712904 18.2883 2.25256C19.5726 3.3467 20.4342 5.00428 20.47 6.71101C20.5675 9.77066 20.5707 12.8336 20.4667 15.8932C20.457 17.3838 19.7612 18.7891 18.802 19.8898C17.6283 21.151 15.8271 21.4851 14.1852 21.5572C11.4801 21.6326 8.7718 21.6457 6.06673 21.5408C4.45733 21.4327 2.69837 21.02 1.62545 19.7096C0.848386 18.7236 0.162367 17.541 0.207885 16.2405C0.204634 13.1808 0.224135 10.1212 0.201376 7.06152C-0.0132092 4.64394 1.57018 2.09532 3.93062 1.43032ZM6.16426 2.91756C4.69142 2.94049 3.07552 3.55963 2.396 4.95842C1.66121 7.10411 1.94732 9.41359 1.8888 11.6379C1.93107 13.705 1.68397 15.8703 2.47728 17.8293C3.19582 19.025 4.59064 19.6376 5.94318 19.6736C8.82707 19.8243 11.7272 19.8243 14.6144 19.6769C16.1782 19.6441 17.9762 18.7858 18.3599 17.1315C18.8963 15.0153 18.6427 12.8139 18.7013 10.6584C18.6687 8.6929 18.8703 6.63239 18.1095 4.77497C17.3845 3.58256 15.9897 2.97325 14.6339 2.93721C11.815 2.77997 8.98313 2.79963 6.16426 2.91756Z" fill="white"/>
<path d="M14 2C15.3261 2 16.5979 2.52678 17.5355 3.46447C18.4732 4.40215 19 5.67392 19 7V15C19 16.3261 18.4732 17.5979 17.5355 18.5355C16.5979 19.4732 15.3261 20 14 20H6C4.67392 20 3.40215 19.4732 2.46447 18.5355C1.52678 17.5979 1 16.3261 1 15V7C1 5.67392 1.52678 4.40215 2.46447 3.46447C3.40215 2.52678 4.67392 2 6 2H14ZM10 7C8.93913 7 7.92172 7.42143 7.17157 8.17157C6.42143 8.92172 6 9.93913 6 11C6 12.0609 6.42143 13.0783 7.17157 13.8284C7.92172 14.5786 8.93913 15 10 15C11.0609 15 12.0783 14.5786 12.8284 13.8284C13.5786 13.0783 14 12.0609 14 11C14 9.93913 13.5786 8.92172 12.8284 8.17157C12.0783 7.42143 11.0609 7 10 7ZM10 9C10.5304 9 11.0391 9.21071 11.4142 9.58579C11.7893 9.96086 12 10.4696 12 11C12 11.5304 11.7893 12.0391 11.4142 12.4142C11.0391 12.7893 10.5304 13 10 13C9.46957 13 8.96086 12.7893 8.58579 12.4142C8.21071 12.0391 8 11.5304 8 11C8 10.4696 8.21071 9.96086 8.58579 9.58579C8.96086 9.21071 9.46957 9 10 9ZM14.5 5.5C14.2348 5.5 13.9804 5.60536 13.7929 5.79289C13.6054 5.98043 13.5 6.23478 13.5 6.5C13.5 6.76522 13.6054 7.01957 13.7929 7.20711C13.9804 7.39464 14.2348 7.5 14.5 7.5C14.7652 7.5 15.0196 7.39464 15.2071 7.20711C15.3946 7.01957 15.5 6.76522 15.5 6.5C15.5 6.23478 15.3946 5.98043 15.2071 5.79289C15.0196 5.60536 14.7652 5.5 14.5 5.5Z" fill="white"/>
</svg>
