<svg width="25" height="25" viewBox="0 0 25 25" fill="none" xmlns="http://www.w3.org/2000/svg">
<path d="M7.43365 2.90875C9.3194 0.618919 12.6552 0.0915055 15.3733 0.933402C17.4346 1.57875 19.07 3.33788 19.6423 5.42461C19.8796 6.36478 19.8438 7.34426 19.8731 8.30409C20.6339 8.36633 21.5085 8.32375 22.1002 8.9003C22.8643 9.59151 22.9098 10.8789 22.2661 11.6684C21.6938 12.3596 20.8843 12.792 20.1657 13.3096C20.7152 14.5806 21.6516 15.6486 22.8643 16.3103C23.6576 16.8344 24.9874 17.2996 24.7338 18.515C24.3989 19.8089 22.9586 20.1267 21.8987 20.5886C21.541 21.1127 21.2549 21.8301 20.5591 21.9644C19.2391 22.2953 17.7663 22.1315 16.6023 22.9537C14.4012 24.4574 11.3482 24.4639 9.15034 22.957C7.98637 22.1282 6.50703 22.2953 5.18701 21.9612C4.50098 21.8137 4.20837 21.1029 3.83772 20.5853C2.78105 20.1201 1.34397 19.8089 1.00909 18.515C0.761991 17.3029 2.09177 16.8443 2.88509 16.3169C4.09132 15.6486 5.03095 14.5839 5.57391 13.3129C4.44896 12.53 2.76154 11.675 3.06066 10.0141C3.21997 8.64806 4.70256 8.2484 5.85677 8.30737C5.78524 6.39426 6.12338 4.37961 7.43365 2.90875Z" fill="white"/>
</svg>
