<svg width="24" height="24" viewBox="0 0 24 24" fill="none" xmlns="http://www.w3.org/2000/svg">
<path d="M3.32236 4.74973C5.556 2.12577 9.0674 0.70732 12.4845 0.946457C15.6838 1.08404 18.8018 2.7056 20.7428 5.27715C22.6773 7.69146 23.4641 10.9346 23.0642 13.9877C22.3327 18.7868 18.3986 22.9013 13.5899 23.6089C13.5834 20.9456 13.59 18.279 13.5867 15.6158C14.4646 15.6158 15.3457 15.6125 16.2268 15.6125C16.3958 14.5118 16.5649 13.4111 16.7307 12.3137C15.6805 12.3104 14.6336 12.3104 13.5867 12.3071C13.6485 11.2621 13.3819 10.1221 13.8435 9.14594C14.4808 8.13042 15.8594 8.46456 16.8673 8.35646C16.864 7.42284 16.864 6.48922 16.864 5.5556C14.9295 5.32956 12.5138 4.99542 11.0897 6.65956C9.6949 8.20904 10.072 10.4006 10.046 12.3071C9.08365 12.3104 8.12127 12.3104 7.16214 12.3104C7.16214 13.4111 7.16214 14.5118 7.16214 15.6125C8.12127 15.6125 9.08365 15.6158 10.0428 15.6158C10.0395 18.279 10.046 20.9456 10.0395 23.6089C5.01629 22.8751 0.91965 18.3904 0.493731 13.3194C0.262889 10.2368 1.24804 7.05266 3.32236 4.74973Z" fill="white"/>
</svg>
