<svg width="25" height="20" viewBox="0 0 25 20" fill="none" xmlns="http://www.w3.org/2000/svg">
<path d="M15.2437 1.06929C17.0547 0.348603 19.1225 0.96119 20.5206 2.25188C21.5675 1.9636 22.5852 1.58033 23.5833 1.15446C23.0826 2.19619 22.3153 3.06429 21.4212 3.78171C22.3348 3.56878 23.2419 3.33947 24.1458 3.08067C23.4305 3.97498 22.6274 4.79067 21.7528 5.52446C22.0064 9.48171 20.202 13.2981 17.5717 16.1448C13.1629 20.4853 5.86376 21.0357 0.697449 17.7565C3.23671 17.9498 5.78898 17.2717 7.86331 15.7714C5.82149 15.6502 4.08204 14.2972 3.28548 12.4333C4.02677 12.4038 4.77132 12.3645 5.51587 12.3252C3.331 11.7846 1.73136 9.80929 1.59805 7.55222C2.3296 7.7455 3.06439 7.93222 3.79919 8.12222C1.79314 6.66119 1.12012 3.82429 2.29384 1.61636C4.75832 4.54171 8.37051 6.46136 12.1908 6.67757C11.7388 4.38774 13.0069 1.82929 15.2437 1.06929Z" fill="white"/>
</svg>
