<svg width="26" height="19" viewBox="0 0 26 19" fill="none" xmlns="http://www.w3.org/2000/svg">
<path d="M5.03628 0.727665C10.4009 0.373871 15.7883 0.3837 21.1497 0.789907C22.1511 0.875079 23.2338 1.12404 23.9263 1.92008C24.8497 2.93887 24.8041 4.41956 25.0025 5.7037C25.2756 8.96318 25.2788 12.2915 24.5993 15.5051C24.2547 16.9137 22.8274 17.7163 21.4683 17.7916C15.6257 18.2699 9.73765 18.2699 3.89507 17.7949C2.52302 17.7196 1.07944 16.9104 0.741308 15.4854C0.0682897 12.2718 0.0715537 8.9468 0.347914 5.68732C0.542992 4.33439 0.510464 2.74232 1.59315 1.74318C2.51326 0.868527 3.8463 0.809561 5.03628 0.727665ZM10.1213 5.58904C10.1181 8.08197 10.1181 10.5749 10.1213 13.0678C12.2964 11.823 14.4683 10.5782 16.6402 9.3268C14.4683 8.0787 12.2932 6.83387 10.1213 5.58904Z" fill="white"/>
</svg>
