<svg width="21" height="25" viewBox="0 0 21 25" fill="none" xmlns="http://www.w3.org/2000/svg">
<path d="M11.1617 0.517334C12.4915 0.517334 13.8213 0.517334 15.1478 0.517334C15.1511 3.58027 17.7944 6.14527 20.8018 6.21078C20.7953 7.54078 20.8018 8.87078 20.7986 10.2041C18.7958 10.1353 16.845 9.52923 15.1706 8.42199C15.1803 11.3637 15.2226 14.3054 15.1576 17.2472C14.9202 21.1618 11.1942 24.4377 7.30245 24.0446C4.06741 23.9529 1.11848 21.3944 0.513744 18.207C0.455221 16.6346 0.273148 14.9573 0.991684 13.4963C2.25319 10.5022 5.62478 8.82492 8.77203 9.15251C8.77528 10.5185 8.76878 11.8846 8.78179 13.2506C7.40324 13.0508 5.83937 13.3587 4.99728 14.5741C3.83007 16.1039 4.27224 18.5968 5.97592 19.5272C7.58856 20.5656 10.0335 19.9006 10.8138 18.1153C11.165 17.4404 11.165 16.6608 11.1682 15.9172C11.152 10.7839 11.165 5.65061 11.1617 0.517334Z" fill="white"/>
</svg>
