<svg xmlns="http://www.w3.org/2000/svg" width="18.637" height="18.644" viewBox="0 0 18.637 18.644">
  <g id="instagram" transform="translate(-119.037)">
    <path id="Path_26" data-name="Path 26" d="M128.37,6.207h0a3.115,3.115,0,0,0-.043,6.23h0a3.115,3.115,0,1,0,.046-6.23" fill="#ededed"/>
    <path id="Path_27" data-name="Path 27" d="M137.662,6.741a22.341,22.341,0,0,0-.171-2.42,4.8,4.8,0,0,0-3.96-4.106,14.4,14.4,0,0,0-2.6-.2l-.167,0Q129.575,0,128.387,0q-1.206,0-2.412.016A23.344,23.344,0,0,0,123.5.171a4.84,4.84,0,0,0-4.194,3.752,11.453,11.453,0,0,0-.249,2.614l0,.312c-.023,1.273-.026,2.613-.007,4.1.013.991.052,1.974.117,2.923a5.021,5.021,0,0,0,.823,2.46,4.963,4.963,0,0,0,4.016,2.209c1.1.072,2.2.089,3.144.1.369,0,.739.006,1.108.006.851,0,1.7-.009,2.554-.02l.249,0a11.877,11.877,0,0,0,2.614-.227,4.761,4.761,0,0,0,3.66-3.376,8.008,8.008,0,0,0,.307-2.332c.007-.712.007-1.424.006-2.136l.02-1.486c0-.226,0-.453,0-.679,0-.534.009-1.086-.009-1.645m-9.34,7.347a4.779,4.779,0,0,1-4.732-4.777,4.784,4.784,0,0,1,4.776-4.756h.006a4.767,4.767,0,1,1-.05,9.533m4.981-8.68a1.031,1.031,0,1,1,1.03-1.03,1.031,1.031,0,0,1-1.03,1.03" fill="#ededed"/>
  </g>
</svg>
