<svg width="486" height="478" viewBox="0 0 486 478" fill="none" xmlns="http://www.w3.org/2000/svg">
<path d="M483.926 349.6C480.553 340.424 474.126 335.514 466.814 331.447C465.438 330.641 464.173 329.996 463.094 329.5C460.912 328.372 458.68 327.28 456.46 326.127C433.66 314.037 415.851 298.786 403.501 280.707C399.993 275.618 396.951 270.222 394.412 264.587C393.358 261.574 393.412 259.863 394.164 258.3C394.914 257.096 395.907 256.061 397.078 255.262C400.996 252.671 405.038 250.042 407.778 248.269C412.663 245.107 416.532 242.602 419.024 240.829C428.386 234.282 434.933 227.329 439.024 219.551C441.88 214.18 443.546 208.257 443.908 202.184C444.27 196.112 443.321 190.033 441.124 184.36C434.924 168.042 419.511 157.911 400.837 157.911C396.898 157.908 392.97 158.323 389.119 159.151C388.09 159.375 387.06 159.61 386.056 159.871C386.23 148.711 385.982 136.931 384.99 125.337C381.468 84.579 367.196 63.214 352.316 46.177C342.789 35.5005 331.566 26.468 319.1 19.443C296.515 6.547 270.91 0 243 0C215.09 0 189.6 6.547 167 19.443C154.503 26.4703 143.257 35.5206 133.719 46.226C118.839 63.264 104.567 84.666 101.046 125.387C100.054 136.981 99.8062 148.822 99.9672 159.92C98.9672 159.66 97.9462 159.42 96.9162 159.201C93.0656 158.373 89.1378 157.957 85.1992 157.961C66.5122 157.961 51.0742 168.092 44.8992 184.41C42.6921 190.085 41.7325 196.168 42.0856 202.247C42.4386 208.325 44.096 214.257 46.9452 219.638C51.0502 227.412 57.5972 234.369 66.9592 240.916C69.4392 242.652 73.3202 245.156 78.2052 248.356C80.8462 250.067 84.7052 252.572 88.4852 255.076C89.8086 255.932 90.9338 257.061 91.7852 258.387C92.5792 260.011 92.6032 261.76 91.4252 264.987C88.9198 270.504 85.928 275.786 82.4852 280.772C70.4082 298.441 53.1222 313.42 31.0512 325.411C19.3552 331.608 7.20018 335.75 2.06918 349.7C-1.79882 360.228 0.730178 372.206 10.5632 382.3C14.172 386.067 18.3577 389.236 22.9632 391.687C32.5455 396.953 42.7349 401.03 53.3052 403.826C55.4868 404.389 57.5579 405.315 59.4312 406.567C63.0142 409.704 62.5062 414.428 67.2802 421.347C69.6763 424.923 72.7212 428.019 76.2572 430.474C86.2762 437.393 97.5352 437.827 109.464 438.285C120.24 438.695 132.453 439.166 146.403 443.766C152.181 445.676 158.183 449.371 165.139 453.686C181.842 463.951 204.707 478 242.973 478C281.239 478 304.265 463.877 321.091 453.572C327.998 449.332 333.963 445.672 339.58 443.814C353.529 439.201 365.743 438.742 376.519 438.333C388.447 437.874 399.706 437.44 409.725 430.521C413.913 427.601 417.403 423.79 419.943 419.361C423.377 413.521 423.291 409.442 426.515 406.59C428.272 405.398 430.217 404.509 432.268 403.961C442.983 401.155 453.311 397.041 463.02 391.71C467.913 389.085 472.317 385.637 476.039 381.517L476.163 381.368C485.389 371.5 487.708 359.867 483.926 349.6ZM449.913 367.877C429.168 379.335 415.38 378.107 404.654 385.014C395.54 390.879 400.934 403.527 394.312 408.09C386.178 413.707 362.135 407.69 331.073 417.948C305.455 426.417 289.112 450.77 243.035 450.77C196.958 450.77 180.999 426.47 154.959 417.886C123.959 407.631 99.8672 413.645 91.7202 408.028C85.1112 403.465 90.4802 390.817 81.3792 384.952C70.6402 378.045 56.8522 379.273 36.1192 367.877C22.9132 360.586 30.4032 356.077 34.8052 353.94C109.948 317.559 121.938 261.388 122.471 257.221C123.116 252.175 123.835 248.207 118.28 243.073C112.911 238.113 89.0912 223.373 82.4802 218.757C71.5432 211.119 66.7322 203.493 70.2802 194.119C72.7602 187.634 78.8112 185.191 85.1592 185.191C87.1659 185.197 89.1661 185.422 91.1242 185.861C103.124 188.461 114.783 194.478 121.516 196.103C122.327 196.311 123.159 196.423 123.996 196.438C127.596 196.438 128.856 194.627 128.608 190.511C127.84 177.379 125.98 151.786 128.05 127.867C130.89 94.958 141.492 78.652 154.09 64.231C160.141 57.299 188.574 27.255 242.947 27.255C297.32 27.255 325.827 57.175 331.878 64.082C344.489 78.503 355.103 94.809 357.918 127.718C359.989 151.637 358.203 177.243 357.36 190.362C357.075 194.689 358.377 196.289 361.973 196.289C362.81 196.275 363.643 196.163 364.453 195.954C371.198 194.33 382.853 188.316 394.853 185.712C396.811 185.273 398.811 185.048 400.817 185.042C407.203 185.042 413.217 187.522 415.697 193.97C419.243 203.344 414.457 210.97 403.508 218.609C396.899 223.221 373.079 237.952 367.708 242.924C362.14 248.058 362.872 252.024 363.517 257.073C364.05 261.301 376.028 317.473 451.183 353.791C455.629 356.011 463.119 360.524 449.913 367.877Z" fill="white"/>
</svg>
