<svg xmlns="http://www.w3.org/2000/svg" width="18.608" height="15.185" viewBox="0 0 18.608 15.185">
  <path id="Twitter" d="M73.971,1.919A3.85,3.85,0,0,1,76.639,3.03a.239.239,0,0,0,.175.081.351.351,0,0,0,.081-.01,7.732,7.732,0,0,0,2.119-.807c.042-.024.086-.041.133-.064A4.058,4.058,0,0,1,77.618,4.3c.173-.028.346-.051.517-.085s.344-.074.514-.122.348-.106.52-.167.324-.123.52-.2a7.69,7.69,0,0,1-1.758,1.865.292.292,0,0,0-.145.268,10.891,10.891,0,0,1-1.34,5.588,10.441,10.441,0,0,1-8.031,5.556,11.778,11.778,0,0,1-1.5.1c-.277,0-.555-.011-.832-.032a10.813,10.813,0,0,1-4.937-1.62.75.75,0,0,1-.063-.066q.423.041.837.041a7.746,7.746,0,0,0,2.111-.288A7.564,7.564,0,0,0,66.678,13.8a3.823,3.823,0,0,1-3.543-2.666,3.656,3.656,0,0,0,.68.064,4.035,4.035,0,0,0,.975-.124,3.852,3.852,0,0,1-3-3.8,4,4,0,0,0,1.654.455,3.924,3.924,0,0,1-1.135-5.116,10.946,10.946,0,0,0,7.866,4.019,10.286,10.286,0,0,1-.03-1.171,3.656,3.656,0,0,1,2.064-3.1,3.831,3.831,0,0,1,1.762-.438m5.176.311h0m.539,1.5h0" transform="translate(-61.084 -1.919)" fill="#ededed"/>
</svg>
