<svg xmlns="http://www.w3.org/2000/svg" width="25.991" height="18.686" viewBox="0 0 25.991 18.686">
  <path id="Youtube" d="M13.217,18.876h-.01l-1.018-.013c-.822-.01-1.645-.021-2.468-.038q-1.269-.029-2.538-.09c-.648-.029-1.3-.072-1.944-.124L5.1,18.6a9.228,9.228,0,0,1-1.826-.274A3.8,3.8,0,0,1,.5,15.462a12.121,12.121,0,0,1-.271-1.647C.152,13.088.094,12.33.051,11.5-.007,10.4-.015,9.376.023,8.378L.036,8.03C.054,7.566.071,7.1.1,6.64A18.153,18.153,0,0,1,.472,3.683,3.876,3.876,0,0,1,3.19.733a5.644,5.644,0,0,1,1.057-.2c.51-.061.979-.1,1.446-.139L5.775.387c.33-.027.659-.044.988-.059.483-.023.967-.042,1.45-.06L8.577.255C8.951.24,9.324.226,9.7.222L10.25.216C11.546.2,12.843.19,14.139.19c.767,0,1.535.022,2.3.044l.685.018c.535.014,1.071.031,1.607.059.615.033,1.231.069,1.845.123.518.045,1.054.106,1.592.184a3.847,3.847,0,0,1,2.871,1.86,4.454,4.454,0,0,1,.52,1.43,17.817,17.817,0,0,1,.282,2.081,40.579,40.579,0,0,1,.137,4.366c-.015.649-.048,1.339-.1,2.175-.037.548-.093,1.126-.167,1.718a6.93,6.93,0,0,1-.4,1.781,3.76,3.76,0,0,1-2.758,2.351,10.87,10.87,0,0,1-1.382.2c-.6.058-1.2.1-1.808.136-.457.03-.863.048-1.269.059l-.109,0c-.9.027-1.807.054-2.71.069-.477.008-.953.007-1.43,0h-.426a.739.739,0,0,1-.2.029M9.908,5.6v7.857l6.821-3.921Z" transform="translate(0 -0.19)" fill="#ededed"/>
</svg>
