<svg id="Group_62" data-name="Group 62" xmlns="http://www.w3.org/2000/svg" xmlns:xlink="http://www.w3.org/1999/xlink" width="27.452" height="27.464" viewBox="0 0 27.452 27.464">
  <defs>
    <clipPath id="clip-path">
      <rect id="Rectangle_44" data-name="Rectangle 44" width="27.452" height="27.464" fill="none"/>
    </clipPath>
  </defs>
  <g id="Group_61" data-name="Group 61" clip-path="url(#clip-path)">
    <path id="Path_567" data-name="Path 567" d="M13.006,0h1.879c.317.041.634.077.95.123a13.374,13.374,0,0,1,6.934,3.142,13.148,13.148,0,0,1,4.47,7.794c.087.481.142.968.213,1.453v1.772c-.018.086-.04.171-.052.257-.067.477-.106.96-.2,1.431a13.113,13.113,0,0,1-4.963,8,13.285,13.285,0,0,1-9.811,2.751,12.773,12.773,0,0,1-4.592-1.372.663.663,0,0,0-.557-.051c-1.033.341-2.071.668-3.108,1-1.224.389-2.447.781-3.676,1.154a.516.516,0,0,1-.429-.086c-.08-.076-.054-.27-.063-.413A.461.461,0,0,1,.048,26.8c.7-2.078,1.4-4.158,2.119-6.233a.844.844,0,0,0-.068-.748,13.094,13.094,0,0,1-1.33-9.335A13.48,13.48,0,0,1,11.872.159Q12.439.078,13.006,0M4.2,23.332c.113-.031.164-.043.214-.059,1.055-.333,2.113-.659,3.163-1.006a.7.7,0,0,1,.653.082,10.645,10.645,0,0,0,4.4,1.573,10.34,10.34,0,0,0,4.555-.418,10.519,10.519,0,0,0,5.987-4.769,10.185,10.185,0,0,0,1.362-6.778A10.23,10.23,0,0,0,21.16,5.6a10.436,10.436,0,0,0-8.772-2.685A10.189,10.189,0,0,0,6.093,6.243a10.319,10.319,0,0,0-2.555,9.543A9.859,9.859,0,0,0,5.2,19.474a.628.628,0,0,1,.089.651c-.119.3-.209.608-.311.912-.253.749-.507,1.5-.776,2.3" transform="translate(0 0)" fill="#fff"/>
    <path id="Path_568" data-name="Path 568" d="M20.989,16.729a3.1,3.1,0,0,1-2.935,3.089,6.522,6.522,0,0,1-2.678-.415A12.512,12.512,0,0,1,8.811,14.39a8.412,8.412,0,0,1-1.44-2.645,4.155,4.155,0,0,1,.588-3.721A2.232,2.232,0,0,1,9.5,7.206a4.771,4.771,0,0,1,.875-.08.754.754,0,0,1,.684.49q.617,1.395,1.192,2.807a1.121,1.121,0,0,1-.282,1.093c-.192.278-.436.521-.643.79a.275.275,0,0,0-.034.245,9.932,9.932,0,0,0,4.141,3.586.3.3,0,0,0,.427-.095c.28-.371.584-.723.875-1.086a.8.8,0,0,1,1.1-.308c.936.419,1.859.871,2.781,1.321a.725.725,0,0,1,.367.76" transform="translate(0 0)" fill="#fff"/>
  </g>
</svg>
