<svg width="22" height="22" viewBox="0 0 22 22" fill="none" xmlns="http://www.w3.org/2000/svg">
<path fill-rule="evenodd" clip-rule="evenodd" d="M14.4375 4.1333C12.7826 4.1333 11.3908 5.31952 11.0698 6.8833H2.0625C1.68281 6.8833 1.375 7.19111 1.375 7.5708C1.375 7.95049 1.68281 8.2583 2.0625 8.2583H11.0698C11.3908 9.82208 12.7826 11.0083 14.4375 11.0083C16.0924 11.0083 17.4842 9.82208 17.8052 8.2583H19.9375C20.3172 8.2583 20.625 7.95049 20.625 7.5708C20.625 7.19111 20.3172 6.8833 19.9375 6.8833H17.8052C17.4842 5.31952 16.0924 4.1333 14.4375 4.1333ZM14.4375 5.5083C15.5847 5.5083 16.5 6.42359 16.5 7.5708C16.5 8.71801 15.5847 9.6333 14.4375 9.6333C13.2903 9.6333 12.375 8.71801 12.375 7.5708C12.375 6.42359 13.2903 5.5083 14.4375 5.5083Z" fill="white"/>
<path fill-rule="evenodd" clip-rule="evenodd" d="M7.5625 11.0083C5.90756 11.0083 4.51581 12.1945 4.19482 13.7583H2.0625C1.68281 13.7583 1.375 14.0661 1.375 14.4458C1.375 14.8255 1.68281 15.1333 2.0625 15.1333H4.19482C4.51581 16.6971 5.90756 17.8833 7.5625 17.8833C9.21744 17.8833 10.6092 16.6971 10.9302 15.1333H19.9375C20.3172 15.1333 20.625 14.8255 20.625 14.4458C20.625 14.0661 20.3172 13.7583 19.9375 13.7583H10.9302C10.6092 12.1945 9.21744 11.0083 7.5625 11.0083ZM7.5625 12.3833C8.70971 12.3833 9.625 13.2986 9.625 14.4458C9.625 15.593 8.70971 16.5083 7.5625 16.5083C6.41529 16.5083 5.5 15.593 5.5 14.4458C5.5 13.2986 6.41529 12.3833 7.5625 12.3833Z" fill="white"/>
</svg>
