<svg xmlns="http://www.w3.org/2000/svg" xmlns:xlink="http://www.w3.org/1999/xlink" width="1489" height="1302" viewBox="0 0 1489 1302">
  <defs>
    <clipPath id="clip-path">
      <rect id="Rectangle_138" data-name="Rectangle 138" width="1489" height="1302" transform="translate(-1 3386)" fill="#fff" stroke="#707070" stroke-width="1"/>
    </clipPath>
    <clipPath id="clip-path-2">
      <rect id="Rectangle_130" data-name="Rectangle 130" width="1816.331" height="1115.841" fill="none"/>
    </clipPath>
  </defs>
  <g id="Mask_Group_3" data-name="Mask Group 3" transform="translate(1 -3386)" clip-path="url(#clip-path)">
    <g id="Group_207" data-name="Group 207" transform="translate(-253.162 3768.057) rotate(-14)">
      <g id="Group_206" data-name="Group 206" clip-path="url(#clip-path-2)">
        <path id="Path_860" data-name="Path 860" d="M718.712,296.966q-128.031-30.073-176.047-74.2Q493.682,178.634,366.131,176.2,237.123,173.78,96.965,255.741q-32.5,19.4-63.536,54.807,263.832-52.384,417.086-21.341Q602.8,320.249,680.4,323.641q132.4,11.64,169.744-12.612-85.356-3.393-131.431-14.063" transform="translate(149.638 788.426)" fill="#5db6b4"/>
        <path id="Path_861" data-name="Path 861" d="M17.577,737.669q29.58-1.939,84.872-27.644,55.292-26.672,217.76-79.05,161.981-53.837,328.332-.969t199.814,63.531q80.017,26.188,144.525,27.157,192.054,1.939,384.59-198.839,94.089-98.935,163.44-210.482,49.952-80.995,129.005-247.343-70.324,138.7-189.146,258.011-123.669,122.7-209.025,177.985-84.872,54.807-218.242,99.91-133.854,44.621-261.893.969A1043.488,1043.488,0,0,0,525.838,549.01q-136.278-9.217-274.987,44.134Q111.665,646.489,17.577,737.669" transform="translate(78.68 286.613)" fill="#5db6b4"/>
        <path id="Path_862" data-name="Path 862" d="M103.53,764.821q-45.59,19.887-72.265,45.59Q-2.677,842.9.23,880.245q147.918-111.06,408.352-123.184,65.962-2.423,216.3,1.457,140.163,3.392,216.3-1.457,224.55-13.579,422.42-104.756,207.087-95.542,343.852-258.5,107.667-128.515,197.875-337.061Q1821.822,18.918,1813.577,0l-96.509,176.052q-43.652,80.017-65.957,113.967-80.51,121.738-207.574,213.4-120.276,86.326-267.227,136.278Q920.241,727,583.665,707.106q-129.977-8.724-133.37-8.729-76.633-3.393-133.37,3.4-99.428,12.609-213.4,63.049" transform="translate(0)" fill="#5db6b4"/>
      </g>
    </g>
  </g>
</svg>
