<svg id="Group_197" data-name="Group 197" xmlns="http://www.w3.org/2000/svg" xmlns:xlink="http://www.w3.org/1999/xlink" width="189.919" height="134.211" viewBox="0 0 189.919 134.211">
  <defs>
    <clipPath id="clip-path">
      <rect id="Rectangle_123" data-name="Rectangle 123" width="189.919" height="134.211" fill="none"/>
    </clipPath>
  </defs>
  <g id="Group_196" data-name="Group 196" clip-path="url(#clip-path)">
    <path id="Path_848" data-name="Path 848" d="M1.073,120.842C-1.219,109.888.007,98.329,6.257,88.776c5.888-9,14.7-15.947,25.416-18.048,11.193-2.195,23.131-.26,32.514,6.457,8.376,6,12.662,14.224,17.971,22.72.485.777,1.016,1.525,1.505,2.3,1.687,2.667-.5-.8-.592-.664-.207.325,2.229,1.9,2.145,2.15.13-.394-2.942-1.974-.891-.773,2.935,1.717-3.658-.88-.219-.212-.2-.04-3.949-.369-1.361-.241,3.091.153-3.555,1.043-.745.055-1.678.59-2.733,1.811-.792.2-4.756,3.957.108-.737.573-.958-1.555.741-1.823,2.731-.817,1.09.5-.821,1.035-1.618,1.515-2.455a98.346,98.346,0,0,0,4.641-9.666c3.431-7.865,7.131-15.268,13.254-21.485A56.64,56.64,0,0,1,125.88,54.274a55.985,55.985,0,0,1,61.869,25.837c4.181,7.187,2.279,17.631-5.336,21.819-7.425,4.084-17.356,2.337-21.819-5.336-.523-.9-1.055-1.786-1.639-2.649-.534-.79-2.383-2.791-.107-.286-1.119-1.232-2.24-2.443-3.477-3.56-.619-.559-1.263-1.075-1.9-1.611,2.664,2.242.569.449-.249-.07-1.778-1.129-3.633-1.975-5.5-2.931-2.137-1.1,3.7.932-.111.013-.805-.194-1.592-.477-2.4-.676s-1.634-.315-2.434-.523c-3.77-.983,2.293-.067-.085-.075-1.834-.006-3.632-.023-5.465.051-2.539.1.62.226.57-.189-.007-.06-3.295.748-3.435.787-.755.209-1.506.442-2.246.7-.166.057-3.732,1.5-1.422.481,1.988-.878-.32.2-.794.454-.866.462-1.716.95-2.548,1.473-.666.419-1.3.873-1.957,1.311-2.5,1.674.085-.237.391-.363-1.566.645-3.508,3.328-4.565,4.574-.391.461-1.692,2.53-.574.666,1.329-2.214-.626,1.126-.72,1.286-.725,1.23-1.364,2.507-1.976,3.8-1.462,3.074-2.747,6.227-4.134,9.333-2.73,6.115-6.04,12.561-11,17.184-7.249,6.76-16.937,10.046-26.767,7.681-9.583-2.306-16.363-9.4-21.351-17.532-1.785-2.911-3.362-5.947-5.189-8.833-.4-.632-.829-1.243-1.232-1.873-1.625-2.537.5.391.548.563-.235-.818-1.557-1.485-2.074-2.14-1.06-1.341,2.5,1.3,0-.069-.85-.467-1.786-.921-2.6-1.437q-1.661-.771,1.214.411-.844-.3-1.713-.525c-.6-.165-2.372-.886-2.917-.636,1.174-.539,2.79.13.074.13-.761,0-2.318-.208-2.973.163l1.719-.268a23.717,23.717,0,0,0-2.3.613c-2.541.538.732.048.4-.3-.247-.26-2.812,1.921-2.956,1.783.345.331,2.235-2.142.521-.342-.135.142-2.244,2.549-2.328,2.542,1.026.088,1.5-2.566.482-.471-.274.567-1.752,2.368-1.594,3.07l.716-1.818q-.285.817-.5,1.655c-.12.447-.886,2.37-.6,2.813l.2-1.952q-.06.861-.039,1.722c.009,1.068.793,5.088-.049,1.065,1.7,8.118-1.91,17.547-10.7,19.755-7.774,1.954-17.938-2.015-19.755-10.7" fill="#ff9f2c"/>
    <path id="Path_849" data-name="Path 849" d="M158.5,15.516A15.517,15.517,0,1,0,174.012,0,15.516,15.516,0,0,0,158.5,15.516" fill="#fc4335"/>
  </g>
</svg>
