<svg xmlns="http://www.w3.org/2000/svg" xmlns:xlink="http://www.w3.org/1999/xlink" width="928.599" height="749.717" viewBox="0 0 928.599 749.717">
  <defs>
    <clipPath id="clip-path">
      <rect id="Rectangle_10" data-name="Rectangle 10" width="809.092" height="680.337" transform="translate(347.9 443.571)" fill="none"/>
    </clipPath>
    <clipPath id="clip-path-2">
      <rect id="Rectangle_9" data-name="Rectangle 9" width="809.795" height="681.239" transform="translate(347.464 442.717)" fill="none"/>
    </clipPath>
  </defs>
  <g id="Group_15" data-name="Group 15" transform="translate(-316.485 -439.829)">
    <g id="Group_13" data-name="Group 13">
      <g id="Group_12" data-name="Group 12" clip-path="url(#clip-path)">
        <g id="Group_11" data-name="Group 11" style="isolation: isolate">
          <g id="Group_10" data-name="Group 10">
            <g id="Group_9" data-name="Group 9" clip-path="url(#clip-path-2)">
              <path id="Path_2" data-name="Path 2" d="M448.377,568.928a49,49,0,0,0-17.869-5.361,73.692,73.692,0,0,0-21.166,1.238,71,71,0,0,0-22.131,8.383,71.81,71.81,0,0,0-19.379,15.4,78.982,78.982,0,0,0-14.159,22.266,73.07,73.07,0,0,0-5.221,27.9,51.657,51.657,0,0,0,2.885,18.143,59.567,59.567,0,0,0,7.148,14.02,60.907,60.907,0,0,0,10.309,10.31,68.15,68.15,0,0,0,11.408,7.421,177.289,177.289,0,0,0,21.168,9.21q11.958,4.4,17.73,8.248a40.052,40.052,0,0,1,12.921,15.116,36.673,36.673,0,0,1,3.162,15.948,30.432,30.432,0,0,1-3.025,14.02,32.353,32.353,0,0,1-7.285,10.032q-11,10.446-22.679,9.761a25.983,25.983,0,0,1-9.759-2.749,19.318,19.318,0,0,1-5.224-4.125,29.306,29.306,0,0,0,5.087-2.749,21.045,21.045,0,0,0,3.847-3.436,23.175,23.175,0,0,0,4.4-7.561,21.7,21.7,0,0,0,1.923-6.322v-2.749a56.15,56.15,0,0,0-.274-6.6,21.193,21.193,0,0,0-1.925-6.045,17.8,17.8,0,0,0-6.6-7.286l-2.888-1.374a24.153,24.153,0,0,0-5.634-1.375,29.19,29.19,0,0,0-8.8.549,34.362,34.362,0,0,0-9.071,3.3,37.976,37.976,0,0,0-9.346,7.423,32.218,32.218,0,0,0-4.811,6.6q-.823,1.652-2.336,4.949A42.864,42.864,0,0,0,347.9,758.06q0,12.367,4.675,20.617a33.237,33.237,0,0,0,12.645,12.784,46.017,46.017,0,0,0,18.28,5.5,66.659,66.659,0,0,0,21.443-1.373,90.607,90.607,0,0,0,21.58-6.872,73.92,73.92,0,0,0,19.655-13.2,76.564,76.564,0,0,0,15.257-20.754q6.048-12.375,7.561-29.691l.273-7.56a60.105,60.105,0,0,0-2.749-18.555,48.089,48.089,0,0,0-8.11-15.258,65.947,65.947,0,0,0-14.293-12.919,87.444,87.444,0,0,0-8.522-4.947q-2.889-1.377-12.233-5.91-6.322-2.891-8.935-4.127-4.536-2.195-8.8-4.534-8.247-4.4-12.094-8.385a28.605,28.605,0,0,1-7.012-9.621,31.126,31.126,0,0,1-2.2-12.372,28.414,28.414,0,0,1,2.2-11.133,30.046,30.046,0,0,1,5.637-8.66,32.442,32.442,0,0,1,7.834-6.182q9.07-4.674,16.769-2.2a18.308,18.308,0,0,1,4.672,2.335,41.06,41.06,0,0,0-3.573,6.874q-5.359,13.879-.413,21.992a15.056,15.056,0,0,0,5.361,5.361,16.613,16.613,0,0,0,7.011,2.749,19.865,19.865,0,0,0,7.284-.277,24.514,24.514,0,0,0,7.7-2.337,32.945,32.945,0,0,0,9.347-5.633,35.176,35.176,0,0,0,7.7-10.449q3.3-6.461,3.3-16.355A30.179,30.179,0,0,0,460.61,580.2a32.234,32.234,0,0,0-12.233-11.271M535.384,739.78a23.02,23.02,0,0,1-5.361,3.434,33.309,33.309,0,0,1-4.536,1.515q-5.775,1.233-9.071-3.026a16.521,16.521,0,0,1-3.437-10.721A25.985,25.985,0,0,1,516,720.812a52.706,52.706,0,0,1,7.285-10.447,234.953,234.953,0,0,1,19.1-19.107,73.464,73.464,0,0,0,5.773-6.184,66.63,66.63,0,0,0,5.361-6.872,109.271,109.271,0,0,1,.962,12.372,66.766,66.766,0,0,1-2.061,19.653,75.16,75.16,0,0,1-3.713,10.033,65.556,65.556,0,0,1-5.634,10.584,44.8,44.8,0,0,1-7.7,8.936M510.23,598.891q-4.538,2.891-7.148,4.811a56.471,56.471,0,0,0-18.143,23.231,37.567,37.567,0,0,0-2.061,7.146,33.577,33.577,0,0,0-.688,6.6,31.059,31.059,0,0,0,1.787,11.409,35.448,35.448,0,0,0,1.787,4.536,31.689,31.689,0,0,0,2.612,3.85,17.591,17.591,0,0,0,6.872,4.81,16.1,16.1,0,0,0,8.383.274,27.734,27.734,0,0,0,10.036-4.122,32.5,32.5,0,0,0,4.673-4.26,20.717,20.717,0,0,0,3.436-5.226,22.449,22.449,0,0,0,2.337-11.406,23.479,23.479,0,0,0-1.375-5.5,15.849,15.849,0,0,0-3.024-4.672,15.206,15.206,0,0,0-5.773-3.848,30,30,0,0,1,7.7-8.8,34.366,34.366,0,0,1,7.287-4.122q7.009-2.884,12.507-1.1,7.7,2.472,11.408,12.37a30.535,30.535,0,0,1,1.1,18.005,25.864,25.864,0,0,1-2.749,6.46q-1.239,2.2-4.949,7.56a91.275,91.275,0,0,1-11.683,13.2,193.464,193.464,0,0,1-16.906,14.02q-11.411,8.522-14.844,11.683-2.062,1.922-2.888,2.749a54.568,54.568,0,0,0-7.834,9.211,66.391,66.391,0,0,0-7.834,14.982,52.3,52.3,0,0,0-2.888,18.142q0,12.232,3.3,19.516a26.3,26.3,0,0,0,8.11,10.859,22.884,22.884,0,0,0,11,4.4,42.635,42.635,0,0,0,11.957-.825,48.81,48.81,0,0,0,20.9-9.346,67.491,67.491,0,0,0,16.356-19.106l2.748,18.83,34.5-9.072-3.161-30.514-.549-81.1a98.4,98.4,0,0,0-2.749-23.641,48.464,48.464,0,0,0-9.347-18.966,34.257,34.257,0,0,0-16.356-11.136q-10.032-3.432-24.054-.685-14.158,2.884-23.779,8.795m91.542,28.317-1.65,48.107a166.879,166.879,0,0,0,2.612,31.2q2.475,13.606,7.973,22.679,5.5,9.207,13.607,12.919a29.984,29.984,0,0,0,10.309,2.614,26.691,26.691,0,0,0,8.8-.826q3.851-1.514,5.774-2.474,2.337-1.1,5.773-3.162a56.035,56.035,0,0,0,10.722-9.485,51.178,51.178,0,0,0,5.358-6.872,52.885,52.885,0,0,0,5.224-8.794L674.9,735.244,713.52,728.1l-2.887-98.966,2.475-69.824-33.952,6.048q2.061,29.828,1.926,54.567-.138,22.131-1.926,33.676-1.1,6.871-3.435,16.769-3.851,14.57-7.561,21.992a41.879,41.879,0,0,1-3.71,6.46,23.373,23.373,0,0,1-4.262,4.949,15.143,15.143,0,0,1-4.26,2.749,13.951,13.951,0,0,1-5.637.272,14.823,14.823,0,0,1-4.536-1.648q-3.985-2.337-6.322-9.209a69.412,69.412,0,0,1-3.3-16.629q-.963-13.2-.826-24.607.138-9.205,1.1-20.2,1.373-14.019,2.886-24.052,2.2-16.083,5.361-32.989l-37.8,3.435q-3.571,22.681-5.085,46.323M453.875,883l.688-50.718,12.233-2.613a473,473,0,0,1,52.369-7.836l-1.651-32.025-23.64,6.048L414.84,810.428q.824,7.562,2.336,20.756,1.375,12.229,2.061,25.017,1.514,29,1.513,53.192.138,30.651-2.612,72.437-1.375,22.4-3.3,40.822l64.189-14.844,42.059-7.973-1.923-30.514.275-3.711a37.91,37.91,0,0,1-4.262,2.063A344.911,344.911,0,0,1,482.6,979.081q-13.884,4.124-27.215,6.872l-1.513-75.322q8.521-1.648,18.143-3.026,13.473-1.922,27.629-3.022l-1.513-29,.412-5.222L453.875,883M625.552,838.88c.182-.182.87-.092,2.061.277a10.639,10.639,0,0,1,2.2.824q1.1.274,3.161.824a10.916,10.916,0,0,0,3.162.552,14.107,14.107,0,0,0,6.735-1.515,19.642,19.642,0,0,0,5.773-4.26,24.087,24.087,0,0,0,6.736-14.707,20.274,20.274,0,0,0-3.85-14.707,17.867,17.867,0,0,0-8.935-6.322,18.692,18.692,0,0,0-10.995-.277,34.109,34.109,0,0,0-14.02,7.975,54.2,54.2,0,0,0-10.446,12.644q-10.311,17.184-15.946,42.745-3.571,16.221-6.733,45.636-2.337,22.817-2.75,38.9L556.276,821.836l-37.936,9.211L535.384,892.9q4.671,16.906,9.9,39.723l13.471,59.789,46.32-9.758q.413-14.019.412-21.029,0-34.637,8.935-79.861,7.56-38.895,11.134-42.884M893.3,468.178a14.43,14.43,0,0,0-5.91-3.574,16.077,16.077,0,0,0-7.285-.276,16.426,16.426,0,0,0-6.874,2.888,20.651,20.651,0,0,0-5.771,5.5,27.044,27.044,0,0,0-4.123,7.423,29.92,29.92,0,0,0-1.926,8.522,22.9,22.9,0,0,0,.825,9.484,19.653,19.653,0,0,0,3.986,7.148,13.256,13.256,0,0,0,6.047,3.985,13.076,13.076,0,0,0,7.561.55,17.327,17.327,0,0,0,7.423-3.161,23.755,23.755,0,0,0,6.184-6.323,29.569,29.569,0,0,0,4.262-8.11,29.892,29.892,0,0,0,1.236-9.348,24.321,24.321,0,0,0-1.649-8.522,18.5,18.5,0,0,0-3.986-6.182M778.4,574.151a20.642,20.642,0,0,1,7.7-6.322,12.807,12.807,0,0,1,11.546,0,18.373,18.373,0,0,1,8.523,8.385l-1.1,82.742q-1.924,13.614-11.271,20.757a29,29,0,0,1-8.933,5.086q-5.911,1.786-9.484-1.513a15.219,15.219,0,0,1-3.3-5.084,69.854,69.854,0,0,1-5.5-22.407q-.824-7.693-.825-23.091,0-9.892.276-15.256A136.606,136.606,0,0,1,767.95,602.6a119.456,119.456,0,0,1,5.5-19.93,30.542,30.542,0,0,1,4.949-8.522m-42.473,8.8a165.679,165.679,0,0,0-5.634,24.742,214.88,214.88,0,0,0-2.062,31.338q0,26.389,3.986,43.571,4.123,16.772,10.309,26.253,6.323,9.209,14.02,11.96a27.941,27.941,0,0,0,10.722,1.787q8.793-.415,17.181-7.011A79.218,79.218,0,0,0,795.3,704.454a80.82,80.82,0,0,0,6.186-8.659,70.7,70.7,0,0,0,6.047-11l-1.1,29.551,34.089-7.421-.962-57.866q0-43.574,1.924-86.734l5.085-87.417-43.022,8.11,2.749,65.289a35.515,35.515,0,0,0-5.222-3.988,39.486,39.486,0,0,0-4.948-2.472,38.021,38.021,0,0,0-8.935-2.614,30.689,30.689,0,0,0-8.658-.135,37.71,37.71,0,0,0-12.1,3.985,58.171,58.171,0,0,0-5.91,3.576q-2.889,2.2-5.636,4.672a58.088,58.088,0,0,0-10.309,13.333,79.106,79.106,0,0,0-8.66,18.28M710.909,803.556a11.368,11.368,0,0,1,7.008,1.239,9.1,9.1,0,0,1,3.025,2.06q3.16,2.75,4.123,8.522a84.076,84.076,0,0,1,.549,11.82,59.1,59.1,0,0,1-.549,7.835,51.255,51.255,0,0,1-1.787,8.11,77.669,77.669,0,0,1-7.421,15.531,99.089,99.089,0,0,1-11.271,14.3,111.208,111.208,0,0,1-14.02,12.505l.825-36.423q.135-7.011.41-10.172a52.192,52.192,0,0,1,1.1-7.833,73.3,73.3,0,0,1,4.673-14.159q5.773-12.233,13.334-13.332m17.454-23.366a45.113,45.113,0,0,0-11.132-.549,48.059,48.059,0,0,0-7.836,1.1,51.534,51.534,0,0,0-13.607,4.534,71.373,71.373,0,0,0-13.471,8.662A80.222,80.222,0,0,0,670.223,807.4a85.264,85.264,0,0,0-9.759,18.694,125.508,125.508,0,0,0-6.872,24.742,188.387,188.387,0,0,0-2.337,31.339,193.614,193.614,0,0,0,2.337,32.3,101.816,101.816,0,0,0,6.872,23.366,53.774,53.774,0,0,0,9.9,15.945A42.655,42.655,0,0,0,682.73,963a38.154,38.154,0,0,0,13.607,3.71,56.33,56.33,0,0,0,14.159-.961A65.489,65.489,0,0,0,730.15,958.6a67.119,67.119,0,0,0,16.083-12.232,61.54,61.54,0,0,0,11-15.531,41.383,41.383,0,0,0,3.986-17.458q0-8.794-2.473-13.606a17.374,17.374,0,0,0-5.91-7.286,16.109,16.109,0,0,0-7.011-2.749q-6.323-.958-13.331,2.614a38.537,38.537,0,0,0-7.287,5.084,31.037,31.037,0,0,0-6.6,8.384,23.61,23.61,0,0,0-2.748,12.1,18.221,18.221,0,0,0,1.235,6.049,16.728,16.728,0,0,0,3.161,4.672,11.428,11.428,0,0,0,2.476,2.062,9.624,9.624,0,0,0,3.437,1.376,20.372,20.372,0,0,1-3.986,5.633,22.108,22.108,0,0,1-4.124,3.162,14.222,14.222,0,0,1-8.248,2.337q-10.033-.687-16.769-20.617a48.591,48.591,0,0,1-2.612-16.22,145.974,145.974,0,0,0,29.416-18.417,136.741,136.741,0,0,0,21.3-21.993,95.654,95.654,0,0,0,13.058-23.5,63.84,63.84,0,0,0,4.4-22.542q0-11.823-3.984-20.207a33.384,33.384,0,0,0-19.244-17.868,63.243,63.243,0,0,0-7.011-1.648m111.612-25.84a40.461,40.461,0,0,0-11.547,4.4,69.541,69.541,0,0,0-15.67,14.57,72.354,72.354,0,0,0-5.085,8.384l.825-12.37-38.625,7.147,1.375,136.076-.823,32.439,33.813-6.047q-1.375-35.877-1.238-64.877.138-25.569,1.511-34.227.69-5.083,2.063-10.857l1.236-4.949a87.027,87.027,0,0,1,3.712-11.958q1.925-5.222,3.161-7.972a43.363,43.363,0,0,1,4.537-7.421,38.961,38.961,0,0,1,3.847-4.949,12.559,12.559,0,0,1,4.4-2.749,12.952,12.952,0,0,1,7.011,0,21.39,21.39,0,0,1,3.3,1.376q3.709,2.2,6.459,9.206a38.73,38.73,0,0,1,2.337,8.8q.414,2.885.688,7.97,1.1,20.068,1.1,24.467-.273,9.761-1.375,24.742-1.51,16.906-2.749,27.353-2.2,16.63-5.5,34.086l34.775-2.749L878.6,899.36q1.788-13.2,2.888-26.117,2.2-24.877,1.923-53.33-.138-8.933-.549-15.118a126.64,126.64,0,0,0-2.063-15.4,68.022,68.022,0,0,0-3.574-13.057,53.978,53.978,0,0,0-4.4-8.521q-5.361-8.8-13.61-12.1a33.729,33.729,0,0,0-19.241-1.373m101.849-16.5.413-30.375-36.15,8.247-.137,29.826-22.542,4.811-1.1,34.5,23.23-4.809-1.374,109.135a23.616,23.616,0,0,0,5.634,17.043,24.21,24.21,0,0,0,15.4,8.248q1.925.138,3.022.137h.276a59.876,59.876,0,0,0,10.859-.961q14.57-2.888,24.6-16.22a55.423,55.423,0,0,0,11.135-27.9,5.887,5.887,0,0,0-2.474-5.5,5.768,5.768,0,0,0-5.909-.824l-1.1.549a5.415,5.415,0,0,0-3.162,3.024,90.13,90.13,0,0,1-6.6,11.82q-5.634,8.248-11.133,11.134-3.987.413-3.986-9.346l.55-107.349,25.43-5.771.548-34.5-25.429,5.084M903.2,522.882l-43.847,9.484,4.26,66.113.962,103.913,33.676-7.835.825-88.655,4.124-83.02m188.719,218.959a49.565,49.565,0,0,0-3.025-17.456,29.576,29.576,0,0,0-8.522-12.919,30.982,30.982,0,0,0-14.982-7.561q-9.207-2.064-21.441.412a71.783,71.783,0,0,0-22.405,8.659,65.819,65.819,0,0,0-17.044,14.57,63.515,63.515,0,0,0-10.72,17.868,51.846,51.846,0,0,0-3.85,19.106,63.98,63.98,0,0,0,2.2,17.318,54.631,54.631,0,0,0,6.6,14.021,60.535,60.535,0,0,0,10.446,12.1,136.476,136.476,0,0,0,10.859,8.659q13.332,9.623,16.356,11.82a31.569,31.569,0,0,1,7.56,8.11,20.45,20.45,0,0,1,3.435,7.421,25.574,25.574,0,0,1,.688,8.385,31.772,31.772,0,0,1-.275,4.672q-.411,1.652-1.238,3.987a23.87,23.87,0,0,1-4.123,6.46,23.558,23.558,0,0,1-4.809,4.811,17.391,17.391,0,0,1-4.536,1.788,16.516,16.516,0,0,1-3.713.412,13.705,13.705,0,0,1-3.572-.412,15.9,15.9,0,0,1-4.262-1.651,28.708,28.708,0,0,0,5.085-6.047,29.6,29.6,0,0,0,2.476-5.5,16.939,16.939,0,0,0,1.1-5.361,21.03,21.03,0,0,0-1.787-10.172,18.9,18.9,0,0,0-4.948-6.6,25.1,25.1,0,0,0-3.023-2.063,17.564,17.564,0,0,0-4.535-1.373,25.382,25.382,0,0,0-7.973-.137,28.645,28.645,0,0,0-12.645,4.672,33.583,33.583,0,0,0-7.561,7.011,29.843,29.843,0,0,0-5.773,19.655,31.736,31.736,0,0,0,3.161,11.546,31.038,31.038,0,0,0,9.759,11.134,42.3,42.3,0,0,0,16.77,7.146,61.506,61.506,0,0,0,31.339-2.2q14.57-4.674,23.917-13.745a55.578,55.578,0,0,0,9.345-11.271,56.752,56.752,0,0,0,6.186-12.232,70.374,70.374,0,0,0,3.3-11.958,60.625,60.625,0,0,0,.962-10.722,42.929,42.929,0,0,0-2.336-13.194,44,44,0,0,0-6.736-11.822,58.593,58.593,0,0,0-11.271-11,154.9,154.9,0,0,0-14.7-9.9q-10.175-6.184-16.083-10.445a26.258,26.258,0,0,1-7.834-8.384,24.806,24.806,0,0,1-3.574-8.385,31.609,31.609,0,0,1-.688-9.895,28.464,28.464,0,0,1,1.513-8.8,25.588,25.588,0,0,1,3.986-7.7,29.051,29.051,0,0,1,12.37-7.7q6.6-1.924,11.547.687a12.887,12.887,0,0,1,5.5,4.949,32.9,32.9,0,0,0-6.185,7.009,34.757,34.757,0,0,0-3.3,6.736q-3.3,10.72,1.1,17.594,4.261,6.461,12.783,7.7,5.912.825,12.92-3.021a27.155,27.155,0,0,0,7.422-5.773,31.917,31.917,0,0,0,6.186-8.936,29.005,29.005,0,0,0,2.612-12.095" fill="#fff"/>
              <path id="Path_3" data-name="Path 3" d="M495.616,1049.385a4.934,4.934,0,0,0-1.706,1.691,8.645,8.645,0,0,0-1.235,2.232,9.659,9.659,0,0,0-.495,2.58,6.214,6.214,0,0,0,.341,2.839,5.356,5.356,0,0,0,1.239,2.084,3.333,3.333,0,0,0,1.862,1.15,3.412,3.412,0,0,0,2.206.133,5.286,5.286,0,0,0,2.275-.968,8.039,8.039,0,0,0,1.79-1.968,7.4,7.4,0,0,0,1.23-2.506,7.781,7.781,0,0,0,.305-2.76,7.082,7.082,0,0,0-.517-2.56,6.605,6.605,0,0,0-1.328-1.9,3.86,3.86,0,0,0-1.765-.97,3.572,3.572,0,0,0-2.112-.043,5.94,5.94,0,0,0-2.09.963" fill="#fff"/>
              <path id="Path_4" data-name="Path 4" d="M539.414,1107.335a5.394,5.394,0,0,0-2.992,1.626,8.3,8.3,0,0,0-1.866,2.8,9.559,9.559,0,0,0-.566,3.317,7.357,7.357,0,0,0,.621,3.2,5.48,5.48,0,0,0,1.792,2.163,4.6,4.6,0,0,0,3.135.573,5.264,5.264,0,0,0,2.27-1.062,7.711,7.711,0,0,0,1.885-1.878,12.883,12.883,0,0,0,1.138-2.5,9.927,9.927,0,0,0,.4-2.762,7.9,7.9,0,0,0-.609-2.556,4.829,4.829,0,0,0-1.235-1.9,3.947,3.947,0,0,0-1.858-.968,3.471,3.471,0,0,0-2.112-.045" fill="#fff"/>
              <path id="Path_5" data-name="Path 5" d="M781.2,988.732l-9.777,2.054,1.342,59.821,9.775-2.056Z" fill="#fff"/>
              <path id="Path_6" data-name="Path 6" d="M513.346,1058.257a6.545,6.545,0,0,0,1.794-1.876,7.382,7.382,0,0,0,1.229-2.506,7.758,7.758,0,0,0,.3-2.76,7.081,7.081,0,0,0-.517-2.56,6.114,6.114,0,0,0-1.236-1.9,3.942,3.942,0,0,0-1.857-.967,3.457,3.457,0,0,0-2.112-.043,5.875,5.875,0,0,0-2.093.871,6.557,6.557,0,0,0-1.705,1.691,10.993,10.993,0,0,0-1.234,2.324,9.611,9.611,0,0,0-.491,2.58,8.783,8.783,0,0,0,.338,2.837,5.335,5.335,0,0,0,1.239,2.086,3.342,3.342,0,0,0,1.862,1.15,4.125,4.125,0,0,0,2.206.133,5.237,5.237,0,0,0,2.272-1.06" fill="#fff"/>
              <path id="Path_7" data-name="Path 7" d="M531.374,1113.024a6.807,6.807,0,0,0-1.236-1.9,3.952,3.952,0,0,0-1.857-.967,3.588,3.588,0,0,0-2.112-.045,4.226,4.226,0,0,0-2.09.965,5,5,0,0,0-1.706,1.691,8.7,8.7,0,0,0-1.235,2.23,9.741,9.741,0,0,0-.494,2.582,6.231,6.231,0,0,0,.34,2.839,5.316,5.316,0,0,0,1.239,2.082,3.343,3.343,0,0,0,1.863,1.152,3.409,3.409,0,0,0,2.205.133,4.427,4.427,0,0,0,2.272-1.06,6.546,6.546,0,0,0,1.794-1.876,7.429,7.429,0,0,0,1.229-2.5,7.771,7.771,0,0,0,.3-2.762,7.1,7.1,0,0,0-.517-2.558" fill="#fff"/>
              <path id="Path_8" data-name="Path 8" d="M503.594,1077.754a10.576,10.576,0,0,1,4.38-1.2l.442,19.726-15.9,3.385a46.283,46.283,0,0,1,.808-4.883q.764-2.77,1.539-5.083.865-2.225,2.187-4.823a26.671,26.671,0,0,1,2.934-4.2,16.231,16.231,0,0,1,3.606-2.925m41.572-20.944-9.866,2.056.705,31.472-16.444,3.582.547-.2-2.1.417-.652-29.086a18.533,18.533,0,0,0-6.549-1.5,19.63,19.63,0,0,0-6.4,1.243,24.838,24.838,0,0,0-5.891,3.345,39.133,39.133,0,0,0-5.209,5.166,44.673,44.673,0,0,0-4.446,6.343,47.834,47.834,0,0,0-3.6,7.239,49.365,49.365,0,0,0-2.4,7.582,54.589,54.589,0,0,0-1.209,7.462l.04,1.835a8.021,8.021,0,0,0,9.811,7.674l54.632-11.69Z" fill="#fff"/>
              <path id="Path_9" data-name="Path 9" d="M595.473,1077.438a54.842,54.842,0,0,0-.973-6.5,34.423,34.423,0,0,0-2.058-5.831,30.571,30.571,0,0,0-2.687-5.262,26.238,26.238,0,0,0-3.412-4.79,18.45,18.45,0,0,0-6.232-3.622l-2.125-.595a21.2,21.2,0,0,0-9.824-.055,31.686,31.686,0,0,0-9.809,4.624l.3,13.4,1.163-1.4,2.069-1.882a17.358,17.358,0,0,1,8.185-3.4,11.394,11.394,0,0,1,4.407-.006,6.555,6.555,0,0,1,1.663.513l.927.437a21.728,21.728,0,0,1,2.245,1.786,14.562,14.562,0,0,1,2.452,2.974,22.884,22.884,0,0,1,1.821,3.449,26.819,26.819,0,0,1,1.375,3.917,25.553,25.553,0,0,1,.649,4.388l-31.336,6.762.259,11.561,41.2-8.91a45.892,45.892,0,0,0,.154-5.419,48.548,48.548,0,0,0-.412-6.14" fill="#fff"/>
              <path id="Path_10" data-name="Path 10" d="M618.511,1052.688a10.229,10.229,0,0,1,3.548-1.457,7.567,7.567,0,0,1,3.121.021q.186.087,1.02.438a5.969,5.969,0,0,1,1.583,1.064,8.281,8.281,0,0,1,1.9,2.711,17.076,17.076,0,0,1,1.1,4.015l.641,4.026q.273,3.941-.886,5.526a5.2,5.2,0,0,1-2.63,1.436,46.184,46.184,0,0,1-5.217.667,14.034,14.034,0,0,1-3.31-.2,5.794,5.794,0,0,1-3.154-1.492,5.289,5.289,0,0,1-1.035-1.167,7.994,7.994,0,0,1-1.077-3.007,13.929,13.929,0,0,1,.147-5.7,12.385,12.385,0,0,1,1.648-4.258l1.163-1.406Zm-9.816-3.82a40.171,40.171,0,0,0-2.828,4.929l-1.038,2.775a26.97,26.97,0,0,0-.8,13.514,20.632,20.632,0,0,0,2.922,7.46,23.951,23.951,0,0,0,2.636,2.879,13.366,13.366,0,0,0,5.662,2.812,17.7,17.7,0,0,0,6.974-.065l1.1-.21a32.991,32.991,0,0,0,4.737-1.665l-3.677,7.974-5.5,8.662,8.394,5.869q1.506-2.327,3.982-6.6l3.163-6.314,4.245-11.2,3.747-.818.092,0,48.141-10.443a9.224,9.224,0,0,0,3.183-1.356l2.334-2.348,2.135,1.054,2.311.775,2.486.311a13.5,13.5,0,0,0,5.57-1.318,11.975,11.975,0,0,0,2.627-1.528,33.277,33.277,0,0,0,4.762-4.6,13.066,13.066,0,0,0,2.144,1.419,18.764,18.764,0,0,0,2.5,1.137,10.172,10.172,0,0,0,2.856.4l2.747-.247a20.254,20.254,0,0,0,3.189-1.081,9.723,9.723,0,0,0,2.986-1.9l2.612-2.262a16.913,16.913,0,0,0,2.232-2.8,4.478,4.478,0,0,0,1.957,1.335,9.775,9.775,0,0,0,2.5.769l2.759.306,2.657-.244,16.628-3.584L762.5,993.648l-9.867,2.148,1.065,47.434-5.115,1.125a6.232,6.232,0,0,1-2.852-.21,8.039,8.039,0,0,1-2.231-1.329l-.943-1.079-.768-1.451a9.063,9.063,0,0,1-.621-3.2l-.5-22.3-9.777,2.054.571,25.415a8.1,8.1,0,0,1-.745,3.689,7.468,7.468,0,0,1-1.962,2.522,5.146,5.146,0,0,1-2.542,1.343,4.8,4.8,0,0,1-2.479-.036,4.68,4.68,0,0,1-2.056-1.7,6.365,6.365,0,0,1-.9-3.466L720.2,1019.2l-9.864,2.148q1.173,19.62.568,25.416a9.673,9.673,0,0,1-1.194,3.972,6.014,6.014,0,0,1-2.326,2.715,4.088,4.088,0,0,1-2,.873l-.915.11a3.988,3.988,0,0,1-2.963-1.127,5.434,5.434,0,0,1-1.235-1.9l-.391-1-.1-.642-.585-26.055-9.681,2.144q.22,18.171.5,22.295a12.681,12.681,0,0,1-.383,3.406,7.672,7.672,0,0,1-1.124,3.146,8.569,8.569,0,0,1-1.785,2.242,8.012,8.012,0,0,1-1.083.85l-1,.3-.455.193-4.384.927q-8.219,2.018-14.159,3.069a14.886,14.886,0,0,1-4.775-.076,7.97,7.97,0,0,1-3.531-1.849A8.347,8.347,0,0,1,655.6,1057a5.856,5.856,0,0,1-.4-1.644l-.037-1.65a18.26,18.26,0,0,1,.554-3.962,10.13,10.13,0,0,1,1.567-3.8,13.673,13.673,0,0,1,2.6-2.721,8.136,8.136,0,0,1,3.087-1.537l1.1-.208,1.1-.024a7.8,7.8,0,0,1,2.208.224,5.177,5.177,0,0,1,1.855.877,5.592,5.592,0,0,1,1.321,1.533l1.321,1.622,5.9-11.059-.851-1.081a12.309,12.309,0,0,0-2.892-2.138,12.854,12.854,0,0,0-3.522-1.48,15.317,15.317,0,0,0-3.679-.286,16.638,16.638,0,0,0-3.938.455,14.132,14.132,0,0,0-3.552,1.181,31.375,31.375,0,0,0-3.631,1.826,38.032,38.032,0,0,0-3.331,2.921l-2.774,3.184-2.21,3.812a33.675,33.675,0,0,0-1.655,3.983l-1,4.612a23.049,23.049,0,0,0-.269,4.322l.577,5.311,1.767,5.1-5.574,1.133-.3-13.578a17.5,17.5,0,0,0-.916-4.017,20.49,20.49,0,0,0-1.454-3.365,16.671,16.671,0,0,0-1.8-2.713,14.075,14.075,0,0,0-2.159-2.154l-1.31-1.073-1.392-.7a12.51,12.51,0,0,0-3.321-.753,24.651,24.651,0,0,0-8.335.92l-3.456,1.365a18.3,18.3,0,0,0-4.608,3.314,21.574,21.574,0,0,0-3.487,4.118" fill="#fff"/>
              <path id="Path_11" data-name="Path 11" d="M828.848,996.934a3.956,3.956,0,0,0-1.858-.968,3.638,3.638,0,0,0-2.112-.045,5.149,5.149,0,0,0-2.09.968,6.484,6.484,0,0,0-1.706,1.689,7.513,7.513,0,0,0-1.143,2.227,10.013,10.013,0,0,0-.586,2.584,6.227,6.227,0,0,0,.34,2.839,5.3,5.3,0,0,0,1.24,2.082,3.34,3.34,0,0,0,1.861,1.152,3.446,3.446,0,0,0,2.206.136,5.328,5.328,0,0,0,2.274-.968,7.742,7.742,0,0,0,1.792-1.97,7.414,7.414,0,0,0,1.229-2.507,9.913,9.913,0,0,0,.4-2.762,7.929,7.929,0,0,0-.609-2.556,7.519,7.519,0,0,0-1.235-1.9" fill="#fff"/>
              <path id="Path_12" data-name="Path 12" d="M840.329,993.189a3.807,3.807,0,0,0-2.2-.043,5.924,5.924,0,0,0-2.093.874,13.81,13.81,0,0,0-1.7,1.691,11.9,11.9,0,0,0-1.142,2.319,9.925,9.925,0,0,0-.584,2.584,8.811,8.811,0,0,0,.338,2.837,5.345,5.345,0,0,0,1.24,2.084,3.357,3.357,0,0,0,1.862,1.153,3.75,3.75,0,0,0,2.3.13,5.179,5.179,0,0,0,2.18-1.06,7.712,7.712,0,0,0,1.885-1.875,12.835,12.835,0,0,0,1.137-2.507,9.958,9.958,0,0,0,.4-2.762,7.97,7.97,0,0,0-.61-2.556,4.865,4.865,0,0,0-1.235-1.9,5.764,5.764,0,0,0-1.765-.97" fill="#fff"/>
              <path id="Path_13" data-name="Path 13" d="M807.115,1002.011q-1.895,1.511-2.972,2.546a19.524,19.524,0,0,0-4.633,6.255,27.072,27.072,0,0,0-1.56,4.073,24.432,24.432,0,0,0-.825,4.149,35.58,35.58,0,0,0-.173,4.594,25.725,25.725,0,0,0,.28,4.308,19.2,19.2,0,0,0,1.1,4.013,27.087,27.087,0,0,0,1.725,3.266,13.671,13.671,0,0,0,4.877,4.665q.558.261,3.059,1.307a19.583,19.583,0,0,0,3.228.663,19.158,19.158,0,0,0,3.574-.264l44.487-9.627-.942-42.111-9.5,2.049.686,30.643-34.988,7.486a7.759,7.759,0,0,1-2.941-.118,3.209,3.209,0,0,1-1.3-.522,5.392,5.392,0,0,1-1.308-.978,4.561,4.561,0,0,1-.852-1.176l-.77-1.543-.5-1.734a10.677,10.677,0,0,1-.231-2.106,27.832,27.832,0,0,1,.548-4.234l1.487-3.247,1.067-1.491,1.445-1.135a11.9,11.9,0,0,1,2.907-1.35l-.257-11.377a28.206,28.206,0,0,0-3.554,1.091,19.963,19.963,0,0,0-3.171,1.9" fill="#fff"/>
              <path id="Path_14" data-name="Path 14" d="M959.7,1018.976a7.267,7.267,0,0,0-2.09.963,10.746,10.746,0,0,0-1.614,1.689,8.751,8.751,0,0,0-1.235,2.232,9.6,9.6,0,0,0-.492,2.582,6.192,6.192,0,0,0,.338,2.837,7.475,7.475,0,0,0,1.15,2.086,5.59,5.59,0,0,0,1.862,1.245,4.294,4.294,0,0,0,2.3.04,5.282,5.282,0,0,0,2.273-.97,7.947,7.947,0,0,0,1.791-1.968,7.4,7.4,0,0,0,1.229-2.506,8.759,8.759,0,0,0,.3-2.76,7.059,7.059,0,0,0-.517-2.558,7.434,7.434,0,0,0-1.327-1.9,4.413,4.413,0,0,0-3.97-1.013" fill="#fff"/>
              <path id="Path_15" data-name="Path 15" d="M978.244,1019.113a6.653,6.653,0,0,0-1.327-1.9,3.837,3.837,0,0,0-1.766-.97,3.477,3.477,0,0,0-2.114-.045,4.2,4.2,0,0,0-2.088.966,4.947,4.947,0,0,0-1.706,1.689,8.662,8.662,0,0,0-1.236,2.229,9.76,9.76,0,0,0-.493,2.584,6.218,6.218,0,0,0,.339,2.837,5.3,5.3,0,0,0,1.241,2.082,3.318,3.318,0,0,0,1.769,1.154,3.722,3.722,0,0,0,2.3.134,5.266,5.266,0,0,0,2.272-1.061,8.593,8.593,0,0,0,1.794-1.875,7.414,7.414,0,0,0,1.229-2.507,7.789,7.789,0,0,0,.3-2.762,7.131,7.131,0,0,0-.517-2.558" fill="#fff"/>
              <path id="Path_16" data-name="Path 16" d="M970.572,967.6,960.8,969.66l.7,31.1-84.747,15.844-1.084-48.352-9.685,2.054,1.344,59.913,125.672-24.656-1.321-58.9-9.865,2.148,1.062,47.436-3.745.82.456-.2-8.313,1.837Z" fill="#fff"/>
              <path id="Path_17" data-name="Path 17" d="M1074.853,926.8a3.788,3.788,0,0,0-2.2-.043,5.953,5.953,0,0,0-2.093.876,10.471,10.471,0,0,0-1.614,1.687,10.934,10.934,0,0,0-1.233,2.322,9.656,9.656,0,0,0-.492,2.582,6.2,6.2,0,0,0,.338,2.839,7.582,7.582,0,0,0,1.148,2.084,4.5,4.5,0,0,0,1.862,1.152,3.766,3.766,0,0,0,2.3.133,5.294,5.294,0,0,0,2.272-1.06,8.622,8.622,0,0,0,1.793-1.878,10.083,10.083,0,0,0,1.229-2.506,9.383,9.383,0,0,0,.306-2.76,7.114,7.114,0,0,0-.517-2.558,6.63,6.63,0,0,0-1.328-1.9,3.874,3.874,0,0,0-1.765-.97" fill="#fff"/>
              <path id="Path_18" data-name="Path 18" d="M1077.007,957.415a6.913,6.913,0,0,1,2.6,1.412,8.023,8.023,0,0,1,1.8,2.62,15.518,15.518,0,0,1,.72,3.472,11.343,11.343,0,0,1-.558,3.775,13.486,13.486,0,0,1-1.575,3.434,12.9,12.9,0,0,1-2.511,2.627,9.176,9.176,0,0,1-3,1.442,6.319,6.319,0,0,1-3.213-.02,5.688,5.688,0,0,1-2.7-1.5,6.9,6.9,0,0,1-1.8-2.62,10.312,10.312,0,0,1-.727-3.747,14.153,14.153,0,0,1,.65-3.779,10.449,10.449,0,0,1,1.671-3.251,8.943,8.943,0,0,1,2.514-2.535,7.668,7.668,0,0,1,3.091-1.354,5.684,5.684,0,0,1,3.028.024m-44.981-4.224a33.771,33.771,0,0,0-3.629,1.919,26.775,26.775,0,0,0-3.33,2.918,33.692,33.692,0,0,0-2.775,3.183l-2.212,3.721a32.318,32.318,0,0,0-1.653,4.078,22.846,22.846,0,0,0-1,4.519,24.571,24.571,0,0,0-.361,4.415l.671,5.309,1.763,5.011-8.586,1.843-1.084-48.352-9.685,2.054,1.345,59.911,13.609-2.968.093,0,38.916-8.4-.183,0,20.554-4.41a22.249,22.249,0,0,0,10.147-6.011,24.692,24.692,0,0,0,2.592-3.086l2.123-3.627A30.716,30.716,0,0,0,1092,966.81a31.472,31.472,0,0,0,.18-4.228,30.15,30.15,0,0,0-.375-4.4,18.882,18.882,0,0,0-3-7.093,14.853,14.853,0,0,0-4.976-4.938,13.349,13.349,0,0,0-4.074-1.56l-2.484-.221a34.528,34.528,0,0,0-3.753.453,30.272,30.272,0,0,0-3.737,1.184,24.865,24.865,0,0,0-3.445,1.915,20.782,20.782,0,0,0-2.969,2.727,28.048,28.048,0,0,0-6.272,10.973,22.378,22.378,0,0,0-.825,4.15,31.9,31.9,0,0,0-.266,4.411,25.082,25.082,0,0,0,.574,5.221,16.443,16.443,0,0,0,1.571,4.554l-19.917,4.208a6.906,6.906,0,0,1-4.683-.079,8.1,8.1,0,0,1-4.579-3.567,9.793,9.793,0,0,1-1.342-6.67,13.9,13.9,0,0,1,2.345-6.019,8.12,8.12,0,0,1,2.6-2.629q4.07-2.846,7.492-1.638a6.929,6.929,0,0,1,2.608,1.685,7.991,7.991,0,0,1,1.8,2.44l6-11.059-.851-1.081a17.1,17.1,0,0,0-2.9-2.23,16.528,16.528,0,0,0-3.519-1.393,24.759,24.759,0,0,0-3.68-.375,20.244,20.244,0,0,0-3.937.455Z" fill="#fff"/>
              <path id="Path_19" data-name="Path 19" d="M1106.765,462.265q-5.5-1.236-13.744,4.535-8.112,6.191-19.381,18.284-11.273,12.51-36.012,55.531-24.881,43.158-81.372,129.612,27.355-33.127,49.482-63.915,22.13-30.375,37.8-48.516,13.607-14.985,35.188-39.725,19.106-21.577,26.389-37.8,7.149-16.491,1.65-18.008" fill="#fff"/>
              <path id="Path_20" data-name="Path 20" d="M1111.851,633.393q22.815-1.236,33.125-3.3,10.175-2.059,11.134-5.223,2.337-4.123-1.511-8.383a18.828,18.828,0,0,0-7.285-4.127q-12.507-5.22-42.472.277-29.966,5.083-69.413,27.354-32.988,17.868-62.953,49.067,38.763-31.338,77.522-42.885,39.175-11.543,61.853-12.781" fill="#fff"/>
              <path id="Path_21" data-name="Path 21" d="M1104.017,572.638q23.781-9.07,35.051-14.981,10.445-5.775,11.132-9.348,1.65-4.811-3.711-7.973a17.327,17.327,0,0,0-8.247-1.648q-14.706-.412-45.771,15.4-31.339,15.944-69.138,52.505-31.886,30.1-57.729,72.16,34.774-45.357,74.5-71.059,39.45-25.431,63.915-35.052" fill="#fff"/>
              <path id="Path_22" data-name="Path 22" d="M936.738,472.161A17.008,17.008,0,0,0,930,467.212q-5.5-2.2-8.523,1.65-2.2,2.064-.412,12.233,2.2,10.033,9.759,31.75,7.423,21.993,11.684,62.265,4.123,40.689-10.034,88.106,17.18-39.585,21.442-76.972,5.361-45.082-1.238-74.772-6.6-29.554-15.944-39.311" fill="#fff"/>
              <path id="Path_23" data-name="Path 23" d="M1008.214,452.507q-2.062-4.947-4.812-7.011-4.809-3.711-8.932-.275-2.889,1.788-4.125,13.746-.963,11.682-.413,37.935.412,26.252-8.246,72.438-8.523,46.734-37.112,96.078,28.866-39.726,44.672-80.82,19.52-49.209,22.129-83.846,2.886-35.052-3.161-48.245" fill="#fff"/>
            </g>
          </g>
        </g>
      </g>
    </g>
    <path id="Path_24" data-name="Path 24" d="M1155.234,459.9l-24.644-9.835,13.947,21.923-20.208,22.288,29.943-6.767,17.18,27.01.8-31.547,26.022-5.549-25.347-10.132.85-27.461Z" fill="#ec8b4a"/>
    <path id="Path_25" data-name="Path 25" d="M1198.334,787.047q-4.485-17.4-14.005-22.541-9.52-5.251-14.553-4.157-5.142.984-6.566,2.735a26.232,26.232,0,0,1,12.365,8.207,37.033,37.033,0,0,1,7.769,12.911q3.829,11.052,2.626,29.981a276.091,276.091,0,0,1-7.55,48.472l-4.924,18.712q-14.005,34.138-11.926,54.052a100.348,100.348,0,0,0,11.926,37.969,88.245,88.245,0,0,0,24.072,29q0-25.167,3.064-41.47a120.5,120.5,0,0,1,11.6-33.482q8.424-16.961,16.631-18.821a23.612,23.612,0,0,1,15.428,1.642q4.158-23.962-13.458-19.8-17.946,4.048-26.371,29.325-8.534,25.165-10.394,30.965.438-9.629,1.313-20.352,1.641-18.054,3.611-29.434a282.356,282.356,0,0,1,14.115-52.849q9.191-25.167,27.792-49.567,1.75-2.407,3.392-4.267-20.679-7.332-32.5,29-12.253,36.437-16.74,62.916a418.288,418.288,0,0,0-5.8,47.269q-1.2,21.445-1.642,40.923a302.992,302.992,0,0,1-7-32.5q-5.47-35.562,1.2-64.886a273.413,273.413,0,0,1,12.692-50q8.206-22.54,3.83-39.938m-12.911-53.725q3.391-9.082-5.471-20.9-.657-.984-20.572-21.337l-3.391,13.459a68.983,68.983,0,0,0-2.079,10.832,49.175,49.175,0,0,0-.329,10.723,27.6,27.6,0,0,0,8.316,16.085,28.429,28.429,0,0,0,14.553,8.426,104.858,104.858,0,0,0,8.973-17.289" fill="#adc880"/>
    <path id="Path_26" data-name="Path 26" d="M329.048,1106.754q4.612,25.367,10.9,42.66a297.33,297.33,0,0,0,11.215,27.776q4.717,9.852,11.844,11.636,7.023,1.779,16.142-.839,8.91-2.412,13-9.644,3.772-7.442-1.886-15.3-5.871-7.967-16.875-5.451-10.9,2.517-16.457,11.321-7.755-12.263-12.473-29.558a184.23,184.23,0,0,1-6.183-30.5l65.194-13.626q4.3,22.953,10.167,38.887a296.985,296.985,0,0,0,11.215,27.774q4.719,9.857,11.844,11.74,7.023,1.677,16.143-.837,8.908-2.517,13-9.749,3.772-7.442-1.886-15.2-5.871-8.073-16.876-5.45-10.062,2.3-15.514,9.853-18.341-32.39-21.8-81.442l-83.747,16.665q1.36,10.167,3.039,19.286" fill="#cd3e5a"/>
    <g id="Group_14" data-name="Group 14">
      <path id="Path_27" data-name="Path 27" d="M316.485,860.643a13.966,13.966,0,1,1,4.09,9.818,13.388,13.388,0,0,1-4.09-9.818" fill="#239cd1"/>
      <path id="Path_28" data-name="Path 28" d="M336.026,952.9l-.177-.177a29.388,29.388,0,0,1,0-41.026l.176-.177a28.918,28.918,0,0,1,20.514-8.345,28.148,28.148,0,0,1,20.6,8.432l.087.089a29.388,29.388,0,0,1,0,41.027l-.087.09a28.154,28.154,0,0,1-20.6,8.43,28.925,28.925,0,0,1-20.514-8.343m39.306-20.691a18.727,18.727,0,0,0-5.476-13.4,18,18,0,0,0-13.316-5.389,18.794,18.794,0,1,0,0,37.586,18.006,18.006,0,0,0,13.317-5.388,18.732,18.732,0,0,0,5.475-13.405" fill="#239cd1"/>
    </g>
    <path id="Path_29" data-name="Path 29" d="M523.635,480.108a191.04,191.04,0,0,1-15.686,27.434,213.267,213.267,0,0,1-13.061,17.074q-5.145,5.917-10.415,5.789a22.157,22.157,0,0,1-11.007-3.661,14.528,14.528,0,0,1-7.151-9.153q-1.189-5.871,4.227-10.227,5.582-4.392,12.715-.549a18.166,18.166,0,0,1,9.224,10.973,77.923,77.923,0,0,0,14.271-18.068,132.259,132.259,0,0,0,10.1-19.922l-42.5-21.872a175.149,175.149,0,0,1-14.457,24.962,213.51,213.51,0,0,1-13.061,17.074q-5.145,5.918-10.436,5.861a23.25,23.25,0,0,1-11.007-3.661,14.8,14.8,0,0,1-7.132-9.226q-1.188-5.868,4.208-10.154,5.6-4.463,12.715-.549a18.184,18.184,0,0,1,8.852,9.778q18.871-18.906,30.63-52.182l54.757,27.517q-2.882,6.774-5.784,12.762" fill="#fa8536"/>
  </g>
</svg>
