<svg width="97" height="30" viewBox="0 0 97 30" fill="none" xmlns="http://www.w3.org/2000/svg">
<path d="M0.00641399 2.44997C-0.0140406 1.14931 1.1905 -0.0147925 2.48369 0.0147937C7.36891 0.0227592 12.2553 0.0136556 17.1405 0.0182073C17.6689 0.089897 18.2007 0.126312 18.7291 0.02276C23.7666 0.0102428 28.8041 0.0216235 33.8416 0.0170717C36.5291 0.029589 39.2166 -0.00796468 41.903 0.0364146C42.4666 0.138828 43.061 0.145656 43.6235 0.0295873C43.8098 0.0238977 43.9962 0.0250367 44.1837 0.0307264C44.8451 0.215071 45.5246 0.0216207 46.1939 0C46.2007 0.0876207 46.2144 0.262862 46.2212 0.35162C46.2348 0.282207 46.261 0.145657 46.2746 0.0762429C46.486 0.0455188 46.6985 0.0182075 46.9121 0.0147937C53.2746 0.0204833 59.636 0.0159338 65.9973 0.0170717C66.4121 0.0386924 66.8246 0.128586 67.2416 0.0887585C67.3939 0.046655 67.5507 0.0227592 67.7098 0.0147937C75.2848 0.0216212 82.8598 0.0136567 90.436 0.0193464C91.1144 0.091036 91.8041 0.163865 92.4837 0.0523473C92.8996 -0.040963 93.311 0.117207 93.7291 0.103552C94.0587 0.113794 94.3905 0.0568993 94.7201 0.102417C95.7837 0.390313 96.586 1.45086 96.5507 2.55807C96.5496 10.5998 96.5485 18.6427 96.5485 26.6845C96.5621 27.992 95.3769 29.1549 94.0746 29.147C63.5405 29.1458 33.0064 29.147 2.47346 29.1458C1.52914 29.1367 0.634823 28.5507 0.23596 27.6972C-0.0640405 27.1442 0.00982325 26.4979 0.00414143 25.8936C0.0052778 18.0794 0.00527763 10.2653 0.00641399 2.44997ZM0.508687 2.673C0.514369 10.601 0.51096 18.5301 0.509823 26.4592C0.493914 27.2273 0.88255 28.0272 1.5871 28.3777C2.13482 28.6963 2.78482 28.5791 3.38823 28.5973C18.8053 28.6008 34.2235 28.5928 49.6416 28.5996C50.1723 28.644 50.7019 28.6258 51.2337 28.5962C65.5166 28.5996 79.7996 28.5951 94.0826 28.5985C95.1416 28.6053 96.061 27.621 96.0337 26.5684C96.0371 24.4177 96.0394 22.267 96.0291 20.1175C96.1041 20.1266 96.2564 20.1448 96.3326 20.1539C96.3269 20.1198 96.3166 20.0515 96.3121 20.0173C96.2451 20.0299 96.1132 20.0526 96.0473 20.064C96.0201 14.1911 96.0462 8.31714 96.0314 2.44314C95.9962 1.74672 95.5462 1.11631 94.9496 0.777209C94.1166 0.36983 93.1621 0.48931 92.2655 0.468827C91.6155 0.439241 90.9735 0.579207 90.3235 0.543931C82.3689 0.538241 74.4144 0.547347 66.4598 0.539382C65.9303 0.485899 65.4007 0.472244 64.8723 0.539382C58.4326 0.547347 51.9928 0.539382 45.553 0.542795C44.4939 0.465416 43.4201 0.408519 42.3632 0.528002C39.6382 0.56214 36.9121 0.532554 34.1871 0.542795C28.6166 0.538244 23.0462 0.549621 17.4757 0.537104C16.7576 0.421035 16.0405 0.571241 15.3212 0.543931C11.1178 0.539379 6.91437 0.545069 2.71096 0.540517C1.53141 0.426724 0.442778 1.49069 0.508687 2.673Z" fill="#686869"/>
<path d="M77.0837 6.06638C77.2633 6.04704 77.4428 6.02883 77.6178 5.97762C77.4917 6.0368 77.2542 6.01859 77.2735 6.21659C77.1212 6.52042 77.6053 6.62169 77.7337 6.84359C77.7531 6.53407 77.7667 6.22342 77.7974 5.91504C77.9156 6.25073 77.8576 6.61145 77.8587 6.95852C78.1917 6.95397 78.5269 6.95056 78.8587 6.9938L78.7746 6.99949C78.4849 7.01997 78.1917 7.01656 77.9042 7.02111C78.0315 7.16221 78.1587 7.30445 78.286 7.44783C77.9462 7.111 77.6065 6.77418 77.2246 6.48742C77.2042 6.67063 77.1849 6.85497 77.1667 7.04045C76.9928 7.03021 76.819 7.02111 76.6462 7.01314C76.6406 7.16221 76.6349 7.31242 76.6303 7.46263C76.811 7.48766 76.9951 7.51383 77.1792 7.54C76.9633 7.54456 76.7496 7.54797 76.536 7.54797C76.5349 7.35338 76.5349 7.1588 76.536 6.96535C76.7224 6.96194 76.9076 6.95852 77.0974 6.95738C77.1235 6.65925 77.0803 6.36338 77.0837 6.06638Z" fill="#686869"/>
<path d="M43.4756 9.79198C43.6756 9.07167 43.8131 8.31608 44.171 7.65381C44.2404 7.91667 44.2972 8.18409 44.3313 8.45491L44.346 8.62446C44.2551 8.44581 44.1722 8.26146 44.087 8.08167C43.8938 8.65405 43.7994 9.27309 43.4756 9.79198Z" fill="#686869"/>
<path d="M68.5055 15.1035C68.5396 15.1058 68.6089 15.1092 68.643 15.1115C68.6385 15.4984 68.6374 15.8864 68.6419 16.2744C68.1464 16.2836 67.651 16.2858 67.1567 16.2881C67.1624 17.2485 67.1544 18.2089 67.1589 19.1705C67.1646 19.4641 67.1703 19.8191 67.4351 20.0091C67.7464 20.2743 68.1749 20.1354 68.5385 20.1013C68.5499 20.5121 68.5714 20.9218 68.5726 21.3337C68.3533 21.3758 68.1328 21.4099 67.9124 21.4395C68.1021 21.3906 68.2908 21.3325 68.4805 21.2757C68.4703 21.0424 68.4612 20.8091 68.451 20.5758C67.7692 20.6737 67.2544 21.1664 66.6101 21.3542C66.3862 21.2757 66.1987 21.1277 66.0078 20.9946C66.4385 20.6646 66.8669 20.3209 67.3703 20.1059C67.2112 19.8601 67.0271 19.604 67.0305 19.2979C67.0021 18.2749 67.0442 17.2508 67.0135 16.2278C67.5101 16.238 68.0078 16.2437 68.5055 16.2494C68.5044 15.8671 68.5044 15.4847 68.5055 15.1035Z" fill="#686869"/>
<path d="M46.7055 16.0166C47.3634 16.8598 47.4566 18.0296 47.2384 19.0469C47.1134 19.8048 46.7214 20.5535 46.0566 20.9689C46.052 20.8972 46.043 20.7549 46.0384 20.6844C46.11 20.6844 46.2532 20.6867 46.3259 20.6867C46.377 20.6184 46.4793 20.4818 46.5316 20.4136C46.3316 20.1985 46.1384 19.9777 45.9736 19.7354C46.2634 19.8207 46.4952 20.0153 46.6998 20.2315C46.7566 20.1029 46.8145 19.9766 46.8725 19.8503C46.7748 19.6898 46.677 19.5283 46.5805 19.3689C46.7589 19.196 46.943 19.0298 47.1361 18.8739C47.4236 17.9044 47.0793 16.9099 46.7055 16.0166ZM46.9202 19.3155C46.7202 19.6398 47.2998 19.3542 46.9202 19.3155V19.3155Z" fill="#686869"/>
<path d="M17.4063 20.8071C18.2824 19.9002 19.7279 19.6385 20.8938 20.0811C22.5881 20.732 23.2665 23.1695 22.0483 24.5577C21.904 24.5441 21.7609 24.5304 21.6165 24.5202L21.6495 24.469C22.1881 23.6793 22.3097 22.5413 21.7506 21.7288C21.1574 20.8037 19.887 20.3906 18.8631 20.7832C18.0813 21.0643 17.5006 21.8654 17.5268 22.7052C17.5165 23.0818 17.6472 23.4403 17.7745 23.7885L17.7824 23.8113C17.5188 23.9011 17.2586 23.9979 17.0018 24.1037L16.9949 24.0855C16.4495 23.0454 16.5813 21.6628 17.4063 20.8071Z" fill="white"/>
<path d="M69.7607 20.0903C70.338 20.2576 70.7698 20.69 71.071 21.1953C70.5028 21.036 70.0448 20.5956 69.7607 20.0903Z" fill="#686869"/>
<path d="M45.2724 20.5761C45.4633 20.4111 45.6838 20.287 45.9281 20.2222C45.7724 20.4543 45.5974 20.6728 45.4201 20.889C45.5201 20.9857 45.6224 21.0813 45.7269 21.1769C45.2008 21.5092 44.5292 21.5763 43.9326 21.4341C44.1417 21.4489 44.3508 21.4568 44.5622 21.4671C44.6042 21.3658 44.6485 21.2645 44.6917 21.1644C44.7508 21.1496 44.869 21.1211 44.9269 21.1063C44.9269 21.1803 44.9258 21.3282 44.9247 21.4022C45.0428 21.3772 45.2803 21.3248 45.3985 21.2986C45.2201 21.0506 45.0338 20.8082 44.844 20.5704C44.986 20.5715 45.1292 20.5738 45.2724 20.5761Z" fill="#686869"/>
<path d="M18.2507 22.3343C18.4962 21.5901 19.3257 21.1361 20.0871 21.2635C20.8882 21.4035 21.4837 22.1454 21.6121 22.9249C21.7041 23.4506 21.4712 23.9502 21.2859 24.4281C21.0905 24.3325 20.8928 24.2392 20.6984 24.1425C20.8598 23.6919 21.0575 23.1901 20.8621 22.7167C20.645 22.0851 19.7734 21.7392 19.2212 22.1591C18.7712 22.4686 18.7053 23.2037 19.1269 23.5644C19.3064 23.6475 19.5053 23.6725 19.6962 23.7215C19.6984 23.4324 19.6962 23.1445 19.6962 22.8578C19.8734 22.8612 20.0519 22.8657 20.2303 22.8714C20.2859 23.0148 20.3405 23.1582 20.3962 23.3027C20.2655 23.4871 20.1325 23.6714 19.9973 23.8535L19.9825 23.8728C19.4621 23.7101 18.9132 23.6964 18.3734 23.7306C18.295 23.272 18.1359 22.7997 18.2507 22.3343Z" fill="white"/>
<path d="M18.2993 7.68879C18.8788 6.03993 20.447 4.75861 22.1993 4.61523C22.4754 6.95823 20.5561 9.45031 18.122 9.41844C18.0834 9.02472 18.0959 8.62986 18.1357 8.23727C18.1947 8.0552 18.2459 7.87199 18.2993 7.68879Z" fill="white"/>
<path d="M51.6267 10.6623C51.6244 8.86441 51.6154 7.06534 51.6313 5.26741C51.8608 5.26741 52.0892 5.26627 52.3199 5.26514C52.3188 7.06421 52.3233 8.86327 52.3199 10.6635C52.0881 10.6612 51.8574 10.6612 51.6267 10.6623Z" fill="white"/>
<path d="M63.681 5.26872C63.9094 5.26986 64.1378 5.26872 64.3674 5.26758C64.3674 6.82996 64.3719 8.39234 64.3674 9.95586C64.3571 10.1721 64.4015 10.3849 64.4594 10.5942C64.2356 10.6716 64.0015 10.6602 63.7742 10.6215C63.7731 10.4577 63.7731 10.295 63.7753 10.1334C63.4253 10.4827 62.9992 10.7649 62.4878 10.7661C61.9356 10.7444 61.4685 10.4053 61.1606 9.96382C61.1651 9.92285 61.1742 9.83979 61.1787 9.79882L61.089 9.78517C61.0537 9.65544 61.0162 9.52571 60.9776 9.39827C60.9344 9.04892 60.9378 8.69616 60.9685 8.34568C61.1049 7.80744 61.4174 7.27717 61.9401 7.03934C62.5196 6.79013 63.3219 6.8641 63.6856 7.43761C63.6776 6.71389 63.6878 5.9913 63.681 5.26872ZM61.914 7.80403C61.6344 8.26489 61.5924 8.79744 61.6401 9.3243L61.7037 9.33113C61.7776 9.8284 62.2492 10.254 62.7674 10.1732C63.1469 10.1925 63.4128 9.89668 63.6162 9.61789C63.7344 9.1172 63.6708 8.5983 63.6708 8.09079L63.6094 8.06689C63.4787 7.64358 63.0106 7.39437 62.5844 7.44785C62.3242 7.48085 62.1185 7.65382 61.914 7.80403Z" fill="white"/>
<path d="M79.4793 5.26757C79.7099 5.26644 79.9418 5.2653 80.1747 5.26416C80.1679 6.00837 80.1849 6.75257 80.1634 7.49678C80.1997 7.46378 80.2724 7.39664 80.3088 7.36364C80.5781 7.07006 80.9611 6.94033 81.3452 6.87775C81.8508 6.91416 82.2974 7.2123 82.5156 7.67316C82.7474 8.65064 82.5895 9.66568 82.6361 10.6602C82.4088 10.6602 82.1827 10.6602 81.9565 10.6636C81.9429 9.8523 81.9531 9.04095 81.9508 8.23075C81.8429 7.92578 81.6929 7.56392 81.3338 7.50133C80.8986 7.38413 80.4872 7.65382 80.2543 8.00544C80.0827 8.87937 80.2168 9.78061 80.1713 10.6659C79.9406 10.6614 79.7099 10.6602 79.4804 10.6602C79.477 8.8623 79.4793 7.06437 79.4793 5.26757Z" fill="white"/>
<path d="M32.7617 5.5951C33.7981 5.50293 34.9276 5.34703 35.8765 5.88528C36.2549 6.06621 36.4901 6.42238 36.7254 6.75352C36.7901 6.96517 36.8549 7.17683 36.8947 7.39645L36.9549 7.40214C36.9504 7.797 37.0117 8.20324 36.8969 8.589C36.8776 8.70621 36.8583 8.82455 36.8401 8.94403C36.781 9.08855 36.7254 9.23421 36.6674 9.37986C36.3685 9.93745 35.8594 10.3619 35.2481 10.5326C34.4481 10.7966 33.5913 10.7226 32.7651 10.6657C32.7617 8.9759 32.7674 7.28493 32.7617 5.5951ZM33.4424 6.114C33.4515 7.45676 33.4481 8.79952 33.4447 10.1423C33.981 10.1457 34.5458 10.2208 35.0538 10C35.5538 9.82024 35.9492 9.40262 36.1151 8.89966L36.1685 8.88828C36.1822 8.655 36.1947 8.42286 36.2015 8.19072L36.2754 8.19528C36.2731 8.08376 36.2685 7.85845 36.2663 7.74579L36.206 7.73897C36.1947 7.52162 36.1833 7.30086 36.0935 7.10059C36.0856 7.07214 36.0674 7.01297 36.0594 6.98452C35.9367 6.82521 35.8106 6.66931 35.6879 6.51114C35.056 6.01386 34.2038 5.98314 33.4424 6.114Z" fill="white"/>
<path d="M77.6178 5.97762L77.7973 5.91504C77.7666 6.22342 77.753 6.53407 77.7337 6.84359C77.6053 6.62169 77.1212 6.52042 77.2735 6.21659C77.2541 6.01859 77.4916 6.0368 77.6178 5.97762Z" fill="white"/>
<path d="M77.2242 6.4873C77.606 6.77406 77.9458 7.11089 78.2856 7.44772C78.1583 7.30434 78.031 7.1621 77.9037 7.02099C78.1912 7.01644 78.4844 7.01986 78.7742 6.99937C78.7719 7.17575 78.7731 7.35327 78.7753 7.52965C78.4674 7.52396 78.1583 7.52396 77.8515 7.52738C77.8208 7.70831 77.7924 7.88924 77.7685 8.07131L77.8606 8.08268C77.8106 8.3171 77.7844 8.55606 77.8253 8.79389C77.8799 9.17851 77.8026 9.57565 77.8958 9.95458C78.0367 10.263 78.4367 10.1196 78.6981 10.156C78.6992 10.3381 78.7015 10.5213 78.7003 10.7056C78.2742 10.6977 77.7492 10.8444 77.4276 10.478C77.1049 10.1617 77.1947 9.67465 77.1128 9.26955C77.1708 9.01124 77.1787 8.74496 77.1208 8.48665C77.106 8.16917 77.1208 7.85168 77.1787 7.53989C76.9947 7.51372 76.8106 7.48755 76.6299 7.46251C76.6344 7.31231 76.6401 7.1621 76.6458 7.01303C76.8185 7.02099 76.9924 7.0301 77.1662 7.04034C77.1844 6.85485 77.2037 6.67051 77.2242 6.4873Z" fill="white"/>
<path d="M39.0801 6.92662C39.7562 6.8242 40.5267 7.09048 40.8573 7.72203C41.2164 8.26824 41.0608 8.95441 41.0539 9.56776L40.9801 9.57459C40.9596 9.644 40.9187 9.78055 40.8994 9.84883C40.5619 10.3928 39.9539 10.7853 39.2994 10.7364C38.513 10.8058 37.7994 10.2039 37.6017 9.46307L37.5573 9.44827C37.5255 9.02838 37.5312 8.60735 37.563 8.18859L37.6164 8.17948C37.8005 7.52062 38.3892 6.98238 39.0801 6.92662ZM38.4596 7.88134C38.4312 7.94052 38.3767 8.05772 38.3494 8.11576C38.1823 8.57093 38.1801 9.07162 38.346 9.52679C38.3755 9.58483 38.4346 9.69976 38.4642 9.75779C38.638 9.94783 38.8414 10.1083 39.0687 10.2312C39.571 10.3029 40.0085 10.04 40.2721 9.62579C40.2767 9.59621 40.2846 9.53817 40.2892 9.50858C40.4585 9.07389 40.4517 8.56524 40.2903 8.13055C40.2858 8.10097 40.2767 8.04293 40.271 8.01335C40.0971 7.79031 39.9164 7.52745 39.621 7.466C39.1926 7.33059 38.7119 7.51721 38.4596 7.88134Z" fill="white"/>
<path d="M48.1927 7.399C48.6836 6.76972 49.6893 6.75606 50.2483 7.30113C50.3597 7.51279 50.4631 7.73013 50.529 7.96227L50.5881 7.96113C50.5893 8.84417 50.5802 9.7272 50.5949 10.6114C50.3677 10.6398 50.1393 10.6603 49.912 10.6774C49.8995 9.98324 49.9086 9.28796 49.9086 8.59382C49.9313 8.26382 49.779 7.96455 49.6597 7.66869C49.1347 7.28406 48.3165 7.52758 48.1699 8.18531L48.1177 8.19668C48.1177 9.01827 48.1211 9.841 48.1154 10.6637C47.8893 10.6614 47.6643 10.6614 47.4393 10.6614C47.4313 9.43362 47.4518 8.20579 47.4268 6.97796C47.6188 6.97568 47.8108 6.97227 48.004 6.96999C48.0097 7.17937 48.0165 7.38875 48.0302 7.59813C48.054 7.5492 48.1018 7.4502 48.1256 7.40127L48.1927 7.399Z" fill="white"/>
<path d="M53.2846 8.05651C53.6699 6.75927 55.571 6.52144 56.3858 7.5342C56.5017 7.77089 56.6119 8.01099 56.7028 8.25906C56.7562 8.61068 56.7471 8.96686 56.7301 9.32189L56.6699 9.32303C56.6449 9.54948 56.5551 9.75772 56.4608 9.96141C56.0835 10.4484 55.4983 10.8012 54.8642 10.7352C54.1869 10.775 53.5869 10.3085 53.296 9.72244C53.1301 9.18875 53.1994 8.62092 53.2312 8.07358L53.2846 8.05651ZM53.9574 8.17599L53.9108 8.1942C53.863 8.63003 53.8528 9.07041 53.9346 9.50396C54.113 9.77137 54.3074 10.0695 54.6278 10.1776C54.8949 10.2857 55.1858 10.1879 55.4505 10.1162C55.6176 9.92841 55.7812 9.73837 55.9324 9.5381C56.0369 9.18534 56.0642 8.82006 56.0471 8.45479C55.9767 8.31255 55.9108 8.16803 55.8437 8.02692C55.8426 7.99506 55.8426 7.93248 55.8415 7.90062C55.6142 7.65482 55.3369 7.40675 54.9778 7.42496C54.5062 7.39082 54.1028 7.74699 53.9574 8.17599Z" fill="white"/>
<path d="M57.5134 7.2908C57.9918 6.86294 58.7225 6.85042 59.318 6.98128C59.7623 7.08142 59.9759 7.4979 60.1316 7.88366C60.1896 8.81449 60.1327 9.74645 60.1714 10.6773C59.8964 10.6579 59.4225 10.7296 59.5566 10.2836C59.1736 10.5464 58.7555 10.8184 58.2657 10.733C57.868 10.7615 57.5964 10.4451 57.3486 10.1857C57.2941 9.84204 57.2259 9.46652 57.4043 9.14562C57.41 9.11718 57.4225 9.06142 57.4282 9.03297C57.9282 8.44125 58.7464 8.30014 59.4816 8.33314C59.4702 8.17497 59.4611 8.0168 59.4532 7.85976L59.4134 7.83245C59.0714 7.1918 58.2191 7.41711 57.6907 7.67201C57.6464 7.57642 57.5577 7.38638 57.5134 7.2908ZM58.1202 9.11945C57.9782 9.33794 57.9657 9.59397 57.9748 9.84659C58.0327 9.93535 58.0907 10.0264 58.1498 10.1174C58.5146 10.2961 59.0089 10.2688 59.2736 9.92966C59.5816 9.62128 59.4702 9.15814 59.4895 8.7667C59.0134 8.79059 58.5282 8.85545 58.1202 9.11945Z" fill="white"/>
<path d="M71.8654 7.56165C72.2347 6.79582 73.4336 6.68203 73.9836 7.30789C74.1245 7.49451 74.2142 7.71413 74.3177 7.92351C74.3722 8.83499 74.3301 9.74875 74.3438 10.6614C74.1154 10.6602 73.8881 10.6614 73.662 10.6625C73.6586 9.9331 73.6676 9.20368 73.6608 8.47313C73.6586 8.04641 73.4381 7.5002 72.9426 7.48768C72.4381 7.39665 72.0176 7.80517 71.8858 8.2592C71.8733 9.06599 71.8904 9.87165 71.8756 10.6773C71.6449 10.6625 71.4154 10.6432 71.187 10.6124C71.1938 9.39941 71.2131 8.18637 71.1699 6.97447C71.3642 6.97334 71.5586 6.9722 71.7529 6.96992C71.7608 7.03251 71.7745 7.15654 71.7824 7.21913C71.8029 7.30447 71.8449 7.4763 71.8654 7.56165Z" fill="white"/>
<path d="M83.7189 7.71189C84.1462 6.93355 85.2303 6.6741 85.9814 7.12017C86.5825 7.51958 86.7087 8.31044 86.6587 8.98068C85.7973 8.97386 84.9359 8.97727 84.0746 8.97727C84.0996 9.3471 84.2132 9.73627 84.5303 9.96272C85.0632 10.3678 85.7837 10.2131 86.3712 10.0276C86.3973 10.1971 86.4223 10.3655 86.4473 10.5362C85.6473 10.8002 84.6325 10.897 83.9598 10.2893C83.2905 9.63044 83.2825 8.49934 83.7189 7.71189ZM84.6928 7.49113C84.4507 7.589 84.328 7.83251 84.1791 8.03051C84.1462 8.1682 84.1144 8.30703 84.0837 8.44699C84.7394 8.44813 85.3962 8.45382 86.053 8.44358C85.9803 8.18755 85.9314 7.91444 85.778 7.69255C85.5189 7.3853 85.0462 7.31817 84.6928 7.49113Z" fill="white"/>
<path d="M41.4746 6.96845C41.7098 6.99918 41.9814 6.91155 42.1951 7.04469C42.2053 7.13117 42.2246 7.303 42.2348 7.38949L42.2962 7.39518C42.3167 7.52945 42.3394 7.66259 42.3644 7.79687C42.4098 7.91066 42.4564 8.02331 42.5064 8.13711C42.5246 8.30666 42.5428 8.47735 42.561 8.65031L42.6235 8.65714C42.6803 8.9439 42.7553 9.22611 42.8132 9.514C42.8576 9.6699 42.8985 9.82693 42.9371 9.98511C42.9757 9.82921 43.0132 9.67331 43.0598 9.52083C43.1326 9.25569 43.211 8.99169 43.3076 8.73452C43.3212 8.66624 43.3485 8.52969 43.3621 8.46142C43.4189 8.31804 43.4723 8.17352 43.5292 8.03128C43.561 7.91862 43.5951 7.80711 43.6314 7.69673C43.6951 7.46914 43.7655 7.24383 43.8223 7.01397C44.0144 7.00942 44.2417 6.90245 44.4189 7.01397C44.5928 7.46004 44.728 7.92204 44.8519 8.38517C44.9064 8.52628 44.9598 8.66852 45.0189 8.80962C45.0269 8.88245 45.0417 9.02697 45.0485 9.0998H45.1394C45.1451 9.25342 45.1519 9.40818 45.1598 9.56407H45.2417C45.2667 9.71087 45.2951 9.86107 45.3257 10.0079C45.3587 9.83262 45.3882 9.65738 45.4155 9.48214C45.5064 9.21245 45.5882 8.93935 45.636 8.65828L45.7053 8.656C45.7144 8.49897 45.7235 8.34307 45.7326 8.18718L45.8292 8.1849C45.8314 8.10411 45.8348 7.94252 45.836 7.86173L45.9257 7.85718C45.9405 7.71494 45.9564 7.57497 45.9746 7.435C46.0201 7.29731 46.061 7.15849 46.0973 7.01852C46.3292 6.98211 46.5644 6.96959 46.8007 6.96504C46.6973 7.33487 46.5621 7.69673 46.4757 8.07111L46.4019 8.08135C46.4007 8.16442 46.3973 8.32828 46.3962 8.41021L46.3019 8.4068C46.2951 8.48645 46.2803 8.64349 46.2723 8.722C46.211 8.86425 46.1553 9.00876 46.0985 9.15328C46.0667 9.2648 46.0337 9.37631 45.9996 9.48783C45.9371 9.68811 45.8701 9.88611 45.8019 10.0841C45.7519 10.2559 45.7144 10.43 45.6848 10.6064C45.4428 10.6622 45.1985 10.6633 44.9576 10.6076C44.9257 10.471 44.8917 10.3356 44.8553 10.2013C44.7939 10.0022 44.7292 9.80417 44.6689 9.60504C44.628 9.49238 44.5882 9.37973 44.5496 9.26707C44.4655 8.99966 44.3712 8.73338 44.3314 8.45459C44.2973 8.18376 44.2405 7.91635 44.1712 7.65349C43.8132 8.31576 43.6757 9.07135 43.4757 9.79166C43.4235 10.0022 43.3507 10.2059 43.2905 10.4152C43.2644 10.4778 43.211 10.603 43.1848 10.6656C42.9417 10.6462 42.528 10.7555 42.4962 10.4005C42.3882 10.0022 42.2382 9.61528 42.161 9.21017L42.1235 9.20563C42.086 9.0759 42.0451 8.94731 42.0007 8.82214C41.9803 8.68786 41.9621 8.55473 41.9462 8.42045L41.8894 8.41476C41.8553 8.28731 41.8201 8.161 41.7837 8.03583C41.7212 7.80255 41.6519 7.57269 41.5837 7.34283C41.5564 7.24952 41.5019 7.06176 41.4746 6.96845Z" fill="white"/>
<path d="M66.977 7.89019C67.4224 6.93091 68.7326 6.62595 69.6031 7.16874C69.994 7.40884 70.1963 7.83443 70.3599 8.24636C70.4292 8.93253 70.3872 9.67788 69.8986 10.2138C69.5167 10.5564 69.0213 10.7885 68.4986 10.7339C67.7542 10.7669 67.0986 10.2127 66.8736 9.52426C66.8486 9.3604 66.8145 9.19767 66.7656 9.04064C66.7463 8.64578 66.8758 8.26684 66.977 7.89019ZM67.5838 8.13939C67.5065 8.51605 67.4849 8.9075 67.5417 9.28984C67.6577 9.8224 68.1565 10.3185 68.7349 10.2229C69.1872 10.1695 69.4383 9.74729 69.6372 9.38543C69.7474 8.95643 69.6974 8.51491 69.5713 8.09729C69.3713 7.75136 69.0679 7.39974 68.627 7.42477C68.1451 7.37698 67.7952 7.75477 67.5838 8.13939Z" fill="white"/>
<path d="M10.6394 11.9915C11.4291 10.6601 12.7462 9.60414 14.2871 9.32421C14.9576 9.26959 15.6542 9.25366 16.2973 9.48238C17.1394 9.72135 17.953 10.1458 18.8462 10.1424C20.0303 10.0479 21.0564 9.26276 22.2632 9.29349C23.3451 9.20473 24.4223 9.58707 25.286 10.2289C25.7212 10.5338 26.0678 10.9435 26.4428 11.3167C25.3951 11.7776 24.653 12.7687 24.3019 13.8407C24.2564 14.0535 24.2189 14.2697 24.153 14.479C24.1439 14.8728 24.1416 15.2665 24.1576 15.6602C24.2155 15.8457 24.2439 16.0369 24.2735 16.2292C24.6485 17.5992 25.6701 18.7395 26.9939 19.2538C26.6553 19.9013 26.3678 20.5749 25.9757 21.194C25.3871 22.1305 24.7598 23.0636 23.9189 23.7941C23.4087 24.2573 22.7405 24.544 22.0485 24.5577C23.2666 23.1694 22.5882 20.732 20.8939 20.0811C19.728 19.6384 18.2826 19.9001 17.4064 20.8071C16.5814 21.6628 16.4496 23.0454 16.9951 24.0855C16.3462 24.3961 15.6167 24.6681 14.8905 24.4917C13.9905 24.3017 13.3064 23.6246 12.7337 22.9464C11.9587 21.9689 11.2996 20.8958 10.8121 19.7465C10.753 19.5975 10.6973 19.4472 10.6382 19.3005C9.97119 17.6004 9.73597 15.7387 9.9746 13.9271C10.0985 13.2523 10.3166 12.598 10.6394 11.9915Z" fill="white"/>
<path d="M59.0396 13.5255C60.2157 12.317 62.1191 12.3682 63.593 12.9326C63.5862 13.3946 63.3566 13.8088 63.2839 14.2583C62.5373 13.9499 61.7032 13.7553 60.9043 13.9579C60.5702 14.0387 60.343 14.3129 60.1407 14.5701C60.1464 14.8705 60.0646 15.229 60.2975 15.4691C60.8157 16.0448 61.6089 16.1962 62.2782 16.5239C62.8884 16.7868 63.4191 17.2226 63.7702 17.7893C63.8589 18.0305 63.9237 18.2809 63.9373 18.5392L64.0032 18.5494C64.0009 18.7736 63.9998 18.9989 64.0021 19.2254L63.935 19.2345C63.893 20.0777 63.2623 20.8071 62.5043 21.128C61.2055 21.697 59.6964 21.5285 58.418 20.9846C58.4316 20.7968 58.4486 20.6091 58.4668 20.4236C58.5248 20.278 58.5805 20.1323 58.6396 19.9889C58.6532 19.8979 58.6793 19.7147 58.6918 19.6236C59.5202 19.9957 60.4498 20.2905 61.3623 20.0993C61.6793 20.0447 61.9384 19.8467 62.1816 19.6487C62.2657 19.3824 62.4759 19.1104 62.3668 18.8225C62.2532 18.1876 61.6225 17.8621 61.0771 17.655C60.1907 17.3432 59.2566 16.9279 58.7498 16.0881C58.6987 15.9743 58.6475 15.8628 58.5964 15.7513C58.5123 15.2699 58.51 14.7738 58.6066 14.2936C58.6589 14.1855 58.7112 14.0774 58.7634 13.9693C58.8532 13.8191 58.9475 13.6734 59.0396 13.5255Z" fill="white"/>
<path d="M35.1882 12.7138C35.8803 12.649 36.5826 12.6478 37.2757 12.7161C37.3087 12.8618 37.3451 13.0063 37.3848 13.1508C37.403 13.21 37.4394 13.3283 37.4576 13.3875C37.7121 14.1328 37.9485 14.885 38.1951 15.6326C38.2644 15.8454 38.3314 16.0593 38.3723 16.2801L38.4087 16.2608C38.4451 16.3973 38.4871 16.5339 38.5326 16.6704C38.5485 16.7307 38.5814 16.8525 38.5973 16.9128C38.6382 17.0266 38.678 17.1427 38.7166 17.2587C38.7951 17.4931 38.8701 17.7276 38.9382 17.9654L38.9803 17.9745C39.0428 18.3136 39.1632 18.6368 39.2746 18.9622C39.4076 19.3719 39.5416 19.7804 39.6689 20.1923C39.7041 20.3016 39.7416 20.4119 39.7803 20.5223C39.8144 20.635 39.8496 20.7476 39.8848 20.8614C39.9416 21.0116 40.0064 21.1596 40.0803 21.3041C39.4746 21.3314 38.8644 21.353 38.2598 21.2904C38.2496 21.2142 38.228 21.0617 38.2178 20.9854C38.1632 20.8296 38.1155 20.6691 38.0735 20.5109C38.0235 20.3755 37.978 20.2401 37.9291 20.1058C37.8212 19.6893 37.6791 19.2842 37.5326 18.8803C36.6394 18.8917 35.7473 18.8769 34.8541 18.8837C34.8235 18.952 34.7621 19.0908 34.7314 19.1591C34.7132 19.2831 34.6939 19.4071 34.6757 19.5323C34.6132 19.6711 34.5541 19.8122 34.4894 19.9499C34.4791 20.0262 34.4587 20.1798 34.4485 20.256L34.3996 20.2594C34.3326 20.619 34.2076 20.9638 34.1076 21.3154C33.5621 21.3291 33.0155 21.3246 32.4712 21.3223C32.5462 21.0549 32.6291 20.7909 32.7019 20.5235C32.753 20.3823 32.8019 20.2401 32.853 20.099C32.9155 19.8964 32.9826 19.6962 33.0473 19.4948C33.0814 19.3696 33.1121 19.2444 33.1416 19.1192L33.1848 19.1147C33.2814 18.6094 33.5166 18.1418 33.6076 17.6354L33.6462 17.6286C33.6837 17.5011 33.7246 17.3759 33.7701 17.2519C33.7826 17.1893 33.8076 17.0641 33.8201 17.0016C33.8644 16.8843 33.9076 16.7671 33.9496 16.6499C33.9985 16.5122 34.0451 16.3734 34.0951 16.2357C34.128 16.114 34.1621 15.9922 34.1996 15.8727C34.2826 15.6121 34.3632 15.3493 34.4485 15.0898C34.5507 14.7769 34.6598 14.4674 34.7439 14.1488C34.7826 14.0361 34.8201 13.9234 34.8564 13.8108C34.9053 13.6686 34.9496 13.5263 34.9996 13.3852C35.0178 13.3203 35.0541 13.1895 35.0712 13.1246C35.1132 12.9881 35.1519 12.8515 35.1882 12.7138ZM36.086 14.2944C36.0314 14.5527 35.9621 14.8088 35.8951 15.0648C35.7791 15.6053 35.5746 16.1208 35.4223 16.6511C35.3871 16.7671 35.3519 16.8821 35.3155 16.9981C35.2746 17.1222 35.2303 17.2462 35.1837 17.3691C35.1701 17.4556 35.1416 17.6297 35.128 17.7173C35.7201 17.6581 36.3189 17.6616 36.9121 17.7037C36.9996 17.6946 37.1735 17.6752 37.261 17.6661C37.2019 17.4419 37.1348 17.22 37.0621 17.0016C36.936 16.6215 36.8132 16.2414 36.7019 15.8579C36.6666 15.7464 36.6326 15.6349 36.6007 15.5234C36.5485 15.38 36.5007 15.2378 36.4485 15.0955C36.3996 14.8304 36.3337 14.5698 36.2701 14.3081C36.2246 14.3047 36.1326 14.2978 36.086 14.2944Z" fill="white"/>
<path d="M65.5767 13.6643C66.0836 13.5584 66.5824 13.423 67.087 13.3047C67.0824 13.9055 67.0892 14.5075 67.0836 15.1083C67.5574 15.1038 68.0313 15.1072 68.5051 15.1038C68.504 15.485 68.504 15.8673 68.5051 16.2497C68.0074 16.244 67.5097 16.2383 67.0131 16.228C67.0438 17.251 67.0017 18.2752 67.0302 19.2982C67.0267 19.6043 67.2108 19.8603 67.3699 20.1061C66.8665 20.3212 66.4381 20.6648 66.0074 20.9948C65.9188 20.8401 65.8313 20.6887 65.7381 20.5385C65.6029 20.2131 65.5711 19.8603 65.579 19.5132C65.5824 18.4333 65.5779 17.3534 65.5824 16.2735C65.2779 16.2667 64.9745 16.2679 64.6711 16.2713C64.6733 15.881 64.6733 15.4918 64.6699 15.1026C64.9642 15.0628 65.3347 15.2153 65.5767 15.0082C65.5904 14.5598 65.5779 14.1126 65.5767 13.6643Z" fill="white"/>
<path d="M42.542 16.0291C43.309 14.7876 45.2613 14.5805 46.3011 15.5853C46.4431 15.7208 46.5715 15.871 46.7056 16.0166C47.0795 16.9099 47.4238 17.9044 47.1363 18.874C46.9431 19.0299 46.759 19.196 46.5806 19.369C46.6772 19.5283 46.7749 19.6899 46.8727 19.8503C46.8147 19.9766 46.7568 20.1029 46.6999 20.2315C46.4954 20.0153 46.2636 19.8207 45.9738 19.7354C46.1386 19.9778 46.3318 20.1985 46.5318 20.4136C46.4795 20.4819 46.3772 20.6184 46.3261 20.6867C46.2534 20.6867 46.1102 20.6844 46.0386 20.6844C46.0431 20.755 46.0522 20.8972 46.0568 20.9689C45.9636 21.0531 45.8374 21.1111 45.7272 21.1771C45.6227 21.0815 45.5204 20.986 45.4204 20.8892C45.5977 20.673 45.7727 20.4545 45.9284 20.2224C45.684 20.2873 45.4636 20.4113 45.2727 20.5763C45.1295 20.574 44.9863 20.5718 44.8443 20.5706C45.034 20.8084 45.2204 21.0508 45.3988 21.2989C45.2806 21.3251 45.0431 21.3774 44.9249 21.4024C44.9261 21.3285 44.9272 21.1805 44.9272 21.1066C44.8693 21.1214 44.7511 21.1498 44.692 21.1646C44.6488 21.2648 44.6045 21.366 44.5624 21.4673C44.3511 21.4571 44.142 21.4491 43.9329 21.4343C43.434 21.3694 43.0386 21.0326 42.6659 20.722C42.6829 21.7575 42.6715 22.7941 42.6738 23.8296C42.5829 23.8205 42.3999 23.8012 42.309 23.7921L42.3147 23.8729C41.9045 23.8752 41.4931 23.8809 41.0829 23.8752C41.0647 20.953 41.1284 18.0285 41.042 15.1063C41.5045 15.1051 41.9681 15.1074 42.4306 15.1051C42.4863 15.4101 42.5272 15.7173 42.542 16.0291ZM42.7329 17.5335L42.6681 17.5289C42.6772 18.0194 42.6772 18.511 42.667 19.0014L42.7306 19.006C42.7681 19.8503 43.7556 20.4887 44.5409 20.1871C44.8727 20.0915 45.1147 19.8332 45.3852 19.6352C45.3681 19.592 45.3352 19.5055 45.3181 19.4623L45.4465 19.4805C45.4852 19.336 45.5306 19.1937 45.5806 19.0549C45.709 18.6509 45.7204 18.2276 45.6886 17.8089C45.6363 17.6473 45.5999 17.4823 45.5715 17.3161L45.4806 17.2865C45.4886 17.2353 45.5034 17.1352 45.5113 17.084L45.3738 17.059C45.3784 17.0157 45.3886 16.9315 45.3931 16.8894C45.1556 16.6152 44.8818 16.3409 44.517 16.2567C43.7045 15.995 42.7727 16.6914 42.7329 17.5335Z" fill="white"/>
<path d="M51.7016 14.9842C52.7561 14.7726 53.8186 15.3586 54.3391 16.2712C54.4095 16.4351 54.4845 16.5978 54.5618 16.7605C54.8243 17.5741 54.7379 18.4503 54.6663 19.2879C54.6391 19.3504 54.5845 19.4768 54.5584 19.5393C54.4663 19.7533 54.3697 19.9661 54.2732 20.1766C53.8709 20.7569 53.3004 21.2406 52.6016 21.4033C51.7368 21.6388 50.7095 21.4078 50.155 20.667C50.1538 21.7378 50.1493 22.8075 50.1572 23.8783C49.6254 23.876 49.0925 23.8726 48.5607 23.8794C48.5561 20.9538 48.5947 18.0282 48.5391 15.1026C48.9993 15.1105 49.4607 15.106 49.922 15.1094C49.9334 15.4087 49.9459 15.7079 49.9584 16.0083C50.4175 15.4986 50.9913 15.0411 51.7016 14.9842ZM50.3845 16.8891C50.3811 16.9187 50.3732 16.9767 50.3697 17.0063C50.3061 17.1247 50.2482 17.2464 50.1959 17.3716C50.1175 17.9337 50.1584 18.5038 50.1652 19.0705C50.2232 19.215 50.2766 19.363 50.3311 19.5109C50.6538 20.0412 51.3118 20.3951 51.93 20.2187C52.3266 20.1242 52.6277 19.8284 52.8811 19.5257C52.8811 19.4938 52.8822 19.4301 52.8834 19.3982C52.9538 19.256 53.0209 19.1115 53.0925 18.9692C53.1459 18.464 53.1516 17.9542 53.0902 17.449C52.8913 16.913 52.5322 16.3509 51.9288 16.2416C51.3311 16.0652 50.7493 16.4408 50.3845 16.8891Z" fill="white"/>
<path d="M69.5995 16.658C70.4427 14.7952 73.1949 14.3878 74.6586 15.7328C74.904 15.9593 75.0859 16.2438 75.254 16.5317C75.3052 16.658 75.3597 16.7843 75.4154 16.9117C75.4677 17.0938 75.5154 17.2793 75.5756 17.4614C75.6074 17.9222 75.612 18.3854 75.5768 18.8474C75.5336 18.9976 75.5006 19.1501 75.4711 19.3048C75.3972 19.4971 75.3177 19.6883 75.237 19.8795C74.5018 21.3394 72.5006 21.8947 71.0711 21.1949C70.7699 20.6897 70.3381 20.2573 69.7608 20.09L69.7404 20.0809C69.629 19.8522 69.5233 19.6212 69.4188 19.3902C69.2699 18.679 69.3108 17.9416 69.3779 17.2235C69.4552 17.0369 69.5302 16.848 69.5995 16.658ZM71.1108 17.1291C71.0722 17.2474 71.0324 17.3658 70.9904 17.483C70.8745 18.2272 70.8858 19.0454 71.3154 19.694C71.6404 20.1605 72.2574 20.4848 72.8211 20.2743C73.3665 20.1082 73.6858 19.5893 73.8711 19.0829C73.8938 18.9191 73.9199 18.7563 73.9506 18.5947C73.9995 18.3398 74.0006 18.0781 73.9529 17.8232C73.9211 17.6594 73.8949 17.4966 73.8733 17.3328C73.7461 17.0267 73.6097 16.7137 73.3734 16.4771C73.0472 16.1687 72.562 16.0503 72.129 16.1618C71.6359 16.2574 71.2881 16.6819 71.1108 17.1291Z" fill="white"/>
<path d="M78.392 16.0619C78.7181 15.2847 79.5556 14.8477 80.3806 14.9444C80.3829 15.4633 80.3783 15.9811 80.3851 16.5C79.8772 16.3612 79.2954 16.4693 78.9147 16.8471C78.5658 17.2249 78.4624 17.7677 78.4658 18.2672C78.4715 19.2868 78.4624 20.3075 78.4715 21.3271C77.9397 21.3214 77.4079 21.3362 76.8772 21.3112C76.8624 19.2424 76.9226 17.1725 76.8408 15.1049C77.301 15.106 77.7613 15.106 78.2226 15.106C78.2329 15.4281 78.2454 15.7501 78.2499 16.0721C78.2851 16.0699 78.3567 16.0642 78.392 16.0619Z" fill="white"/>
<path d="M83.1481 15.0523C84.0992 14.8054 85.2424 14.9658 85.9128 15.7431C86.6253 16.5282 86.7287 17.6582 86.6378 18.671C85.2276 18.6653 83.8185 18.6618 82.4094 18.6732C82.4924 19.2103 82.7469 19.7474 83.2515 20.0046C84.1458 20.4746 85.1969 20.2447 86.1208 19.9932C86.1515 20.2106 86.1799 20.4325 86.2321 20.6487C86.2628 20.8012 86.2924 20.9536 86.3219 21.1084C85.0196 21.5363 83.4924 21.7183 82.2594 20.9935C81.5787 20.6202 81.1946 19.8999 80.9878 19.1785C80.9151 18.6106 80.9003 18.0314 80.9958 17.467C81.0821 17.1552 81.1901 16.8514 81.3094 16.551C81.6992 15.8432 82.3424 15.2344 83.1481 15.0523ZM82.4049 17.533C83.3287 17.5581 84.2526 17.5364 85.1765 17.5444C85.156 17.3612 85.1367 17.178 85.1208 16.9959C84.9321 16.3166 84.189 15.8432 83.5026 16.1004C82.8424 16.2574 82.5742 16.9493 82.4049 17.533Z" fill="white"/>
<path d="M46.9202 19.3154C46.7202 19.6397 47.2998 19.3541 46.9202 19.3154V19.3154Z" fill="white"/>
<path d="M18.8636 20.7833C19.8874 20.3907 21.1579 20.8038 21.7511 21.7289C22.3102 22.5414 22.1886 23.6793 21.6499 24.469C21.559 24.4588 21.3772 24.4383 21.2863 24.4281C21.4715 23.9501 21.7045 23.4506 21.6124 22.9249C21.484 22.1454 20.8886 21.4035 20.0874 21.2635C19.3261 21.136 18.4965 21.5901 18.2511 22.3343C18.1363 22.7997 18.2954 23.2719 18.3738 23.7305C18.1738 23.7499 17.9738 23.7692 17.7749 23.7886C17.6477 23.4404 17.517 23.0819 17.5272 22.7053C17.5011 21.8655 18.0818 21.0644 18.8636 20.7833Z" fill="white"/>
<path d="M66.6099 21.3545C67.2542 21.1668 67.769 20.674 68.4508 20.5762C68.461 20.8094 68.4701 21.0427 68.4803 21.276C68.2905 21.3329 68.1019 21.3909 67.9121 21.4399C67.478 21.5525 67.0349 21.4421 66.6099 21.3545Z" fill="white"/>
<path d="M19.2215 22.1587C19.7738 21.7388 20.6453 22.0848 20.8624 22.7163C21.0578 23.1897 20.8601 23.6915 20.6988 24.1421C20.4669 24.0409 20.2317 23.9464 19.9976 23.8531C20.1328 23.671 20.2658 23.4867 20.3965 23.3023C20.3408 23.1578 20.2863 23.0144 20.2306 22.8711C20.0522 22.8654 19.8738 22.8608 19.6965 22.8574C19.6965 23.1442 19.6988 23.4321 19.6965 23.7211C19.5056 23.6722 19.3067 23.6471 19.1272 23.5641C18.7056 23.2033 18.7715 22.4682 19.2215 22.1587Z" fill="white"/>
</svg>
