<svg width="98" height="30" viewBox="0 0 98 30" fill="none" xmlns="http://www.w3.org/2000/svg">
<path d="M2.08215 0.19544C2.61738 -0.0298707 3.20602 0.00768097 3.77193 0.00312925C33.6969 0.00426718 63.6208 0.00426718 93.5447 0.00312925C94.1878 0.0110948 94.8594 -0.059457 95.4685 0.198853C96.0492 0.419612 96.5219 0.88275 96.7697 1.45172C96.9072 1.77375 97.0696 2.10147 97.0492 2.46334C97.0503 10.5062 97.0492 18.5491 97.0503 26.592C97.0821 27.4113 96.6594 28.2329 95.9651 28.6699C95.4572 29.1069 94.7503 29.1285 94.1162 29.1672C91.7321 29.1205 89.3481 29.1797 86.9628 29.1638C81.3253 29.1603 75.6878 29.1683 70.0515 29.1592C70.0515 29.1228 70.0526 29.0488 70.0526 29.0124C69.9367 28.8952 69.8469 28.7609 69.7833 28.6107C76.0776 28.5936 82.3719 28.6084 88.6662 28.6028C89.3424 28.6096 90.0185 28.5868 90.6946 28.6187C91.3026 28.8338 91.9322 28.4582 92.539 28.6676C93.2958 28.7006 94.0549 28.6858 94.8128 28.6779C95.1117 28.4924 95.4697 28.4252 95.7651 28.2363C96.1969 27.8051 96.5333 27.2259 96.5333 26.6011C96.5367 20.074 96.5344 13.5479 96.5344 7.02189C96.5231 5.5551 96.5594 4.0883 96.5128 2.62151C96.539 2.61241 96.5912 2.5942 96.6174 2.58623C96.6572 2.5942 96.7356 2.61241 96.7742 2.62151C96.7776 2.55323 96.7822 2.48382 96.7878 2.41441C96.7481 2.39847 96.6674 2.36661 96.6265 2.35068C96.4219 2.13789 96.3981 1.81813 96.3026 1.54958C96.0185 1.25372 95.7481 0.927129 95.3685 0.754164C94.8787 0.48675 94.3049 0.565267 93.7708 0.55275C79.3776 0.556164 64.9844 0.551612 50.5924 0.555026C49.7617 0.58575 48.9344 0.444647 48.1072 0.553888C33.3674 0.55275 18.6276 0.555026 3.8867 0.55275C3.46965 0.559578 3.04806 0.528853 2.63329 0.59144C1.84124 0.75644 1.17647 1.43692 1.05261 2.2403C0.99238 2.6181 1.02647 3.00272 1.02079 3.38279C1.02079 11.1207 1.01965 18.8575 1.02079 26.5954C0.999199 27.648 1.92647 28.6175 2.98329 28.6039C15.3344 28.605 27.6822 28.6039 40.0333 28.6039C40.6697 28.6175 41.3117 28.5572 41.9447 28.6585C42.4776 28.7564 43.0037 28.5447 43.539 28.6153C44.3617 28.7609 45.2117 28.6665 46.0447 28.6676C46.3049 28.58 46.5799 28.5902 46.8469 28.646C47.2628 28.7416 47.6765 28.5925 48.0935 28.6005C54.7594 28.6073 61.4265 28.6016 68.0935 28.6039C68.6435 28.6084 69.1981 28.5732 69.7458 28.6494C69.806 28.819 69.8662 28.9885 69.9253 29.1581C60.8696 29.1706 51.8106 29.1615 42.7549 29.1546C29.7276 29.1751 16.6992 29.1546 3.67079 29.1649C3.19465 29.1581 2.70147 29.2093 2.24693 29.034C1.26738 28.7188 0.484426 27.7561 0.506017 26.7058C0.502608 18.6629 0.50829 10.62 0.503744 2.57713C0.442381 1.55185 1.14238 0.566405 2.08215 0.19544Z" fill="#686869"/>
<path d="M38.2515 5.63362C38.2594 5.40831 38.2696 5.183 38.3128 4.95996L38.3219 5.06237C38.356 5.24558 38.3844 5.43106 38.4094 5.61768C38.8333 5.61541 39.2583 5.61427 39.6844 5.61313C39.7276 6.503 39.6981 7.39286 39.706 8.28272C39.889 8.351 40.0719 8.42269 40.256 8.4921C40.3208 7.54079 40.2424 6.58606 40.3071 5.63475C40.3651 7.0401 40.3253 8.44886 40.3481 9.85534C40.181 9.87241 40.0151 9.88151 39.8481 9.88265C39.8503 9.69717 39.7958 9.67668 39.6821 9.81779L39.6174 9.93955C39.6231 8.51031 39.6083 7.0822 39.614 5.6541C39.1594 5.65751 38.7049 5.65979 38.2515 5.63362ZM39.714 8.36579C39.7083 8.59224 39.7037 8.81982 39.6992 9.04627C39.8003 9.02465 39.9026 9.00303 40.0037 8.98141C40.0117 9.22834 39.8287 9.64369 40.1412 9.75975C40.3435 9.70855 40.2356 9.44682 40.2765 9.30003C40.3219 8.89037 39.9401 8.64572 39.714 8.36579Z" fill="#686869"/>
<path d="M44.1035 5.08419C44.2262 5.0603 44.4717 5.0125 44.5944 4.98975L44.574 5.08761C44.524 5.31633 44.4808 5.54506 44.441 5.77492C44.3285 5.54506 44.2285 5.30837 44.1035 5.08419Z" fill="#686869"/>
<path d="M8.73193 4.20988C9.03193 4.06991 9.36943 3.98457 9.69898 4.06081C10.2217 4.17915 10.6433 4.53191 11.1092 4.77657C14.6138 6.79412 18.1081 8.82874 21.6126 10.844C20.5638 11.8852 19.5399 12.9526 18.466 13.9665C15.2342 10.7006 11.9831 7.45526 8.73193 4.20988Z" fill="white"/>
<path d="M7.84766 5.41493C7.96925 5.04169 8.09311 4.62635 8.43743 4.39648C11.1477 7.06948 13.8204 9.78231 16.517 12.4701C17.0727 13.0482 17.6692 13.5876 18.2056 14.1838C18.1886 14.218 18.1556 14.2874 18.1397 14.3215C14.9454 17.5373 11.7272 20.7303 8.5397 23.9518C8.29084 23.7447 8.09311 23.4876 7.94425 23.2008C7.91016 22.9641 7.85788 22.7308 7.84993 22.4919C7.84766 16.7999 7.85107 11.1069 7.84766 5.41493Z" fill="white"/>
<path d="M29.5354 6.08414C30.0059 5.42073 30.7775 4.92459 31.6138 4.97921C32.2945 4.93369 32.9241 5.29897 33.4002 5.75642C33.2491 5.89183 33.1025 6.03179 32.9616 6.17631C32.6979 5.92028 32.39 5.68586 32.007 5.66424C32.0741 5.4981 32.1548 5.33766 32.2366 5.17835C32.0763 5.28076 31.9582 5.423 31.9843 5.62555C31.6741 5.63466 31.3548 5.60962 31.0582 5.72114C30.5866 5.86679 30.2809 6.28328 29.9866 6.6531C29.7673 7.34838 29.7116 8.24848 30.2866 8.79128C30.7502 9.23735 31.4116 9.59807 32.0718 9.42283C32.6082 9.31928 33.0536 8.94831 33.332 8.48745C33.3661 8.30766 33.3911 8.12559 33.4184 7.94466C32.8332 7.93214 32.2491 7.94693 31.665 7.91962C31.6661 7.70342 31.6661 7.48721 31.665 7.271C32.4366 7.27897 33.207 7.27555 33.9786 7.27214C33.9786 7.67611 33.9786 8.08235 33.9036 8.48062C33.615 9.20548 32.957 9.779 32.1809 9.90986C31.2457 10.1181 30.2377 9.74145 29.6525 8.98473C29.5559 8.82314 29.457 8.66269 29.3638 8.49883C29.3127 8.34976 29.265 8.19955 29.2082 8.0539C29.1332 7.54752 29.1411 7.02407 29.3138 6.53817C29.39 6.38797 29.4627 6.23662 29.5354 6.08414Z" fill="white"/>
<path d="M51.0174 6.20924C51.4924 5.47869 52.3026 4.90176 53.2071 4.97914C54.1651 4.90062 55.0799 5.52876 55.4799 6.37879L55.5514 6.40724C55.5514 6.44366 55.5526 6.51535 55.5526 6.55062C55.7469 7.13324 55.7537 7.81259 55.5435 8.39179C55.5424 8.42935 55.5401 8.50559 55.5378 8.54314L55.4117 8.57159C55.4151 8.61255 55.4208 8.69448 55.4242 8.73431C55.0128 9.28279 54.4696 9.77666 53.773 9.90297C52.6424 10.1761 51.4014 9.56045 50.9208 8.50445C50.8753 8.39407 50.8287 8.28597 50.7821 8.17786C50.7355 7.67831 50.7333 7.17421 50.7924 6.67579C50.8264 6.61776 50.8946 6.49941 50.9276 6.44024C50.9503 6.38221 50.9946 6.26614 51.0174 6.20924ZM51.4083 7.18445L51.3492 7.18559C51.3526 7.36538 51.3549 7.54404 51.3571 7.72383C51.4208 7.90704 51.4787 8.09138 51.5492 8.27231C51.5515 8.30304 51.5583 8.36335 51.5617 8.39407C52.031 9.04724 52.8571 9.55931 53.681 9.31693C54.1912 9.21679 54.5321 8.79803 54.8219 8.39976C54.9026 8.17331 54.9844 7.94686 55.0674 7.72041C55.0662 7.519 55.0662 7.31759 55.0662 7.11617C54.8867 6.26386 54.0912 5.55038 53.2094 5.55152C52.2969 5.49235 51.5242 6.32076 51.4083 7.18445Z" fill="white"/>
<path d="M34.8506 9.88813C34.854 8.27568 34.8551 6.66323 34.8506 5.05078C35.7972 5.05306 36.7449 5.05192 37.6926 5.05078C37.6915 5.24309 37.6915 5.43654 37.6938 5.62885C36.9676 5.64137 36.2404 5.64137 35.5142 5.63226C35.5176 6.12726 35.5176 6.62113 35.5142 7.11613C36.1744 7.11157 36.8358 7.11954 37.496 7.1093C37.496 7.31754 37.4949 7.52578 37.4926 7.73402C36.8335 7.71809 36.1733 7.72833 35.5142 7.72492C35.5176 8.22561 35.5154 8.7263 35.5154 9.22699C36.2415 9.22016 36.9676 9.2213 37.6949 9.22585C37.6915 9.43295 37.6904 9.64006 37.6915 9.8483C36.7472 9.93137 35.7972 9.85854 34.8506 9.88813Z" fill="white"/>
<path d="M38.3218 5.06232C39.4422 5.03615 40.5627 5.06346 41.6831 5.04639C41.6831 5.24325 41.6831 5.44011 41.6854 5.63697C41.2252 5.63811 40.7661 5.63925 40.307 5.6347C40.2422 6.58601 40.3206 7.54073 40.2559 8.49204C40.0718 8.42263 39.8888 8.35094 39.7059 8.28266C39.6979 7.3928 39.7275 6.50294 39.6843 5.61308C39.2581 5.61421 38.8331 5.61535 38.4093 5.61763C38.3843 5.43101 38.3559 5.24552 38.3218 5.06232Z" fill="white"/>
<path d="M44.0539 4.99428L44.1039 5.08418C44.2289 5.30835 44.3289 5.54504 44.4414 5.77491C44.4812 5.54504 44.5244 5.31632 44.5744 5.0876L44.5994 4.97949C44.6982 6.60901 44.6221 8.25218 44.6448 9.88625C44.4187 9.88511 44.1925 9.88398 43.9675 9.88398C44.0209 8.60949 43.863 7.32022 44.0721 6.05825L43.9687 6.06053C43.9687 5.86253 43.9675 5.66453 43.9641 5.46653L44.0516 5.49384C44.0516 5.36866 44.0539 5.11946 44.0539 4.99428Z" fill="white"/>
<path d="M45.3306 5.05647C46.4306 5.04395 47.5317 5.05874 48.6317 5.04736C48.6306 5.24423 48.6317 5.43995 48.6328 5.63567C48.1987 5.63681 47.7658 5.63795 47.3328 5.63681C47.3408 7.05581 47.3294 8.47367 47.3385 9.89267C47.0612 9.88243 46.5294 9.99167 46.7487 9.53309C46.7556 9.42954 46.7692 9.22243 46.776 9.12002L46.6874 9.12571C46.7521 8.82416 46.7669 8.51464 46.7749 8.2074L46.5715 8.15619L46.7681 8.11067C46.759 7.3016 46.7567 6.49254 46.7703 5.68347C46.2931 5.60381 45.8078 5.65274 45.3271 5.62429C45.3283 5.43426 45.3306 5.24536 45.3306 5.05647Z" fill="white"/>
<path d="M56.5718 5.05224C56.8172 5.05224 57.065 5.05224 57.3127 5.0511C57.99 6.12645 58.6536 7.2109 59.3172 8.29648C59.415 8.45238 59.515 8.60941 59.6116 8.76759C59.6309 7.52952 59.6184 6.29031 59.6184 5.05224C59.8411 5.05338 60.0661 5.0511 60.2911 5.04883C60.29 6.66241 60.2877 8.27486 60.2922 9.88845C60.0275 9.85317 59.6445 9.99655 59.5013 9.68704C59.1536 9.13741 58.8002 8.59007 58.4615 8.03476C58.1945 7.616 57.924 7.20066 57.6581 6.7819C57.5729 6.63624 57.4888 6.48945 57.407 6.34266C57.3411 6.26528 57.2081 6.10824 57.1411 6.02973C57.1525 7.31559 57.14 8.60259 57.149 9.88845C56.9559 9.88617 56.7638 9.88504 56.5729 9.8839C56.5729 8.27259 56.5763 6.66241 56.5718 5.05224Z" fill="white"/>
<path d="M39.714 8.36572C39.9401 8.64565 40.3219 8.89031 40.2765 9.29996C40.2356 9.44676 40.3435 9.70848 40.1413 9.75969C39.8288 9.64362 40.0117 9.22827 40.0038 8.98134C39.9026 9.00296 39.8004 9.02458 39.6992 9.04621C39.7038 8.81976 39.7083 8.59217 39.714 8.36572Z" fill="white"/>
<path d="M39.6821 9.81772C39.7958 9.67661 39.8503 9.6971 39.848 9.88258C39.8071 9.86665 39.7242 9.83365 39.6821 9.81772Z" fill="white"/>
<path d="M18.6807 14.183C19.7432 13.127 20.7988 12.0653 21.8579 11.0059C23.0136 11.659 24.1829 12.2951 25.2932 13.0211C25.7193 13.4672 25.7375 14.0965 25.6443 14.6723C25.6125 14.7292 25.5488 14.8452 25.517 14.9021C25.325 15.1764 25.0841 15.4142 24.7807 15.561C23.7727 16.1277 22.792 16.7456 21.7636 17.2713C20.7523 16.2267 19.7159 15.2037 18.6807 14.183Z" fill="white"/>
<path d="M31.8286 11.5337C33.4786 10.7565 35.5673 11.0683 36.9071 12.3143C36.9196 12.3507 36.9446 12.4247 36.9571 12.4611C36.6843 12.7843 36.3639 13.0642 36.065 13.3623C35.2002 12.6113 33.9707 12.1925 32.8446 12.5362C31.9025 12.7638 31.1468 13.4659 30.6786 14.2943C30.5548 14.6311 30.4514 14.9748 30.3434 15.3173C30.3286 15.6655 30.3252 16.0149 30.3389 16.3642C30.5127 17.2529 30.9366 18.1132 31.6809 18.6571C33.057 19.6881 35.2525 19.4901 36.3127 18.0904C36.5627 17.6774 36.7139 17.2188 36.7991 16.7443C35.7696 16.7295 34.74 16.7374 33.7116 16.7397C33.7127 16.3016 33.7161 15.8635 33.7127 15.4254C35.1911 15.4311 36.6707 15.4322 38.1491 15.4243C38.3264 16.0649 38.1991 16.7192 38.1014 17.361C38.0491 17.5158 38.0036 17.6728 37.9502 17.8276C37.9446 17.856 37.9321 17.9118 37.9252 17.9402C37.8571 18.0847 37.7923 18.2315 37.7252 18.3761C37.6548 18.4921 37.5843 18.6093 37.515 18.7254C36.9093 19.6062 35.9877 20.3026 34.9252 20.504C33.7389 20.7555 32.4468 20.6064 31.3946 19.9828C30.5684 19.5094 29.8855 18.7937 29.4457 17.9482C29.3673 17.765 29.29 17.5829 29.2127 17.3997C29.173 17.2802 29.1332 17.1607 29.0911 17.0424C28.9514 16.4404 28.9321 15.8225 28.9775 15.2081C29.09 14.7893 29.1764 14.3614 29.3616 13.9654C29.8605 12.8924 30.7411 12.0048 31.8286 11.5337Z" fill="white"/>
<path d="M58.7209 11.4027C59.1788 11.4061 59.6368 11.4072 60.0947 11.4004C60.0902 14.4068 60.0947 17.4132 60.0936 20.4208C59.6345 20.4196 59.1765 20.423 58.7197 20.4139C58.73 17.4098 58.7277 14.4068 58.7209 11.4027Z" fill="white"/>
<path d="M69.2738 20.4144C69.2794 17.4114 69.2817 14.4073 69.2715 11.4043C70.3931 11.4111 71.5147 11.3986 72.6351 11.4088C73.5283 11.4293 74.3953 11.8504 74.9465 12.5582C75.0158 12.6799 75.0885 12.8005 75.1635 12.9223C75.2454 13.1135 75.3238 13.3046 75.4078 13.4958C75.4442 14.0762 75.5169 14.6906 75.284 15.2414C74.9158 16.1882 73.9874 16.8595 72.9931 16.9927C72.2124 17.0575 71.4283 16.9654 70.6499 17.0518C70.6647 18.1727 70.6488 19.2947 70.6613 20.4156C70.1988 20.4224 69.7363 20.4224 69.2738 20.4144ZM70.6522 12.6628C70.6579 13.6802 70.6624 14.6975 70.6499 15.7148C71.3533 15.6909 72.0579 15.7262 72.7613 15.6966C73.3567 15.6636 73.7931 15.1834 74.0453 14.6815C74.1703 14.322 74.1908 13.9442 74.0465 13.5868C73.7999 13.093 73.3294 12.6822 72.7579 12.664C72.0556 12.6537 71.3533 12.664 70.6522 12.6628Z" fill="white"/>
<path d="M76.1866 11.404C76.6434 11.4062 77.1014 11.4074 77.5605 11.4028C77.5593 14.407 77.5514 17.4111 77.5639 20.4141C77.1048 20.4221 76.6468 20.4198 76.1889 20.4198C76.1696 19.481 76.2286 18.5388 76.1548 17.6023C76.2025 17.2632 76.2025 16.9172 76.1548 16.5781C76.1968 16.272 76.1889 15.9614 76.1889 15.653C76.1786 15.5108 76.1786 15.3685 76.1889 15.2263C76.1855 13.9518 76.1934 12.6785 76.1866 11.404Z" fill="white"/>
<path d="M52.3778 15.9957C52.9062 15.0671 53.9346 14.365 55.0289 14.4355C55.6153 14.4139 56.1369 14.7382 56.571 15.1012C56.571 14.9419 56.5721 14.7826 56.5732 14.6244C57.0198 14.6233 57.4653 14.6233 57.9119 14.6244C57.9107 16.4144 57.9107 18.2044 57.913 19.9943C57.9175 20.3949 57.8096 20.7841 57.7937 21.1835L57.7198 21.1846C57.7062 21.336 57.6925 21.4862 57.6789 21.6375L57.6073 21.6557C57.5539 21.7889 57.4971 21.922 57.4471 22.0563C56.5039 23.5515 54.1403 23.6881 52.9391 22.442C52.7096 22.2327 52.5369 21.9732 52.3891 21.7035C52.3335 21.6227 52.2766 21.5442 52.2187 21.4668C52.6357 21.3314 53.0244 21.1254 53.4312 20.9661C53.73 21.9106 54.9221 22.3032 55.7664 21.8458C56.0766 21.7194 56.255 21.4293 56.4278 21.1596C56.5653 20.7283 56.5925 20.2754 56.5744 19.8248C56.1755 20.1923 55.6937 20.5246 55.13 20.5269C53.9721 20.6464 52.8312 19.9557 52.3164 18.9281L52.2789 18.9042C51.9766 18.2419 51.955 17.508 52.0346 16.7956C52.1005 16.65 52.1641 16.5032 52.2323 16.3575C52.2346 16.3268 52.238 16.2653 52.2403 16.2346C52.2744 16.1754 52.3437 16.056 52.3778 15.9957ZM53.4891 16.5714C53.4937 16.6113 53.505 16.6932 53.5107 16.7342L53.3925 16.741C53.3812 16.8969 53.371 17.0528 53.3619 17.2098L53.2846 17.2087C53.2812 17.3987 53.2766 17.5899 53.2732 17.7811L53.3425 17.7742C53.3244 18.1623 53.53 18.4911 53.7357 18.8007C54.1778 19.274 54.8607 19.5028 55.4891 19.3048C55.9482 19.1716 56.2596 18.7824 56.5028 18.3933C56.5494 18.1896 56.5732 17.9813 56.5982 17.7742L56.6653 17.7788C56.663 17.5876 56.6619 17.3964 56.6607 17.2053L56.5937 17.2098C56.5721 17.0278 56.5494 16.8457 56.4835 16.675C56.4721 16.6488 56.4494 16.5965 56.4369 16.5714C56.405 16.5111 56.3391 16.3905 56.3062 16.3313C55.9857 15.9592 55.5425 15.6349 55.0266 15.677C54.3744 15.6167 53.846 16.0764 53.4891 16.5714Z" fill="white"/>
<path d="M61.1606 16.0503C61.7538 14.7212 63.5106 14.0988 64.8117 14.7383C65.4504 15.0239 65.8913 15.6065 66.2004 16.2165C66.2197 16.2768 66.2572 16.3985 66.2754 16.4589C66.339 16.551 66.4038 16.6421 66.4697 16.7331C66.0674 17.0267 65.5765 17.1507 65.1299 17.359C64.197 17.7732 63.2311 18.118 62.3197 18.5788C62.5924 18.9065 62.8731 19.2866 63.3151 19.3822C64.0333 19.5995 64.8697 19.3185 65.2651 18.6699C65.3151 18.6664 65.4129 18.6585 65.4629 18.6551C65.7549 18.8883 66.0583 19.108 66.372 19.3128C65.8367 20.1981 64.7981 20.7147 63.7765 20.7022C62.8947 20.6715 62.0061 20.2732 61.4697 19.5586C61.2401 19.2786 61.0958 18.9452 60.9401 18.6221C60.8038 17.8585 60.7845 17.0472 61.0117 16.2984L61.1061 16.2825C61.1015 16.2335 61.0913 16.1345 61.0867 16.0845L61.1606 16.0503ZM62.3151 16.5874C62.2549 16.7331 62.1981 16.8776 62.139 17.0221C62.1333 17.161 62.1288 17.2986 62.1254 17.4375C63.0481 17.0187 63.9981 16.6625 64.9186 16.2392C64.8833 16.2256 64.814 16.1983 64.7788 16.1835C64.5254 15.9001 64.1754 15.676 63.7845 15.6771C63.164 15.6327 62.6038 16.0651 62.3151 16.5874Z" fill="white"/>
<path d="M78.4385 15.7952C78.7555 15.0203 79.5464 14.5481 80.3544 14.4548C80.9828 14.4047 81.643 14.4161 82.2158 14.7165C82.8555 14.993 83.3135 15.5711 83.576 16.2038C83.7942 16.8387 83.7067 17.5124 83.7214 18.1701C83.7226 18.9177 83.7169 19.6665 83.7271 20.4141C83.2976 20.4209 82.8669 20.4198 82.4373 20.4198C82.4396 20.1558 82.4396 19.8929 82.4396 19.6301C82.0498 20.0659 81.5692 20.5063 80.9498 20.5199C79.9976 20.6576 78.9544 20.207 78.5408 19.3092C78.493 19.1556 78.4442 19.0008 78.3953 18.8483C78.3294 18.2839 78.4873 17.6797 78.9044 17.2791C79.6283 16.5645 80.7362 16.3858 81.7067 16.5656C81.5692 16.998 81.168 17.2302 80.8623 17.5317C80.5953 17.8003 80.1589 17.7593 79.8896 18.029C79.5521 18.2839 79.5112 18.8973 79.893 19.1283C80.3635 19.4662 81.0498 19.4435 81.5226 19.1203C81.9362 18.8677 82.1703 18.4057 82.2748 17.9459C81.7953 17.765 81.2953 17.6387 80.7794 17.6398C81.2101 17.394 81.5214 16.9946 81.8373 16.6214C82.0101 16.643 82.2305 16.9184 82.3851 16.7352C82.243 16.4666 82.1328 16.1594 81.8737 15.9785C81.2248 15.4823 80.1192 15.554 79.6851 16.305C79.2703 16.1309 78.8521 15.9671 78.4385 15.7952Z" fill="white"/>
<path d="M8.79102 24.1023C12.0047 20.8683 15.2285 17.6456 18.4524 14.4219C19.4808 15.4312 20.4967 16.4542 21.5092 17.4795C21.3206 17.5762 21.1274 17.6707 20.9183 17.7139C20.8717 17.8129 20.7978 17.8846 20.6967 17.929C17.3535 19.843 14.0285 21.7877 10.6899 23.7085C10.4331 23.853 10.1887 24.0237 9.91261 24.1262C9.54556 24.2252 9.15579 24.1899 8.79102 24.1023Z" fill="white"/>
<path d="M40.617 14.6643C41.975 14.1659 43.6523 14.7223 44.3784 15.9945C44.4977 16.2745 44.6284 16.5532 44.6659 16.8593L44.725 16.8628C44.75 17.3396 44.7636 17.8186 44.7193 18.2954C44.6636 18.4399 44.6079 18.5856 44.5591 18.7324C44.4704 18.9395 44.375 19.1432 44.2727 19.3435C43.8443 19.9261 43.2477 20.3983 42.5375 20.5747C41.3034 20.9548 39.8966 20.4563 39.1329 19.4242C39.0466 19.274 38.9579 19.1272 38.8682 18.9805C38.8057 18.8086 38.7398 18.6379 38.683 18.4661L38.6284 18.4559C38.5841 17.8892 38.5841 17.3202 38.625 16.7535L38.6784 16.7433C38.717 16.6101 38.7557 16.4781 38.7966 16.345C38.8227 16.2892 38.8761 16.1777 38.9034 16.122C39.2625 15.4415 39.8784 14.8953 40.617 14.6643ZM39.9807 17.0221C39.9466 17.4579 39.942 17.9028 40.0909 18.3205C40.3852 18.8894 40.9409 19.3969 41.6182 19.3662C42.25 19.4197 42.8091 19.0169 43.15 18.5162L43.1682 18.4058C43.3682 17.9961 43.4091 17.5421 43.3693 17.0938L43.3091 17.0949C43.2364 16.2756 42.4398 15.6122 41.6227 15.677C40.8318 15.6509 40.2125 16.3154 39.9807 17.0221Z" fill="white"/>
<path d="M45.6239 16.0295C46.4978 14.3955 48.9023 13.9949 50.3137 15.1522C50.5591 15.3673 50.7807 15.6085 50.9773 15.8702C51.0069 15.926 51.0659 16.0375 51.0944 16.0921C51.2614 16.4403 51.3807 16.8113 51.3659 17.2028L51.4364 17.1982C51.4387 17.4679 51.4364 17.7376 51.4319 18.0084L51.3648 17.9982C51.3694 18.3339 51.283 18.6582 51.1455 18.962C50.4671 20.4766 48.4864 21.1218 47.0159 20.4083C46.4125 20.1295 45.8989 19.6379 45.5955 19.0462L45.5194 19.0086C45.525 18.9597 45.5364 18.8641 45.5421 18.8163L45.4046 18.7833C45.4171 18.7321 45.4409 18.632 45.4534 18.5808L45.333 18.566C45.3125 18.3009 45.2932 18.0346 45.2853 17.7694L45.2012 17.7683C45.3069 17.3973 45.3023 17.0104 45.3273 16.6292L45.383 16.6201C45.458 16.421 45.5398 16.2253 45.6239 16.0295ZM46.9239 16.4335C46.8603 16.561 46.7932 16.6861 46.7239 16.8102C46.625 17.2369 46.65 17.6773 46.6739 18.1108L46.7478 18.1199C46.7762 18.2451 46.808 18.3714 46.8409 18.4966C46.95 18.624 47.0569 18.7538 47.1591 18.888C47.4603 19.1372 47.8103 19.3728 48.2182 19.3637C49.1125 19.4638 49.9989 18.665 50.0023 17.7683L50.0853 17.7672C50.0569 17.3962 50.0125 17.0207 49.8739 16.6725L49.8659 16.5689C49.5409 16.0944 49.0455 15.6688 48.4409 15.6779C47.8375 15.6119 47.2659 15.9533 46.9239 16.4335Z" fill="white"/>
<path d="M83.6494 14.6278C84.121 14.6221 84.5937 14.6255 85.0676 14.6209C85.2142 14.9623 85.354 15.3071 85.4983 15.6508C85.6778 16.1116 85.8619 16.5702 86.0585 17.0242C86.2381 17.5101 86.4596 17.9801 86.6233 18.4728C86.6517 18.4751 86.7108 18.4808 86.7392 18.4842C87.229 17.1904 87.7165 15.8954 88.246 14.6187C88.7256 14.6278 89.2051 14.6221 89.6858 14.6243C89.1528 15.8783 88.6028 17.1232 88.0733 18.3784C87.813 18.9576 87.5699 19.5425 87.3153 20.124C87.2006 20.3868 87.0858 20.6497 86.979 20.916C86.8471 21.2095 86.7153 21.5031 86.5937 21.8013C86.4006 22.2348 86.2085 22.6695 86.0415 23.1133C85.5619 23.1349 85.0812 23.1235 84.6017 23.1247C84.8415 22.6991 85.0346 22.2496 85.2221 21.799C85.3994 21.4337 85.5585 21.0616 85.7335 20.6952C85.8267 20.4688 85.929 20.2446 86.0006 20.0102C85.9256 19.8964 85.8551 19.7826 85.7869 19.6677C85.7017 19.4253 85.5949 19.192 85.4949 18.9576C85.104 18.0575 84.7119 17.1585 84.3256 16.2573C84.0903 15.7179 83.8358 15.1865 83.6494 14.6278Z" fill="white"/>
</svg>
