<svg xmlns="http://www.w3.org/2000/svg" xmlns:xlink="http://www.w3.org/1999/xlink" width="333" height="789" viewBox="0 0 333 789">
  <defs>
    <clipPath id="clip-path">
      <rect id="Rectangle_140" data-name="Rectangle 140" width="333" height="789" transform="translate(16646 -1619)" fill="#fff"/>
    </clipPath>
  </defs>
  <g id="Mask_Group_3" data-name="Mask Group 3" transform="translate(-16646 1619)" clip-path="url(#clip-path)">
    <g id="Group_224" data-name="Group 224" transform="translate(0 -4)">
      <path id="Path_1045" data-name="Path 1045" d="M773.1,300.315l12.241-1.547Q754.913,173.182,647.885,87.156l-.042.393Q518.014-15.352,354.657,2.69,190.867,21.09,87.208,150.44,54.8,190.966,34.986,234.4q-3.141,6.921-6.191,13.049l.359.441Q-8.951,339.365,2.747,443.669a13.244,13.244,0,0,0,.067,3.23,185.456,185.456,0,0,1,27.048,3.217,11.669,11.669,0,0,0-.343-4.465,6.312,6.312,0,0,1,1.473,1.358q-2.111-10.689-2.552-10.332-9.51-94.41,23.936-175.9l131.6,58.79q-17.2,45.324-12.9,96.911-1.435,9.922,2.2,17.545a161.764,161.764,0,0,0,5.944,28,95.434,95.434,0,0,1,14.523-4.123A232.9,232.9,0,0,1,188,431.933a48.34,48.34,0,0,0-1.765-17.9q-3.6-46.683,11.948-87.751l47.7,21.472a152.545,152.545,0,0,0-8.191,55.522q4.72,35.93,7.981,47.144,5.215.14,10.8.719-3.938-12.491-7.915-43.913a140.21,140.21,0,0,1,6.874-54.449l96.992,43.106q8.349,4.9,15.146,9.227,34.555,20.1,62.291-10.431,2.852-4.132,6.092-8.224l90.548-69.108a141.865,141.865,0,0,1,21.495,56.6q1.2,7.78,2.49,14.76l11.551,1.2q-1.417-13.441-3.08-16.835a164.529,164.529,0,0,0-24.141-62.109l41.971-31.874q26.588,38.605,33.926,88.094-.017,4.024.363,8.094l16.332,1.7q-1.012-5.747-1.982-11.886-7.367-53.115-37.2-95.28L703.264,181.91q39.083,53.991,56.311,120.619,6.981-1.286,13.52-2.214M344.5,30.631l16.049,143.815q-48.733,7.813-87.611,33.168L192.309,88.489l.083-.8Q259.527,42.327,344.5,30.631M377.7,172.2,361.606,28.784q93.658-9.991,175.984,23.137l-.441.358-54.172,133.7Q434.227,166.808,377.7,172.2m254.325-64.152-.441.358A375.424,375.424,0,0,1,692.2,168.275L578.027,255.46a225.527,225.527,0,0,0-35.891-34.34l-.393-.04a200.028,200.028,0,0,0-43.455-27.474L553.346,59.2q40.333,18.691,78.676,48.853M379,186.835q52.863-4.972,98.067,13.424L457.1,248.917q-33.668-13.163-72.217-10.331L379,186.835M267.349,230.39l30.117,43.4A232.6,232.6,0,0,0,272.7,299a160.007,160.007,0,0,0-19.585,33.4l-48.452-21.953a223.864,223.864,0,0,1,27.2-44.688l.042-.4a237.876,237.876,0,0,1,35.449-34.969m-5,106.192a155.621,155.621,0,0,1,18.492-30.7l.839-.316A136.256,136.256,0,0,1,303.765,282.9L373.85,387.24,262.344,336.582M220.337,256.5a245.669,245.669,0,0,0-29.921,47.629L59.3,244.585a387.774,387.774,0,0,1,48.412-78.319l.4.042a365.261,365.261,0,0,1,69.9-68.034l80.942,119.964A200.032,200.032,0,0,0,220.337,256.5m312.194-24.3-.042.4A217.945,217.945,0,0,1,565.8,264.654l-41.578,31.92a204.629,204.629,0,0,0-23.778-23.013,147.727,147.727,0,0,0-27.15-17.724l19.921-48.265A188.059,188.059,0,0,1,532.531,232.2m-63.5,33.665a203.242,203.242,0,0,1,24.924,15.878l-.042.4a140.773,140.773,0,0,1,21.917,21.607l-89.309,68.834,42.51-106.718M368.1,241.269q-31.667,6.374-56.283,22.335l-30.556-43.045A194.825,194.825,0,0,1,362.2,189.516l5.895,51.753m-50.382,31.408a148.121,148.121,0,0,1,51.3-20.841L382.34,367.584l-64.625-94.908m84.354,114.276L386.554,249.635q35.764-3.128,66.721,8.952L402.069,386.952" transform="matrix(0.259, -0.966, 0.966, 0.259, 16557.254, -937.517)" fill="#5db6b4"/>
      <path id="Path_1046" data-name="Path 1046" d="M773.1,300.315l12.241-1.547Q754.913,173.182,647.885,87.156l-.042.393Q518.014-15.352,354.657,2.69,190.867,21.09,87.208,150.44,54.8,190.966,34.986,234.4q-3.141,6.921-6.191,13.049l.359.441Q-8.951,339.365,2.747,443.669a13.244,13.244,0,0,0,.067,3.23,185.456,185.456,0,0,1,27.048,3.217,11.669,11.669,0,0,0-.343-4.465,6.312,6.312,0,0,1,1.473,1.358q-2.111-10.689-2.552-10.332-9.51-94.41,23.936-175.9l131.6,58.79q-17.2,45.324-12.9,96.911-1.435,9.922,2.2,17.545a161.764,161.764,0,0,0,5.944,28,95.434,95.434,0,0,1,14.523-4.123A232.9,232.9,0,0,1,188,431.933a48.34,48.34,0,0,0-1.765-17.9q-3.6-46.683,11.948-87.751l47.7,21.472a152.545,152.545,0,0,0-8.191,55.522q4.72,35.93,7.981,47.144,5.215.14,10.8.719-3.938-12.491-7.915-43.913a140.21,140.21,0,0,1,6.874-54.449l96.992,43.106q8.349,4.9,15.146,9.227,34.555,20.1,62.291-10.431,2.852-4.132,6.092-8.224l90.548-69.108a141.865,141.865,0,0,1,21.495,56.6q1.2,7.78,2.49,14.76l11.551,1.2q-1.417-13.441-3.08-16.835a164.529,164.529,0,0,0-24.141-62.109l41.971-31.874q26.588,38.605,33.926,88.094-.017,4.024.363,8.094l16.332,1.7q-1.012-5.747-1.982-11.886-7.367-53.115-37.2-95.28L703.264,181.91q39.083,53.991,56.311,120.619,6.981-1.286,13.52-2.214M344.5,30.631l16.049,143.815q-48.733,7.813-87.611,33.168L192.309,88.489l.083-.8Q259.527,42.327,344.5,30.631M377.7,172.2,361.606,28.784q93.658-9.991,175.984,23.137l-.441.358-54.172,133.7Q434.227,166.808,377.7,172.2m254.325-64.152-.441.358A375.424,375.424,0,0,1,692.2,168.275L578.027,255.46a225.527,225.527,0,0,0-35.891-34.34l-.393-.04a200.028,200.028,0,0,0-43.455-27.474L553.346,59.2q40.333,18.691,78.676,48.853M379,186.835q52.863-4.972,98.067,13.424L457.1,248.917q-33.668-13.163-72.217-10.331L379,186.835M267.349,230.39l30.117,43.4A232.6,232.6,0,0,0,272.7,299a160.007,160.007,0,0,0-19.585,33.4l-48.452-21.953a223.864,223.864,0,0,1,27.2-44.688l.042-.4a237.876,237.876,0,0,1,35.449-34.969m-5,106.192a155.621,155.621,0,0,1,18.492-30.7l.839-.316A136.256,136.256,0,0,1,303.765,282.9L373.85,387.24,262.344,336.582M220.337,256.5a245.669,245.669,0,0,0-29.921,47.629L59.3,244.585a387.774,387.774,0,0,1,48.412-78.319l.4.042a365.261,365.261,0,0,1,69.9-68.034l80.942,119.964A200.032,200.032,0,0,0,220.337,256.5m312.194-24.3-.042.4A217.945,217.945,0,0,1,565.8,264.654l-41.578,31.92a204.629,204.629,0,0,0-23.778-23.013,147.727,147.727,0,0,0-27.15-17.724l19.921-48.265A188.059,188.059,0,0,1,532.531,232.2m-63.5,33.665a203.242,203.242,0,0,1,24.924,15.878l-.042.4a140.773,140.773,0,0,1,21.917,21.607l-89.309,68.834,42.51-106.718M368.1,241.269q-31.667,6.374-56.283,22.335l-30.556-43.045A194.825,194.825,0,0,1,362.2,189.516l5.895,51.753m-50.382,31.408a148.121,148.121,0,0,1,51.3-20.841L382.34,367.584l-64.625-94.908m84.354,114.276L386.554,249.635q35.764-3.128,66.721,8.952L402.069,386.952" transform="matrix(0.259, -0.966, 0.966, 0.259, 16557.254, -937.517)" fill="#5db6b4"/>
    </g>
  </g>
</svg>
