<svg xmlns="http://www.w3.org/2000/svg" width="803" height="805" viewBox="0 0 803 805">
  <g id="Group_335" data-name="Group 335" transform="translate(-6693 5836)">
    <path id="Subtraction_1" data-name="Subtraction 1" d="M401.5,805a406.945,406.945,0,0,1-41.051-2.078,401.62,401.62,0,0,1-39.865-6.1c-12.935-2.654-25.88-5.991-38.478-9.918-12.456-3.884-24.867-8.438-36.888-13.535a403.351,403.351,0,0,1-213.666-214.2c-5.085-12.051-9.627-24.493-13.5-36.98-3.918-12.628-7.247-25.606-9.894-38.573-2.681-13.137-4.728-26.583-6.084-39.965a409.545,409.545,0,0,1,0-82.307c1.356-13.381,3.4-26.827,6.084-39.965,2.647-12.967,5.976-25.945,9.894-38.573,3.874-12.487,8.417-24.929,13.5-36.98A403,403,0,0,1,245.218,31.63c12.021-5.1,24.432-9.651,36.888-13.535,12.6-3.928,25.543-7.265,38.478-9.918a401.615,401.615,0,0,1,39.865-6.1,406.5,406.5,0,0,1,82.1,0,401.615,401.615,0,0,1,39.865,6.1c12.935,2.654,25.88,5.991,38.478,9.918,12.456,3.884,24.867,8.438,36.888,13.535a403.352,403.352,0,0,1,213.666,214.2c5.085,12.051,9.627,24.493,13.5,36.98,3.918,12.628,7.247,25.606,9.894,38.573,2.681,13.137,4.728,26.583,6.084,39.965a409.537,409.537,0,0,1,0,82.307c-1.356,13.381-3.4,26.827-6.084,39.965-2.647,12.967-5.976,25.945-9.894,38.573-3.874,12.487-8.417,24.929-13.5,36.98a403,403,0,0,1-213.666,214.2c-12.021,5.1-24.432,9.651-36.888,13.535-12.6,3.928-25.543,7.265-38.478,9.918a401.62,401.62,0,0,1-39.865,6.1A406.945,406.945,0,0,1,401.5,805Zm0-775a376.969,376.969,0,0,0-37.984,1.921,371.409,371.409,0,0,0-331.6,332.045,378.082,378.082,0,0,0,0,76.07A372.363,372.363,0,0,0,256.9,744.766a368.956,368.956,0,0,0,106.621,27.313,376.563,376.563,0,0,0,75.967,0,371.408,371.408,0,0,0,331.6-332.044,378.077,378.077,0,0,0,0-76.07A372.363,372.363,0,0,0,546.1,59.233,368.955,368.955,0,0,0,439.484,31.92,376.969,376.969,0,0,0,401.5,30Z" transform="translate(6693 -5836)" fill="#5db6b4"/>
    <path id="Subtraction_2" data-name="Subtraction 2" d="M224.183,449.483a227.225,227.225,0,0,1-22.921-1.16A224.253,224.253,0,0,1,179,444.917c-7.222-1.482-14.451-3.345-21.484-5.538-6.955-2.169-13.885-4.711-20.6-7.557a225.217,225.217,0,0,1-119.3-119.6c-2.839-6.729-5.375-13.676-7.539-20.648-2.188-7.051-4.046-14.3-5.524-21.538-1.5-7.335-2.64-14.843-3.4-22.315a228.675,228.675,0,0,1,0-45.957c.757-7.472,1.9-14.979,3.4-22.315,1.478-7.24,3.337-14.487,5.524-21.538,2.163-6.972,4.7-13.919,7.539-20.648a225.02,225.02,0,0,1,119.3-119.6c6.712-2.846,13.642-5.389,20.6-7.557C164.552,7.911,171.78,6.048,179,4.566A224.249,224.249,0,0,1,201.262,1.16a226.976,226.976,0,0,1,45.843,0,224.248,224.248,0,0,1,22.259,3.406c7.222,1.482,14.451,3.345,21.484,5.538,6.955,2.169,13.885,4.711,20.6,7.557a225.218,225.218,0,0,1,119.3,119.6c2.839,6.729,5.375,13.676,7.539,20.648,2.188,7.051,4.046,14.3,5.524,21.538,1.5,7.335,2.64,14.843,3.4,22.315a228.674,228.674,0,0,1,0,45.957c-.757,7.472-1.9,14.979-3.4,22.315-1.478,7.24-3.337,14.487-5.524,21.538-2.163,6.972-4.7,13.919-7.539,20.648a225.02,225.02,0,0,1-119.3,119.6c-6.712,2.846-13.642,5.389-20.6,7.557-7.034,2.193-14.262,4.056-21.484,5.538a224.253,224.253,0,0,1-22.259,3.406A227.225,227.225,0,0,1,224.183,449.483Zm0-432.732a210.486,210.486,0,0,0-21.209,1.072,207.381,207.381,0,0,0-185.153,185.4,211.107,211.107,0,0,0,0,42.475A207.914,207.914,0,0,0,143.441,415.851,206.012,206.012,0,0,0,202.974,431.1a210.26,210.26,0,0,0,42.417,0A207.381,207.381,0,0,0,430.545,245.7a211.106,211.106,0,0,0,0-42.475A207.914,207.914,0,0,0,304.925,33.074a206.011,206.011,0,0,0-59.533-15.251A210.486,210.486,0,0,0,224.183,16.751Z" transform="translate(6870.317 -5658.242)" fill="#5db6b4"/>
    <path id="Subtraction_3" data-name="Subtraction 3" d="M155.3,311.364a157.407,157.407,0,0,1-15.878-.8A155.349,155.349,0,0,1,124,308.2c-5-1.026-10.01-2.317-14.883-3.836-4.818-1.5-9.618-3.264-14.268-5.235A156.011,156.011,0,0,1,12.2,216.281c-1.967-4.661-3.724-9.474-5.222-14.3-1.515-4.885-2.8-9.9-3.827-14.92C2.118,181.976,1.326,176.775.8,171.6a158.407,158.407,0,0,1,0-31.835c.524-5.176,1.316-10.376,2.353-15.458,1.024-5.015,2.311-10.035,3.827-14.92,1.5-4.83,3.255-9.642,5.222-14.3A155.875,155.875,0,0,1,94.847,12.234C99.5,10.263,104.3,8.5,109.115,7c4.872-1.519,9.88-2.81,14.883-3.836A155.34,155.34,0,0,1,139.417.8a157.23,157.23,0,0,1,31.756,0,155.339,155.339,0,0,1,15.419,2.359C191.6,4.189,196.6,5.48,201.475,7c4.818,1.5,9.618,3.264,14.268,5.235a156.012,156.012,0,0,1,82.643,82.849c1.967,4.661,3.724,9.474,5.222,14.3,1.515,4.884,2.8,9.9,3.827,14.92,1.037,5.081,1.829,10.282,2.353,15.458a158.4,158.4,0,0,1,0,31.835c-.524,5.176-1.316,10.376-2.353,15.458-1.024,5.015-2.311,10.035-3.827,14.92-1.5,4.83-3.255,9.642-5.222,14.3a155.875,155.875,0,0,1-82.643,82.849c-4.65,1.971-9.45,3.733-14.268,5.235-4.872,1.519-9.88,2.81-14.883,3.836a155.347,155.347,0,0,1-15.419,2.359A157.407,157.407,0,0,1,155.3,311.364Zm0-299.761a145.807,145.807,0,0,0-14.692.743A143.656,143.656,0,0,0,12.345,140.777a146.237,146.237,0,0,0,0,29.423A144.025,144.025,0,0,0,99.364,288.067a142.707,142.707,0,0,0,41.24,10.564,145.651,145.651,0,0,0,29.383,0A143.656,143.656,0,0,0,298.245,170.2a146.233,146.233,0,0,0,0-29.423A144.025,144.025,0,0,0,211.227,22.911a142.707,142.707,0,0,0-41.24-10.564A145.807,145.807,0,0,0,155.3,11.6Z" transform="translate(6939.205 -5589.182)" fill="#5db6b4"/>
    <rect id="Rectangle_141" data-name="Rectangle 141" width="20" height="775" transform="translate(7074 -5821)" fill="#5db6b4"/>
    <rect id="Rectangle_142" data-name="Rectangle 142" width="20" height="775" transform="translate(7471.5 -5443.5) rotate(90)" fill="#5db6b4"/>
    <rect id="Rectangle_143" data-name="Rectangle 143" width="20" height="775" transform="translate(7350.933 -5714.575) rotate(45)" fill="#5db6b4"/>
    <rect id="Rectangle_144" data-name="Rectangle 144" width="20" height="775" transform="translate(7365.075 -5166.567) rotate(135)" fill="#5db6b4"/>
  </g>
</svg>
