<svg width="592" height="597" viewBox="0 0 592 597" fill="none" xmlns="http://www.w3.org/2000/svg">
<g opacity="0.12">
<path d="M517.763 208.277C518.757 213.738 519.938 218.334 521.294 222.052C522.673 225.891 523.884 228.876 524.927 231.021C525.945 233.141 527.222 234.397 528.765 234.775C530.283 235.16 532.024 235.07 533.994 234.505C535.916 233.988 537.32 232.949 538.206 231.393C539.019 229.789 538.814 228.143 537.597 226.449C536.332 224.737 534.506 224.149 532.133 224.689C529.777 225.23 527.999 226.449 526.8 228.348C525.125 225.704 523.782 222.527 522.758 218.802C521.715 215.102 521.046 211.816 520.757 208.95L541.875 204.547C542.803 209.491 543.899 213.672 545.171 217.102C546.55 220.941 547.761 223.926 548.804 226.071C549.822 228.191 551.099 229.453 552.642 229.861C554.16 230.222 555.901 230.132 557.871 229.591C559.793 229.05 561.197 227.999 562.083 226.443C562.896 224.839 562.691 223.206 561.474 221.536C560.209 219.799 558.383 219.211 556.01 219.775C553.835 220.274 552.16 221.331 550.985 222.959C547.026 215.985 544.67 207.22 543.923 196.66L516.799 202.042C517.094 204.229 517.419 206.307 517.781 208.272L517.763 208.277Z" fill="#239CD1"/>
<path d="M446.171 402.506L446.079 402.414C443.13 399.32 441.635 395.646 441.635 391.489C441.635 387.339 443.13 383.664 446.079 380.57L446.171 380.478C449.266 377.53 452.941 376.035 457.098 376.035C461.396 376.035 465.089 377.543 468.069 380.527L468.117 380.576C471.066 383.671 472.562 387.345 472.562 391.501C472.562 395.652 471.066 399.326 468.117 402.427L468.069 402.476C465.089 405.454 461.396 406.962 457.098 406.962C452.947 406.962 449.272 405.466 446.177 402.518L446.171 402.506ZM467.104 391.489C467.104 388.755 466.152 386.423 464.186 384.354C462.245 382.426 459.925 381.485 457.092 381.485C454.369 381.485 452.043 382.432 449.98 384.379C448.033 386.442 447.086 388.773 447.086 391.489C447.086 394.211 448.033 396.537 449.98 398.606C452.043 400.553 454.376 401.499 457.092 401.499C459.809 401.499 462.245 400.559 464.186 398.63C466.145 396.561 467.104 394.223 467.104 391.495V391.489Z" fill="#239CD1"/>
<path d="M553.252 268.572L553.205 268.525C551.67 266.913 550.894 265.002 550.894 262.843C550.894 260.684 551.67 258.773 553.205 257.161L553.252 257.114C554.863 255.578 556.774 254.802 558.932 254.802C561.167 254.802 563.089 255.59 564.642 257.137L564.665 257.161C566.2 258.773 566.976 260.684 566.976 262.843C566.976 265.002 566.2 266.919 564.665 268.525L564.642 268.549C563.089 270.096 561.172 270.884 558.932 270.884C556.774 270.884 554.863 270.108 553.252 268.572ZM564.142 262.837C564.142 261.414 563.648 260.202 562.625 259.125C561.613 258.12 560.408 257.631 558.938 257.631C557.521 257.631 556.31 258.125 555.239 259.137C554.228 260.214 553.734 261.425 553.734 262.837C553.734 264.255 554.228 265.466 555.239 266.537C556.315 267.549 557.527 268.043 558.938 268.043C560.408 268.043 561.619 267.555 562.625 266.549C563.648 265.472 564.142 264.255 564.142 262.837Z" fill="#239CD1"/>
<path d="M519.235 258.675L519.184 258.628C517.531 257.017 516.695 255.105 516.695 252.946C516.695 250.787 517.531 248.876 519.184 247.264L519.235 247.217C520.97 245.682 523.028 244.905 525.352 244.905C527.758 244.905 529.829 245.693 531.5 247.24L531.526 247.264C533.178 248.876 534.014 250.787 534.014 252.946C534.014 255.105 533.178 257.022 531.526 258.628L531.5 258.652C529.829 260.199 527.764 260.987 525.352 260.987C523.028 260.987 520.97 260.211 519.235 258.675ZM530.962 252.94C530.962 251.517 530.43 250.305 529.328 249.228C528.239 248.223 526.941 247.734 525.358 247.734C523.832 247.734 522.527 248.229 521.375 249.24C520.286 250.317 519.754 251.528 519.754 252.94C519.754 254.358 520.286 255.57 521.375 256.64C522.534 257.652 523.838 258.146 525.358 258.146C526.878 258.146 528.246 257.658 529.328 256.652C530.43 255.575 530.962 254.358 530.962 252.94Z" fill="#239CD1"/>
<path d="M287.056 275.051C285.319 268.275 282.613 263.888 278.926 261.883C275.246 259.836 272.425 259.026 270.482 259.452C268.49 259.836 267.219 260.366 266.674 261.049C269.386 261.859 271.777 263.455 273.848 265.844C275.797 267.934 277.298 270.444 278.357 273.387C279.84 277.689 280.349 283.533 279.883 290.905C279.247 300.538 277.788 309.977 275.5 319.22L272.643 330.151C267.225 343.446 264.919 353.975 265.718 361.732C266.523 369.488 268.829 376.879 272.643 383.911C276.323 390.857 280.984 396.505 286.614 400.85C286.614 391.046 287.207 382.972 288.394 376.623C289.538 370.189 291.783 363.669 295.125 357.065C298.388 350.46 301.602 346.791 304.78 346.072C308 345.39 310.984 345.713 313.733 347.029C315.343 337.694 312.74 333.837 305.924 335.458C298.981 337.036 293.878 342.745 290.621 352.592C287.316 362.396 285.306 368.422 284.586 370.682C284.756 366.935 285.01 362.969 285.349 358.795C285.984 351.763 286.681 346.03 287.443 341.6C289.265 330.736 291.995 320.439 295.633 310.726C299.193 300.922 304.568 291.271 311.765 281.771C312.443 280.833 313.097 280.005 313.733 279.279C305.73 276.422 299.447 282.07 294.871 296.218C290.131 310.409 286.892 322.663 285.155 332.972C283.375 343.245 282.256 352.446 281.789 360.586C281.323 368.94 281.009 376.91 280.839 384.496C279.017 377.678 277.661 371.347 276.777 365.51C274.659 351.66 274.895 339.023 277.473 327.604C279.211 316.868 281.662 307.125 284.84 298.394C288.018 289.613 288.757 281.839 287.062 275.063M279.568 243.677C280.882 240.143 279.822 236.073 276.39 231.467C276.136 231.083 272.159 226.927 264.453 219L262.486 226.86C261.765 229.76 261.366 231.869 261.281 233.191C260.984 235.494 260.924 237.578 261.093 239.455C261.602 243.032 263.212 246.169 265.918 248.85C268.418 251.452 271.233 253.091 274.362 253.774C276.862 249.685 278.593 246.316 279.568 243.671V243.677Z" fill="#ADC880"/>
<path d="M570.994 451.323C569.662 446.203 567.581 442.89 564.758 441.382C561.934 439.838 559.774 439.223 558.276 439.546C556.748 439.837 555.772 440.239 555.354 440.749C557.435 441.364 559.27 442.567 560.86 444.367C562.352 445.942 563.505 447.845 564.322 450.064C565.457 453.317 565.85 457.725 565.494 463.288C565.009 470.559 563.886 477.685 562.131 484.671L559.939 492.927C555.784 502.965 554.01 510.918 554.63 516.773C555.25 522.628 557.018 528.209 559.939 533.523C562.763 538.77 566.341 543.032 570.662 546.315C570.662 538.916 571.117 532.818 572.025 528.021C572.903 523.163 574.621 518.238 577.193 513.253C579.697 508.267 582.165 505.501 584.602 504.953C587.069 504.437 589.358 504.68 591.47 505.677C592.704 498.63 590.709 495.718 585.479 496.94C580.152 498.132 576.236 502.442 573.737 509.878C571.203 517.277 569.662 521.831 569.109 523.54C569.238 520.706 569.435 517.715 569.693 514.56C570.177 509.252 570.718 504.923 571.301 501.573C572.7 493.365 574.793 485.595 577.586 478.262C580.317 470.863 584.442 463.573 589.96 456.399C590.482 455.694 590.985 455.062 591.47 454.514C585.332 452.356 580.507 456.624 576.997 467.306C573.357 478.019 570.871 487.273 569.539 495.061C568.176 502.813 567.311 509.769 566.955 515.915C566.599 522.22 566.354 528.239 566.225 533.967C564.825 528.817 563.788 524.038 563.107 519.63C561.48 509.173 561.658 499.634 563.641 491.006C564.973 482.896 566.857 475.545 569.294 468.948C571.73 462.321 572.301 456.448 571 451.328M565.249 427.629C566.255 424.96 565.445 421.883 562.812 418.412C562.616 418.12 559.565 414.983 553.654 409L552.144 414.934C551.592 417.123 551.285 418.716 551.217 419.713C550.99 421.452 550.941 423.026 551.07 424.443C551.463 427.149 552.697 429.514 554.771 431.538C556.686 433.502 558.847 434.742 561.253 435.253C563.168 432.165 564.5 429.623 565.249 427.629Z" fill="#ADC880"/>
<path d="M131.676 425.879C130.704 422.103 129.192 419.654 127.135 418.532C125.077 417.392 123.505 416.94 122.42 417.175C121.31 417.386 120.602 417.688 120.29 418.068C121.802 418.52 123.139 419.413 124.297 420.74C125.383 421.904 126.223 423.31 126.817 424.944C127.644 427.345 127.927 430.602 127.669 434.71C127.315 440.078 126.499 445.344 125.221 450.502L123.625 456.6C120.602 464.013 119.312 469.888 119.762 474.213C120.212 478.538 121.502 482.664 123.625 486.585C125.683 490.458 128.28 493.606 131.424 496.031C131.424 490.566 131.754 486.06 132.414 482.519C133.049 478.93 134.303 475.293 136.169 471.608C137.987 467.922 139.786 465.877 141.556 465.473C143.349 465.093 145.017 465.274 146.553 466.01C147.453 460.804 145.995 458.657 142.192 459.556C138.316 460.436 135.467 463.621 133.649 469.11C131.808 474.575 130.686 477.941 130.284 479.202C130.38 477.109 130.518 474.901 130.71 472.573C131.064 468.652 131.454 465.455 131.88 462.982C132.894 456.92 134.423 451.183 136.451 445.76C138.436 440.296 141.436 434.909 145.455 429.613C145.833 429.088 146.199 428.624 146.553 428.219C142.084 426.627 138.574 429.776 136.025 437.666C133.379 445.58 131.568 452.414 130.602 458.162C129.612 463.893 128.982 469.026 128.724 473.562C128.466 478.219 128.286 482.664 128.19 486.893C127.177 483.092 126.415 479.558 125.923 476.307C124.741 468.58 124.873 461.534 126.313 455.164C127.285 449.175 128.652 443.746 130.428 438.872C132.204 433.974 132.612 429.637 131.67 425.861M127.489 408.356C128.22 406.384 127.633 404.116 125.713 401.546C125.569 401.335 123.349 399.013 119.048 394.591L117.95 398.976C117.548 400.593 117.326 401.769 117.279 402.505C117.111 403.79 117.081 404.954 117.171 405.998C117.453 407.994 118.352 409.743 119.864 411.239C121.256 412.687 122.827 413.604 124.579 413.984C125.971 411.704 126.943 409.822 127.489 408.35V408.356Z" fill="#ADC880"/>
<path d="M196.849 557.693C197.387 560.515 198.022 562.883 198.755 564.803C199.5 566.781 200.153 568.329 200.715 569.435C201.265 570.529 201.955 571.174 202.786 571.372C203.604 571.57 204.545 571.524 205.613 571.233C206.652 570.965 207.409 570.43 207.885 569.627C208.325 568.8 208.215 567.951 207.555 567.078C206.871 566.194 205.888 565.891 204.599 566.17C203.329 566.45 202.37 567.078 201.717 568.056C200.813 566.694 200.086 565.047 199.537 563.127C198.975 561.219 198.614 559.52 198.456 558.042L209.864 555.772C210.365 558.321 210.957 560.486 211.641 562.255C212.386 564.233 213.04 565.781 213.601 566.886C214.151 567.98 214.841 568.632 215.672 568.841C216.49 569.027 217.431 568.981 218.499 568.702C219.538 568.422 220.295 567.881 220.771 567.078C221.211 566.252 221.101 565.408 220.442 564.547C219.758 563.651 218.774 563.348 217.486 563.639C216.313 563.895 215.409 564.442 214.768 565.28C212.63 561.679 211.354 557.151 210.951 551.699L196.294 554.481C196.452 555.61 196.63 556.68 196.825 557.698L196.849 557.693Z" fill="#CD3E5A"/>
<path d="M518.936 549.862C519.877 554.969 520.988 559.267 522.273 562.748C523.577 566.338 524.724 569.135 525.707 571.141C526.673 573.123 527.88 574.295 529.335 574.658C530.771 575.015 532.419 574.932 534.278 574.403C536.095 573.914 537.422 572.944 538.261 571.492C539.034 569.992 538.841 568.45 537.682 566.867C536.481 565.26 534.761 564.713 532.515 565.218C530.288 565.724 528.611 566.867 527.476 568.641C525.895 566.171 524.621 563.195 523.655 559.713C522.672 556.249 522.038 553.178 521.76 550.499L541.732 546.38C542.607 551.005 543.645 554.921 544.846 558.13C546.15 561.719 547.296 564.516 548.28 566.522C549.246 568.504 550.453 569.688 551.908 570.069C553.344 570.409 554.992 570.325 556.851 569.814C558.667 569.308 559.995 568.325 560.834 566.867C561.607 565.367 561.413 563.838 560.255 562.278C559.053 560.653 557.333 560.106 555.088 560.629C553.036 561.094 551.449 562.088 550.338 563.605C546.59 557.082 544.369 548.88 543.657 539L518 544.035C518.278 546.083 518.592 548.023 518.929 549.862H518.936Z" fill="#CD3E5A"/>
<path d="M478.109 206.882C477.557 204.233 476.195 202.179 474.029 200.708C471.862 199.236 469.538 198.798 467.054 199.387C464.571 199.975 462.645 201.428 461.266 203.739C459.886 206.049 459.475 208.529 460.027 211.178C460.579 213.827 461.941 215.881 464.107 217.353C466.274 218.824 468.598 219.263 471.082 218.674C473.565 218.085 475.491 216.633 476.87 214.322C478.25 212.011 478.661 209.531 478.109 206.882Z" fill="#FA8536"/>
<path d="M566.999 238.881C566.705 237.555 565.979 236.53 564.824 235.793C563.668 235.057 562.428 234.842 561.102 235.136C559.776 235.431 558.751 236.156 558.014 237.311C557.278 238.467 557.063 239.708 557.357 241.033C557.652 242.359 558.377 243.384 559.533 244.121C560.688 244.857 561.929 245.072 563.255 244.778C564.58 244.483 565.606 243.758 566.342 242.603C567.079 241.447 567.294 240.206 566.999 238.881Z" fill="#FA8536"/>
<path d="M57.6142 413.792C57.3196 412.301 56.5944 411.147 55.4388 410.318C54.2831 409.49 53.0426 409.248 51.717 409.579C50.3913 409.911 49.366 410.726 48.6296 412.027C47.8931 413.327 47.6778 414.722 47.9723 416.214C48.2669 417.705 48.9921 418.859 50.1477 419.687C51.3034 420.516 52.5441 420.758 53.8697 420.426C55.1953 420.095 56.2206 419.279 56.9571 417.979C57.6935 416.679 57.9087 415.283 57.6142 413.792Z" fill="#C6629B"/>
<path d="M37.8846 206.017C37.7369 205.355 37.3757 204.841 36.7956 204.474C36.2156 204.107 35.5973 203.998 34.9351 204.146C34.273 204.293 33.7586 204.654 33.3919 205.234C33.0253 205.815 32.9159 206.433 33.0637 207.095C33.2114 207.757 33.5726 208.272 34.1526 208.638C34.7327 209.005 35.351 209.114 36.0132 208.967C36.6753 208.819 37.1897 208.458 37.5564 207.878C37.923 207.298 38.0324 206.679 37.8846 206.017Z" fill="#C6629B"/>
<path d="M427.885 393.517C427.553 392.195 426.736 391.162 425.435 390.43C424.133 389.698 422.739 389.474 421.252 389.769C419.764 390.064 418.602 390.79 417.779 391.947C416.955 393.104 416.703 394.343 417.035 395.665C417.367 396.987 418.184 398.02 419.485 398.752C420.787 399.484 422.181 399.709 423.669 399.413C425.156 399.118 426.318 398.392 427.141 397.235C427.965 396.079 428.217 394.839 427.885 393.517Z" fill="#C6629B"/>
<path d="M440.146 438.212C439.559 435.563 438.103 433.508 435.79 432.039C433.478 430.571 431 430.131 428.351 430.718C425.702 431.305 423.646 432.761 422.178 435.074C420.71 437.386 420.269 439.864 420.856 442.513C421.444 445.162 422.9 447.218 425.212 448.686C427.525 450.154 430.003 450.595 432.652 450.008C435.301 449.42 437.356 447.964 438.825 445.652C440.293 443.339 440.734 440.861 440.146 438.212Z" fill="#FA8536"/>
<path d="M97.6015 561.003C97.3069 559.512 96.5817 558.358 95.4261 557.53C94.2704 556.701 93.0299 556.459 91.7043 556.791C90.3786 557.122 89.3533 557.938 88.6169 559.238C87.8804 560.538 87.6651 561.934 87.9596 563.425C88.2542 564.916 88.9794 566.07 90.135 566.898C91.2907 567.727 92.5314 567.969 93.857 567.638C95.1826 567.306 96.2079 566.49 96.9444 565.19C97.6808 563.89 97.896 562.495 97.6015 561.003Z" fill="#FA8536"/>
<path d="M4.88237 415.082C4.73638 414.422 4.37428 413.908 3.79618 413.54C3.21808 413.172 2.59915 413.061 1.93346 413.213C1.26777 413.365 0.753969 413.721 0.391929 414.299C0.0298883 414.877 -0.0869331 415.496 0.0648903 416.162C0.210874 416.822 0.572835 417.342 1.15093 417.704C1.72903 418.066 2.34811 418.182 3.0138 418.031C3.67948 417.879 4.18745 417.523 4.55533 416.945C4.92321 416.366 5.03419 415.748 4.88237 415.082Z" fill="#FA8536"/>
<path d="M437.796 544.922C437.502 543.43 436.777 542.277 435.621 541.448C434.465 540.62 433.225 540.378 431.899 540.709C430.573 541.04 429.548 541.856 428.812 543.156C428.075 544.456 427.86 545.852 428.154 547.343C428.449 548.835 429.174 549.988 430.33 550.817C431.486 551.645 432.726 551.887 434.052 551.556C435.377 551.225 436.403 550.409 437.139 549.109C437.876 547.809 438.091 546.413 437.796 544.922Z" fill="#FA8536"/>
<path d="M124.81 292.713C123.864 292.531 122.99 292.713 122.183 293.253C121.376 293.799 120.879 294.539 120.697 295.486C120.515 296.432 120.697 297.306 121.237 298.113C121.783 298.92 122.523 299.417 123.469 299.599C124.416 299.781 125.29 299.599 126.097 299.059C126.904 298.513 127.401 297.773 127.583 296.827C127.765 295.88 127.583 295.006 127.043 294.199C126.497 293.392 125.757 292.895 124.81 292.713Z" fill="#FA8536"/>
<path d="M133.274 282.817C132.328 282.635 131.454 282.817 130.647 283.357C129.84 283.903 129.343 284.643 129.161 285.59C128.979 286.536 129.161 287.41 129.701 288.217C130.241 289.024 130.987 289.522 131.933 289.704C132.88 289.886 133.754 289.703 134.56 289.163C135.367 288.617 135.865 287.877 136.047 286.931C136.229 285.984 136.047 285.11 135.507 284.303C134.961 283.496 134.221 282.999 133.274 282.817Z" fill="#FA8536"/>
<path d="M148.691 277.065C147.314 276.798 146.04 277.059 144.863 277.848C143.686 278.637 142.964 279.723 142.697 281.1C142.43 282.477 142.691 283.751 143.479 284.929C144.268 286.106 145.354 286.827 146.731 287.094C148.109 287.361 149.383 287.1 150.56 286.312C151.737 285.523 152.459 284.437 152.726 283.06C152.993 281.682 152.732 280.408 151.943 279.231C151.155 278.054 150.068 277.332 148.691 277.065Z" fill="#FA8536"/>
<path d="M144.996 291.475C141.562 290.802 138.377 291.457 135.447 293.429C132.516 295.407 130.714 298.107 130.041 301.547C129.367 304.981 130.022 308.166 131.994 311.097C133.966 314.027 136.672 315.829 140.112 316.503C143.546 317.176 146.732 316.521 149.662 314.549C152.593 312.577 154.395 309.871 155.068 306.431C155.742 302.997 155.086 299.811 153.114 296.881C151.143 293.95 148.437 292.149 144.996 291.475Z" fill="#FA8536"/>
<path d="M179.514 544.983C180.46 544.801 181.334 544.983 182.141 545.523C182.948 546.069 183.445 546.809 183.627 547.755C183.809 548.702 183.627 549.575 183.087 550.382C182.541 551.189 181.801 551.687 180.855 551.869C179.908 552.051 179.034 551.869 178.227 551.329C177.42 550.783 176.923 550.042 176.741 549.096C176.559 548.15 176.741 547.276 177.281 546.469C177.827 545.662 178.567 545.165 179.514 544.983Z" fill="#FA8536"/>
<path d="M171.05 535.087C171.996 534.905 172.87 535.087 173.677 535.627C174.484 536.173 174.982 536.913 175.164 537.859C175.346 538.806 175.164 539.68 174.624 540.487C174.078 541.294 173.337 541.791 172.391 541.973C171.444 542.155 170.571 541.973 169.764 541.433C168.957 540.887 168.459 540.147 168.277 539.201C168.095 538.254 168.277 537.38 168.817 536.573C169.363 535.766 170.103 535.269 171.05 535.087Z" fill="#FA8536"/>
<path d="M155.639 529.335C157.016 529.068 158.29 529.329 159.467 530.118C160.644 530.907 161.366 531.993 161.633 533.37C161.9 534.747 161.639 536.021 160.851 537.198C160.062 538.375 158.976 539.097 157.599 539.364C156.221 539.631 154.947 539.371 153.77 538.582C152.593 537.793 151.871 536.707 151.604 535.33C151.337 533.952 151.598 532.678 152.387 531.501C153.176 530.324 154.262 529.602 155.639 529.335Z" fill="#FA8536"/>
<path d="M159.328 543.739C162.762 543.066 165.947 543.721 168.878 545.693C171.808 547.67 173.61 550.37 174.284 553.81C174.957 557.245 174.302 560.43 172.33 563.36C170.358 566.291 167.652 568.093 164.212 568.767C160.778 569.44 157.593 568.785 154.662 566.813C151.732 564.841 149.93 562.135 149.256 558.695C148.583 555.261 149.238 552.075 151.21 549.145C153.182 546.214 155.888 544.412 159.328 543.739Z" fill="#FA8536"/>
<path d="M279.289 541.519C256.003 542.351 242.006 542.842 237.297 542.994C226.079 543.527 216.299 542.678 207.956 540.445C183.177 533.82 161.99 514.144 144.389 481.429C135.798 465.314 129.039 448.836 124.125 432.005C120.581 419.768 116.698 401.529 112.469 377.296C116.589 397.658 124.143 417.65 135.149 437.271C146.713 457.512 156.973 472.722 165.94 482.903C174.932 492.999 187.194 503.326 202.738 513.877C218.362 524.452 235.192 529.233 253.224 528.22C271.426 527.255 289.47 528.663 307.35 532.455C325.255 536.162 342.164 543.94 358.079 555.783C374.078 567.651 386.516 581.132 395.392 596.234C391.643 594.917 386.661 591.605 380.455 586.308C374.272 580.926 361.683 571.928 342.686 559.321C323.714 546.628 302.587 540.694 279.301 541.525" fill="#239CD1"/>
<path d="M117.342 317.443C116.565 312.013 117.075 308.221 118.864 306.067L127.984 345.249C130.726 357.08 132.922 365.611 134.579 370.829C140.585 389.334 150.135 406.771 163.234 423.141C175.587 438.57 190.331 452.142 207.465 463.87C237.285 484.256 274.241 499.218 318.332 508.756C335.363 512.312 344.094 514.15 344.518 514.265C354.487 516.583 362.999 519.186 370.068 522.068C382.439 527.255 395.059 535.161 407.921 545.79C413.072 549.971 416.883 554.188 419.352 558.447C422.61 563.835 423.35 568.895 421.579 573.615C406.556 553.969 382.493 538.71 349.384 527.837C340.987 525.131 327.045 521.34 307.544 516.455C289.428 511.863 275.527 507.901 265.844 504.564C237.474 494.741 212.185 480.422 189.979 461.607C166.747 441.87 149.225 419.057 137.412 393.168C128.184 372.758 121.492 347.518 117.336 317.449" fill="#239CD1"/>
<path d="M107.318 481.235C107.318 479.014 108.113 477.109 109.697 475.526C111.286 473.942 113.185 473.147 115.406 473.147C117.627 473.147 119.532 473.942 121.115 475.526C122.699 477.109 123.494 479.014 123.494 481.235C123.494 483.455 122.699 485.361 121.115 486.944C119.532 488.528 117.627 489.323 115.406 489.323C113.185 489.323 111.28 488.528 109.697 486.944C108.113 485.361 107.318 483.455 107.318 481.235Z" fill="#239CD1"/>
<path d="M118.688 534.906L118.585 534.803C115.364 531.417 113.731 527.407 113.731 522.868C113.731 518.33 115.364 514.32 118.585 510.934L118.688 510.831C122.068 507.609 126.084 505.977 130.623 505.977C135.319 505.977 139.353 507.627 142.605 510.886L142.654 510.934C145.876 514.314 147.508 518.33 147.508 522.868C147.508 527.407 145.876 531.417 142.654 534.803L142.605 534.858C139.353 538.11 135.319 539.76 130.623 539.76C126.084 539.76 122.074 538.128 118.688 534.906ZM141.556 522.868C141.556 519.883 140.512 517.329 138.371 515.072C136.247 512.961 133.717 511.935 130.623 511.935C127.65 511.935 125.107 512.967 122.85 515.096C120.727 517.353 119.689 519.896 119.689 522.868C119.689 525.841 120.721 528.384 122.85 530.641C125.107 532.77 127.65 533.802 130.623 533.802C133.711 533.802 136.247 532.776 138.371 530.665C140.512 528.402 141.556 525.854 141.556 522.868Z" fill="#239CD1"/>
<path d="M295.925 267.544C296.496 269.194 297.988 271.451 300.403 274.309C298.116 275.899 285.12 275.547 261.415 273.259C237.71 270.845 215.249 261.058 194.019 243.9C185.568 236.783 177.274 230.364 169.138 224.643C169.041 224.545 168.95 224.454 168.852 224.357C158.811 217.174 149.152 211.009 139.875 205.864C136.635 204.275 133.201 202.655 129.579 201.004C126.4 199.542 123.542 198.207 121 197C129.895 232.081 145.214 255.974 166.947 268.685C188.62 281.456 218.932 290.102 257.884 294.61C296.902 299.057 317.27 300.362 318.987 298.518C320.704 296.673 320.51 292.99 318.417 287.463C316.384 281.936 313.587 278.156 310.032 276.117C306.47 273.957 304.79 271.542 304.978 268.873C305.166 266.076 308.375 264.681 314.606 264.681C315.814 261.823 314.795 259.626 311.555 258.103C308.375 257.661 305.136 257.181 301.835 256.672C271.966 251.017 240.003 236.874 205.942 214.255C201.052 210.949 196.095 208.279 191.071 206.247L190.689 205.961C180.714 206.028 172.705 206.374 166.668 207.011C164.951 207.078 163.271 207.108 161.614 207.108L181.442 218.163C191.611 224.454 204.352 232.269 219.666 241.613C234.98 250.956 254.013 257.121 276.765 260.106C281.152 260.743 285.538 261.283 289.919 261.726C294.239 262.041 296.144 262.678 295.64 263.631C295.197 264.523 295.288 265.821 295.925 267.538M213.089 265.439C213.599 266.774 213.599 267.914 213.089 268.873C212.391 269.825 211.402 270.365 210.134 270.493C208.739 270.62 207.368 270.335 206.033 269.637C204.765 268.812 203.776 267.763 203.078 266.495C202.568 265.226 202.568 264.11 203.078 263.158C203.776 262.266 204.765 261.726 206.033 261.538C207.368 261.41 208.733 261.726 210.134 262.49C211.402 263.188 212.391 264.177 213.089 265.445M173.913 236.941C175.818 237.96 177.219 239.356 178.105 241.133C178.803 242.911 178.742 244.44 177.917 245.708C177.152 247.104 175.818 247.898 173.913 248.092C172.008 248.347 170.102 247.965 168.191 246.952C166.286 245.805 164.951 244.313 164.187 242.474C163.422 240.757 163.422 239.234 164.187 237.9C164.951 236.565 166.347 235.77 168.379 235.515C170.157 235.327 172.001 235.8 173.907 236.947M191.162 252.2C192.812 253.092 194.02 254.33 194.784 255.919C195.482 257.509 195.482 258.904 194.784 260.112C194.596 260.427 194.432 260.652 194.305 260.779C193.479 261.544 192.43 262.017 191.156 262.211C189.439 262.399 187.722 262.053 186.011 261.161C184.36 260.142 183.153 258.807 182.389 257.157C181.691 255.634 181.691 254.263 182.389 253.056C182.898 252.358 183.535 251.818 184.294 251.436C184.864 251.181 185.471 251.023 186.108 250.956C187.758 250.768 189.445 251.181 191.162 252.194M309.65 248.384C310.541 248.511 311.907 248.639 313.751 248.766C315.784 248.766 317.561 247.813 319.09 245.908C309.941 242.413 291.32 234.884 263.235 223.32C235.338 211.689 214.175 205.907 199.753 205.974H195.464C198.449 206.611 201.658 207.66 205.092 209.122C207.762 210.202 211.73 212.265 217.008 215.317C239.251 227.646 259.297 236.322 277.159 241.34C285.678 243.754 295.458 245.914 306.519 247.82C307.726 248.008 308.776 248.202 309.662 248.39" fill="#C6629B"/>
<path d="M309.971 344.519C286.684 345.351 272.687 345.842 267.979 345.994C256.761 346.527 246.98 345.678 238.638 343.445C213.859 336.82 192.672 317.144 175.071 284.429C166.48 268.314 159.721 251.836 154.806 235.005C151.263 222.768 147.38 204.529 143.151 180.296C147.271 200.658 154.824 220.65 165.831 240.271C177.395 260.512 187.654 275.722 196.622 285.903C205.614 295.999 217.876 306.326 233.42 316.877C249.043 327.452 265.874 332.233 283.906 331.22C302.108 330.255 320.152 331.663 338.032 335.455C355.936 339.162 372.846 346.94 388.76 358.783C404.76 370.651 417.198 384.132 426.074 399.234C422.324 397.917 417.343 394.605 411.136 389.308C404.954 383.926 392.364 374.928 373.368 362.321C354.395 349.628 333.269 343.694 309.983 344.525" fill="#239CD1"/>
<path d="M148.023 120.443C147.247 115.013 147.756 111.221 149.546 109.067L158.665 148.249C161.408 160.08 163.604 168.611 165.26 173.829C171.267 192.334 180.817 209.771 193.916 226.141C206.269 241.57 221.013 255.142 238.146 266.87C267.967 287.256 304.923 302.218 349.014 311.756C366.045 315.312 374.775 317.15 375.2 317.265C385.169 319.583 393.681 322.186 400.749 325.068C413.12 330.255 425.74 338.161 438.603 348.79C443.754 352.971 447.564 357.188 450.034 361.447C453.292 366.835 454.032 371.895 452.26 376.615C437.238 356.969 413.175 341.71 380.066 330.837C371.669 328.131 357.726 324.34 338.226 319.455C320.109 314.863 306.209 310.901 296.526 307.564C268.155 297.741 242.867 283.422 220.661 264.607C197.429 244.87 179.907 222.057 168.094 196.168C158.865 175.758 152.173 150.518 148.017 120.449" fill="#239CD1"/>
<path d="M138 284.235C138 282.014 138.795 280.109 140.378 278.526C141.968 276.942 143.867 276.147 146.088 276.147C148.308 276.147 150.213 276.942 151.797 278.526C153.381 280.109 154.175 282.014 154.175 284.235C154.175 286.455 153.381 288.361 151.797 289.944C150.213 291.528 148.308 292.323 146.088 292.323C143.867 292.323 141.962 291.528 140.378 289.944C138.795 288.361 138 286.455 138 284.235Z" fill="#239CD1"/>
<path d="M149.37 337.906L149.267 337.803C146.045 334.417 144.413 330.407 144.413 325.868C144.413 321.33 146.045 317.32 149.267 313.934L149.37 313.831C152.749 310.609 156.766 308.977 161.304 308.977C166 308.977 170.035 310.627 173.287 313.886L173.336 313.934C176.557 317.314 178.19 321.33 178.19 325.868C178.19 330.407 176.557 334.417 173.336 337.803L173.287 337.858C170.035 341.11 166 342.76 161.304 342.76C156.766 342.76 152.756 341.128 149.37 337.906ZM172.238 325.868C172.238 322.883 171.194 320.329 169.052 318.072C166.929 315.961 164.399 314.935 161.304 314.935C158.331 314.935 155.789 315.967 153.532 318.096C151.409 320.353 150.371 322.896 150.371 325.868C150.371 328.841 151.402 331.384 153.532 333.641C155.789 335.77 158.331 336.802 161.304 336.802C164.393 336.802 166.929 335.776 169.052 333.665C171.194 331.402 172.238 328.854 172.238 325.868Z" fill="#239CD1"/>
<path d="M326.607 70.5442C327.177 72.1945 328.67 74.4514 331.085 77.3091C328.797 78.8987 315.801 78.5468 292.096 76.2595C268.392 73.8447 245.931 64.0584 224.701 46.9002C216.249 39.7833 207.955 33.364 199.819 27.6425C199.722 27.5454 199.631 27.4543 199.534 27.3572C189.493 20.1736 179.834 14.0092 170.557 8.8642C167.317 7.27457 163.883 5.65475 160.261 4.00446C157.081 2.54225 154.224 1.20739 151.682 0C160.576 35.081 175.896 58.9738 197.629 71.6847C219.301 84.4563 249.613 93.1022 288.565 97.6102C327.584 102.057 347.952 103.362 349.669 101.518C351.386 99.6733 351.192 95.9903 349.098 90.4631C347.066 84.9358 344.269 81.1557 340.713 79.1171C337.152 76.9572 335.471 74.5425 335.659 71.8729C335.848 69.0758 339.057 67.6806 345.288 67.6806C346.496 64.8229 345.476 62.6263 342.236 61.1035C339.057 60.6605 335.817 60.1813 332.517 59.6717C302.647 54.017 270.685 39.8741 236.623 17.2553C231.733 13.9486 226.776 11.2792 221.753 9.24666L221.37 8.96137C211.396 9.02811 203.387 9.37393 197.35 10.011C195.633 10.0777 193.952 10.1082 192.296 10.1082L212.124 21.1626C222.292 27.4543 235.034 35.2692 250.347 44.6128C265.661 53.9564 284.694 60.1207 307.447 63.1058C311.833 63.7429 316.22 64.2828 320.6 64.7257C324.92 65.0412 326.825 65.6784 326.322 66.6309C325.879 67.5228 325.97 68.8212 326.607 70.5382M243.771 68.439C244.28 69.7738 244.28 70.9142 243.771 71.8729C243.073 72.8254 242.084 73.3654 240.816 73.4928C239.42 73.6202 238.049 73.3352 236.714 72.6375C235.446 71.8123 234.457 70.7626 233.76 69.4945C233.25 68.2265 233.25 67.1101 233.76 66.1575C234.457 65.2656 235.446 64.7257 236.714 64.5376C238.049 64.4102 239.414 64.7256 240.816 65.4901C242.084 66.1878 243.073 67.1768 243.771 68.4449M204.594 39.9409C206.499 40.9602 207.901 42.3558 208.787 44.1335C209.484 45.9112 209.424 47.4402 208.599 48.7082C207.834 50.1037 206.499 50.8983 204.594 51.0925C202.689 51.3473 200.784 50.9651 198.873 49.9519C196.968 48.8052 195.633 47.3127 194.868 45.4743C194.104 43.7573 194.104 42.2344 194.868 40.8996C195.633 39.5648 197.028 38.7698 199.061 38.515C200.839 38.3269 202.683 38.8001 204.588 39.9468M221.843 55.2C223.494 56.0919 224.701 57.3296 225.466 58.9192C226.163 60.5088 226.163 61.9044 225.466 63.1118C225.278 63.4273 225.114 63.6518 224.986 63.7792C224.161 64.5437 223.112 65.0169 221.837 65.211C220.12 65.3991 218.403 65.0533 216.692 64.1614C215.042 63.1421 213.835 61.8072 213.07 60.1569C212.372 58.634 212.372 57.263 213.07 56.0556C213.58 55.3579 214.217 54.8179 214.975 54.4357C215.546 54.1809 216.152 54.0231 216.789 53.9563C218.44 53.7683 220.126 54.1809 221.843 55.1941M340.331 51.3837C341.223 51.5111 342.588 51.6387 344.433 51.7661C346.465 51.7661 348.243 50.8133 349.772 48.9082C340.622 45.4134 322.002 37.884 293.917 26.3197C266.019 14.6888 244.857 8.90678 230.435 8.97352H226.145C229.13 9.61058 232.34 10.6602 235.774 12.1224C238.444 13.2024 242.412 15.2652 247.69 18.3171C269.933 30.6457 289.979 39.322 307.841 44.3397C316.359 46.7544 326.14 48.9145 337.201 50.8196C338.408 51.0077 339.458 51.2018 340.343 51.3899" fill="#C6629B"/>
</g>
</svg>
