<svg xmlns="http://www.w3.org/2000/svg" width="18.021" height="18.054" viewBox="0 0 18.021 18.054">
  <g id="Group_234" data-name="Group 234" transform="translate(-9637.918 5387.385)">
    <path id="Path_696" data-name="Path 696" d="M626.088,570.7H614.4a.176.176,0,0,0-.115-.033,3.472,3.472,0,0,1-3.049-3.411c-.009-3.26,0-6.52,0-9.78a3.163,3.163,0,0,1,.366-1.508,3.462,3.462,0,0,1,3.28-1.936c.159,0,.362.052.462-.025.119-.091.048-.308.038-.466a.794.794,0,0,1,.569-.9h.282a.8.8,0,0,1,.562.916c-.008.088.009.178,0,.263-.024.172.041.212.21.212,2.074-.007,4.149,0,6.222-.006.15,0,.346.065.44-.03s.039-.291.027-.44a.805.805,0,0,1,.566-.916h.282a.781.781,0,0,1,.565.894c-.008.092.011.189,0,.281-.031.19.056.232.224.214a3.326,3.326,0,0,1,.385,0,3.489,3.489,0,0,1,3.425,2.582c.049.179.081.363.121.544v10.4a.572.572,0,0,0-.031.1,3.476,3.476,0,0,1-2.658,2.941c-.159.038-.319.066-.478.1m-5.825-11.1q-3.7,0-7.407,0c-.185,0-.217.054-.217.225q.009,3.659,0,7.315a2.074,2.074,0,0,0,2.138,2.151q5.462,0,10.926,0a2.076,2.076,0,0,0,2.139-2.15q0-3.666,0-7.334c0-.178-.055-.206-.217-.206q-3.686.009-7.372,0m-.035-1.407H626.4c.422,0,.844-.007,1.266,0,.152,0,.192-.046.18-.188-.011-.17,0-.341,0-.511a2.092,2.092,0,0,0-1.337-1.918,3.618,3.618,0,0,0-1.321-.136c-.1,0-.086.074-.086.136,0,.4,0,.8,0,1.2a.7.7,0,1,1-1.406.006c0-.376-.009-.753,0-1.129,0-.164-.032-.22-.209-.217-.668.011-1.336,0-2,0-1.5,0-2.991,0-4.487,0-.15,0-.215.024-.209.2.015.381.007.763,0,1.145a.7.7,0,1,1-1.407,0c0-.393,0-.787,0-1.18,0-.127-.039-.164-.16-.157-.176.009-.352,0-.528,0a2.056,2.056,0,0,0-1.879,1.233,2.683,2.683,0,0,0-.181,1.26c0,.255,0,.255.247.255h7.337" transform="translate(9026.684 -5940.033)" fill="#0a8ae2"/>
    <path id="Path_697" data-name="Path 697" d="M615.673,564.212c.228,0,.457,0,.685,0a.7.7,0,0,1,.011,1.406q-.7.012-1.406,0a.7.7,0,0,1,.007-1.406c.234,0,.469,0,.7,0" transform="translate(9027.109 -5938.41)" fill="#0a8ae2"/>
    <path id="Path_698" data-name="Path 698" d="M622.954,565.622c-.228,0-.457,0-.685,0a.7.7,0,1,1,0-1.408c.451,0,.9,0,1.352,0a.705.705,0,1,1,0,1.409c-.222,0-.445,0-.667,0" transform="translate(9028.133 -5938.411)" fill="#0a8ae2"/>
    <path id="Path_699" data-name="Path 699" d="M622.956,560.564c.228,0,.457,0,.685,0a.7.7,0,1,1,0,1.407c-.457.006-.913.006-1.371,0a.7.7,0,1,1,0-1.407c.228,0,.457,0,.685,0" transform="translate(9028.133 -5938.922)" fill="#0a8ae2"/>
    <path id="Path_700" data-name="Path 700" d="M615.671,560.564c.228,0,.457,0,.685,0a.7.7,0,1,1,0,1.407q-.686.009-1.371,0a.7.7,0,1,1,0-1.408c.228,0,.457,0,.685,0" transform="translate(9027.109 -5938.922)" fill="#0a8ae2"/>
    <path id="Path_701" data-name="Path 701" d="M619.314,560.564c.228,0,.457,0,.685,0a.7.7,0,0,1,.008,1.406q-.7.012-1.406,0a.7.7,0,0,1,.01-1.406c.234,0,.469,0,.7,0" transform="translate(9027.62 -5938.922)" fill="#0a8ae2"/>
    <path id="Path_702" data-name="Path 702" d="M619.321,564.212c.228,0,.457,0,.685,0a.7.7,0,0,1,.011,1.4q-.712.015-1.423,0a.7.7,0,0,1,.006-1.4c.241-.006.48,0,.721,0" transform="translate(9027.62 -5938.41)" fill="#0a8ae2"/>
  </g>
</svg>
