<svg width="16" height="17" viewBox="0 0 16 17" fill="none" xmlns="http://www.w3.org/2000/svg">
<g clip-path="url(#clip0_1_49)">
<path d="M13.1882 16.0273H2.81098C2.78141 16.0059 2.74524 15.9955 2.70883 15.9979C1.96722 15.9069 1.28394 15.5497 0.785999 14.9927C0.288054 14.4356 0.00937794 13.7166 0.00181191 12.9695C-0.00617877 10.0751 0.00181191 7.18069 0.00181191 4.28629C-0.00272559 3.81993 0.108924 3.3598 0.326737 2.94741C0.590933 2.40756 1.00762 1.95701 1.52521 1.6515C2.0428 1.346 2.63862 1.19891 3.23892 1.22849C3.38009 1.22849 3.5603 1.27469 3.64909 1.20633C3.75474 1.12553 3.69173 0.932867 3.68285 0.792587C3.6531 0.620476 3.6883 0.443456 3.78164 0.295824C3.87497 0.148193 4.01977 0.0404406 4.18801 -0.00650295H4.43837C4.60766 0.0429178 4.75257 0.153576 4.84479 0.303899C4.93702 0.454221 4.96999 0.63347 4.93735 0.806784C4.93025 0.884915 4.94534 0.964823 4.93735 1.04029C4.91604 1.193 4.97377 1.22849 5.12382 1.22849C6.96523 1.22228 8.80751 1.22851 10.648 1.22318C10.7812 1.22318 10.9552 1.28087 11.0387 1.19652C11.1221 1.11217 11.0733 0.938207 11.0626 0.805917C11.0312 0.632231 11.0652 0.453026 11.158 0.302869C11.2507 0.152712 11.3958 0.0422112 11.5652 -0.00737H11.8156C11.9835 0.0379164 12.1283 0.144631 12.2212 0.291652C12.3141 0.438673 12.3484 0.615248 12.3172 0.786355C12.3101 0.868037 12.327 0.954164 12.3172 1.03585C12.2897 1.20454 12.3669 1.24182 12.5161 1.22584C12.6299 1.21924 12.7441 1.21924 12.8579 1.22584C13.5477 1.2148 14.2214 1.4343 14.7722 1.84957C15.3231 2.26484 15.7195 2.85215 15.8988 3.5183C15.9423 3.67723 15.9707 3.8406 16.0063 4.0013V13.2349C15.9944 13.2636 15.9852 13.2934 15.9787 13.3238C15.8983 13.9476 15.6293 14.532 15.2075 14.9987C14.7857 15.4654 14.2314 15.792 13.6188 15.9349C13.4776 15.9687 13.3355 15.9935 13.1944 16.0237M8.02267 6.16853C5.83264 6.16853 3.64049 6.16853 1.44631 6.16853C1.28205 6.16853 1.25366 6.21645 1.25366 6.36828C1.25899 8.53405 1.25899 10.6989 1.25366 12.8629C1.24416 13.1153 1.28669 13.3669 1.37857 13.6022C1.47045 13.8374 1.60973 14.0512 1.78776 14.2304C1.96579 14.4095 2.17876 14.55 2.41344 14.6433C2.64812 14.7366 2.89947 14.7807 3.15189 14.7727C6.38486 14.7727 9.61844 14.7727 12.8526 14.7727C13.1049 14.7805 13.3562 14.7364 13.5908 14.6431C13.8254 14.5498 14.0383 14.4094 14.2164 14.2304C14.3945 14.0514 14.5338 13.8377 14.6259 13.6027C14.718 13.3676 14.7608 13.1161 14.7517 12.8638C14.7517 10.6939 14.7517 8.52339 14.7517 6.35229C14.7517 6.19425 14.7029 6.1694 14.559 6.1694C12.3773 6.17472 10.1955 6.17472 8.01379 6.1694M7.98268 4.9202H13.4652C13.8399 4.9202 14.2146 4.91399 14.5892 4.9202C14.7242 4.9202 14.7597 4.87937 14.749 4.7533C14.7393 4.60236 14.749 4.45055 14.749 4.29962C14.7432 3.92985 14.6271 3.57024 14.4156 3.26686C14.2041 2.96348 13.9069 2.73011 13.5619 2.59669C13.1818 2.48442 12.7842 2.44349 12.3891 2.47595C12.3003 2.47595 12.3128 2.54164 12.3128 2.59669C12.3128 2.95183 12.3128 3.30698 12.3128 3.66212C12.3131 3.74409 12.2973 3.8253 12.2663 3.90116C12.2352 3.97702 12.1895 4.04606 12.1318 4.10426C12.0741 4.16247 12.0055 4.2087 11.9299 4.24039C11.8543 4.27208 11.7732 4.28859 11.6912 4.28894C11.6093 4.28929 11.5281 4.27349 11.4522 4.24245C11.3764 4.2114 11.3074 4.16571 11.2492 4.108C11.191 4.05029 11.1447 3.98168 11.113 3.90609C11.0813 3.83049 11.0648 3.7494 11.0644 3.66743C11.0644 3.3336 11.0564 2.99891 11.0644 2.66508C11.0644 2.51947 11.036 2.46971 10.8789 2.47238C10.2858 2.48214 9.69271 2.47238 9.10317 2.47238C7.77139 2.47238 6.44761 2.47238 5.11938 2.47238C4.9862 2.47238 4.9285 2.4937 4.93383 2.64996C4.94715 2.98823 4.94004 3.32741 4.93383 3.66657C4.93383 3.83222 4.86802 3.99108 4.75088 4.10822C4.63375 4.22535 4.47489 4.29116 4.30923 4.29116C4.14358 4.29116 3.98466 4.22535 3.86753 4.10822C3.75039 3.99108 3.68458 3.83222 3.68458 3.66657C3.68458 3.31764 3.68458 2.96783 3.68458 2.61891C3.68458 2.50615 3.64998 2.47326 3.54255 2.47947C3.38629 2.48747 3.23001 2.47947 3.07375 2.47947C2.71943 2.48035 2.37304 2.58432 2.07681 2.77871C1.78058 2.9731 1.54733 3.24953 1.4055 3.57423C1.26297 3.92883 1.20782 4.31254 1.24477 4.69293C1.24477 4.91933 1.24478 4.91934 1.46408 4.91934H7.97824" fill="#31225D"/>
<path d="M4.31817 11.7077C4.5206 11.7077 4.72391 11.7077 4.92634 11.7077C5.09188 11.7064 5.25116 11.7709 5.36913 11.8871C5.4871 12.0032 5.55414 12.1615 5.55544 12.327C5.55673 12.4925 5.4922 12.6518 5.37607 12.7698C5.25993 12.8878 5.10169 12.9547 4.93615 12.956C4.52182 12.9631 4.10571 12.9631 3.68782 12.956C3.52229 12.9552 3.36384 12.8887 3.24737 12.771C3.1309 12.6534 3.06593 12.4943 3.06675 12.3288C3.06757 12.1633 3.13412 12.0048 3.25176 11.8883C3.36939 11.7719 3.52846 11.7069 3.694 11.7077C3.90176 11.7077 4.11042 11.7077 4.31551 11.7077" fill="#31225D"/>
<path d="M11.6923 12.9591C11.4899 12.9591 11.2866 12.9591 11.0842 12.9591C10.9184 12.9591 10.7594 12.8933 10.6422 12.7761C10.525 12.6588 10.4591 12.4999 10.4591 12.3341C10.4591 12.1683 10.525 12.0093 10.6422 11.8921C10.7594 11.7749 10.9184 11.709 11.0842 11.709C11.4846 11.709 11.8832 11.709 12.2845 11.709C12.3687 11.7058 12.4526 11.7197 12.5313 11.7497C12.6099 11.7797 12.6817 11.8253 12.7423 11.8837C12.803 11.9421 12.8512 12.0121 12.8842 12.0895C12.9171 12.167 12.9341 12.2503 12.9341 12.3345C12.9341 12.4187 12.9171 12.502 12.8842 12.5795C12.8512 12.6569 12.803 12.727 12.7423 12.7854C12.6817 12.8438 12.6099 12.8893 12.5313 12.9193C12.4526 12.9494 12.3687 12.9632 12.2845 12.96C12.0874 12.96 11.8894 12.9591 11.6923 12.9591Z" fill="#31225D"/>
<path d="M11.6937 8.01452C11.8961 8.01452 12.0994 8.01452 12.3018 8.01452C12.4675 8.01452 12.6264 8.08033 12.7435 8.19747C12.8606 8.3146 12.9264 8.47346 12.9264 8.63912C12.9264 8.80477 12.8606 8.96363 12.7435 9.08077C12.6264 9.1979 12.4675 9.26371 12.3018 9.26371C11.8961 9.26904 11.4913 9.26904 11.0846 9.26371C10.919 9.26371 10.7601 9.1979 10.6429 9.08077C10.5258 8.96363 10.46 8.80477 10.46 8.63912C10.46 8.47346 10.5258 8.3146 10.6429 8.19747C10.7601 8.08033 10.919 8.01452 11.0846 8.01452C11.287 8.01452 11.4912 8.01452 11.6937 8.01452Z" fill="#31225D"/>
<path d="M4.31647 8.01458C4.5189 8.01458 4.72221 8.01458 4.92464 8.01458C5.0903 8.01458 5.24916 8.08039 5.36629 8.19752C5.48343 8.31466 5.54924 8.47352 5.54924 8.63917C5.54924 8.80483 5.48343 8.96369 5.36629 9.08083C5.24916 9.19796 5.0903 9.26377 4.92464 9.26377C4.5186 9.2691 4.11282 9.2691 3.70737 9.26377C3.54159 9.26377 3.38261 9.19794 3.26539 9.08072C3.14817 8.9635 3.08234 8.80451 3.08234 8.63874C3.08234 8.47297 3.14817 8.31398 3.26539 8.19677C3.38261 8.07955 3.54159 8.01366 3.70737 8.01366C3.9098 8.01366 4.11311 8.01366 4.31554 8.01366" fill="#31225D"/>
<path d="M8.00532 8.01453C8.20775 8.01453 8.41107 8.01453 8.6135 8.01453C8.77903 8.01359 8.93813 8.07844 9.05585 8.19483C9.17357 8.31121 9.24024 8.46958 9.24118 8.63512C9.24212 8.80066 9.17728 8.95981 9.06089 9.07753C8.9445 9.19525 8.78613 9.26187 8.6206 9.26281C8.20626 9.26991 7.79015 9.26991 7.37227 9.26281C7.20673 9.26163 7.04841 9.19477 6.93219 9.07688C6.81597 8.95899 6.75137 8.79979 6.75255 8.63425C6.75373 8.46872 6.82059 8.3104 6.93848 8.19418C7.05636 8.07795 7.21562 8.01336 7.38116 8.01453C7.58891 8.01453 7.79752 8.01453 8.00261 8.01453" fill="#31225D"/>
<path d="M8.01078 11.7079C8.21321 11.7079 8.41653 11.7079 8.61896 11.7079C8.78379 11.7066 8.94238 11.7709 9.05985 11.8865C9.17732 12.0021 9.24405 12.1597 9.24534 12.3245C9.24664 12.4894 9.18242 12.6479 9.06678 12.7654C8.95115 12.8829 8.7936 12.9496 8.62876 12.9509C8.20733 12.9598 7.78616 12.9598 7.36532 12.9509C7.20049 12.9502 7.0427 12.884 6.92665 12.767C6.81059 12.6499 6.74576 12.4916 6.74647 12.3267C6.74717 12.1619 6.81333 12.0041 6.93039 11.8881C7.04744 11.772 7.2058 11.7072 7.37063 11.7079C7.5846 11.7026 7.79681 11.7079 8.01078 11.7079Z" fill="#31225D"/>
</g>
<defs>
<clipPath id="clip0_1_49">
<rect width="16" height="16.0293" fill="white"/>
</clipPath>
</defs>
</svg>
