<svg xmlns="http://www.w3.org/2000/svg" width="24.43" height="24.474" viewBox="0 0 24.43 24.474">
  <g id="Group_224" data-name="Group 224" transform="translate(-193.614 -24.511)">
    <path id="Path_982" data-name="Path 982" d="M236.741,51.895H220.9a.233.233,0,0,0-.156-.045,4.707,4.707,0,0,1-4.133-4.623c-.013-4.419,0-8.838,0-13.258a4.274,4.274,0,0,1,.5-2.043,4.694,4.694,0,0,1,4.446-2.625c.214,0,.49.072.626-.034.161-.124.064-.417.051-.633A1.074,1.074,0,0,1,223,27.421h.382a1.079,1.079,0,0,1,.762,1.242c-.01.118.013.24,0,.357-.033.233.055.288.284.288,2.812-.009,5.623,0,8.435-.007.2,0,.467.088.6-.04s.052-.4.038-.6a1.091,1.091,0,0,1,.766-1.242h.382a1.061,1.061,0,0,1,.766,1.211c-.011.126.015.257-.005.38-.042.259.075.315.3.292a4.637,4.637,0,0,1,.523,0,4.733,4.733,0,0,1,4.642,3.5c.066.243.11.492.164.737v14.1a.77.77,0,0,0-.043.133,4.714,4.714,0,0,1-3.6,3.988c-.215.049-.432.088-.648.132M228.846,36.85q-5.021,0-10.042-.007c-.25,0-.294.072-.294.3q.012,4.958.005,9.916a2.813,2.813,0,0,0,2.9,2.916q7.407,0,14.811,0a2.813,2.813,0,0,0,2.9-2.914c0-3.314,0-6.627.006-9.941,0-.242-.074-.281-.294-.281q-5,.011-9.992.005m-.049-1.909h8.372c.573,0,1.145-.009,1.717.005.206.006.258-.062.245-.255-.017-.23,0-.462-.005-.693a2.835,2.835,0,0,0-1.812-2.6,4.894,4.894,0,0,0-1.79-.184c-.141,0-.116.1-.116.184,0,.542,0,1.083,0,1.624a.954.954,0,1,1-1.906.008c0-.511-.013-1.02,0-1.529.007-.223-.042-.3-.282-.294-.906.015-1.813.006-2.719.006-2.027,0-4.055,0-6.083,0-.2,0-.292.032-.282.267.02.518.009,1.036,0,1.553a.954.954,0,1,1-1.906-.006c0-.534-.007-1.066,0-1.6,0-.171-.051-.222-.215-.213-.238.013-.477,0-.715.006a2.791,2.791,0,0,0-2.548,1.67,3.658,3.658,0,0,0-.246,1.709c.005.346,0,.346.336.346H228.8" transform="translate(-22.991 -2.91)" fill="#fff"/>
    <path id="Path_983" data-name="Path 983" d="M223.756,47.42c.309,0,.619-.005.929,0a.953.953,0,0,1,.015,1.907q-.952.017-1.906,0a.953.953,0,0,1,.009-1.907c.317-.006.636,0,.953,0" transform="translate(-23.548 -5.033)" fill="#fff"/>
    <path id="Path_984" data-name="Path 984" d="M236.352,49.331c-.309,0-.619.005-.929,0a.955.955,0,1,1,.005-1.909q.917-.008,1.834,0a.955.955,0,1,1-.006,1.909c-.3,0-.6,0-.9,0" transform="translate(-24.886 -5.032)" fill="#fff"/>
    <path id="Path_985" data-name="Path 985" d="M236.354,41.111c.309,0,.619,0,.929,0a.954.954,0,1,1,0,1.908c-.619.008-1.238.007-1.857,0a.955.955,0,1,1,0-1.909c.309,0,.619,0,.929,0" transform="translate(-24.886 -4.363)" fill="#fff"/>
    <path id="Path_986" data-name="Path 986" d="M223.753,41.111c.309,0,.619,0,.929,0a.954.954,0,1,1,0,1.908q-.929.012-1.857,0a.954.954,0,1,1,0-1.908c.309,0,.619,0,.929,0" transform="translate(-23.548 -4.363)" fill="#fff"/>
    <path id="Path_987" data-name="Path 987" d="M230.053,41.112c.309,0,.619-.005.929,0a.954.954,0,0,1,.011,1.907q-.952.016-1.9,0a.953.953,0,0,1,.013-1.907c.317-.006.636,0,.953,0" transform="translate(-24.216 -4.363)" fill="#fff"/>
    <path id="Path_988" data-name="Path 988" d="M230.063,47.421c.309,0,.619-.006.929,0a.953.953,0,0,1,.015,1.906q-.964.02-1.929,0a.953.953,0,0,1,.009-1.9c.325-.008.651,0,.976,0" transform="translate(-24.216 -5.033)" fill="#fff"/>
  </g>
</svg>
