<svg width="7" height="7" viewBox="0 0 7 7" fill="none" xmlns="http://www.w3.org/2000/svg">
<g clip-path="url(#clip0_1_5639)">
<path d="M3.72531 0.445813C3.65034 0.440277 3.57518 0.437504 3.5 0.4375V0C3.58598 4.19246e-05 3.67194 0.00325244 3.75769 0.009625L3.72531 0.445813ZM4.60206 0.642687C4.46182 0.588571 4.31779 0.544848 4.17113 0.511875L4.26694 0.084875C4.4345 0.1225 4.59944 0.172375 4.75956 0.2345L4.60206 0.642687ZM5.20144 0.953312C5.13889 0.911597 5.07482 0.872195 5.00937 0.835187L5.22506 0.454563C5.37465 0.539322 5.5178 0.634954 5.65337 0.740687L5.38431 1.08588C5.325 1.0396 5.264 0.995529 5.20144 0.95375V0.953312ZM6.00381 1.73644C5.91727 1.61349 5.82179 1.49709 5.71812 1.38819L6.03487 1.08631C6.153 1.211 6.26238 1.34444 6.36169 1.48444L6.00381 1.73644ZM6.32931 2.32794C6.3006 2.25858 6.26937 2.19028 6.23569 2.12319L6.62637 1.92631C6.70364 2.07991 6.76944 2.23901 6.82325 2.40231L6.40762 2.53925C6.38411 2.46788 6.35799 2.39739 6.32931 2.32794ZM6.56119 3.42475C6.55765 3.2744 6.54303 3.12451 6.51744 2.97631L6.94837 2.90194C6.97769 3.07081 6.99475 3.24231 6.99913 3.41381L6.56163 3.42475H6.56119ZM6.50388 4.09763C6.51831 4.02325 6.53012 3.94931 6.53931 3.8745L6.97375 3.92831C6.95274 4.099 6.9191 4.2679 6.87313 4.43362L6.45138 4.31681C6.4715 4.24462 6.489 4.17156 6.50388 4.09763ZM6.08737 5.13844C6.16787 5.01156 6.23875 4.87856 6.3 4.74119L6.69988 4.91838C6.62987 5.07587 6.54894 5.22725 6.45706 5.3725L6.08737 5.13844ZM5.66562 5.66563C5.719 5.61225 5.77019 5.55712 5.81875 5.50025L6.15037 5.78594C6.09422 5.85105 6.0357 5.91409 5.97494 5.97494L5.66562 5.66563Z" fill="white"/>
<path d="M3.49978 0.4375C2.99616 0.437536 2.50033 0.56177 2.0562 0.799198C1.61206 1.03663 1.23333 1.37992 0.953555 1.79867C0.673779 2.21742 0.50159 2.69871 0.45224 3.1999C0.40289 3.70109 0.477902 4.20672 0.670632 4.672C0.863362 5.13728 1.16786 5.54784 1.55716 5.86734C1.94646 6.18683 2.40854 6.40538 2.90248 6.50364C3.39641 6.6019 3.90696 6.57684 4.38889 6.43066C4.87083 6.28449 5.30928 6.02172 5.6654 5.66563L5.97472 5.97494C5.56773 6.38215 5.06658 6.6827 4.51567 6.84994C3.96477 7.01718 3.38112 7.04595 2.81643 6.93371C2.25175 6.82147 1.72347 6.57168 1.27839 6.20647C0.833323 5.84127 0.485201 5.37192 0.264876 4.84001C0.0445507 4.30811 -0.0411762 3.73007 0.0152909 3.15712C0.0717581 2.58416 0.268676 2.03398 0.588597 1.55532C0.908518 1.07666 1.34156 0.684298 1.84937 0.413001C2.35717 0.141704 2.92405 -0.00015257 3.49978 1.23138e-07V0.4375Z" fill="white"/>
<path d="M3.28125 1.3125C3.33927 1.3125 3.39491 1.33555 3.43593 1.37657C3.47695 1.41759 3.5 1.47323 3.5 1.53125V3.81063L4.921 4.62262C4.96991 4.65213 5.00534 4.69959 5.01971 4.75488C5.03409 4.81016 5.02627 4.86887 4.99793 4.91846C4.96959 4.96806 4.92298 5.0046 4.86806 5.02028C4.81313 5.03596 4.75425 5.02953 4.704 5.00238L3.17275 4.12738C3.13927 4.10825 3.11144 4.08062 3.09208 4.04727C3.07272 4.01393 3.06251 3.97606 3.0625 3.9375V1.53125C3.0625 1.47323 3.08555 1.41759 3.12657 1.37657C3.16759 1.33555 3.22323 1.3125 3.28125 1.3125Z" fill="white"/>
</g>
<defs>
<clipPath id="clip0_1_5639">
<rect width="7" height="7" fill="white"/>
</clipPath>
</defs>
</svg>
