<svg xmlns="http://www.w3.org/2000/svg" width="20.535" height="20.523" viewBox="0 0 20.535 20.523">
  <g id="Group_237" data-name="Group 237" transform="translate(-930.451 -1136.28)">
    <path id="Path_840" data-name="Path 840" d="M237.516,42.519h-1.685c-.323-.047-.65-.078-.968-.145a10.171,10.171,0,0,1-8.07-7.245,10.731,10.731,0,0,1-.387-2.017V31.43c.009-.052.021-.1.026-.157a10.3,10.3,0,0,1,20.116-1.88,10.591,10.591,0,0,1,.393,2.037v1.682c-.047.322-.077.648-.145.966a10.166,10.166,0,0,1-7.26,8.054,10.822,10.822,0,0,1-2.02.387m7.808-10.245a8.65,8.65,0,1,0-8.653,8.63,8.653,8.653,0,0,0,8.653-8.63" transform="translate(704.045 1114.284)" fill="#fff"/>
    <path id="Path_841" data-name="Path 841" d="M237.189,30.614c0-.793,0-1.587,0-2.381a.8.8,0,0,1,.59-.77.818.818,0,0,1,.911.344.912.912,0,0,1,.131.515c0,1.334,0,2.668-.005,4a.475.475,0,0,0,.215.434c.86.633,1.712,1.278,2.568,1.917a.849.849,0,0,1,.394.7.773.773,0,0,1-.4.711.764.764,0,0,1-.819,0,4.413,4.413,0,0,1-.407-.292c-.91-.679-1.814-1.366-2.729-2.038a1.01,1.01,0,0,1-.453-.9c.015-.747,0-1.494,0-2.241Z" transform="translate(702.714 1113.613)" fill="#fff"/>
  </g>
</svg>
