<svg xmlns="http://www.w3.org/2000/svg" width="19.257" height="19.247" viewBox="0 0 19.257 19.247">
  <g id="Group_235" data-name="Group 235" transform="translate(-9637.301 5359.034)">
    <path id="Path_703" data-name="Path 703" d="M621.111,596.756h-1.579c-.3-.044-.609-.073-.909-.136a9.538,9.538,0,0,1-7.567-6.794,10.063,10.063,0,0,1-.363-1.892v-1.577c.008-.049.019-.1.024-.147a9.656,9.656,0,0,1,18.865-1.764,9.986,9.986,0,0,1,.368,1.911v1.577c-.044.3-.073.608-.136.907a9.532,9.532,0,0,1-6.808,7.553,10.093,10.093,0,0,1-1.9.363m7.322-9.608a8.112,8.112,0,1,0-8.115,8.093,8.114,8.114,0,0,0,8.115-8.093" transform="translate(9026.607 -5936.543)" fill="#0a8ae2"/>
    <path id="Path_704" data-name="Path 704" d="M618.466,584.412c0-.745,0-1.488,0-2.233a.754.754,0,0,1,.553-.723.77.77,0,0,1,.855.323.862.862,0,0,1,.122.483c0,1.251,0,2.5,0,3.752a.445.445,0,0,0,.2.407c.807.594,1.606,1.2,2.409,1.8a.8.8,0,0,1,.371.659.76.76,0,0,1-1.147.664,4.653,4.653,0,0,1-.381-.274c-.853-.637-1.7-1.281-2.559-1.911a.947.947,0,0,1-.424-.844c.014-.7,0-1.4,0-2.1Z" transform="translate(9027.698 -5935.994)" fill="#0a8ae2"/>
  </g>
</svg>
