<svg width="389" height="588" viewBox="0 0 389 588" fill="none" xmlns="http://www.w3.org/2000/svg">
<mask id="mask0_8_125" style="mask-type:alpha" maskUnits="userSpaceOnUse" x="0" y="0" width="389" height="588">
<rect width="389" height="588" fill="#D9D9D9"/>
</mask>
<g mask="url(#mask0_8_125)">
<g opacity="0.12">
<path d="M338.763 200.277C339.757 205.738 340.938 210.334 342.294 214.052C343.673 217.891 344.884 220.876 345.927 223.021C346.945 225.141 348.222 226.397 349.765 226.775C351.283 227.16 353.024 227.07 354.994 226.505C356.916 225.988 358.32 224.949 359.206 223.393C360.019 221.789 359.814 220.143 358.597 218.449C357.332 216.737 355.506 216.149 353.133 216.689C350.777 217.23 348.999 218.449 347.8 220.348C346.125 217.704 344.782 214.527 343.758 210.802C342.715 207.102 342.046 203.816 341.757 200.95L362.875 196.547C363.803 201.491 364.899 205.672 366.171 209.102C367.55 212.941 368.761 215.926 369.804 218.071C370.822 220.191 372.099 221.453 373.642 221.861C375.16 222.222 376.901 222.132 378.871 221.591C380.793 221.05 382.197 219.999 383.083 218.443C383.896 216.839 383.691 215.206 382.474 213.536C381.209 211.799 379.383 211.211 377.01 211.775C374.835 212.274 373.16 213.331 371.985 214.959C368.026 207.985 365.67 199.22 364.923 188.66L337.799 194.042C338.094 196.229 338.419 198.307 338.781 200.272L338.763 200.277Z" fill="#239CD1"/>
<path d="M267.171 394.506L267.079 394.414C264.13 391.32 262.635 387.646 262.635 383.489C262.635 379.339 264.13 375.664 267.079 372.57L267.171 372.478C270.266 369.53 273.941 368.035 278.098 368.035C282.396 368.035 286.089 369.543 289.069 372.527L289.117 372.576C292.066 375.671 293.562 379.345 293.562 383.501C293.562 387.652 292.066 391.326 289.117 394.427L289.069 394.476C286.089 397.454 282.396 398.962 278.098 398.962C273.947 398.962 270.272 397.466 267.177 394.518L267.171 394.506ZM288.104 383.489C288.104 380.755 287.152 378.423 285.186 376.354C283.245 374.426 280.925 373.485 278.092 373.485C275.369 373.485 273.043 374.432 270.98 376.379C269.033 378.442 268.086 380.773 268.086 383.489C268.086 386.211 269.033 388.537 270.98 390.606C273.043 392.553 275.376 393.499 278.092 393.499C280.809 393.499 283.245 392.559 285.186 390.63C287.145 388.561 288.104 386.223 288.104 383.495V383.489Z" fill="#239CD1"/>
<path d="M374.252 260.572L374.205 260.525C372.67 258.913 371.894 257.002 371.894 254.843C371.894 252.684 372.67 250.773 374.205 249.161L374.252 249.114C375.863 247.578 377.774 246.802 379.932 246.802C382.167 246.802 384.089 247.59 385.642 249.137L385.665 249.161C387.2 250.773 387.976 252.684 387.976 254.843C387.976 257.002 387.2 258.919 385.665 260.525L385.642 260.549C384.089 262.096 382.172 262.884 379.932 262.884C377.774 262.884 375.863 262.108 374.252 260.572ZM385.142 254.837C385.142 253.414 384.648 252.202 383.625 251.125C382.613 250.12 381.408 249.631 379.938 249.631C378.521 249.631 377.31 250.125 376.239 251.137C375.228 252.214 374.734 253.425 374.734 254.837C374.734 256.255 375.228 257.466 376.239 258.537C377.315 259.549 378.527 260.043 379.938 260.043C381.408 260.043 382.619 259.555 383.625 258.549C384.648 257.472 385.142 256.255 385.142 254.837Z" fill="#239CD1"/>
<path d="M340.235 250.675L340.184 250.628C338.531 249.017 337.695 247.105 337.695 244.946C337.695 242.787 338.531 240.876 340.184 239.264L340.235 239.217C341.97 237.682 344.028 236.905 346.352 236.905C348.758 236.905 350.829 237.693 352.5 239.24L352.526 239.264C354.178 240.876 355.014 242.787 355.014 244.946C355.014 247.105 354.178 249.022 352.526 250.628L352.5 250.652C350.829 252.199 348.764 252.987 346.352 252.987C344.028 252.987 341.97 252.211 340.235 250.675ZM351.962 244.94C351.962 243.517 351.43 242.305 350.328 241.228C349.239 240.223 347.941 239.734 346.358 239.734C344.832 239.734 343.527 240.229 342.375 241.24C341.286 242.317 340.754 243.528 340.754 244.94C340.754 246.358 341.286 247.57 342.375 248.64C343.534 249.652 344.838 250.146 346.358 250.146C347.878 250.146 349.246 249.658 350.328 248.652C351.43 247.575 351.962 246.358 351.962 244.94Z" fill="#239CD1"/>
<path d="M108.056 267.051C106.319 260.275 103.613 255.888 99.9263 253.883C96.2459 251.836 93.4251 251.026 91.482 251.452C89.4905 251.836 88.2193 252.366 87.6745 253.049C90.3864 253.859 92.7773 255.455 94.8475 257.844C96.7967 259.934 98.298 262.444 99.3573 265.387C100.84 269.689 101.349 275.533 100.883 282.905C100.247 292.538 98.7882 301.977 96.5001 311.22L93.6429 322.151C88.2253 335.446 85.919 345.975 86.718 353.732C87.5231 361.488 89.8294 368.879 93.6429 375.911C97.3233 382.857 101.984 388.505 107.614 392.85C107.614 383.046 108.207 374.972 109.394 368.623C110.538 362.189 112.783 355.669 116.125 349.065C119.388 342.46 122.602 338.791 125.78 338.072C129 337.39 131.984 337.713 134.733 339.029C136.343 329.694 133.74 325.837 126.924 327.458C119.981 329.036 114.878 334.745 111.621 344.592C108.316 354.396 106.306 360.422 105.586 362.682C105.756 358.935 106.01 354.969 106.349 350.795C106.984 343.763 107.681 338.03 108.443 333.6C110.265 322.736 112.995 312.439 116.633 302.726C120.193 292.922 125.568 283.271 132.765 273.771C133.443 272.833 134.097 272.005 134.733 271.279C126.73 268.422 120.447 274.07 115.871 288.218C111.131 302.409 107.892 314.663 106.155 324.972C104.375 335.245 103.256 344.446 102.789 352.586C102.323 360.94 102.009 368.91 101.839 376.496C100.017 369.678 98.6611 363.347 97.7774 357.51C95.6587 343.66 95.8947 331.023 98.4734 319.604C100.211 308.868 102.662 299.125 105.84 290.394C109.018 281.613 109.757 273.839 108.062 267.063M100.568 235.677C101.882 232.143 100.822 228.073 97.39 223.467C97.1358 223.083 93.1587 218.927 85.4528 211L83.4855 218.86C82.7652 221.76 82.3657 223.869 82.2809 225.191C81.9843 227.494 81.9239 229.578 82.0934 231.455C82.6019 235.032 84.212 238.169 86.9178 240.85C89.4178 243.452 92.2326 245.091 95.3621 245.774C97.8621 241.685 99.5934 238.316 100.568 235.671V235.677Z" fill="#ADC880"/>
<path d="M391.994 443.323C390.662 438.203 388.581 434.89 385.758 433.382C382.934 431.838 380.774 431.223 379.276 431.546C377.748 431.837 376.772 432.239 376.354 432.749C378.435 433.364 380.27 434.567 381.86 436.367C383.352 437.942 384.505 439.845 385.322 442.064C386.457 445.317 386.85 449.725 386.494 455.288C386.009 462.559 384.886 469.685 383.131 476.671L380.939 484.927C376.784 494.965 375.01 502.918 375.63 508.773C376.25 514.628 378.018 520.209 380.939 525.523C383.763 530.77 387.341 535.032 391.662 538.315C391.662 530.916 392.117 524.818 393.025 520.021C393.903 515.163 395.621 510.238 398.193 505.253C400.697 500.267 403.165 497.501 405.602 496.953C408.069 496.437 410.358 496.68 412.47 497.677C413.704 490.63 411.709 487.718 406.479 488.94C401.152 490.132 397.236 494.442 394.737 501.878C392.203 509.277 390.662 513.831 390.109 515.54C390.238 512.706 390.435 509.715 390.693 506.56C391.177 501.252 391.718 496.923 392.301 493.573C393.7 485.365 395.793 477.595 398.586 470.262C401.317 462.863 405.442 455.573 410.96 448.399C411.482 447.694 411.985 447.062 412.47 446.514C406.332 444.356 401.507 448.624 397.997 459.306C394.357 470.019 391.871 479.273 390.539 487.061C389.176 494.813 388.311 501.769 387.955 507.915C387.599 514.22 387.354 520.239 387.225 525.967C385.825 520.817 384.788 516.038 384.107 511.63C382.48 501.173 382.658 491.634 384.641 483.006C385.973 474.896 387.857 467.545 390.294 460.948C392.73 454.321 393.301 448.448 392 443.328M386.249 419.629C387.255 416.96 386.445 413.883 383.812 410.412C383.616 410.12 380.565 406.983 374.654 401L373.144 406.934C372.592 409.123 372.285 410.716 372.217 411.713C371.99 413.452 371.941 415.026 372.07 416.443C372.463 419.149 373.697 421.514 375.771 423.538C377.686 425.502 379.847 426.742 382.253 427.253C384.168 424.165 385.5 421.623 386.249 419.629Z" fill="#ADC880"/>
<path d="M17.8496 549.693C18.3871 552.515 19.0223 554.883 19.7552 556.803C20.5002 558.781 21.1537 560.329 21.7156 561.435C22.2652 562.529 22.9553 563.174 23.7858 563.372C24.6042 563.57 25.5448 563.524 26.6135 563.233C27.6518 562.965 28.409 562.43 28.8854 561.627C29.3251 560.8 29.2152 559.951 28.5556 559.078C27.8716 558.194 26.8883 557.891 25.5997 558.17C24.3294 558.45 23.3705 559.078 22.7171 560.056C21.8132 558.694 21.0864 557.047 20.5368 555.127C19.9749 553.219 19.6147 551.52 19.4559 550.042L30.8641 547.772C31.3649 550.321 31.9573 552.486 32.6413 554.255C33.3864 556.233 34.0398 557.781 34.6017 558.886C35.1513 559.98 35.8415 560.632 36.6721 560.841C37.4905 561.027 38.4309 560.981 39.4997 560.702C40.5379 560.422 41.2952 559.881 41.7715 559.078C42.2112 558.252 42.1014 557.408 41.4419 556.547C40.7579 555.651 39.7745 555.348 38.4859 555.639C37.3133 555.895 36.4095 556.442 35.7682 557.28C33.6307 553.679 32.3543 549.151 31.9512 543.699L17.2939 546.481C17.4527 547.61 17.6298 548.68 17.8252 549.698L17.8496 549.693Z" fill="#CD3E5A"/>
<path d="M339.936 541.862C340.877 546.969 341.988 551.267 343.273 554.748C344.577 558.338 345.724 561.135 346.707 563.141C347.673 565.123 348.88 566.295 350.335 566.658C351.771 567.015 353.419 566.932 355.278 566.403C357.095 565.914 358.422 564.944 359.261 563.492C360.034 561.992 359.841 560.45 358.682 558.867C357.481 557.26 355.761 556.713 353.515 557.218C351.288 557.724 349.611 558.867 348.476 560.641C346.895 558.171 345.621 555.195 344.655 551.713C343.672 548.249 343.038 545.178 342.76 542.499L362.732 538.38C363.607 543.005 364.645 546.921 365.846 550.13C367.15 553.719 368.296 556.516 369.28 558.522C370.246 560.504 371.453 561.688 372.908 562.069C374.344 562.409 375.992 562.325 377.851 561.814C379.667 561.308 380.995 560.325 381.834 558.867C382.607 557.367 382.413 555.838 381.255 554.278C380.053 552.653 378.333 552.106 376.088 552.629C374.036 553.094 372.449 554.088 371.338 555.605C367.59 549.082 365.369 540.88 364.657 531L339 536.035C339.278 538.083 339.592 540.023 339.929 541.862H339.936Z" fill="#CD3E5A"/>
<path d="M299.109 198.882C298.557 196.233 297.195 194.179 295.029 192.708C292.862 191.236 290.538 190.798 288.054 191.387C285.571 191.975 283.645 193.428 282.266 195.739C280.886 198.049 280.475 200.529 281.027 203.178C281.579 205.827 282.941 207.881 285.107 209.353C287.274 210.824 289.598 211.263 292.082 210.674C294.565 210.085 296.491 208.633 297.87 206.322C299.25 204.011 299.661 201.531 299.109 198.882Z" fill="#FA8536"/>
<path d="M387.999 230.881C387.705 229.555 386.979 228.53 385.824 227.793C384.668 227.057 383.428 226.842 382.102 227.136C380.776 227.431 379.751 228.156 379.014 229.311C378.278 230.467 378.063 231.708 378.357 233.033C378.652 234.359 379.377 235.384 380.533 236.121C381.688 236.857 382.929 237.072 384.255 236.778C385.58 236.483 386.606 235.758 387.342 234.603C388.079 233.447 388.294 232.206 387.999 230.881Z" fill="#FA8536"/>
<path d="M248.885 385.517C248.553 384.195 247.737 383.162 246.435 382.43C245.134 381.698 243.739 381.474 242.252 381.769C240.765 382.064 239.602 382.79 238.779 383.947C237.956 385.104 237.703 386.343 238.035 387.665C238.367 388.987 239.184 390.02 240.486 390.752C241.787 391.484 243.181 391.709 244.669 391.413C246.156 391.118 247.318 390.392 248.142 389.235C248.965 388.079 249.217 386.839 248.885 385.517Z" fill="#C6629B"/>
<path d="M261.146 430.212C260.559 427.563 259.103 425.508 256.79 424.039C254.477 422.571 252 422.131 249.351 422.718C246.702 423.305 244.646 424.761 243.178 427.074C241.709 429.386 241.269 431.864 241.856 434.513C242.444 437.162 243.9 439.218 246.212 440.686C248.525 442.154 251.002 442.595 253.652 442.008C256.301 441.42 258.356 439.964 259.824 437.652C261.293 435.339 261.733 432.861 261.146 430.212Z" fill="#FA8536"/>
<path d="M258.797 536.922C258.502 535.43 257.777 534.277 256.621 533.448C255.465 532.62 254.225 532.378 252.899 532.709C251.574 533.04 250.548 533.856 249.812 535.156C249.075 536.456 248.86 537.852 249.155 539.343C249.449 540.835 250.174 541.988 251.33 542.817C252.486 543.645 253.726 543.887 255.052 543.556C256.378 543.225 257.403 542.409 258.139 541.109C258.876 539.809 259.091 538.413 258.797 536.922Z" fill="#FA8536"/>
<path d="M0.513509 536.983C1.46 536.801 2.33359 536.983 3.14054 537.523C3.94748 538.069 4.44497 538.809 4.62699 539.755C4.80901 540.702 4.62705 541.575 4.08707 542.382C3.54101 543.189 2.80085 543.687 1.85435 543.869C0.907858 544.051 0.0341236 543.869 -0.772823 543.329C-1.57977 542.783 -2.07726 542.042 -2.25927 541.096C-2.44129 540.15 -2.25934 539.276 -1.71935 538.469C-1.1733 537.662 -0.432985 537.165 0.513509 536.983Z" fill="#FA8536"/>
<path d="M100.289 533.519C77.0026 534.351 63.0054 534.842 58.2972 534.994C47.0789 535.527 37.2983 534.678 28.9559 532.445C4.17713 525.82 -17.0098 506.144 -34.6109 473.429C-43.2022 457.314 -49.9611 440.836 -54.8756 424.005C-58.4188 411.768 -62.3019 393.529 -66.5308 369.296C-62.4111 389.658 -54.8574 409.65 -43.8514 429.271C-32.2872 449.512 -22.0274 464.722 -13.06 474.903C-4.06829 484.999 8.19375 495.326 23.7381 505.877C39.3613 516.452 56.1919 521.233 74.2238 520.22C92.4256 519.255 110.47 520.663 128.35 524.455C146.254 528.162 163.164 535.94 179.078 547.783C195.078 559.651 207.516 573.132 216.392 588.234C212.643 586.917 207.661 583.605 201.454 578.308C195.272 572.926 182.682 563.928 163.686 551.321C144.713 538.628 123.587 532.694 100.301 533.525" fill="#239CD1"/>
<path d="M-61.6584 309.443C-62.435 304.013 -61.9254 300.221 -60.1355 298.067L-51.0164 337.249C-48.274 349.08 -46.0777 357.611 -44.4214 362.829C-38.4148 381.334 -28.8649 398.771 -15.7657 415.141C-3.41269 430.57 11.3309 444.142 28.4648 455.87C58.2855 476.256 95.2412 491.218 139.332 500.756C156.363 504.312 165.094 506.15 165.518 506.265C175.487 508.583 183.999 511.186 191.068 514.068C203.439 519.255 216.059 527.161 228.921 537.79C234.072 541.971 237.883 546.188 240.352 550.447C243.61 555.835 244.35 560.895 242.579 565.615C227.556 545.969 203.493 530.71 170.384 519.837C161.987 517.131 148.045 513.34 128.544 508.455C110.428 503.863 96.5275 499.901 86.8441 496.564C58.4735 486.741 33.1851 472.422 10.9789 453.607C-12.2527 433.87 -29.775 411.057 -41.588 385.168C-50.8163 364.758 -57.5084 339.518 -61.6645 309.449" fill="#239CD1"/>
<path d="M116.925 259.544C117.496 261.194 118.988 263.451 121.403 266.309C119.116 267.899 106.12 267.547 82.4148 265.259C58.71 262.845 36.2489 253.058 15.0195 235.9C6.56779 228.783 -1.72617 222.364 -9.86238 216.643C-9.95946 216.545 -10.0504 216.454 -10.1475 216.357C-20.1889 209.174 -29.848 203.009 -39.1248 197.864C-42.3647 196.275 -45.7988 194.655 -49.4209 193.004C-52.6002 191.542 -55.4578 190.207 -58 189C-49.1054 224.081 -33.7855 247.974 -12.0526 260.685C9.61971 273.456 39.9317 282.102 78.8836 286.61C117.902 291.057 138.27 292.362 139.987 290.518C141.704 288.673 141.51 284.99 139.417 279.463C137.384 273.936 134.587 270.156 131.032 268.117C127.47 265.957 125.79 263.542 125.978 260.873C126.166 258.076 129.375 256.681 135.606 256.681C136.814 253.823 135.795 251.626 132.555 250.103C129.375 249.661 126.136 249.181 122.835 248.672C92.9658 243.017 61.0034 228.874 26.9418 206.255C22.0516 202.949 17.0946 200.279 12.0709 198.247L11.6886 197.961C1.71398 198.028 -6.29472 198.374 -12.3317 199.011C-14.0487 199.078 -15.7294 199.108 -17.3857 199.108L2.44206 210.163C12.6108 216.454 25.3521 224.269 40.6659 233.613C55.9796 242.956 75.0127 249.121 97.765 252.106C102.152 252.743 106.538 253.283 110.919 253.726C115.239 254.041 117.144 254.678 116.64 255.631C116.197 256.523 116.288 257.821 116.925 259.538M34.089 257.439C34.5987 258.774 34.5987 259.914 34.089 260.873C33.3913 261.825 32.4023 262.365 31.1342 262.493C29.7387 262.62 28.3675 262.335 27.0327 261.637C25.7647 260.812 24.7758 259.763 24.078 258.495C23.5684 257.226 23.5684 256.11 24.078 255.158C24.7758 254.266 25.7647 253.726 27.0327 253.538C28.3675 253.41 29.7327 253.726 31.1342 254.49C32.4023 255.188 33.3913 256.177 34.089 257.445M-5.08737 228.941C-3.18224 229.96 -1.78076 231.356 -0.894937 233.133C-0.197201 234.911 -0.257909 236.44 -1.08306 237.708C-1.84753 239.104 -3.18224 239.898 -5.08737 240.092C-6.99249 240.347 -8.89757 239.965 -10.8088 238.952C-12.7139 237.805 -14.0487 236.313 -14.8132 234.474C-15.5777 232.757 -15.5777 231.234 -14.8132 229.9C-14.0487 228.565 -12.6533 227.77 -10.6208 227.515C-8.84308 227.327 -6.99856 227.8 -5.09344 228.947M12.1618 244.2C13.8121 245.092 15.0195 246.33 15.784 247.919C16.4817 249.509 16.4817 250.904 15.784 252.112C15.5959 252.427 15.4321 252.652 15.3046 252.779C14.4795 253.544 13.4299 254.017 12.1558 254.211C10.4387 254.399 8.7217 254.053 7.01073 253.161C5.36044 252.142 4.15307 250.807 3.38859 249.157C2.69085 247.634 2.69085 246.263 3.38859 245.056C3.89824 244.358 4.53524 243.818 5.29365 243.436C5.86397 243.181 6.47069 243.023 7.10776 242.956C8.75805 242.768 10.4448 243.181 12.1618 244.194M130.65 240.384C131.541 240.511 132.907 240.639 134.751 240.766C136.784 240.766 138.561 239.813 140.09 237.908C130.941 234.413 112.32 226.884 84.235 215.32C56.3377 203.689 35.1751 197.907 20.7532 197.974H16.4636C19.4487 198.611 22.6582 199.66 26.0923 201.122C28.7619 202.202 32.7299 204.265 38.0085 207.317C60.2511 219.646 80.2973 228.322 98.1593 233.34C106.678 235.754 116.458 237.914 127.519 239.82C128.726 240.008 129.776 240.202 130.662 240.39" fill="#C6629B"/>
<path d="M130.97 336.519C107.684 337.351 93.6871 337.842 88.9789 337.994C77.7605 338.527 67.98 337.678 59.6375 335.445C34.8588 328.82 13.6718 309.144 -3.9293 276.429C-12.5206 260.314 -19.2794 243.836 -24.1939 227.005C-27.7372 214.768 -31.6202 196.529 -35.8491 172.296C-31.7294 192.658 -24.1758 212.65 -13.1697 232.271C-1.60552 252.512 8.65423 267.722 17.6217 277.903C26.6133 287.999 38.8754 298.326 54.4197 308.877C70.043 319.452 86.8735 324.233 104.905 323.22C123.107 322.255 141.151 323.663 159.032 327.455C176.936 331.162 193.846 338.94 209.76 350.783C225.759 362.651 238.197 376.132 247.074 391.234C243.324 389.917 238.343 386.605 232.136 381.308C225.954 375.926 213.364 366.928 194.367 354.321C175.395 341.628 154.269 335.694 130.983 336.525" fill="#239CD1"/>
<path d="M-30.9768 112.443C-31.7534 107.013 -31.2437 103.221 -29.4539 101.067L-20.3348 140.249C-17.5924 152.08 -15.3961 160.611 -13.7397 165.829C-7.73312 184.334 1.81675 201.771 14.916 218.141C27.269 233.57 42.0125 247.142 59.1465 258.87C88.9671 279.256 125.923 294.218 170.014 303.756C187.045 307.312 195.775 309.15 196.2 309.265C206.169 311.583 214.681 314.186 221.749 317.068C234.12 322.255 246.74 330.161 259.603 340.79C264.754 344.971 268.564 349.188 271.034 353.447C274.292 358.835 275.032 363.895 273.26 368.615C258.238 348.969 234.175 333.71 201.066 322.837C192.669 320.131 178.726 316.34 159.226 311.455C141.109 306.863 127.209 302.901 117.526 299.564C89.1552 289.741 63.8668 275.422 41.6606 256.607C18.429 236.87 0.906628 214.057 -10.9063 188.168C-20.1347 167.758 -26.8268 142.518 -30.9828 112.449" fill="#239CD1"/>
<path d="M147.607 62.5442C148.177 64.1945 149.67 66.4514 152.085 69.3091C149.797 70.8987 136.801 70.5468 113.096 68.2595C89.3916 65.8447 66.9305 56.0584 45.7011 38.9002C37.2494 31.7833 28.9555 25.364 20.8193 19.6425C20.7222 19.5454 20.6312 19.4543 20.5341 19.3572C10.4928 12.1736 0.833688 6.00924 -8.44317 0.864199C-11.6831 -0.725426 -15.1171 -2.34525 -18.7393 -3.99554C-21.9186 -5.45775 -24.7762 -6.79261 -27.3184 -8C-18.4237 27.081 -3.1039 50.9738 18.6291 63.6847C40.3013 76.4563 70.6134 85.1022 109.565 89.6102C148.584 94.0575 168.952 95.3622 170.669 93.5178C172.386 91.6733 172.192 87.9903 170.098 82.4631C168.066 76.9358 165.269 73.1557 161.713 71.1171C158.152 68.9572 156.471 66.5425 156.659 63.8729C156.848 61.0758 160.057 59.6806 166.288 59.6806C167.496 56.8229 166.476 54.6263 163.236 53.1035C160.057 52.6605 156.817 52.1813 153.517 51.6717C123.647 46.017 91.6851 31.8741 57.6234 9.25528C52.7332 5.94862 47.7762 3.2792 42.7525 1.24666L42.3702 0.96137C32.3956 1.02811 24.3869 1.37393 18.35 2.011C16.633 2.07774 14.9523 2.10817 13.2959 2.10817L33.1237 13.1626C43.2924 19.4543 56.0337 27.2692 71.3475 36.6128C86.6613 45.9564 105.694 52.1207 128.447 55.1058C132.833 55.7429 137.22 56.2828 141.6 56.7257C145.92 57.0412 147.825 57.6784 147.322 58.6309C146.879 59.5228 146.97 60.8212 147.607 62.5382M64.7707 60.439C65.2803 61.7738 65.2803 62.9142 64.7707 63.8729C64.0729 64.8254 63.0839 65.3654 61.8158 65.4928C60.4204 65.6202 59.0492 65.3352 57.7144 64.6375C56.4463 63.8123 55.4574 62.7626 54.7597 61.4945C54.25 60.2265 54.25 59.1101 54.7597 58.1575C55.4574 57.2656 56.4463 56.7257 57.7144 56.5376C59.0492 56.4102 60.4143 56.7256 61.8158 57.4901C63.0839 58.1878 64.0729 59.1768 64.7707 60.4449M25.5943 31.9409C27.4994 32.9602 28.9009 34.3558 29.7867 36.1335C30.4844 37.9112 30.4237 39.4402 29.5986 40.7082C28.8341 42.1037 27.4994 42.8983 25.5943 43.0925C23.6892 43.3473 21.7841 42.9651 19.8729 41.9519C17.9678 40.8052 16.6329 39.3127 15.8684 37.4743C15.1039 35.7573 15.1039 34.2344 15.8684 32.8996C16.6329 31.5648 18.0283 30.7698 20.0609 30.515C21.8386 30.3269 23.6831 30.8001 25.5882 31.9468M42.8435 47.2C44.4938 48.0919 45.7011 49.3296 46.4656 50.9192C47.1634 52.5088 47.1634 53.9044 46.4656 55.1118C46.2775 55.4273 46.1137 55.6518 45.9863 55.7792C45.1611 56.5437 44.1115 57.0169 42.8374 57.211C41.1204 57.3991 39.4033 57.0533 37.6924 56.1614C36.0421 55.1421 34.8347 53.8072 34.0702 52.1569C33.3725 50.634 33.3725 49.263 34.0702 48.0556C34.5799 47.3579 35.2169 46.8179 35.9753 46.4357C36.5456 46.1809 37.1523 46.0231 37.7894 45.9563C39.4397 45.7683 41.1264 46.1809 42.8435 47.1941M161.331 43.3837C162.223 43.5111 163.588 43.6387 165.433 43.7661C167.465 43.7661 169.243 42.8133 170.772 40.9082C161.622 37.4134 143.002 29.884 114.917 18.3197C87.0193 6.68879 65.8567 0.906776 51.4348 0.973516H47.1452C50.1303 1.61058 53.3398 2.66018 56.7739 4.12239C59.4435 5.20237 63.4116 7.26522 68.6901 10.3171C90.9327 22.6457 110.979 31.322 128.841 36.3397C137.359 38.7544 147.14 40.9145 158.201 42.8196C159.408 43.0077 160.458 43.2018 161.343 43.3899" fill="#C6629B"/>
</g>
</g>
</svg>
