<svg id="Group_222" data-name="Group 222" xmlns="http://www.w3.org/2000/svg" xmlns:xlink="http://www.w3.org/1999/xlink" width="123.818" height="196.914" viewBox="0 0 123.818 196.914">
  <defs>
    <clipPath id="clip-path">
      <rect id="Rectangle_135" data-name="Rectangle 135" width="123.818" height="196.914" fill="none"/>
    </clipPath>
  </defs>
  <g id="Group_221" data-name="Group 221" clip-path="url(#clip-path)">
    <path id="Path_989" data-name="Path 989" d="M120.262,186.107a.567.567,0,0,0-.189-.447,1.369,1.369,0,0,0-.424-.211l-.609-.093-.472.093a1.351,1.351,0,0,0-.516.259.683.683,0,0,0-.186.588l.117,6.718.045.306a.724.724,0,0,0,.354.375,1.815,1.815,0,0,0,.892.165,1.415,1.415,0,0,0,.706-.141,1.013,1.013,0,0,0,.327-.351,1.274,1.274,0,0,0,.1-.52Z" fill="#f1a148"/>
    <path id="Path_990" data-name="Path 990" d="M116.76,189.209c-.093-.174-.195-.267-.306-.282l-.775-.448a3.732,3.732,0,0,0-2.02-.444,4.191,4.191,0,0,0-.985.186,2.706,2.706,0,0,0-.823.424,2.37,2.37,0,0,0-.73.822,3.378,3.378,0,0,0-.024,2.748,2.787,2.787,0,0,0,.8.9,3.986,3.986,0,0,0,.939.492,6.347,6.347,0,0,0,1.13.259l.8-.024a.886.886,0,0,0,.4-.142.413.413,0,0,0,.283.142l.585.024a2.653,2.653,0,0,0,.8-.166.487.487,0,0,0,.282-.351l.049-.634Zm-2.02,3.054-.234.327a.461.461,0,0,1-.306.165.734.734,0,0,1-.47-.234,1.816,1.816,0,0,1-.4-.657,2.192,2.192,0,0,1-.165-.988,3.574,3.574,0,0,1,.165-1.009,2.647,2.647,0,0,1,.3-.634,2.176,2.176,0,0,0,.141-.237.533.533,0,0,1,.213.072l.424.186.3.237.235,2.3Z" fill="#f1a148"/>
    <path id="Path_991" data-name="Path 991" d="M109.878,188.269a1.177,1.177,0,0,0-.54-.141,2.463,2.463,0,0,0-1.037.117,1.006,1.006,0,0,0-.444.61l-.682,1.879-.234,1.129-.1-.822-.585-2.421a.888.888,0,0,0-.355-.4,1.336,1.336,0,0,0-.678-.141,1.274,1.274,0,0,0-.94.258.565.565,0,0,0-.141.589l1.36,3.993.282.469a1.231,1.231,0,0,0,.4.33,1.39,1.39,0,0,0,.658.141,1.271,1.271,0,0,0,.754-.189,1.876,1.876,0,0,0,.468-.516l2-4.252v-.376a.413.413,0,0,0-.186-.258" fill="#f1a148"/>
    <path id="Path_992" data-name="Path 992" d="M103.368,192.9l-.351-3.219a1.023,1.023,0,0,0-.376-.751,1.477,1.477,0,0,0-.729-.234,2.208,2.208,0,0,0-.8.045c-.249.033-.406.1-.469.213a.422.422,0,0,0-.072.283l.048.186.165.354.328,3.216a1.724,1.724,0,0,0,.141.448.893.893,0,0,0,.378.282,1.55,1.55,0,0,0,.727.141,1.332,1.332,0,0,0,.706-.141.682.682,0,0,0,.258-.352,1.09,1.09,0,0,0,.045-.471" fill="#f1a148"/>
    <path id="Path_993" data-name="Path 993" d="M102.569,186.413a1.161,1.161,0,0,0-.375-.354l-.4-.138-.282-.024-.679.093a1.1,1.1,0,0,0-.378.282,1.341,1.341,0,0,0-.117.633,1.008,1.008,0,0,0,.213.634.884.884,0,0,0,.444.282l.613.1.517-.072a.872.872,0,0,0,.351-.258.914.914,0,0,0,.189-.564,1.172,1.172,0,0,0-.1-.61" fill="#f1a148"/>
    <path id="Path_994" data-name="Path 994" d="M99.515,187.422a1.459,1.459,0,0,0-.54-.186l-.751-.048-.093-1.246a.972.972,0,0,0-.355-.493,1.53,1.53,0,0,0-.774-.117,1.564,1.564,0,0,0-1.009.258.768.768,0,0,0-.214.565l.121,7.024a1.026,1.026,0,0,0,.141.33.794.794,0,0,0,.351.258,1.889,1.889,0,0,0,.658.093,1.669,1.669,0,0,0,.867-.165.547.547,0,0,0,.307-.327l.072-.283-.048-4.534L99,188.5a1.258,1.258,0,0,0,.54-.21.442.442,0,0,0,.213-.424.482.482,0,0,0-.237-.447" fill="#f1a148"/>
    <path id="Path_995" data-name="Path 995" d="M95.122,191.581a.861.861,0,0,0-.327-.492,2.343,2.343,0,0,0-.916-.448,8.305,8.305,0,0,0-1.88-.234,3.352,3.352,0,0,1-.916-.117.566.566,0,0,1-.306-.355l.093-.258a.511.511,0,0,1,.306-.186,1.764,1.764,0,0,1,.706-.072l.54.072.283.141.186.162.282.141.589.072a1.541,1.541,0,0,0,.7-.117.415.415,0,0,0,.238-.306l.045-.375a1.22,1.22,0,0,0-.376-.541,2.375,2.375,0,0,0-.868-.375,7,7,0,0,0-1.717-.117,4.211,4.211,0,0,0-1.6.279,1.758,1.758,0,0,0-.774.541,1.52,1.52,0,0,0-.283.636l-.045.421.069.4a1.035,1.035,0,0,0,.307.5,1.857,1.857,0,0,0,.822.445,6.3,6.3,0,0,0,1.667.213,2,2,0,0,1,.9.141.556.556,0,0,1,.3.351.346.346,0,0,1-.093.259.624.624,0,0,1-.306.213,2.32,2.32,0,0,1-.7.045l-.565-.069-.258-.141-.189-.165-.282-.117-.61-.073a1.324,1.324,0,0,0-.681.1.482.482,0,0,0-.259.3l-.048.378a1.211,1.211,0,0,0,.376.541,2.449,2.449,0,0,0,.87.375,7.758,7.758,0,0,0,1.739.117,5.005,5.005,0,0,0,1.643-.258,2.914,2.914,0,0,0,.919-.565,1.846,1.846,0,0,0,.375-.633l.093-.424Z" fill="#f1a148"/>
    <path id="Path_996" data-name="Path 996" d="M87.932,192.1a1.331,1.331,0,0,0-.774-.165,2.547,2.547,0,0,0-.844.117,2.113,2.113,0,0,0-.637.378l-.375.235a.774.774,0,0,1-.375.048.474.474,0,0,1-.331-.262,1.37,1.37,0,0,1-.234-.678,6.205,6.205,0,0,0,1.153-.1,3.771,3.771,0,0,0,.985-.283,2.448,2.448,0,0,0,.847-.657,1.93,1.93,0,0,0,.4-1.126l-.072-.355a1.061,1.061,0,0,0-.327-.537,2.119,2.119,0,0,0-.847-.5,5.322,5.322,0,0,0-1.642-.165,4.056,4.056,0,0,0-1.412.213,2.118,2.118,0,0,0-.847.565,2.53,2.53,0,0,0-.468.7,2.56,2.56,0,0,0-.165.705l-.045.565.093.585a3.554,3.554,0,0,0,.258.8,2.894,2.894,0,0,0,.565.823,2.634,2.634,0,0,0,.915.613,3.191,3.191,0,0,0,1.409.234,6.751,6.751,0,0,0,1.411-.165,3.2,3.2,0,0,0,.844-.328,3.148,3.148,0,0,0,.565-.447,1.115,1.115,0,0,0,.165-.493.4.4,0,0,0-.214-.33m-3.663-2.231a1.806,1.806,0,0,1,.306-.658.658.658,0,0,1,.61-.306.618.618,0,0,1,.609.234.7.7,0,0,1,.142.613,1.037,1.037,0,0,1-.493.658,2.588,2.588,0,0,1-1.291.375Z" fill="#f1a148"/>
    <path id="Path_997" data-name="Path 997" d="M81,186.272a.814.814,0,0,0-.162-.375.863.863,0,0,0-.354-.238,1.556,1.556,0,0,0-.682-.045l-3.333.565-.379.162a.674.674,0,0,0-.258.282.612.612,0,0,0-.024.448l.988,6.06a.785.785,0,0,0,.117.354.838.838,0,0,0,.375.258,1.836,1.836,0,0,0,.73.117,1.773,1.773,0,0,0,.61-.048.769.769,0,0,0,.4-.282.849.849,0,0,0,.1-.658l-.258-2.066.561-.117a.881.881,0,0,0,.4-.189.426.426,0,0,0,.117-.375.493.493,0,0,0-.258-.352,1.579,1.579,0,0,0-.421-.141l-.612-.024-.493-2.444.892-.069.072.916a.848.848,0,0,0,.279.468.976.976,0,0,0,.661.1,1.38,1.38,0,0,0,.916-.33.914.914,0,0,0,.186-.658Z" fill="#f1a148"/>
    <path id="Path_998" data-name="Path 998" d="M72.663,191.839,72.123,189c0-.094-.088-.226-.259-.4a2.048,2.048,0,0,0-.75-.42,3.009,3.009,0,0,0-1.2-.165,5.477,5.477,0,0,0-1.153.234,5.141,5.141,0,0,0-1.174.588,3.367,3.367,0,0,0-.892.985,3.056,3.056,0,0,0-.375,1.457,2.523,2.523,0,0,0,.282,1.363,1.917,1.917,0,0,0,.727.775,2.97,2.97,0,0,0,.916.354l.754.093a2.941,2.941,0,0,0,.774-.093l.751-.258a4.073,4.073,0,0,1-.045,1.078,2.106,2.106,0,0,1-.213.8c-.108.189-.234.282-.376.282a.827.827,0,0,1-.564-.234l-.586-.493a1.07,1.07,0,0,0-.354-.213,2.3,2.3,0,0,0-.751-.093,1.547,1.547,0,0,0-.705.117.4.4,0,0,0-.187.33.681.681,0,0,0,.069.4,1.745,1.745,0,0,0,.517.54,4.005,4.005,0,0,0,1.222.61,5.664,5.664,0,0,0,1.928.282,2.7,2.7,0,0,0,1.315-.306,1.605,1.605,0,0,0,.682-.8,3.609,3.609,0,0,0,.258-1.126l.045-1.387c-.015-.487-.054-.97-.117-1.457m-2.207-.306a1.654,1.654,0,0,1-.33.8.836.836,0,0,1-.727.33.734.734,0,0,1-.682-.351,1.475,1.475,0,0,1-.189-.871,3.281,3.281,0,0,1,.234-1.057,2.832,2.832,0,0,1,.565-.916,1.28,1.28,0,0,1,.847-.423c.126.03.195.093.21.189l.117,1.339a4.86,4.86,0,0,1-.045.961" fill="#f1a148"/>
    <path id="Path_999" data-name="Path 999" d="M65.64,192.263l-.048-1.622a4.837,4.837,0,0,0-.21-1.267,1.928,1.928,0,0,0-.424-.753,1.057,1.057,0,0,0-.468-.328l-.472-.1H63.76a3.485,3.485,0,0,0-.892.165l-.94.4a1.053,1.053,0,0,0-.141-.352,1.039,1.039,0,0,0-.354-.213,1.339,1.339,0,0,0-.658-.093,1.3,1.3,0,0,0-.657.141.739.739,0,0,0-.328.282.985.985,0,0,0-.117.4L60,193.086a.685.685,0,0,0,.213.492,1.059,1.059,0,0,0,.42.234l.613.049a1.347,1.347,0,0,0,.681-.142.656.656,0,0,0,.3-.33.887.887,0,0,0,.1-.444l-.141-2.138.327-.493.354-.378a.72.72,0,0,1,.445-.162c.126-.018.219.078.282.279a3.2,3.2,0,0,1,.117.778l-.069,2.279.069.327a.59.59,0,0,0,.258.306,1.416,1.416,0,0,0,.658.118,1.27,1.27,0,0,0,.682-.142.554.554,0,0,0,.282-.471,4.419,4.419,0,0,0,.048-.985" fill="#f1a148"/>
    <path id="Path_1000" data-name="Path 1000" d="M58.52,189.677a1.012,1.012,0,0,0-.375-.751,1.482,1.482,0,0,0-.727-.234,2.2,2.2,0,0,0-.8.045c-.252.033-.408.1-.471.213a.4.4,0,0,0-.069.283l.045.186.165.354.33,3.216a1.616,1.616,0,0,0,.141.448.885.885,0,0,0,.376.282,1.542,1.542,0,0,0,.726.141,1.33,1.33,0,0,0,.706-.141.667.667,0,0,0,.258-.351,1.093,1.093,0,0,0,.048-.472Z" fill="#f1a148"/>
    <path id="Path_1001" data-name="Path 1001" d="M58.075,186.413a1.224,1.224,0,0,0-.375-.354l-.4-.138-.282-.024-.682.093a1.058,1.058,0,0,0-.375.282,1.337,1.337,0,0,0-.12.633,1.026,1.026,0,0,0,.213.634.892.892,0,0,0,.447.282l.61.1.517-.072a.872.872,0,0,0,.351-.258.914.914,0,0,0,.189-.564,1.205,1.205,0,0,0-.093-.61" fill="#f1a148"/>
    <path id="Path_1002" data-name="Path 1002" d="M55.208,191.158a3.421,3.421,0,0,0-.3-1.432,2.875,2.875,0,0,0-.73-.871,4.6,4.6,0,0,0-.868-.469,7.134,7.134,0,0,0-.988-.189l-.964.024a1.928,1.928,0,0,0-.843.306,2.146,2.146,0,0,0-.682-.33,2.9,2.9,0,0,0-.9-.117,3.455,3.455,0,0,0-.844.1,6.278,6.278,0,0,0-.823.327,1.086,1.086,0,0,0-.447-.306A1.936,1.936,0,0,0,46,188.1a1.293,1.293,0,0,0-.633.165.731.731,0,0,0-.259.328.877.877,0,0,0-.048.423l.283,4.018a.834.834,0,0,0,.237.54.791.791,0,0,0,.42.235l.589.048a1.627,1.627,0,0,0,.7-.118.7.7,0,0,0,.3-.306.709.709,0,0,0,.072-.423l-.234-2.982a1.757,1.757,0,0,1,.21-.448.729.729,0,0,1,.471-.189.549.549,0,0,1,.538.189,1.63,1.63,0,0,1,.33.634l.141.9.024,1.6a2.7,2.7,0,0,0-.024.28.729.729,0,0,0,.024.165l.093.282a1.107,1.107,0,0,0,.376.306,1.878,1.878,0,0,0,.753.118,1.516,1.516,0,0,0,.751-.142.562.562,0,0,0,.306-.33,1.376,1.376,0,0,0,.069-.468l-.186-2.679a2.54,2.54,0,0,1,.235-.564.468.468,0,0,1,.4-.187.552.552,0,0,1,.516.283,2.051,2.051,0,0,1,.283.726l.141.94-.048,1.481a.615.615,0,0,0,.282.705,1.688,1.688,0,0,0,.916.235c.171,0,.336-.009.492-.024a.56.56,0,0,0,.379-.235,1.7,1.7,0,0,0,.234-.774,9.814,9.814,0,0,0,.069-1.67" fill="#f1a148"/>
    <path id="Path_1003" data-name="Path 1003" d="M44.214,189.891a2.619,2.619,0,0,0-.54-.823,1.972,1.972,0,0,0-.706-.4l-.706-.423a1.421,1.421,0,0,0-.82-.117,5.324,5.324,0,0,0-.988.21,2.789,2.789,0,0,0-1.6,1.363,3.328,3.328,0,0,0-.327,1.457,2.754,2.754,0,0,0,.234,1.432,1.861,1.861,0,0,0,.657.8,2.287,2.287,0,0,0,.8.378,4.657,4.657,0,0,0,.964.093l.892-.093.8-.189a2.725,2.725,0,0,0,.823-.423,1.968,1.968,0,0,0,.585-.706,2.129,2.129,0,0,0,.213-1.078,4.395,4.395,0,0,0-.282-1.48m-2.162,2.441a.669.669,0,0,1-.327.354l-.283.069a.418.418,0,0,1-.237-.117,1.512,1.512,0,0,1-.279-.468,2.372,2.372,0,0,1-.12-.847,2.181,2.181,0,0,1,.189-.94,3.491,3.491,0,0,1,.516-.868l.352.538.237.564a2.893,2.893,0,0,1,.093.823,1.691,1.691,0,0,1-.141.892" fill="#f1a148"/>
    <path id="Path_1004" data-name="Path 1004" d="M37.635,191.98a1.718,1.718,0,0,0-.751-.141,3.564,3.564,0,0,0-.823.072,1.08,1.08,0,0,0-.447.186.812.812,0,0,0-.186.306.552.552,0,0,1-.541.235.56.56,0,0,1-.447-.235,1.626,1.626,0,0,1-.282-.588,3.627,3.627,0,0,1-.069-.682l.141-.727a2.538,2.538,0,0,1,.282-.633c.108-.189.225-.276.351-.258a.416.416,0,0,1,.307.117l.165.258.093.351a.752.752,0,0,0,.327.283,1.955,1.955,0,0,0,.8.117,1.061,1.061,0,0,0,.165-.024l.4-.069a.627.627,0,0,0,.351-.214.486.486,0,0,0,.141-.42,1.492,1.492,0,0,0-.279-.613,2.811,2.811,0,0,0-.613-.609,3.185,3.185,0,0,0-.868-.472,2.625,2.625,0,0,0-1.036-.165,3.394,3.394,0,0,0-1.057.237,3.483,3.483,0,0,0-1.009.586,3.144,3.144,0,0,0-.729.895,2.588,2.588,0,0,0-.235,1.219,2.99,2.99,0,0,0,.871,2.117,3.031,3.031,0,0,0,2.159.751,3.676,3.676,0,0,0,1.222-.189,4.306,4.306,0,0,0,.916-.424,4.163,4.163,0,0,0,.754-.609.531.531,0,0,0,.141-.376c0-.093-.072-.189-.213-.282" fill="#f1a148"/>
    <path id="Path_1005" data-name="Path 1005" d="M30.894,192.1a1.337,1.337,0,0,0-.775-.165,2.567,2.567,0,0,0-.847.117,2.1,2.1,0,0,0-.634.378l-.375.235a.786.786,0,0,1-.378.048.472.472,0,0,1-.328-.262,1.313,1.313,0,0,1-.234-.678,6.141,6.141,0,0,0,1.15-.1,3.781,3.781,0,0,0,.988-.283,2.465,2.465,0,0,0,.844-.657,1.89,1.89,0,0,0,.4-1.126l-.069-.355a1.07,1.07,0,0,0-.33-.537,2.1,2.1,0,0,0-.844-.5,5.343,5.343,0,0,0-1.645-.165,4.038,4.038,0,0,0-1.409.213,2.118,2.118,0,0,0-.847.565,2.166,2.166,0,0,0-.633,1.408l-.048.565.093.585a3.713,3.713,0,0,0,.258.8,2.957,2.957,0,0,0,.565.823,2.629,2.629,0,0,0,.916.613,3.2,3.2,0,0,0,1.411.234,6.72,6.72,0,0,0,1.408-.165,3.223,3.223,0,0,0,.847-.328,3.257,3.257,0,0,0,.565-.447,1.143,1.143,0,0,0,.162-.493.4.4,0,0,0-.21-.33m-3.667-2.231a1.806,1.806,0,0,1,.306-.658.666.666,0,0,1,.613-.306.625.625,0,0,1,.61.234.7.7,0,0,1,.141.613,1.058,1.058,0,0,1-.493.658,2.6,2.6,0,0,1-1.294.375Z" fill="#f1a148"/>
    <path id="Path_1006" data-name="Path 1006" d="M24.362,191.158a3.372,3.372,0,0,0-.306-1.432,2.868,2.868,0,0,0-.727-.871,4.528,4.528,0,0,0-.871-.469,7.085,7.085,0,0,0-.985-.189l-.964.024a1.953,1.953,0,0,0-.846.306,2.116,2.116,0,0,0-.682-.33,2.87,2.87,0,0,0-.892-.117,3.5,3.5,0,0,0-.847.1,6.42,6.42,0,0,0-.82.327,1.106,1.106,0,0,0-.447-.306,1.943,1.943,0,0,0-.823-.093,1.283,1.283,0,0,0-.633.165.711.711,0,0,0-.259.328.877.877,0,0,0-.048.423l.283,4.018a.848.848,0,0,0,.234.54.81.81,0,0,0,.423.235l.589.048a1.612,1.612,0,0,0,.7-.118.709.709,0,0,0,.379-.729l-.237-2.982a1.753,1.753,0,0,1,.213-.448.714.714,0,0,1,.468-.189.557.557,0,0,1,.541.189,1.629,1.629,0,0,1,.33.634l.141.9.021,1.6a2.508,2.508,0,0,0-.021.28.709.709,0,0,0,.021.165l.1.282a1.107,1.107,0,0,0,.376.306,1.861,1.861,0,0,0,.75.118,1.522,1.522,0,0,0,.754-.142.547.547,0,0,0,.3-.33,1.3,1.3,0,0,0,.072-.468l-.189-2.679a2.54,2.54,0,0,1,.235-.564.476.476,0,0,1,.4-.187.556.556,0,0,1,.519.283,2.032,2.032,0,0,1,.28.726l.141.94-.045,1.481a.615.615,0,0,0,.282.705,1.688,1.688,0,0,0,.916.235c.171,0,.336-.009.492-.024a.548.548,0,0,0,.376-.235,1.631,1.631,0,0,0,.234-.774,9.749,9.749,0,0,0,.072-1.67" fill="#f1a148"/>
    <path id="Path_1007" data-name="Path 1007" d="M13.413,189.891a2.5,2.5,0,0,0-.54-.823,1.949,1.949,0,0,0-.7-.4l-.706-.423a1.437,1.437,0,0,0-.823-.117,5.377,5.377,0,0,0-.988.21,2.789,2.789,0,0,0-1.6,1.363,3.4,3.4,0,0,0-.327,1.457,2.784,2.784,0,0,0,.235,1.432,1.894,1.894,0,0,0,.656.8,2.346,2.346,0,0,0,.8.378,4.66,4.66,0,0,0,.965.093l.891-.093.8-.189a2.691,2.691,0,0,0,.823-.423,1.953,1.953,0,0,0,.587-.706,2.13,2.13,0,0,0,.21-1.078,4.322,4.322,0,0,0-.282-1.48m-2.161,2.441a.663.663,0,0,1-.328.354l-.283.069a.4.4,0,0,1-.234-.117,1.472,1.472,0,0,1-.282-.468,2.454,2.454,0,0,1-.116-.847,2.227,2.227,0,0,1,.185-.94,3.522,3.522,0,0,1,.516-.868l.355.538.234.564a2.893,2.893,0,0,1,.093.823,1.673,1.673,0,0,1-.14.892" fill="#f1a148"/>
    <path id="Path_1008" data-name="Path 1008" d="M7,192.848l-.42-6.576a.751.751,0,0,0-.52-.613,2.191,2.191,0,0,0-.679-.045,1.5,1.5,0,0,0-.66.186.6.6,0,0,0-.279.283.622.622,0,0,0-.049.354l.211,2.841-1.481.1-.117-2.751v-.3c-.015-.048-.039-.111-.069-.189a.75.75,0,0,0-.33-.352,1.471,1.471,0,0,0-.868-.12,1.569,1.569,0,0,0-.682.12.751.751,0,0,0-.329.279,1.126,1.126,0,0,0-.094.379l.282,6.648a1.39,1.39,0,0,0,.141.4.829.829,0,0,0,.352.258,1.654,1.654,0,0,0,.7.117,2.078,2.078,0,0,0,.706-.093.836.836,0,0,0,.327-.258,1.031,1.031,0,0,0,.141-.331l-.141-2.771,1.553-.093.093,2.723a1.012,1.012,0,0,0,.165.4,1.112,1.112,0,0,0,.375.306,1.748,1.748,0,0,0,.706.117,1.218,1.218,0,0,0,.658-.141.854.854,0,0,0,.282-.351,1.785,1.785,0,0,0,.021-.52" fill="#f1a148"/>
    <path id="Path_1009" data-name="Path 1009" d="M32.727,163.742a4.906,4.906,0,0,0-.215-.494,5.442,5.442,0,0,0-.894-1.342,3.725,3.725,0,0,0-.447-.426,6.485,6.485,0,0,0-2.047-1.058,8.612,8.612,0,0,0-2.543-.376,11.081,11.081,0,0,0-4.662.916,15.451,15.451,0,0,0-3.767,2.518,5.264,5.264,0,0,0-.211-.987,1.469,1.469,0,0,0-.4-.73,1.963,1.963,0,0,0-.8-.447,4.567,4.567,0,0,0-1.3-.143l-1.084.118-1.013.261c.033.329.072.887.118,1.671,0,.046.007.218.025.519.015.375.047.94.093,1.695l.093,5.037a8.8,8.8,0,0,1-.3,2.473,4.031,4.031,0,0,1-.8,1.531,3,3,0,0,1-1.224.823,5.007,5.007,0,0,1-1.506.211,4.617,4.617,0,0,1-1.721-.283A3.234,3.234,0,0,1,6.8,174.217a5.491,5.491,0,0,1-.848-1.954,13.592,13.592,0,0,1-.308-3.13l.072-3.485-.895-.211-1.037-.071a4.816,4.816,0,0,0-1.245.139,2.153,2.153,0,0,0-.966.684A3.293,3.293,0,0,0,.94,167.6c-.047.236-.086.493-.118.776a13.774,13.774,0,0,0-.093,1.7q0,4.753,2.282,7.133a8.3,8.3,0,0,0,5.771,2.379h1.743a13.073,13.073,0,0,0,2.518-.353,6.9,6.9,0,0,0,2.637-1.271,6.251,6.251,0,0,0,1.742-2.236,8.9,8.9,0,0,0,.916-3.3,16.954,16.954,0,0,0,2.5.308c.362.014.73.021,1.106.021a20.407,20.407,0,0,0,4.5-.469,11.243,11.243,0,0,0,3.509-1.391,6.426,6.426,0,0,0,2.261-2.19c.061-.107.126-.218.186-.329a5.818,5.818,0,0,0,.612-2.683,6.37,6.37,0,0,0-.279-1.953m-5.159,3.366a4.636,4.636,0,0,1-1.435.966c-.3.107-.6.211-.894.3a7.172,7.172,0,0,1-1.109.236,14.477,14.477,0,0,1-2.376.19l-1.767-.025a12.514,12.514,0,0,1-1.624-.211,2,2,0,0,1,.165-.19,17.277,17.277,0,0,1,1.506-1.624c.3-.265.565-.5.8-.705a11.011,11.011,0,0,1,1.059-.73,9.229,9.229,0,0,1,1.907-.941,5.606,5.606,0,0,1,1.885-.354,3.168,3.168,0,0,1,1.7.422,1.37,1.37,0,0,1,.68,1.342,2.007,2.007,0,0,1-.494,1.32m-6.1-10.854a2.3,2.3,0,0,0-1.578-.566,2.271,2.271,0,0,0-1.556.566,2.049,2.049,0,0,0-.046,2.965,2.314,2.314,0,0,0,1.6.566,2.148,2.148,0,0,0,1.6-.566,1.949,1.949,0,0,0,.637-1.459,1.973,1.973,0,0,0-.658-1.506M6.707,179.823q.4.021.827.021c.314,0,.626-.007.941-.021Zm42.155-4.8a2.108,2.108,0,0,0-1.556-.612,2.261,2.261,0,0,0-1.553.612,1.927,1.927,0,0,0-.612,1.485,2.105,2.105,0,0,0,.565,1.434,2.163,2.163,0,0,0,1.6.612,2,2,0,0,0,1.577-.612,2.048,2.048,0,0,0,.591-1.434,1.927,1.927,0,0,0-.612-1.485m-5.109,0a2.28,2.28,0,0,0-3.109,0,1.961,1.961,0,0,0-.59,1.485,2.1,2.1,0,0,0,.565,1.434,2.136,2.136,0,0,0,1.578.612,2.029,2.029,0,0,0,1.6-.612,2.105,2.105,0,0,0,.565-1.434,1.927,1.927,0,0,0-.612-1.485m8.089-12.289a3.208,3.208,0,0,0-.612-1.367,1.294,1.294,0,0,0-.915-.586,3.787,3.787,0,0,0-1.177-.143l-1.013.071q-.542.071-1.109.19l.164,4.117a4.911,4.911,0,0,1-.776,2.92,2.539,2.539,0,0,1-2.118,1.037H43.063a3.053,3.053,0,0,1-2.025-.776,3.1,3.1,0,0,1-.848-2.426V158.4a2.9,2.9,0,0,0-.19-1.083,1.586,1.586,0,0,0-.54-.587,1.991,1.991,0,0,0-.826-.308A4.417,4.417,0,0,0,37.6,156.3l-2.168.236v8.948q0,3.788,1.932,5.531,1.932,1.722,5.767,1.721h1.72a6.977,6.977,0,0,0,5.274-1.979,7.992,7.992,0,0,0,1.907-5.7,11.476,11.476,0,0,0-.19-2.329m19.5-5.416a1.261,1.261,0,0,0-.544-.587,1.658,1.658,0,0,0-.8-.308,4.057,4.057,0,0,0-1.034-.118l-2.168.236v8.948a4.232,4.232,0,0,1-.633,2.636,2.461,2.461,0,0,1-2.072.848l-1.814-.093a5.68,5.68,0,0,1-1.155-.215l-.165-3.438a7.817,7.817,0,0,0-.35-2.024,3.444,3.444,0,0,0-.566-1.245,1.629,1.629,0,0,0-.873-.612,4.48,4.48,0,0,0-1.223-.168,4.352,4.352,0,0,0-1.274.189,6.032,6.032,0,0,0-.941.376l.566,8.619a5.9,5.9,0,0,1-1.034,3.91,3.581,3.581,0,0,1-2.92,1.223h-.662a2.932,2.932,0,0,0-.282.87l-.093.847a2.153,2.153,0,0,0,.683,1.721,2.739,2.739,0,0,0,1.836.566,8.316,8.316,0,0,0,2.5-.38,5.649,5.649,0,0,0,2.211-1.2,6.8,6.8,0,0,0,1.6-2.19,10.6,10.6,0,0,0,.9-3.416,8.234,8.234,0,0,0,1.177.308,7.122,7.122,0,0,0,1.413.118h.612a12.829,12.829,0,0,0,3.13-.355,6.017,6.017,0,0,0,2.333-1.223,5.19,5.19,0,0,0,1.388-2.19,9.832,9.832,0,0,0,.472-3.32V158.4a2.655,2.655,0,0,0-.211-1.083m7.2,0a1.419,1.419,0,0,0-.54-.587,2,2,0,0,0-.823-.308,3.919,3.919,0,0,0-1.038-.118l-2.164.236V170.9a1.759,1.759,0,0,0,.705,1.674,3.69,3.69,0,0,0,1.906.447l2.143-.282V158.4a2.915,2.915,0,0,0-.189-1.083m40.874,0a1.414,1.414,0,0,0-.541-.587,1.831,1.831,0,0,0-.826-.308,3.887,3.887,0,0,0-1.034-.118l-2.168.236V170.9a1.762,1.762,0,0,0,.708,1.674,3.475,3.475,0,0,0,1.907.447l2.143-.282V158.4a2.915,2.915,0,0,0-.189-1.083m.941,20.789a.757.757,0,0,0-.212-.422h-1.316q-.945-.07-.945-.848a.728.728,0,0,1,.355-.637,1.422,1.422,0,0,1,.729-.211,1.859,1.859,0,0,1,.777.14,1.066,1.066,0,0,0,.236-.4l.071-.447a1.163,1.163,0,0,0-.472-.944,2.48,2.48,0,0,0-1.531-.4,3.559,3.559,0,0,0-2.118.59,1.907,1.907,0,0,0-.848,1.624,1.624,1.624,0,0,0,.308,1.013,1.951,1.951,0,0,0,.519.519h-.92a.75.75,0,0,0-.708.329,1.439,1.439,0,0,0-.233.848l.068.54.19.379h4.733a1.52,1.52,0,0,0,1.084-.308.977.977,0,0,0,.329-.847Zm-8.147-20.789a1.27,1.27,0,0,0-.518-.587,1.968,1.968,0,0,0-.823-.308,4.057,4.057,0,0,0-1.034-.118l-2.168.236v8.948a4.2,4.2,0,0,1-.637,2.636,2.481,2.481,0,0,1-2.093.848h-1.084a13.366,13.366,0,0,1-3.13-.447,10.673,10.673,0,0,1-2.873-1.2,2.6,2.6,0,0,0-1.013.472,3.623,3.623,0,0,0-.826.8,7.185,7.185,0,0,0-.562.987,3.872,3.872,0,0,0-.261,1.038l1.131,1.08.375.637a2.694,2.694,0,0,1,.143.755,2.133,2.133,0,0,1-.941,1.856,4.988,4.988,0,0,1-2.568.544,7.318,7.318,0,0,1-2.236-.282,4.132,4.132,0,0,1-1.649-1.013,5.15,5.15,0,0,1-1.013-1.953,11.555,11.555,0,0,1-.375-3.134l.071-3.485-.919-.211-1.013-.046a5.687,5.687,0,0,0-1.248.118,1.943,1.943,0,0,0-.963.683,3.92,3.92,0,0,0-.662,1.413,12.911,12.911,0,0,0-.186,2.472q0,4.776,2.519,7.155,2.565,2.378,7.438,2.379a15.539,15.539,0,0,0,3.982-.425,7.667,7.667,0,0,0,2.59-1.177,4.83,4.83,0,0,0,1.459-1.717,4.651,4.651,0,0,0,.423-1.979,7.986,7.986,0,0,0-.047-1.034,3.453,3.453,0,0,0-.211-.873l.54.165.565.093,2.684.1a12.934,12.934,0,0,0,3.155-.355,5.785,5.785,0,0,0,2.308-1.223,5.2,5.2,0,0,0,1.413-2.19,10.492,10.492,0,0,0,.472-3.32V158.4a2.575,2.575,0,0,0-.215-1.083M8.732,136.826a1.44,1.44,0,0,0-1.105-.426,1.441,1.441,0,0,0-1.106.426,1.275,1.275,0,0,0-.472,1.059,1.433,1.433,0,0,0,.447,1.084,1.586,1.586,0,0,0,1.131.422,1.483,1.483,0,0,0,1.13-.422,1.423,1.423,0,0,0,.422-1.084,1.341,1.341,0,0,0-.447-1.059m-3.7,0a1.528,1.528,0,0,0-1.131-.426,1.586,1.586,0,0,0-1.131.426,1.384,1.384,0,0,0-.422,1.059,1.47,1.47,0,0,0,.422,1.084,1.534,1.534,0,0,0,1.131.422,1.563,1.563,0,0,0,1.155-.422,1.575,1.575,0,0,0,.423-1.084,1.341,1.341,0,0,0-.447-1.059m5.133,6.708a5.012,5.012,0,0,0-.708-1.363,6.679,6.679,0,0,0-1.013-1.11A4.6,4.6,0,0,0,7.3,140.31a1.517,1.517,0,0,0-.473-.046H6.449a7.018,7.018,0,0,0-2.164.329,5.3,5.3,0,0,0-3.227,2.494,4.791,4.791,0,0,0-.472,2.167,4.192,4.192,0,0,0,.379,1.861,3.887,3.887,0,0,0,1.059,1.316,4.535,4.535,0,0,0,1.553.8,6.683,6.683,0,0,0,1.835.236,7.594,7.594,0,0,0,2.05-.261,4.892,4.892,0,0,0,1.6-.848,4.135,4.135,0,0,0,1.034-1.342,4.455,4.455,0,0,0,.329-1.81,4.892,4.892,0,0,0-.258-1.674m-3.556,2.733a1.685,1.685,0,0,1-1.084.35,1.676,1.676,0,0,1-1.08-.375,1.372,1.372,0,0,1-.426-1.084,1.727,1.727,0,0,1,.19-.823,2.877,2.877,0,0,1,.493-.637,1.765,1.765,0,0,1,.684-.4,2.06,2.06,0,0,1,.8-.168,2.573,2.573,0,0,1,.565.945,2.852,2.852,0,0,1,.233,1.08,1.507,1.507,0,0,1-.376,1.109m13.069-1.224a6.4,6.4,0,0,0-.379-1.248,8.066,8.066,0,0,0-.633-1.32,8.556,8.556,0,0,0-.945-1.27,1.919,1.919,0,0,0-1.481-.684,1.992,1.992,0,0,0-1.084.308,3.168,3.168,0,0,0-.894.941,8.968,8.968,0,0,1,.54.776c.189.269.419.626.683,1.084l.591,1.177a3.468,3.468,0,0,1,.232,1.034c0,.5-.358.755-1.08.755H12.17a1.983,1.983,0,0,0-.236.565,2.89,2.89,0,0,0-.115.777,1.488,1.488,0,0,0,.33,1.084,1.285,1.285,0,0,0,.869.329h3.063a3.98,3.98,0,0,0,2.894-.873,3.363,3.363,0,0,0,.823-2.447,6.034,6.034,0,0,0-.115-.988m34.162-6.9a1.144,1.144,0,0,0-.4-.447,1.364,1.364,0,0,0-.591-.211,4.056,4.056,0,0,0-.751-.072l-1.577.165v10.432a1.3,1.3,0,0,0,.518,1.224,2.582,2.582,0,0,0,1.363.307l1.578-.189V138.919a1.978,1.978,0,0,0-.14-.777m-5.226,0a.967.967,0,0,0-.4-.447,1.36,1.36,0,0,0-.59-.211,3.4,3.4,0,0,0-.752-.072l-1.577.165v6.5a3,3,0,0,1-.472,1.906,1.744,1.744,0,0,1-1.507.612H40.966a3.662,3.662,0,0,0,.658-1.084,3.486,3.486,0,0,0,.262-1.27,3.743,3.743,0,0,0-.308-1.506,3.117,3.117,0,0,0-.9-1.249,4.8,4.8,0,0,0-1.484-.894,6.383,6.383,0,0,0-2.093-.329,5.241,5.241,0,0,0-1.907.35,4.976,4.976,0,0,0-1.413.873,3.807,3.807,0,0,0-.944,1.013,2.248,2.248,0,0,0-.305.987,2.68,2.68,0,0,0,.423,1.224,20.988,20.988,0,0,0,1.2,1.814l-3.084.071.021-.447a6.675,6.675,0,0,0-1.27-4.379,4.436,4.436,0,0,0-3.578-1.531,5.444,5.444,0,0,0-1.931.354,4.526,4.526,0,0,0-1.578.966,5.708,5.708,0,0,0-1.034,1.528,5.606,5.606,0,0,0-.354,2.071,4.693,4.693,0,0,0,.376,1.885,4.159,4.159,0,0,0,1.083,1.295,4.724,4.724,0,0,0,1.625.752,8.406,8.406,0,0,0,2.025.261H27.4q-.73,1.953-4.122,1.953H22.67a2.672,2.672,0,0,0-.257,1.156,3.053,3.053,0,0,0,.093.612,1.653,1.653,0,0,0,.236.493,1.226,1.226,0,0,0,.519.3,1.609,1.609,0,0,0,.8.144,8.249,8.249,0,0,0,2.093-.258,6,6,0,0,0,1.907-.78,5.753,5.753,0,0,0,1.556-1.435,6.958,6.958,0,0,0,1.084-2.189h2.987a11.8,11.8,0,0,0,1.957-.165c.533-.125,1.013-.25,1.435-.376a9.432,9.432,0,0,0,1.388.376,11.872,11.872,0,0,0,2.333.165h2.611a8.7,8.7,0,0,0,2.308-.283A4.143,4.143,0,0,0,47.4,148.2a3.84,3.84,0,0,0,1.034-1.6,7.859,7.859,0,0,0,.329-2.4v-5.277a2,2,0,0,0-.139-.777m-21.051,8.572H26.91a2.877,2.877,0,0,1-1.578-.379,1.638,1.638,0,0,1-.519-1.342,1.99,1.99,0,0,1,.426-1.409,1.339,1.339,0,0,1,1.08-.473,1.456,1.456,0,0,1,.5.119,1.045,1.045,0,0,1,.447.4,2.609,2.609,0,0,1,.283.777,6.807,6.807,0,0,1,.093,1.316Zm10.6-1.342a3.6,3.6,0,0,1-.59.752L36.541,144.9a4.6,4.6,0,0,1-.379-.611,1.023,1.023,0,0,1-.187-.494c0-.125.119-.261.351-.4a1.418,1.418,0,0,1,.8-.236,1.322,1.322,0,0,1,.941.329,1.244,1.244,0,0,1,.38.991,1.609,1.609,0,0,1-.283.894M69.526,142.5a1.755,1.755,0,0,0-.261-.848,1.374,1.374,0,0,0-.612-.544,3,3,0,0,0-1.13-.165l-.8.072-.73.19c.029.236.061.637.093,1.2l.14,5.277a6.443,6.443,0,0,1-.211,1.789,2.765,2.765,0,0,1-.612,1.13,2,2,0,0,1-.87.587,3.683,3.683,0,0,1-1.084.143,3.438,3.438,0,0,1-1.248-.189,2.231,2.231,0,0,1-.966-.73,4.02,4.02,0,0,1-.612-1.435,10.272,10.272,0,0,1-.211-2.286l.047-2.519-.659-.139-.755-.05a3.512,3.512,0,0,0-.915.1,1.509,1.509,0,0,0-.709.493,2.082,2.082,0,0,0-.447,1.013,9.237,9.237,0,0,0-.14,1.788q0,3.51,1.646,5.2a6.312,6.312,0,0,0,4.78,1.742,9.261,9.261,0,0,0,2.8-.375,5.064,5.064,0,0,0,2.05-1.2,5.458,5.458,0,0,0,1.224-2.168,11.482,11.482,0,0,0,.4-3.227Zm-5.463-2.025a1.563,1.563,0,0,0-1.155-.426,1.522,1.522,0,0,0-1.127.426,1.3,1.3,0,0,0-.472,1.084,1.286,1.286,0,0,0,.447,1.034,1.563,1.563,0,0,0,1.152.447,1.51,1.51,0,0,0,1.18-.447,1.286,1.286,0,0,0,.447-1.034,1.3,1.3,0,0,0-.472-1.084m21.874,3.86a7.376,7.376,0,0,0-3.51-3.649,5.688,5.688,0,0,0-2.447-.54,2.759,2.759,0,0,0-1.671.422,1.443,1.443,0,0,0-.565,1.2,2.547,2.547,0,0,0,.114.776,1.932,1.932,0,0,0,.262.541h.4a4.945,4.945,0,0,1,1.646.261,3.857,3.857,0,0,1,2.307,1.81,2.825,2.825,0,0,1,.38,1.438H77.247a2.217,2.217,0,0,1-1.46-.565,2.249,2.249,0,0,1-.612-1.767v-5.345a1.727,1.727,0,0,0-.164-.777.974.974,0,0,0-.376-.447,1.518,1.518,0,0,0-.59-.211,4.2,4.2,0,0,0-.777-.072l-1.552.165v6.5A5.209,5.209,0,0,0,73.1,148.1a6.1,6.1,0,0,0,4.193,1.249h8.568a4.063,4.063,0,0,0,.422-1.059,4.392,4.392,0,0,0,.19-1.367,6.123,6.123,0,0,0-.54-2.59m-4.05,6.569a1.7,1.7,0,0,0-1.131-.4,1.738,1.738,0,0,0-1.155.4,1.478,1.478,0,0,0-.469,1.109,1.458,1.458,0,0,0,.447,1.059,1.852,1.852,0,0,0,2.354,0,1.546,1.546,0,0,0,.422-1.059,1.469,1.469,0,0,0-.468-1.109m38.258-5.6a17.575,17.575,0,0,0-.8-2.071,10.163,10.163,0,0,0-.776-1.388,3.924,3.924,0,0,0-.848-.9,2.458,2.458,0,0,0-1.013-.515,3.877,3.877,0,0,0-1.27-.189,3.488,3.488,0,0,0-1.624.4,5.468,5.468,0,0,0-1.32,1.131,11.868,11.868,0,0,0-1.224,1.742l-1.341,2.283a1.446,1.446,0,0,1-.591.636,2.124,2.124,0,0,1-.751.165h-.329a3.313,3.313,0,0,1-.59-.071,3.074,3.074,0,0,1-.637-.212,4.213,4.213,0,0,0,.215-.823,4.773,4.773,0,0,0,.068-.847,5.791,5.791,0,0,0-.659-2.755,7.062,7.062,0,0,0-1.695-2.122,7.984,7.984,0,0,0-2.329-1.388,6.741,6.741,0,0,0-2.544-.493,1.874,1.874,0,0,0-1.388.493,1.915,1.915,0,0,0-.472,1.413v.4l.046.3a10.1,10.1,0,0,1,2.025.4,7.316,7.316,0,0,1,1.789.848,4.453,4.453,0,0,1,1.274,1.274,2.793,2.793,0,0,1,.493,1.645,2.162,2.162,0,0,1-.143.826,1.986,1.986,0,0,1-.916,1.035,2.106,2.106,0,0,1-.658.189l.139-.544a2.177,2.177,0,0,0,.094-.7,3.177,3.177,0,0,0-1.178-2.426,3.535,3.535,0,0,0-1.295-.683,4.915,4.915,0,0,0-1.577-.237,4.327,4.327,0,0,0-1.507.237,2.89,2.89,0,0,0-1.152.662,3.666,3.666,0,0,0-.708,1.012,3,3,0,0,0-.258,1.223,3.891,3.891,0,0,0,.093.8l.19.54-1.835-.071a3.084,3.084,0,0,1-.827-.14l-.164-2.5a9.471,9.471,0,0,0-.211-1.485,2.177,2.177,0,0,0-.447-.894,1.142,1.142,0,0,0-.637-.448,3.26,3.26,0,0,0-.87-.118,3.033,3.033,0,0,0-.919.144,5.648,5.648,0,0,0-.705.257l.14,1.156c.014.139.064.651.143,1.531l.164,3.577a4.336,4.336,0,0,1-.78,2.848,2.633,2.633,0,0,1-2.118.873h-.493c-.047.14-.111.351-.19.634a3.548,3.548,0,0,0-.046.611,1.551,1.551,0,0,0,.447,1.249,2.073,2.073,0,0,0,1.388.425,6.688,6.688,0,0,0,1.814-.261,4.063,4.063,0,0,0,1.556-.894,4.294,4.294,0,0,0,1.2-1.6,7.614,7.614,0,0,0,.637-2.472,3.237,3.237,0,0,0,.848.236,4.97,4.97,0,0,0,1.034.093h7.982a6.348,6.348,0,0,0,1.792-.236,4.012,4.012,0,0,0,1.506-.637,3.1,3.1,0,0,0,1.46.662,8.372,8.372,0,0,0,1.814.211h.139a4.958,4.958,0,0,0,1.954-.308,2.23,2.23,0,0,0,.941-.658,10.41,10.41,0,0,0,.966.4l2.45.493a12.173,12.173,0,0,0,1.295.072,11.394,11.394,0,0,0,2.025-.165,4.044,4.044,0,0,0,1.245-.493,1.713,1.713,0,0,0,.616-.662,1.848,1.848,0,0,0,.164-.777,7.861,7.861,0,0,0-.308-1.953m-20.717,1.012a.838.838,0,0,1-.144.4h-.257a1.689,1.689,0,0,1-1.105-.329,1.031,1.031,0,0,1-.308-.755,1,1,0,0,1,.236-.705.807.807,0,0,1,.633-.261.947.947,0,0,1,.709.261,1.1,1.1,0,0,1,.3.848Zm17.376.165a2.613,2.613,0,0,1-.73.071l-.708-.046-1.413-.261a3.417,3.417,0,0,1-.519-.211c.268-.5.486-.9.662-1.2l.611-.966a4.539,4.539,0,0,1,.469-.562.5.5,0,0,1,.354-.168.589.589,0,0,1,.4.215,2.517,2.517,0,0,1,.376.633l.282.59c.126.376.2.58.215.612a3.032,3.032,0,0,1,.165.565l.068.422a.323.323,0,0,1-.233.308" fill="#f1a148"/>
    <path id="Path_1010" data-name="Path 1010" d="M33.084,51.305a2.523,2.523,0,0,0-1.718-.632,2.421,2.421,0,0,0-1.689.632,1.871,1.871,0,0,0-.727,1.48V66.978l-9.811,1.1.8-10.983a1.827,1.827,0,0,0-.606-1.521,2.32,2.32,0,0,0-1.641-.716,2.494,2.494,0,0,0-1.741.507,1.949,1.949,0,0,0-.848,1.457l-.988,13.5V70.4L12.931,86.348a1.864,1.864,0,0,0,.606,1.521,2.488,2.488,0,0,0,1.666.719,2.579,2.579,0,0,0,1.45-.34,3.425,3.425,0,0,0,.291-.19,1.946,1.946,0,0,0,.818-1.434l1.065-14.261L28.95,71.246V91.8a1.924,1.924,0,0,0,.727,1.5,2.37,2.37,0,0,0,1.329.591,2.531,2.531,0,0,0,.36.022,2.584,2.584,0,0,0,.363-.022,2.4,2.4,0,0,0,1.355-.591,1.957,1.957,0,0,0,.7-1.5V52.785a1.9,1.9,0,0,0-.7-1.48" fill="#fff"/>
    <path id="Path_1011" data-name="Path 1011" d="M.96,57.011.941,57l0,0-.02-.011h0l-.022-.008h0l-.023-.005h0l-.025,0h0l-.02,0H.809l-.022.006h0A.2.2,0,0,0,.74,57l0,0-.017.015,0,0a.1.1,0,0,0-.014.017l0,0a.128.128,0,0,0-.011.02l0,0-.009.022v0l-.006.022v0l0,.024v0L.417,70.112a.17.17,0,0,0,.093.158.175.175,0,0,0,.183-.014l1.672-1.223,3.552.033h0l.026,0h0a.094.094,0,0,0,.024-.006l.006,0,.009,0,.01,0,.006,0,.02-.014,0,0,.016-.014,0,0,.015-.02h0l.012-.022,0,0,.008-.024h0v-.009l0-.019v-.029l0-.013,0-.015,0-.015,0-.011-.822-1.9,2.116-1.546a.19.19,0,0,0,.066-.1l0-.021a.18.18,0,0,0-.035-.131l-6.426-8.1h0a.145.145,0,0,0-.016-.018h0M3.418,67.3l.006.019v0l.009.017,0,0a.241.241,0,0,0,.027.036l0,0,.017.014.02.012h0l1.5.76-2.717-.025-.97-8.618Z" fill="#e85341"/>
    <path id="Path_1012" data-name="Path 1012" d="M6.592,94.725A21.088,21.088,0,0,0,10.963,87.3a8.85,8.85,0,0,0-1.518-8.011,5.738,5.738,0,0,0-3.768-2.027,4.054,4.054,0,0,0-2.278.427,3.027,3.027,0,0,0-1.455,1.7,3.085,3.085,0,0,0-.026,1.937,2.523,2.523,0,0,0,1.523,1.63,2.815,2.815,0,0,0,2.322-.273,4.035,4.035,0,0,0,1.619-1.956,9.021,9.021,0,0,0,.584-2.252,11.2,11.2,0,0,0,.122-2.156,12.563,12.563,0,0,0-1.034-4.545q-.211-.483-.467-.945a.89.89,0,0,0-1.57.838A11.181,11.181,0,0,1,5.7,73.144l-.083-.224a11.494,11.494,0,0,1,.5,1.774q.09.453.143.912c.008.07.015.14.022.21.013.124-.017-.23,0-.046,0,.035.005.07.008.105.011.158.019.316.024.475a11.227,11.227,0,0,1-.1,1.841c-.009.069-.019.139-.03.209-.005.034-.012.069-.016.1,0-.015.038-.213.011-.068s-.059.31-.094.465a8.1,8.1,0,0,1-.247.887c-.028.082-.059.165-.091.246-.013.033-.027.065-.04.1-.04.1.087-.181.018-.04a4.033,4.033,0,0,1-.251.455c-.047.073-.1.142-.149.212-.039.052-.1.09.048-.058-.037.036-.069.079-.105.116a2.526,2.526,0,0,1-.348.305l.194-.139a2.554,2.554,0,0,1-.565.3l.224-.083a2.17,2.17,0,0,1-.261.078c-.043.011-.087.019-.132.027-.073.012-.208,0,.052,0-.089,0-.177.006-.267,0-.074-.006-.2-.048.048.015-.043-.011-.087-.018-.13-.031S4,81.26,3.959,81.247c-.15-.047.192.1.06.03-.067-.037-.13-.075-.193-.116-.119-.078.173.157.064.053-.022-.021-.045-.041-.067-.063a1.66,1.66,0,0,1-.154-.18c.047.064.093.129.14.194a1.869,1.869,0,0,1-.225-.423c.028.074.055.149.083.223a2.178,2.178,0,0,1-.087-.309c-.01-.05-.017-.1-.025-.151-.026-.172.007.213,0,.037a2.8,2.8,0,0,1,.009-.33l.009-.078c.011-.122-.02.108-.02.108-.014-.026.031-.147.038-.172.027-.1.066-.2.1-.3s-.094.186-.046.1c.013-.022.023-.047.035-.069a1.748,1.748,0,0,1,.088-.151,1.25,1.25,0,0,1,.089-.127s-.156.179-.072.089l.053-.058a2.346,2.346,0,0,1,.306-.265l-.194.14a2.744,2.744,0,0,1,.629-.332l-.224.083a3.487,3.487,0,0,1,.7-.163c.172-.024-.2.01-.036,0,.065,0,.13-.006.2-.006.114,0,.229,0,.343.014.066.005.131.012.2.021l.1.014-.127-.021a2.131,2.131,0,0,1,.385.09c.111.031.22.067.328.107l.137.053.09.039c-.134-.062-.16-.073-.078-.035a5.693,5.693,0,0,1,.561.313c.1.061.189.126.281.193.042.032.082.067.125.1-.24-.166-.06-.049-.005,0a5.732,5.732,0,0,1,.883.965l-.14-.193a6.954,6.954,0,0,1,.858,1.621l-.084-.223a7.85,7.85,0,0,1,.338,1.2c.04.2.073.4.1.607.006.047.011.094.016.141.02.19-.012-.169,0-.017.008.1.015.205.02.308A8.566,8.566,0,0,1,9.5,85.559c-.01.1-.023.2-.038.3-.006.046-.014.092-.021.139-.013.092.017-.121.019-.109a.3.3,0,0,1-.017.092c-.042.225-.093.449-.151.67a11.548,11.548,0,0,1-.414,1.27c-.04.1-.082.206-.125.309l-.061.141c-.01.024-.021.047-.031.071-.042.1.1-.208.02-.044-.094.2-.191.4-.293.6a19.933,19.933,0,0,1-1.425,2.323c-.6.847-1.238,1.661-1.889,2.466a.893.893,0,0,0-.11.662.891.891,0,0,0,1.063.673,1.051,1.051,0,0,0,.563-.4" fill="#e85341"/>
    <path id="Path_1013" data-name="Path 1013" d="M87.29,53.8a2.219,2.219,0,0,0-.429-1.479,2.351,2.351,0,0,0-1.25-.914,2.383,2.383,0,0,0-2.735,1.035l-9.588,16-4.505-12.8a2.423,2.423,0,0,0-.966-1.232,2.23,2.23,0,0,0-1.527-.338,2.183,2.183,0,0,0-1.4.648,2.449,2.449,0,0,0-.711,1.408l-3.87,27.3a2.217,2.217,0,0,0,.48,1.746,2.356,2.356,0,0,0,3.331.43,2.276,2.276,0,0,0,.911-1.558l2.583-17.409,2.876,8.141a2.477,2.477,0,0,0,1.154,1.338,2.326,2.326,0,0,0,1.75.186,2.367,2.367,0,0,0,1.381-1.079l7.236-12.058L80.471,87.608a2.051,2.051,0,0,0,.038.528,2.19,2.19,0,0,0,.566,1.2.719.719,0,0,0,.133.128,2.368,2.368,0,0,0,1.507.648,2.3,2.3,0,0,0,1.729-.6,2.742,2.742,0,0,0,.416-.5,3.667,3.667,0,0,0,.273-.576,3.114,3.114,0,0,0,.087-.566Z" fill="#fff"/>
    <path id="Path_1014" data-name="Path 1014" d="M113.391,79.547,99.425,81.239l.349,2.869,13.988-2.092Z" fill="#74b877"/>
    <path id="Path_1015" data-name="Path 1015" d="M113.619,74.868,98.955,76.217l.469,3.438,14.69-2.114Z" fill="#74b877"/>
    <path id="Path_1016" data-name="Path 1016" d="M112.045,62.489,97.911,64.524l.374,3.129,14.208-1.784c-.134-1.358-.283-1.742-.448-3.38" fill="#3a89da"/>
    <path id="Path_1017" data-name="Path 1017" d="M112.77,86.5a2.083,2.083,0,0,0-.941-1.424,2.549,2.549,0,0,0-1.788-.41L97.681,86.2,96.668,74.33l11.655-1.342a2.417,2.417,0,0,0,1.6-.84,1.908,1.908,0,0,0,.459-1.6,2.087,2.087,0,0,0-.944-1.427,2.521,2.521,0,0,0-1.788-.41L96.3,70.01l-.65-7.6,12.02-1.49a2.4,2.4,0,0,0,1.567-.843,1.9,1.9,0,0,0,.458-1.6,2.057,2.057,0,0,0-.939-1.424,2.525,2.525,0,0,0-1.788-.41L92.729,58.417a2.479,2.479,0,0,0-1.547.8,1.808,1.808,0,0,0-.506,1.509l.991,11.658a2.144,2.144,0,0,0,.022.3l1.377,16.149a2.018,2.018,0,0,0,.437,1.079,2.232,2.232,0,0,0,1.039.735,2.587,2.587,0,0,0,1.282.151l14.915-1.857a2.385,2.385,0,0,0,1.571-.843,1.907,1.907,0,0,0,.46-1.6" fill="#fff"/>
    <path id="Path_1018" data-name="Path 1018" d="M20.994,123.034a2.163,2.163,0,0,0-.945-1.479c-1.183-.75-3.128-.266-4.691.123-.551.137-1.072.267-1.471.32a6.776,6.776,0,0,1-6.212-2.011c-2.4-2.6-2.81-6.907-2.147-10.024,1.258-5.914,6.538-11.274,13.45-13.655l.052-.022a3.236,3.236,0,0,0,1.835-1.878,1.983,1.983,0,0,0-.368-1.627,3.022,3.022,0,0,0-3.008-.936A22.39,22.39,0,0,0,.246,116.822a12.686,12.686,0,0,0,5.693,9.022,11.934,11.934,0,0,0,6.4,1.639,18.585,18.585,0,0,0,2.381-.158c1.645-.213,4.735-1,5.88-2.589a2.118,2.118,0,0,0,.395-1.7" fill="#fff"/>
    <path id="Path_1019" data-name="Path 1019" d="M67.083,93.37a2.255,2.255,0,0,0-.506-1.45,2.55,2.55,0,0,0-1.3-.867,2.413,2.413,0,0,0-1.549.118,2.329,2.329,0,0,0-1.157,1.065l-7.784,14.04L50.917,95.171a1.025,1.025,0,0,1-.07-.191,2.479,2.479,0,0,0-2.562-1.355,2.492,2.492,0,0,0-2.031,2.126.294.294,0,0,0-.022.121l-1.693,27.366a2.367,2.367,0,0,0,.606,1.737,2.337,2.337,0,0,0,1.667.823,2.377,2.377,0,0,0,1.737-.6,2.333,2.333,0,0,0,.822-1.645l.992-15.344,1.762,4.663a2.3,2.3,0,0,0,1.212,1.307,2.381,2.381,0,0,0,1.788.121,2.434,2.434,0,0,0,1.377-1.112l5.823-10.56.19,25.149a2.351,2.351,0,0,0,.727,1.715,2.421,2.421,0,0,0,1.715.676,2.347,2.347,0,0,0,1.715-.724,2.434,2.434,0,0,0,.679-1.718Z" fill="#fff"/>
    <path id="Path_1020" data-name="Path 1020" d="M74.65,98.013a2.341,2.341,0,0,0-1.715-.727A2.48,2.48,0,0,0,70.519,99.7V123.83a2.35,2.35,0,0,0,.65,1.645c.019.015.041.041.074.07a2.293,2.293,0,0,0,1.692.7,2.394,2.394,0,0,0,2.416-2.416V99.7a2.3,2.3,0,0,0-.7-1.689" fill="#fff"/>
    <path id="Path_1021" data-name="Path 1021" d="M122.959,112.195a2.017,2.017,0,0,0-1.52-.316c-.742.132-7.84,1.245-10.659,1.887a3.793,3.793,0,0,0-1.156.386,2.694,2.694,0,0,0-.632.459,2.08,2.08,0,0,0-.554,1.883,2.13,2.13,0,0,0,1.233,1.55c.081.029.169.062.265.1a5.138,5.138,0,0,0,2.247-.073q.627-.122,2.585-.628-1.327,3.651-5.8,4.4c-.257.014-.506.022-.749.022a4.764,4.764,0,0,1-4.324-3.429,14.391,14.391,0,0,1,1.545-11.019q2.923-4.88,7.442-6.066,1.548-.291,1.836-1.16a1.6,1.6,0,0,0-.386-1.667,2.74,2.74,0,0,0-1.74-.87,5.451,5.451,0,0,0-1.667.074c-6.249,1.16-10.606,7.346-11.841,13.228-1.112,5.3-.541,12.056,4.788,14.875a8.837,8.837,0,0,0,4.079.939,14.7,14.7,0,0,0,3.191-.507,10.224,10.224,0,0,0,3.359-1.593q3.646-2.661,5.364-8.291a2.647,2.647,0,0,1,1.135-.337,4.731,4.731,0,0,0,1.715-.507,2.08,2.08,0,0,0,.727-.676,1.808,1.808,0,0,0-.485-2.658" fill="#fff"/>
    <path id="Path_1022" data-name="Path 1022" d="M94.795,94.422a2.488,2.488,0,0,0-1.086-.654,2.9,2.9,0,0,0-.632-.069,2.185,2.185,0,0,0-1.351.433,2.394,2.394,0,0,0-.338.29,2.239,2.239,0,0,0-.727,1.667v29.332l.026.052a2.247,2.247,0,0,0,1.256,1.351,2.163,2.163,0,0,0,1.134.216,2.389,2.389,0,0,0,2.42-2.415V96.115a2.307,2.307,0,0,0-.7-1.693M83.946,93.7a2.4,2.4,0,0,0-1.065-1.26,2.343,2.343,0,0,0-.892-.29,2.463,2.463,0,0,0-.749.026,2.421,2.421,0,0,0-1.4.823,2.313,2.313,0,0,0-.58,1.545v.29l9.473,25.419V106.5Zm-1.355,15.56-3.334-8.893v28.255a2.359,2.359,0,0,0,.7,1.692l.025.022a2.287,2.287,0,0,0,1.689.7,2.369,2.369,0,0,0,1.715-.7l.025-.022a2.4,2.4,0,0,0,.676-1.692V113.147q-1.4-3.624-1.5-3.888" fill="#e85341"/>
    <path id="Path_1023" data-name="Path 1023" d="M76.072,95.717,73.126,94.17,70.18,95.717l.563-3.28L68.36,90.116l3.293-.479,1.473-2.984L74.6,89.637l3.293.479-2.382,2.322Z" fill="#f7cc58"/>
    <path id="Path_1024" data-name="Path 1024" d="M75.835,52.558c-.547-2.225-.87-3.462-.966-3.723L73.3,44.609a2.032,2.032,0,0,0,.36-.507q.677-1.163-.265-3.337l-2.68-8.382a2.589,2.589,0,0,0-.121-.364L63.318,9.45a2.315,2.315,0,0,0-.991-1.3,1.772,1.772,0,0,0-.338-.194,1.3,1.3,0,0,0-.411-.121q-.121-.993-.338-2.512a33.82,33.82,0,0,1-.389-3.5A3.62,3.62,0,0,0,60.682.7a.97.97,0,0,0-.818-.7A.767.767,0,0,0,59.305.2,1.166,1.166,0,0,0,58.946.7a3.072,3.072,0,0,0-.1,1.208c.066.613.216,1.781.458,3.5.147,1.1.25,2.03.316,2.805a1.657,1.657,0,0,0-.363.312,2.38,2.38,0,0,0-.654,1.524L57.253,33.88v.048l-.9,15.608a2.5,2.5,0,0,0,1.5,2.394l-.143,2.923q.093,13.074,1.45,0l.121-2.8a2.428,2.428,0,0,0,1.109-.558,2.453,2.453,0,0,0,.8-1.667l.8-13.6v-15.2l7.274,22.639a2.36,2.36,0,0,0,1.208,1.4,2.284,2.284,0,0,0,1.52.242l1.476,3.984a9.623,9.623,0,0,0,.628,1.233q.413.728,1.5,3.044,1.062,2.3.242-1.013" fill="#74b877"/>
    <path id="Path_1025" data-name="Path 1025" d="M51.766,88.942a1.3,1.3,0,0,0-.983-.288l-1.621.11c-.51.035-1.047.1-1.569.091a10.611,10.611,0,0,1-1.568-.193,1.577,1.577,0,0,0-.918,0,1.235,1.235,0,0,0-.626.6,1.011,1.011,0,0,0,0,.75,1.28,1.28,0,0,0,.462.636,2.946,2.946,0,0,0,1.445.551,7.748,7.748,0,0,0,4.484-.462,1.8,1.8,0,0,0,.924-.695.78.78,0,0,0-.03-1.1" fill="#fff"/>
    <path id="Path_1026" data-name="Path 1026" d="M54.424,85.442a.893.893,0,0,0-.286-.547,1.638,1.638,0,0,0-1.533-.119c-1.427.348-2.148.522-2.17.522a10.878,10.878,0,0,1-2.195.258,12.286,12.286,0,0,1-3.657-.479c-.577-.155-1.481-.474-1.577-.474a1.505,1.505,0,0,0-.957.2,1.313,1.313,0,0,0-.517.983c-.122,1.392,1.647,1.674,2.656,1.879a16.064,16.064,0,0,0,4.907.211,12.506,12.506,0,0,0,2.926-.673c.717-.261,2.542-.743,2.4-1.764" fill="#fff"/>
    <path id="Path_1027" data-name="Path 1027" d="M46.28,70.5c-.312-.128-.621.223-.538.55.05.2.091.363.1.393,1.366,4.971.221,11.244-.035,12.508a.217.217,0,0,0,.186.258,13.954,13.954,0,0,0,3.586.069.217.217,0,0,0,.2-.252c-.228-1.336-1.366-8,.108-13.331a.215.215,0,0,0-.268-.263,4.535,4.535,0,0,1-3.338.068" fill="#f7cc58"/>
    <path id="Path_1028" data-name="Path 1028" d="M54.721,80.041a19.986,19.986,0,0,1,2.155-4.961q.2-.323.392-.654A10.085,10.085,0,0,0,58.563,69.2a10.43,10.43,0,0,0-3.2-7.642A10.815,10.815,0,0,0,39.342,76.048l.011.013.01.014a11.631,11.631,0,0,1,1.672,4.7,3.619,3.619,0,0,0,3.771,3.145,31.079,31.079,0,0,0,.669-3.614,23.718,23.718,0,0,0-.626-9.024c-.321-1.333.376-2.3,1.723-1.544A2.893,2.893,0,0,0,48.509,70c.665-.122,1.461-.943,2.111-.363.805.718-.108,2.221-.332,2.995a15.644,15.644,0,0,0-.48,3.838,24.7,24.7,0,0,0,1.021,7.547,14.949,14.949,0,0,0,2.165-.66c1.2-.554,1.4-2.185,1.727-3.315" fill="#f1a148"/>
    <path id="Path_1029" data-name="Path 1029" d="M113.383,7.011a2.449,2.449,0,0,0-1.718-.672,2.347,2.347,0,0,0-1.689.672,2.013,2.013,0,0,0-.727,1.561V25.283l-5.737.58.94-13.649a1.971,1.971,0,0,0-.6-1.608,2.3,2.3,0,0,0-1.645-.761,2.425,2.425,0,0,0-1.737.537,2.09,2.09,0,0,0-.848,1.541L98.486,28.232v.088L96.745,50.743a2,2,0,0,0,.606,1.609,2.411,2.411,0,0,0,1.667.756,2.5,2.5,0,0,0,1.74-.556,2.1,2.1,0,0,0,.819-1.521L103.2,30.4l6.052-.6V46.555a2.082,2.082,0,0,0,.727,1.585,2.388,2.388,0,0,0,1.277.625,3.24,3.24,0,0,0,.412.023,2.5,2.5,0,0,0,1.718-.648,2.119,2.119,0,0,0,.7-1.585V8.572a2.047,2.047,0,0,0-.7-1.561" fill="#fff"/>
    <path id="Path_1030" data-name="Path 1030" d="M91.929,13.084v.027q-4.053-4.13-12.492-3.9a2.368,2.368,0,0,0-1.726.785,2.4,2.4,0,0,0-.734,1.753v34.7a2.469,2.469,0,0,0,.635,1.669,2.4,2.4,0,0,0,1.543.842,2.493,2.493,0,0,0,1.726-.383A35.1,35.1,0,0,0,92.34,37.392a24.738,24.738,0,0,0,3.6-12.9q.022-7.655-4.007-11.408M88,34.782a27.655,27.655,0,0,1-5.954,6.691V14.352a10.517,10.517,0,0,1,6.364,2.382q2.478,2.585,2.458,7.731A19.878,19.878,0,0,1,88,34.782" fill="#fff"/>
    <path id="Path_1031" data-name="Path 1031" d="M28.146,45.06a2.257,2.257,0,0,0-.822-1.608L14.4,32.561q11.891-6.941,12.517-14.29.484-4.7-2.754-7.039Q20.9,8.89,8.889,10.289h-.1a2.378,2.378,0,0,0-1.5.778,2.245,2.245,0,0,0-.6,1.558L6.118,57.912a2.275,2.275,0,0,0,.724,1.677,2.333,2.333,0,0,0,1.692.685,2.411,2.411,0,0,0,1.715-.685,2.31,2.31,0,0,0,.7-1.677l.572-21.546L24.159,47.019a2.463,2.463,0,0,0,1.74.568,2.43,2.43,0,0,0,1.668-.805,2.286,2.286,0,0,0,.579-1.722M11.907,15.626a48.346,48.346,0,0,1,7.3-.4q2.682.167,2.489,2.954a4.924,4.924,0,0,1-.121.8q-1.4,4.845-9.52,8.1Q12,18.722,11.907,15.626" fill="#fff"/>
    <path id="Path_1032" data-name="Path 1032" d="M18.971,23.515V23.49l.338-.3Z" fill="#fff"/>
    <path id="Path_1033" data-name="Path 1033" d="M53.843,7.443a2.39,2.39,0,0,0-1.661-.814,2.321,2.321,0,0,0-1.738.573,2.127,2.127,0,0,0-.836,1.561l-1.1,15.465-4-7.075a2.509,2.509,0,0,0-3.221-1.037,2.2,2.2,0,0,0-1.209,1.324,2.117,2.117,0,0,0,.117,1.769L47.866,33.3,46.513,51.723a2.19,2.19,0,0,0,.6,1.684,2.358,2.358,0,0,0,1.641.788,2.423,2.423,0,0,0,1.758-.547,2.213,2.213,0,0,0,.816-1.583l3.1-42.96a2.142,2.142,0,0,0-.585-1.662" fill="#fff"/>
    <path id="Path_1034" data-name="Path 1034" d="M34.79,31.572a.648.648,0,1,1,0-1.3h1.591V27.665H34.79a.648.648,0,1,1,0-1.3h1.591V23.758H34.79a.648.648,0,1,1,0-1.3h1.591V19.134h.108a1.532,1.532,0,1,0,0-3.063H31.115a1.532,1.532,0,0,0,0,3.063h0V43.07a2.573,2.573,0,0,0,.787,1.871,2.512,2.512,0,0,0,1.844.76,2.6,2.6,0,0,0,2.631-2.631v-11.5Z" fill="#3a89da"/>
    <path id="Path_1035" data-name="Path 1035" d="M36.358,8.573a3.205,3.205,0,0,0-4.5,0,3.145,3.145,0,0,0,0,4.5,3.15,3.15,0,0,0,4.5,0,3.21,3.21,0,0,0,0-4.5" fill="#3a89da"/>
    <path id="Path_1036" data-name="Path 1036" d="M38.8,3.2a2.247,2.247,0,0,0-3.155,0,2.2,2.2,0,0,0,0,3.152,2.206,2.206,0,0,0,3.155,0,2.183,2.183,0,0,0,.644-1.569A2.191,2.191,0,0,0,38.8,3.2" fill="#3a89da"/>
    <path id="Path_1037" data-name="Path 1037" d="M29.543,122.753a12.4,12.4,0,1,1,12.405-12.4,12.418,12.418,0,0,1-12.405,12.4" fill="#3a89da"/>
    <path id="Path_1038" data-name="Path 1038" d="M24.277,99a12.629,12.629,0,0,0-2.747,1.771,12.348,12.348,0,0,0-2.187,2.409c-.022.586-.027,1.205,0,1.827a27.272,27.272,0,0,1,4.421-1.622A26.636,26.636,0,0,1,26.1,99.276c-.591-.086-1.208-.189-1.82-.265Z" fill="#fff" fill-rule="evenodd"/>
    <path id="Path_1039" data-name="Path 1039" d="M26.582,106.739a14.625,14.625,0,0,0-1.3,5.329,14.3,14.3,0,0,0,4.7,2.912,16.322,16.322,0,0,0,2.243-1.584,14.561,14.561,0,0,0,1.938-1.988,14.729,14.729,0,0,0-2.1-5.09,14.676,14.676,0,0,0-5.467.422Z" fill="#fff" fill-rule="evenodd"/>
    <path id="Path_1040" data-name="Path 1040" d="M17.219,111.885a12.443,12.443,0,0,0,2.449,5.988c.591.22,1.184.41,1.778.579a24.951,24.951,0,0,1-.222-4.732,25.993,25.993,0,0,1-3.187-3.489c-.267.534-.552,1.083-.823,1.649Z" fill="#fff" fill-rule="evenodd"/>
    <path id="Path_1041" data-name="Path 1041" d="M33.2,98.344a12.438,12.438,0,0,1,5.518,3.417c.1.559.189,1.176.258,1.79a27.723,27.723,0,0,0-4.573-.95c-.65-.939-1.3-1.809-2.007-2.643-.3-.358-.614-.7-.934-1.045.585-.217,1.179-.412,1.775-.581Z" fill="#fff" fill-rule="evenodd"/>
    <path id="Path_1042" data-name="Path 1042" d="M27.28,122.581a12.536,12.536,0,0,0,6.471-.5c.368-.484.737-.99,1.081-1.5a24.609,24.609,0,0,1-4.518-1.226,30.187,30.187,0,0,1-4.3,1.917c.413.466.85.913,1.3,1.336Z" fill="#fff" fill-rule="evenodd"/>
    <path id="Path_1043" data-name="Path 1043" d="M41.02,108.547a27.708,27.708,0,0,1-2.585,3.891,31.114,31.114,0,0,1,.487,4.681c.571-.244,1.131-.526,1.676-.824a12.786,12.786,0,0,0,1.5-6.28c-.348-.5-.718-1.006-1.1-1.5Z" fill="#fff" fill-rule="evenodd"/>
  </g>
</svg>
