<svg width="52" height="52" viewBox="0 0 52 52" fill="none" xmlns="http://www.w3.org/2000/svg">
<g clip-path="url(#clip0_1_4260)">
<path d="M7.79213 7.73606C6.18799 9.31538 4.79585 11.0963 3.65072 13.0344C2.04548 15.7525 0.995994 18.7626 0.563096 21.8895C0.373469 23.2069 0.279513 24.5358 0.281937 25.8667C0.258476 28.8212 0.745297 31.7577 1.72104 34.5465C2.4609 36.6329 3.48428 38.6078 4.76231 40.4154L4.75001 40.4038C4.78488 40.448 4.81622 40.495 4.84373 40.5441C4.86131 40.5619 4.87691 40.5815 4.89019 40.6027C4.99267 40.735 5.09337 40.8656 5.19498 41.0005L5.15996 40.9654C5.26069 41.1134 5.37809 41.2691 5.51036 41.4329C6.2159 42.3367 6.97646 43.1965 7.78775 44.0068C10.1366 46.4309 12.9573 48.3476 16.0758 49.6392C19.1944 50.9307 22.5445 51.5695 25.9195 51.5159C27.8974 51.5232 29.8701 51.3156 31.8031 50.8966C31.8131 50.8881 31.8259 50.8836 31.839 50.8842C32.0878 50.8141 32.345 50.752 32.6107 50.6977C32.6107 50.6898 32.6107 50.6857 32.6221 50.6857C36.9679 49.532 40.9207 47.2242 44.0617 44.0068C45.224 42.8354 46.2848 41.5673 47.2326 40.2165L47.244 40.2049C47.5558 39.7454 47.8522 39.2815 48.1331 38.8132C50.4666 34.9035 51.654 30.4163 51.5597 25.8641C51.6411 20.7557 50.134 15.7481 47.2466 11.5332C46.543 10.531 45.7774 9.5738 44.9543 8.66716C44.6624 8.34774 44.3657 8.03602 44.0644 7.73178C43.763 7.42754 43.4553 7.13556 43.1412 6.85585H43.1289C42.5595 6.3262 41.9785 5.82967 41.3858 5.3666L41.3744 5.35505C41.2185 5.23767 41.0626 5.12946 40.9066 5.02786L40.9303 5.03898C36.3454 1.7531 30.8083 0.0638141 25.17 0.230768C19.5317 0.397722 14.1043 2.41183 9.72181 5.96324C9.06662 6.51741 8.42426 7.1064 7.79475 7.73007M4.85865 13.7423C5.94752 11.9077 7.26821 10.2211 8.78809 8.72404H8.7767C9.37642 8.12316 9.99248 7.56181 10.6249 7.03976C14.7672 3.69185 19.8924 1.79353 25.2162 1.63534C30.5399 1.47714 35.7688 3.06779 40.1026 6.16383C40.1028 6.16834 40.1039 6.17259 40.1058 6.17666C40.1078 6.18073 40.1106 6.18439 40.114 6.18735C40.2541 6.28108 40.3986 6.38283 40.5466 6.49145L40.523 6.46835C41.0842 6.91216 41.6418 7.3839 42.196 7.88318V7.89559C42.4921 8.1607 42.784 8.43728 43.0719 8.72575C43.3598 9.01423 43.6404 9.3062 43.9137 9.60168V9.61409C44.6998 10.4687 45.4268 11.376 46.0895 12.3296C48.8142 16.3109 50.2365 21.0394 50.16 25.8633C50.185 28.8487 49.6658 31.8139 48.628 34.6132V34.6008C48.1593 35.8112 47.5918 36.9812 46.9313 38.0985C46.6586 38.5435 46.378 38.9814 46.0895 39.4124C45.186 40.6955 44.1766 41.9004 43.0719 43.0149C40.1141 46.0511 36.3921 48.2332 32.298 49.3312C32.0177 49.3943 31.7444 49.46 31.4799 49.5301C29.6541 49.9252 27.791 50.1214 25.923 50.1152C22.733 50.1651 19.5667 49.561 16.6194 48.3398C13.672 47.1186 11.0062 45.3063 8.78632 43.0149C8.01448 42.2463 7.29184 41.4298 6.62275 40.5702H6.61136C6.50975 40.437 6.41604 40.3075 6.3302 40.184C6.32417 40.1712 6.31621 40.1593 6.30657 40.1489C6.21285 40.0324 6.1235 39.9151 6.03766 39.7986C5.99123 39.7285 5.95007 39.6706 5.92116 39.6233L5.90886 39.6121C4.70912 37.9051 3.74536 36.0435 3.0437 34.0786C2.12405 31.4396 1.66508 28.6625 1.68688 25.868C1.68401 24.6035 1.77389 23.3401 1.95579 22.0888C2.36401 19.145 3.34993 16.3108 4.85688 13.7491M43.9374 34.36V34.2077C43.9394 34.1166 43.9228 34.0258 43.8886 33.9413C43.8544 33.8568 43.8034 33.7804 43.7386 33.7163C43.6735 33.6489 43.5953 33.5955 43.5088 33.5593C43.4224 33.5232 43.3294 33.5048 43.2357 33.5059C43.0514 33.5107 42.876 33.5863 42.7456 33.7167C42.6153 33.8471 42.5399 34.0221 42.535 34.2064V34.3591C42.5292 36.9571 41.4946 39.4469 39.6575 41.284C37.8204 43.1211 35.3305 44.1558 32.7325 44.1616C32.5482 44.1665 32.3727 44.2416 32.2424 44.372C32.112 44.5024 32.0366 44.6779 32.0317 44.8622C32.0305 44.956 32.0486 45.0494 32.085 45.1359C32.1213 45.2224 32.175 45.3003 32.2428 45.3651C32.3066 45.4301 32.383 45.4815 32.4674 45.5157C32.5518 45.5499 32.6423 45.5663 32.7334 45.564C35.704 45.5596 38.5518 44.3777 40.6525 42.2771C42.7532 40.1766 43.9354 37.329 43.94 34.3583M32.722 40.4641C32.5376 40.4688 32.362 40.5441 32.2316 40.6745C32.1012 40.805 32.0259 40.9807 32.0212 41.1651C32.02 41.2589 32.0379 41.3519 32.0741 41.4384C32.1103 41.5249 32.1638 41.6027 32.2314 41.6677C32.2954 41.7327 32.372 41.784 32.4565 41.8182C32.541 41.8524 32.6317 41.8688 32.7228 41.8666C33.7087 41.8815 34.6872 41.6952 35.5985 41.3187C36.5097 40.9421 37.3345 40.3832 38.0222 39.6767V39.6656C38.6167 39.0708 39.1104 38.3831 39.4841 37.6297C39.973 36.6159 40.2212 35.503 40.2094 34.3775V34.2022C40.2114 34.111 40.1948 34.0206 40.1606 33.9361C40.1264 33.8516 40.0754 33.7748 40.0106 33.7107C39.9454 33.6432 39.8671 33.5899 39.7805 33.5538C39.6938 33.5176 39.6007 33.4996 39.5069 33.5007C39.3225 33.5054 39.147 33.5807 39.0166 33.7112C38.8862 33.8416 38.8108 34.0169 38.8062 34.2013V34.3767C38.8166 35.2859 38.6166 36.1853 38.2219 37.0045C37.9138 37.6211 37.5109 38.1853 37.028 38.6772C36.4693 39.2508 35.7993 39.7046 35.0592 40.0103C34.3191 40.3161 33.5244 40.4675 32.7237 40.4556M35.461 33.7056C35.3932 33.768 35.3394 33.8441 35.3031 33.9289C35.2669 34.0136 35.2491 34.1049 35.2508 34.197V34.3724C35.2547 34.7053 35.1919 35.0353 35.0663 35.3437C34.9407 35.652 34.7547 35.9324 34.5193 36.1679C34.2838 36.4033 34.0037 36.5893 33.6954 36.7149C33.387 36.8405 33.0567 36.9031 32.7237 36.8992C32.5393 36.9037 32.3636 36.9788 32.2332 37.1092C32.1027 37.2397 32.0274 37.4154 32.023 37.5998C32.0218 37.6935 32.0398 37.7866 32.076 37.8731C32.1121 37.9596 32.1657 38.0378 32.2332 38.1028C32.2972 38.1677 32.3738 38.2187 32.4583 38.2529C32.5428 38.2871 32.6334 38.3038 32.7246 38.3017C33.2395 38.3108 33.7509 38.2148 34.2275 38.0198C34.7042 37.8248 35.1361 37.5348 35.4969 37.1674L35.5083 37.1559C35.8772 36.7929 36.1689 36.3594 36.3659 35.8809C36.563 35.4024 36.6612 34.889 36.6549 34.3715V34.1962C36.6569 34.105 36.6403 34.0146 36.6061 33.9301C36.5719 33.8456 36.5209 33.7688 36.4561 33.7047C36.391 33.6372 36.3129 33.5839 36.2264 33.5478C36.14 33.5116 36.047 33.4932 35.9533 33.4943C35.8611 33.4924 35.7696 33.5102 35.6849 33.5465C35.6002 33.5827 35.5241 33.6368 35.4619 33.7047M43.1823 13.0241C43.1788 13.0213 43.176 13.0175 43.174 13.0135C43.1721 13.0094 43.171 13.0047 43.1709 13.0002C43.0615 12.8916 42.9563 12.782 42.8547 12.6734L42.8425 12.6615C41.8392 11.6267 40.6345 10.8082 39.3027 10.2569C37.971 9.70569 36.5404 9.43326 35.0992 9.45627C32.8559 9.4212 30.6611 10.1106 28.8407 11.422C28.3189 11.7925 27.8264 12.2023 27.3674 12.6482V12.6597C26.3438 13.6521 25.5321 14.8417 24.9812 16.1566C24.4303 17.4715 24.1518 18.8844 24.1624 20.31L20.1383 25.152C20.023 25.2889 19.9644 25.4647 19.9746 25.6434C19.9893 25.8213 20.0684 25.9877 20.197 26.1113C20.3256 26.2348 20.4979 26.3022 20.6762 26.2987H25.8818C26.312 26.958 26.8112 27.5696 27.3709 28.1233V28.1357C28.3741 29.1666 29.5774 29.9817 30.907 30.5308C32.2366 31.0798 33.6644 31.3512 35.1028 31.3284C35.7365 31.3304 36.3696 31.2876 36.9974 31.2006L37.0097 31.1882C38.8024 30.8913 40.4873 30.1339 41.8991 28.9898C41.8991 28.9819 41.907 28.9774 41.9228 28.9774C42.0314 28.8766 42.1408 28.7831 42.2495 28.6972C42.2495 28.6893 42.2573 28.6812 42.2731 28.6733C42.3362 28.6111 42.4018 28.549 42.4719 28.4859C42.4781 28.4794 42.4866 28.4752 42.4956 28.4744C42.6121 28.3649 42.7294 28.253 42.8459 28.1357C44.8156 26.2224 45.9613 23.6164 46.0396 20.8716V20.3913C46.0445 19.4412 45.9307 18.4945 45.7006 17.5727V17.5603C45.4364 16.5251 45.0098 15.5383 44.4367 14.6366C44.0685 14.0624 43.6499 13.5223 43.1858 13.0224M42.1557 13.9702L42.1794 13.9937C42.5802 14.4236 42.9406 14.8894 43.2559 15.3855C43.7449 16.1673 44.1118 17.0194 44.3438 17.9119C44.5411 18.7236 44.6391 19.5559 44.6355 20.3913V20.8365C44.5603 23.2201 43.5622 25.4811 41.8518 27.143L41.5128 27.4586C41.5094 27.4616 41.5067 27.4652 41.5047 27.4693C41.5028 27.4734 41.5017 27.4776 41.5014 27.4821C41.4565 27.519 41.4135 27.558 41.3726 27.5993C41.2401 27.7003 41.1151 27.8058 40.9977 27.915C39.7762 28.8981 38.3223 29.5506 36.7758 29.8097H36.7871C36.2292 29.8891 35.6663 29.9282 35.1028 29.9269C33.8493 29.9463 32.6051 29.7093 31.4465 29.2306C30.2879 28.7519 29.2393 28.0414 28.3651 27.143C27.7927 26.5705 27.2926 25.9303 26.876 25.2363C26.8083 25.1372 26.7205 25.0531 26.6185 24.9899C26.5118 24.9288 26.391 24.8968 26.2681 24.8971H22.167L25.3948 21.0136C25.5023 20.8859 25.5607 20.7237 25.5595 20.5568V20.3934C25.5401 19.14 25.777 17.8956 26.2557 16.737C26.7344 15.5784 27.4447 14.5297 28.3432 13.6554H28.3546C28.7508 13.2561 29.1813 12.8926 29.6413 12.5686C31.2276 11.4285 33.1389 10.8294 35.0922 10.8604C36.3431 10.84 37.585 11.0753 38.7416 11.552C39.8983 12.0287 40.9453 12.7369 41.8185 13.6328L41.8413 13.6554C41.9366 13.7664 42.0381 13.8723 42.1452 13.9719M29.1385 21.5397C29.107 21.6176 29.0799 21.6957 29.0562 21.7736C29.0799 21.8516 29.107 21.9296 29.1385 22.0076V22.2415L29.361 22.4639L29.8288 22.6277H40.0517C40.1533 22.5962 40.255 22.5692 40.3557 22.5465C40.4337 22.4913 40.5125 22.4402 40.5904 22.3938L40.6605 22.1598C40.6909 22.0822 40.718 22.0039 40.742 21.925V21.6923C40.7183 21.6144 40.6912 21.5355 40.6605 21.4575C40.5904 21.3796 40.516 21.3015 40.438 21.2244C40.3049 21.1771 40.1752 21.1265 40.0517 21.0722H29.8296V21.1684H29.5248C29.4471 21.2157 29.3692 21.2664 29.291 21.3207C29.2366 21.3986 29.1858 21.4767 29.1394 21.5546M32.6133 17.0629V17.1455H32.3094C32.2314 17.1919 32.1535 17.2426 32.0746 17.2969C32.0203 17.3748 31.9696 17.4529 31.9231 17.5308C31.8916 17.6091 31.8644 17.6867 31.8417 17.7643C31.8644 17.8423 31.8916 17.9203 31.9231 17.9992V18.2207L32.157 18.4547C32.305 18.509 32.4574 18.5642 32.6133 18.6185H37.2558C37.3644 18.5878 37.4704 18.56 37.5711 18.5372C37.6488 18.4823 37.7267 18.4312 37.805 18.3845L37.8751 18.151C37.9066 18.073 37.9337 17.995 37.9574 17.917V17.6831C37.9337 17.6051 37.9066 17.5271 37.8751 17.4491L37.6412 17.2152C37.5168 17.1679 37.3881 17.1172 37.2558 17.0629H32.6133ZM18.5301 28.959C17.9843 28.9574 17.4396 29.0083 16.9035 29.1112C15.2839 29.4139 13.7995 30.2156 12.6579 31.4037C12.2291 31.8209 11.8472 32.284 11.5192 32.7843C11.4185 32.9324 11.3204 33.088 11.2267 33.2518C10.9236 33.7733 10.6917 34.3329 10.5373 34.916C10.3866 35.427 10.2886 35.9521 10.2447 36.4831C10.2431 36.4828 10.2415 36.4831 10.24 36.4835C10.2384 36.484 10.237 36.4846 10.2358 36.4857C10.2346 36.4868 10.2337 36.4884 10.2331 36.4899C10.2326 36.4914 10.2323 36.493 10.2325 36.4946C10.2179 36.7527 10.2103 37.0101 10.2097 37.2671C10.1995 38.361 10.4061 39.4462 10.8176 40.4598C11.1302 41.2144 11.5561 41.9168 12.0807 42.5427L12.1394 42.6005C12.2953 42.7879 12.467 42.9752 12.6544 43.1621C13.2467 43.7598 13.9259 44.2645 14.6691 44.659C15.263 44.9788 15.8965 45.2188 16.5532 45.3728C17.2023 45.5161 17.8654 45.5871 18.5301 45.5841C19.9216 45.6002 21.2944 45.2619 22.5191 44.6013C22.5217 44.5943 22.5263 44.5884 22.5324 44.5842C22.5386 44.5799 22.5458 44.5777 22.5533 44.5777C22.6325 44.5227 22.7146 44.4718 22.7994 44.4259C22.8023 44.4223 22.8059 44.4195 22.81 44.4174C22.814 44.4152 22.8185 44.4142 22.8231 44.4139C23.3944 44.0579 23.9234 43.6378 24.3998 43.1621C24.6666 42.8889 24.9167 42.6001 25.1487 42.2968H25.1601L25.4176 41.9465C25.4173 41.945 25.4174 41.9434 25.4178 41.9418C25.4183 41.9403 25.4191 41.9387 25.4202 41.9375C25.4213 41.9364 25.4227 41.9354 25.4243 41.935C25.4258 41.9345 25.4274 41.9347 25.429 41.935C25.5306 41.7791 25.6281 41.623 25.7215 41.4671H29.3365C29.5142 41.4676 29.6855 41.4007 29.8156 41.2797C29.9451 41.1618 30.0246 40.9989 30.0381 40.8242C30.0549 40.6486 30.0049 40.4731 29.898 40.3328L26.8094 36.3586C26.6176 34.4702 25.7593 32.7123 24.3884 31.3994H24.3998C23.6412 30.6117 22.7288 29.9881 21.7193 29.5676C20.7097 29.1471 19.6245 28.9385 18.531 28.9547M17.162 30.4867H17.1742C17.6216 30.4005 18.0763 30.3577 18.5319 30.3588C19.4409 30.3454 20.343 30.519 21.182 30.8691C22.0211 31.2191 22.7791 31.7379 23.4091 32.3934C24.5932 33.5222 25.3119 35.0533 25.4237 36.6854C25.4309 36.8237 25.4845 36.9557 25.5761 37.0596L27.9035 40.0544H25.3186C25.1939 40.0544 25.072 40.0914 24.9682 40.1605C24.855 40.2188 24.7646 40.3132 24.7116 40.4291C24.5784 40.655 24.4339 40.8846 24.278 41.1194C24.2777 41.1237 24.2766 41.1283 24.2746 41.1322C24.2727 41.1361 24.2699 41.1396 24.2666 41.1425L24.0564 41.4235V41.435C23.8608 41.6768 23.6462 41.9182 23.4126 42.16C23.0146 42.5548 22.574 42.9041 22.0987 43.2014L22.0873 43.213C22.0026 43.2589 21.9207 43.3096 21.842 43.3652C20.8239 43.9079 19.6855 44.1857 18.5319 44.1723C17.9724 44.1755 17.4142 44.1166 16.8677 43.9969C16.3338 43.8694 15.8188 43.673 15.3356 43.4127H15.3234C14.707 43.0807 14.1434 42.6587 13.6512 42.1608C13.4867 41.9972 13.3305 41.8254 13.1835 41.6459C13.1519 41.6073 13.1248 41.5767 13.1011 41.553C12.6898 41.0619 12.3582 40.509 12.1184 39.915V39.9265C11.7779 39.0792 11.6071 38.1733 11.6156 37.2602C11.6156 37.0334 11.6235 36.8074 11.6392 36.5815V36.605C11.6749 36.1596 11.757 35.7193 11.8845 35.2911C12.0178 34.8219 12.2066 34.3701 12.4468 33.9455C12.5239 33.8133 12.6062 33.6828 12.6921 33.5602V33.5478C12.9709 33.1284 13.2939 32.7404 13.6556 32.39C14.5994 31.4062 15.8256 30.7396 17.1646 30.4829M14.5368 38.8701L14.4659 39.1049L14.5368 39.338V39.5728L14.7698 39.8063C14.9257 39.8527 15.0825 39.9038 15.2384 39.959H21.426C21.5276 39.9354 21.6292 39.908 21.7299 39.8765C21.8079 39.83 21.8859 39.7785 21.9638 39.7242C21.9875 39.6462 22.0102 39.5682 22.0338 39.4902C22.0575 39.4123 22.0926 39.3343 22.1162 39.2563V39.0223C22.0926 38.9523 22.0654 38.8788 22.0338 38.8008C21.9638 38.722 21.8902 38.6439 21.8114 38.566C21.6791 38.5117 21.5486 38.461 21.426 38.4146H15.2384V38.4847H14.9336C14.8565 38.539 14.7777 38.5897 14.6997 38.637L14.5368 38.8701ZM15.8112 35.9348V36.1687L16.0451 36.4027C16.2011 36.4494 16.357 36.4998 16.5129 36.5541H20.5369C20.6385 36.5234 20.7436 36.4965 20.8531 36.4728C20.9232 36.4264 20.9968 36.3753 21.0747 36.3201C21.1063 36.2422 21.1334 36.1641 21.1571 36.0862C21.1807 36.0082 21.2079 35.9306 21.2385 35.8527V35.6187C21.2076 35.541 21.1804 35.463 21.1571 35.3848C21.0791 35.3147 21.0012 35.2403 20.9232 35.1623C20.798 35.108 20.67 35.0537 20.5369 34.9985H16.5129V35.0807H16.2089C16.1313 35.135 16.0533 35.1858 15.975 35.2325C15.9207 35.3104 15.8655 35.3885 15.8112 35.4673L15.7412 35.7008C15.7649 35.7779 15.7876 35.8559 15.8112 35.9348ZM16.1616 17.6164C15.931 17.6143 15.7022 17.6589 15.4891 17.7472C15.276 17.8356 15.0829 17.9662 14.9213 18.1309C14.6003 18.4584 14.4205 18.8986 14.4205 19.3571C14.4205 19.8157 14.6003 20.2558 14.9213 20.5833C15.084 20.7463 15.2773 20.8757 15.49 20.964C15.7028 21.0522 15.9309 21.0974 16.1612 21.0974C16.3915 21.0974 16.6196 21.0522 16.8323 20.964C17.0451 20.8757 17.2383 20.7463 17.4011 20.5833C17.722 20.2558 17.9018 19.8157 17.9018 19.3571C17.9018 18.8986 17.722 18.4584 17.4011 18.1309C17.2396 17.9664 17.0466 17.836 16.8337 17.7477C16.6207 17.6593 16.3922 17.6145 16.1616 17.6164ZM12.0903 8.48154C12.0332 8.50598 11.9817 8.54184 11.9388 8.58675C11.2923 9.09786 10.6779 9.64827 10.0993 10.2351C9.03196 11.2963 8.07198 12.46 7.23329 13.7097C5.22707 16.7027 4.04845 20.1735 3.81714 23.7693V23.7812C3.74916 24.5958 3.84457 25.4158 4.09772 26.193C4.35086 26.9702 4.7567 27.6889 5.29137 28.3072C5.7843 28.9209 6.42121 29.4035 7.14556 29.7117C7.86991 30.02 8.65922 30.1444 9.44327 30.074C10.229 30.0501 10.9888 29.7876 11.622 29.3217C12.2551 28.8558 12.7316 28.2085 12.9882 27.4654V27.4539C13.5059 26.3295 13.7543 25.1001 13.7134 23.8629C13.7116 23.4167 13.5943 22.9784 13.373 22.5909C13.1516 22.2035 12.8338 21.8799 12.4503 21.6517C11.9812 21.3732 11.4722 21.1684 10.9411 21.044H10.9288C10.6012 20.9818 10.4103 20.8522 10.356 20.6577C10.3547 19.9261 10.4731 19.1991 10.7064 18.5056V18.482C10.7529 18.3031 10.8114 18.1274 10.8815 17.9564C10.8815 17.9485 10.8815 17.9448 10.8929 17.9448C10.9787 17.7732 11.0725 17.5983 11.1741 17.4196L11.1618 17.4307C11.7306 16.3543 12.5011 15.3976 13.4314 14.6122C13.99 14.1265 14.6218 13.7319 15.3032 13.4429V13.454C15.4977 13.4306 15.6848 13.5593 15.8647 13.8402C15.865 13.8446 15.8661 13.8491 15.8681 13.853C15.87 13.8569 15.8728 13.8605 15.8761 13.8633C16.1994 14.2966 16.5859 14.6789 17.0227 14.9976C17.3799 15.2655 17.8007 15.4357 18.2438 15.4911C18.6868 15.5466 19.1367 15.4853 19.5489 15.3136H19.5611C20.7207 14.8738 21.7589 14.1645 22.5901 13.244H22.5787C23.1682 12.7217 23.5847 12.0321 23.7724 11.2671C23.9602 10.5022 23.9105 9.6982 23.6298 8.96227C23.3941 8.21155 22.9758 7.53117 22.4123 6.98202C21.8487 6.43287 21.1577 6.03231 20.4012 5.81611C19.6204 5.56076 18.796 5.46627 17.9777 5.53853C17.1594 5.6108 16.3644 5.8483 15.6405 6.23654C14.3832 6.86513 13.1918 7.61774 12.0842 8.48325M9.93202 16.7528C9.82341 16.9552 9.71743 17.1583 9.6167 17.3606C9.60743 17.3796 9.59949 17.3995 9.59302 17.4196C9.49166 17.6447 9.41334 17.8793 9.35917 18.1202C9.35758 18.1199 9.35592 18.1202 9.35436 18.1206C9.35281 18.1211 9.35138 18.1217 9.35019 18.1228C9.34901 18.1239 9.34809 18.1251 9.34752 18.1266C9.34695 18.1281 9.34677 18.1301 9.34693 18.1317C9.05419 18.9892 8.92349 19.8936 8.96152 20.7989C9.00006 21.6801 9.5691 22.2219 10.6687 22.4246C11.0595 22.5217 11.4339 22.6754 11.7802 22.8809H11.7688C11.9387 23.0185 12.0761 23.1917 12.171 23.3886C12.266 23.5855 12.3162 23.8009 12.3181 24.0195C12.3195 25.028 12.1044 26.025 11.6874 26.9432C11.5152 27.435 11.1985 27.8635 10.7789 28.1724C10.3593 28.4814 9.85629 28.6565 9.33554 28.675C8.77156 28.7272 8.20342 28.6381 7.68264 28.4154C7.16186 28.1927 6.70486 27.8434 6.35298 27.3996C5.94091 26.9167 5.62854 26.3571 5.43385 25.7529C5.23916 25.1487 5.16603 24.5122 5.21866 23.8796V23.8672C5.43637 20.5176 6.53371 17.2846 8.4 14.4946C9.18689 13.3209 10.088 12.2279 11.09 11.2317C11.5834 10.729 12.1029 10.2527 12.6465 9.80484C12.7088 9.77636 12.7676 9.74071 12.8217 9.69877C13.8939 8.84679 15.0499 8.1061 16.272 7.48799C16.8341 7.1872 17.4509 7.00218 18.0859 6.94395C18.7208 6.88573 19.3609 6.95572 19.9684 7.14925C20.512 7.30913 21.0082 7.59924 21.4138 7.99481C21.8195 8.39038 22.1223 8.87926 22.2958 9.41863V9.40623C22.4805 9.89524 22.5124 10.429 22.3873 10.9365C22.2622 11.4441 21.9859 11.9016 21.595 12.2487C20.9148 12.9928 20.0805 13.5794 19.1503 13.9681H19.1626C18.959 14.0465 18.741 14.0809 18.5232 14.069C18.3053 14.0571 18.0925 13.9994 17.8986 13.8992C17.5738 13.6503 17.2797 13.3636 17.0227 13.0451C16.4218 12.1242 15.712 11.8122 14.8933 12.1089H14.8819C14.0361 12.4415 13.253 12.915 12.566 13.51C11.4935 14.4083 10.6038 15.5045 9.94518 16.7387L9.93202 16.7528Z" fill="white"/>
</g>
<defs>
<clipPath id="clip0_1_4260">
<rect width="51.2804" height="51.2927" fill="white" transform="translate(0.281616 0.225098)"/>
</clipPath>
</defs>
</svg>
