<svg width="512" height="397" viewBox="0 0 512 397" fill="none" xmlns="http://www.w3.org/2000/svg">
<path d="M197.15 361.4C197.42 361.71 197.76 361.93 198.15 362.07C198.54 362.2 198.95 362.23 199.38 362.14C199.81 362.07 200.23 361.9 200.61 361.62C201 361.34 201.34 361 201.63 360.6C201.92 360.2 202.15 359.75 202.31 359.26C202.47 358.77 202.54 358.25 202.53 357.73C202.51 357.21 202.41 356.74 202.25 356.33C202.08 355.92 201.86 355.58 201.59 355.3C201.31 355.03 200.99 354.84 200.63 354.73C200.26 354.62 199.87 354.6 199.45 354.69C199.04 354.77 198.66 354.93 198.3 355.17C197.95 355.41 197.63 355.71 197.36 356.07C197.09 356.43 196.86 356.83 196.69 357.28C196.52 357.73 196.41 358.2 196.36 358.68C196.31 359.25 196.36 359.77 196.51 360.24C196.66 360.7 196.87 361.09 197.14 361.4H197.15Z" fill="#2E245A"/>
<path d="M204.41 360.04C204.68 360.35 205.02 360.57 205.41 360.71C205.8 360.84 206.21 360.87 206.64 360.79C207.07 360.72 207.49 360.55 207.88 360.27C208.27 359.99 208.61 359.66 208.9 359.25C209.19 358.85 209.42 358.4 209.58 357.91C209.74 357.42 209.82 356.91 209.8 356.38C209.78 355.86 209.68 355.39 209.52 354.98C209.36 354.57 209.13 354.23 208.86 353.96C208.59 353.69 208.26 353.5 207.9 353.39C207.53 353.28 207.14 353.26 206.72 353.35C206.31 353.43 205.93 353.59 205.57 353.84C205.22 354.08 204.9 354.38 204.63 354.74C204.36 355.1 204.13 355.5 203.96 355.95C203.79 356.4 203.68 356.87 203.63 357.35C203.58 357.92 203.63 358.44 203.78 358.91C203.93 359.37 204.14 359.76 204.41 360.07V360.04Z" fill="#2E245A"/>
<path d="M223.6 387.9C223.33 387.63 223.01 387.44 222.64 387.33C222.27 387.22 221.88 387.2 221.46 387.28C220.81 387.41 220.26 387.69 219.81 388.12C219.36 388.56 219.02 389.06 218.79 389.64C218.56 390.22 218.43 390.82 218.41 391.46C218.39 392.1 218.49 392.67 218.7 393.17C218.91 393.67 219.24 394.08 219.69 394.38C220.14 394.69 220.7 394.8 221.39 394.72C221.82 394.65 222.24 394.48 222.62 394.2C223.01 393.92 223.35 393.58 223.64 393.18C223.93 392.78 224.16 392.33 224.32 391.84C224.48 391.35 224.55 390.83 224.54 390.31C224.52 389.79 224.42 389.32 224.26 388.91C224.09 388.5 223.87 388.15 223.6 387.88V387.9Z" fill="#2E245A"/>
<path d="M216.35 389.26C216.08 388.99 215.75 388.8 215.39 388.69C215.02 388.58 214.63 388.56 214.21 388.65C213.8 388.73 213.41 388.89 213.06 389.14C212.71 389.38 212.39 389.68 212.12 390.04C211.85 390.39 211.62 390.8 211.45 391.25C211.28 391.7 211.17 392.17 211.12 392.65C211.07 393.23 211.12 393.74 211.27 394.21C211.42 394.67 211.63 395.06 211.9 395.37C212.17 395.68 212.51 395.9 212.9 396.04C213.29 396.17 213.7 396.2 214.13 396.12C214.56 396.05 214.98 395.88 215.37 395.6C215.76 395.32 216.1 394.99 216.39 394.59C216.68 394.19 216.91 393.74 217.07 393.25C217.23 392.76 217.3 392.25 217.29 391.72C217.27 391.2 217.17 390.73 217.01 390.32C216.84 389.91 216.62 389.56 216.35 389.29V389.26Z" fill="#2E245A"/>
<path d="M219.83 377.99L210.82 379.73C210.91 379.7 211 379.67 211.1 379.66L209.98 379.87V364C208.78 363.44 207.58 363.14 206.4 363.11C205.21 363.08 204.06 363.27 202.93 363.68C201.81 364.08 200.73 364.68 199.69 365.46C198.65 366.24 197.67 367.15 196.76 368.19C195.85 369.23 195.01 370.37 194.25 371.62C193.48 372.87 192.81 374.16 192.23 375.51C191.65 376.86 191.17 378.22 190.81 379.62C190.44 381.01 190.2 382.37 190.09 383.68V384.64C190.09 387.41 192.62 389.5 195.34 388.98L209.74 386.2C209.83 386.2 209.93 386.18 210.04 386.16L225.2 383.23V359.84L219.83 360.88V378V377.99ZM204.72 380.88L196 382.56C196.11 381.73 196.29 380.85 196.53 379.91C196.77 378.98 197.07 378.05 197.43 377.14C197.79 376.23 198.21 375.36 198.69 374.52C199.17 373.69 199.72 372.95 200.33 372.3C200.94 371.66 201.61 371.14 202.34 370.75C203.07 370.36 203.86 370.15 204.72 370.12V380.87V380.88Z" fill="#2E245A"/>
<path d="M251.92 368.16C251.59 366.7 251.17 365.64 250.88 364.92C250.26 363.36 249.63 362.27 249.48 362.02C248.74 360.74 248.37 360.1 247.65 359.4C246.38 358.16 244.95 357.59 244.31 357.34C244.13 357.27 243.71 357.12 243.15 356.97C240.66 356.31 238.57 356.67 237.81 356.83C236.64 357.07 235.79 357.44 235.13 357.73C233.97 358.24 233.06 358.8 232.4 359.27V366.57L233.03 365.8C233.49 365.33 233.91 364.99 234.21 364.77C237.33 362.47 240.69 363.01 241.08 363.09C241.58 363.2 242 363.4 242 363.4C242.1 363.45 242.26 363.52 242.47 363.66C242.9 363.94 243.3 364.26 243.68 364.63C244.17 365.12 244.61 365.67 244.98 366.29C245.36 366.91 245.68 367.55 245.96 368.19C246.23 368.86 246.45 369.58 246.62 370.34C246.79 371.1 246.9 371.89 246.96 372.73L229.79 376.04V382.33L252.37 377.97C252.43 377.16 252.48 376.16 252.49 375.02C252.49 373.32 252.4 372.05 252.37 371.69C252.27 370.39 252.19 369.44 251.9 368.16H251.92Z" fill="#2E245A"/>
<path d="M338.95 355.01C338.24 355.17 337.5 355.31 336.74 355.44C336.54 355.47 336.35 355.5 336.16 355.53C335.83 355.59 335.26 355.64 334.62 355.4C334.04 355.19 333.67 354.84 333.44 354.62C333.15 354.35 332.98 354.11 332.93 354.03C332.88 353.96 332.7 353.68 332.53 353.26C332.27 352.59 332.22 351.94 332.22 351.5V339.33L326.88 340.36V354.21C326.86 354.96 326.7 355.61 326.41 356.18C326.12 356.75 325.76 357.21 325.33 357.55C324.9 357.9 324.44 358.13 323.95 358.24C323.46 358.35 323 358.33 322.57 358.17C321.94 357.93 321.62 357.44 321.49 357.24C320.99 356.46 321.01 355.61 321.02 355.34C321.06 353.87 321.02 348.65 321.02 341.49L315.65 342.53C315.88 349.55 315.83 354.74 315.65 356.38C315.6 356.79 315.47 357.65 314.96 358.56C314.47 359.43 313.89 359.84 313.65 360.01C313.3 360.25 312.93 360.4 312.55 360.48C312.45 360.5 312.27 360.53 312.04 360.53C311.15 360.51 310.53 359.95 310.45 359.87C310.45 359.87 310.03 359.48 309.78 358.83C309.71 358.64 309.64 358.4 309.62 358.29C309.59 358.17 309.56 358.06 309.55 357.92C309.55 357.83 309.55 357.75 309.55 357.73V343.74L304.23 344.77C304.23 351 304.2 355.55 304.23 356.94C304.23 357.16 304.25 357.89 304.02 358.8C303.8 359.68 303.48 360.26 303.35 360.47C303.29 360.57 302.94 361.15 302.37 361.67C302.09 361.93 301.89 362.04 301.74 362.11C301.51 362.22 301.26 362.29 301.19 362.31C301.07 362.34 300.98 362.36 300.94 362.37C300.69 362.42 299.78 362.59 298.54 362.83C298 362.95 294.06 363.82 290.77 364.33C290.32 364.4 289.35 364.54 288.2 364.22C287.68 364.07 286.93 363.86 286.31 363.19C285.76 362.59 285.55 361.89 285.38 361.35C285.24 360.9 285.2 360.56 285.19 360.42C285.16 360.08 285.17 359.8 285.19 359.53C285.25 358.77 285.29 358.16 285.52 357.38C285.69 356.78 285.89 356.09 286.43 355.32C286.95 354.59 287.51 354.18 287.89 353.91C288.11 353.75 288.88 353.22 289.59 353.08C289.87 353.02 290.18 353 290.18 353C290.3 352.99 290.53 352.97 290.81 352.98C291.23 352.98 291.62 353.04 292 353.12C292.38 353.24 292.71 353.41 293 353.64C293.29 353.88 293.52 354.15 293.7 354.47L294.37 355.39L297.75 349.46L297.3 348.84C296.81 348.36 296.28 347.95 295.73 347.62C295.17 347.29 294.55 347.02 293.85 346.8C293.22 346.67 292.55 346.59 291.85 346.58C291.15 346.57 290.43 346.63 289.7 346.77C289.05 346.9 288.39 347.1 287.73 347.37C287.07 347.65 286.41 347.98 285.76 348.36C285.07 348.84 284.46 349.35 283.91 349.89C283.36 350.43 282.84 351 282.35 351.61C281.89 352.28 281.48 352.95 281.11 353.64C280.74 354.32 280.42 355.04 280.14 355.8C279.88 356.66 279.68 357.49 279.54 358.28C279.4 359.07 279.33 359.87 279.33 360.67C279.33 361.18 279.36 361.68 279.41 362.15C279.46 362.63 279.53 363.09 279.61 363.55L280.5 366.33L279.15 366.59L278.84 366.65L278.12 366.79L277.45 366.92L277.66 362.69L277.45 359.52C277.39 358.74 277.25 358.01 277.02 357.33C276.79 356.65 276.53 356.02 276.23 355.43C275.96 354.88 275.64 354.38 275.3 353.94C274.95 353.5 274.58 353.11 274.18 352.75C273.95 352.54 273.7 352.34 273.44 352.17C273.4 352.14 273.08 351.94 272.72 351.77C271.96 351.42 271.21 351.33 270.9 351.3C267.34 350.94 264.43 352.41 264.43 352.41C264.19 352.53 263.1 353.09 261.91 354.15C260.92 355.03 260.31 355.85 259.94 356.35C259.08 357.51 258.58 358.53 258.36 359.02C258.33 359.09 258.03 359.75 257.78 360.5C256.53 364.25 257.15 367.84 257.15 367.84C257.34 368.93 257.62 370.43 258.68 371.97C259.27 372.83 259.86 373.36 260.06 373.53C261.37 374.66 262.7 375.05 263.13 375.16C264.73 375.58 266.07 375.36 266.89 375.22C266.96 375.21 267.19 375.17 267.51 375.1C268.63 374.85 269.52 374.51 270.12 374.23C269.82 374.89 269.49 375.6 269.13 376.35C268.77 377.1 268.39 377.83 267.99 378.54L264.92 383.18L269.41 386.5C270.23 385.26 270.98 384.07 271.64 382.92C272.3 381.77 272.92 380.64 273.48 379.52L275.92 373.47L277.97 373.07H278.01C292.62 370.3 303.27 368.24 304.36 368C305.4 367.78 305.85 367.45 306.09 367.28C306.47 367.02 306.83 366.66 306.83 366.66C307.07 366.42 307.26 366.19 307.4 366.02C307.8 366.27 308.19 366.47 308.58 366.64C308.96 366.81 309.37 366.96 309.81 367.09C310.24 367.2 310.7 367.25 311.18 367.26C311.66 367.26 312.15 367.22 312.66 367.13C313.2 367.03 313.71 366.87 314.2 366.66C314.69 366.45 315.19 366.17 315.69 365.82C316.66 365.11 317.53 364.3 318.3 363.4C318.7 363.7 319.09 363.97 319.48 364.21C319.87 364.45 320.32 364.66 320.82 364.83C321.31 364.99 321.82 365.08 322.35 365.09C322.88 365.1 323.38 365.06 323.86 364.97C324.48 364.85 325.07 364.67 325.64 364.43C326.21 364.19 326.75 363.86 327.25 363.44C327.74 363.08 328.22 362.67 328.7 362.22C329.18 361.77 329.6 361.28 329.96 360.73C330.29 361.06 330.65 361.32 331.04 361.5C331.43 361.69 331.87 361.83 332.38 361.92C332.87 362.01 333.36 362.08 333.85 362.11C334.34 362.14 334.83 362.11 335.33 362.02L336.2 361.85L344.4 360.27V328.15L339 329.19V355.05L338.95 355.01ZM271.57 367.52C270.92 368.32 269.7 368.4 267.25 368.58C266.8 368.61 266.2 368.64 265.47 368.46C265.02 368.35 264.35 368.18 263.76 367.62C263.49 367.36 263.34 367.12 263.24 366.95C263.1 366.72 262.81 366.19 262.66 365.32C262.31 363.26 263.03 360.91 263.78 359.92C264.09 359.51 264.46 359.16 264.46 359.16C264.84 358.8 265.17 358.57 265.24 358.52C265.58 358.29 266.23 357.86 267.18 357.72C267.5 357.67 268.13 357.59 268.88 357.82C269.06 357.87 269.69 358.08 270.3 358.66C270.84 359.17 271.08 359.7 271.28 360.15C271.43 360.49 271.57 360.9 271.83 362.37C272.04 363.58 272.15 364.18 272.16 364.57C272.19 365.73 272.22 366.77 271.59 367.53L271.57 367.52Z" fill="#2E245A"/>
<path d="M349.27 359.27L354.6 358.24V325.63L349.27 326.66V359.27Z" fill="#2E245A"/>
<path d="M376.01 336.8C376.28 337.11 376.62 337.33 377 337.47C377.39 337.6 377.8 337.63 378.24 337.55C378.67 337.48 379.09 337.31 379.47 337.03C379.86 336.75 380.2 336.41 380.49 336.01C380.78 335.61 381.01 335.16 381.17 334.67C381.33 334.17 381.4 333.66 381.39 333.14C381.37 332.62 381.27 332.15 381.11 331.74C380.94 331.33 380.72 330.98 380.45 330.71C380.18 330.44 379.86 330.25 379.49 330.14C379.12 330.03 378.73 330.01 378.31 330.09C377.9 330.17 377.52 330.33 377.16 330.58C376.81 330.82 376.49 331.12 376.22 331.48C375.95 331.84 375.72 332.24 375.55 332.69C375.38 333.14 375.27 333.61 375.22 334.09C375.17 334.66 375.22 335.18 375.37 335.65C375.52 336.12 375.73 336.5 376 336.81L376.01 336.8Z" fill="#2E245A"/>
<path d="M383.27 335.45C383.54 335.76 383.88 335.98 384.27 336.12C384.66 336.26 385.07 336.28 385.5 336.2C385.93 336.13 386.35 335.96 386.73 335.68C387.12 335.4 387.46 335.06 387.75 334.66C388.04 334.26 388.27 333.81 388.43 333.32C388.59 332.83 388.66 332.31 388.65 331.79C388.63 331.27 388.53 330.8 388.37 330.39C388.2 329.98 387.99 329.63 387.71 329.36C387.44 329.09 387.12 328.9 386.75 328.79C386.38 328.68 385.99 328.66 385.57 328.75C385.16 328.83 384.78 328.99 384.42 329.24C384.07 329.48 383.75 329.78 383.48 330.14C383.21 330.5 382.98 330.9 382.81 331.35C382.64 331.8 382.53 332.27 382.48 332.75C382.43 333.32 382.48 333.84 382.63 334.31C382.78 334.77 382.99 335.16 383.26 335.47L383.27 335.45Z" fill="#2E245A"/>
<path d="M391.4 344.87L372.27 348.56C371.55 348.64 371 348.53 370.69 348.44C370.29 348.33 370.02 348.18 369.95 348.14C369.58 347.93 369.35 347.69 369.26 347.61C369.02 347.36 368.89 347.13 368.8 346.96C368.64 346.68 368.57 346.46 368.44 346.09C368.33 345.77 368.24 345.5 368.17 345.14C368.08 344.65 368.08 344.27 368.08 343.97C368.08 342.96 368.3 342.19 368.44 341.72C368.6 341.18 368.74 340.86 368.8 340.73C368.86 340.6 369.01 340.29 369.26 339.92C369.41 339.7 369.59 339.43 369.89 339.14C370.2 338.83 370.49 338.65 370.69 338.53C371.03 338.32 371.55 338.05 372.27 337.86V331.63C371.57 331.77 370.93 331.96 370.34 332.2C369.75 332.45 369.16 332.77 368.57 333.17C368.37 333.31 367.7 333.76 366.91 334.51C366.34 335.05 365.21 336.14 364.3 337.9C363.82 338.83 363.57 339.62 363.43 340.06C363.2 340.79 363.03 341.54 362.92 342.31C362.81 343.08 362.76 343.92 362.76 344.84C362.71 345.67 362.74 346.45 362.85 347.19C362.95 347.93 363.15 348.65 363.43 349.36C363.62 349.82 363.84 350.45 364.3 351.16C364.62 351.66 365.41 352.89 366.91 353.78C367.6 354.19 368.22 354.4 368.57 354.51C369.16 354.7 369.76 354.84 370.34 354.9C370.93 354.97 371.57 354.94 372.27 354.8L396.61 350.1V327.18L391.4 328.19V344.85V344.87Z" fill="#2E245A"/>
<path d="M414.39 351.11C414.12 350.84 413.8 350.65 413.43 350.54C413.06 350.43 412.67 350.41 412.25 350.49C411.84 350.57 411.46 350.73 411.1 350.98C410.75 351.22 410.43 351.52 410.16 351.88C409.89 352.24 409.66 352.64 409.49 353.09C409.32 353.54 409.21 354.01 409.16 354.49C409.11 355.06 409.16 355.58 409.32 356.05C409.47 356.52 409.68 356.9 409.95 357.21C410.22 357.52 410.56 357.74 410.94 357.88C411.33 358.01 411.74 358.04 412.18 357.95C412.61 357.88 413.03 357.71 413.41 357.43C413.8 357.15 414.14 356.81 414.43 356.41C414.72 356.01 414.95 355.56 415.11 355.07C415.27 354.57 415.34 354.06 415.33 353.54C415.31 353.02 415.21 352.55 415.05 352.14C414.88 351.73 414.66 351.38 414.39 351.11Z" fill="#2E245A"/>
<path d="M421.64 349.75C421.37 349.48 421.05 349.29 420.68 349.18C420.31 349.07 419.92 349.05 419.5 349.14C419.09 349.22 418.71 349.38 418.35 349.63C418 349.87 417.68 350.17 417.41 350.53C417.14 350.89 416.91 351.29 416.74 351.74C416.57 352.19 416.46 352.66 416.41 353.14C416.36 353.71 416.41 354.23 416.57 354.7C416.72 355.16 416.93 355.55 417.2 355.86C417.47 356.17 417.81 356.39 418.2 356.53C418.59 356.66 419 356.69 419.43 356.6C419.86 356.53 420.28 356.36 420.66 356.08C421.05 355.8 421.39 355.46 421.68 355.06C421.97 354.66 422.2 354.21 422.36 353.72C422.52 353.23 422.59 352.71 422.58 352.19C422.56 351.67 422.46 351.2 422.3 350.79C422.13 350.38 421.91 350.03 421.64 349.76V349.75Z" fill="#2E245A"/>
<path d="M425.11 338.39L423.06 338.78C423.15 338.75 423.24 338.72 423.34 338.71L418.76 339.59V322.63L413.44 323.66V340.62L409.6 341.36L408.71 341.53L408.19 341.63L406.32 341.99V315.63L401 316.66V349.29L408.34 347.87C408.43 347.87 408.52 347.86 408.62 347.84L423.34 345L430.51 343.62V311.5L425.11 312.54V338.4V338.39Z" fill="#2E245A"/>
<path d="M472.59 308.35C472.86 308.66 473.2 308.88 473.59 309.02C473.98 309.16 474.39 309.18 474.82 309.09C475.25 309.02 475.67 308.85 476.06 308.57C476.45 308.29 476.79 307.95 477.08 307.55C477.37 307.15 477.6 306.7 477.76 306.21C477.92 305.71 477.99 305.2 477.98 304.68C477.96 304.16 477.86 303.69 477.7 303.28C477.53 302.87 477.31 302.53 477.04 302.25C476.76 301.98 476.44 301.79 476.08 301.68C475.71 301.57 475.32 301.55 474.9 301.64C474.49 301.72 474.11 301.88 473.75 302.12C473.4 302.36 473.08 302.66 472.81 303.02C472.54 303.38 472.31 303.78 472.14 304.23C471.97 304.68 471.86 305.15 471.81 305.63C471.76 306.21 471.81 306.72 471.96 307.19C472.11 307.65 472.32 308.04 472.59 308.35Z" fill="#2E245A"/>
<path d="M484.91 319.02C484.56 317.05 483.71 315.63 483.35 315.08C482.85 314.32 482.1 313.2 480.72 312.34C479.68 311.7 478.74 311.49 478.54 311.45C477.94 311.32 477.45 311.3 477.18 311.3C476.53 311.3 475.85 311.37 475.13 311.51C474.41 311.65 473.73 311.84 473.08 312.09C472.43 312.33 471.8 312.67 471.18 313.1C470.84 313.34 470.26 313.76 469.52 314.53C468.89 315.18 466.97 317.24 465.96 320.43C465.66 321.37 465.51 322.21 465.44 322.69C465.39 323.01 465.26 323.9 465.26 325.07C465.26 325.84 465.26 326.77 465.5 327.95C465.63 328.57 465.85 329.43 466.29 330.4L464.03 330.84L455.43 332.5C455.01 332.6 454.01 332.79 452.86 332.39C451.37 331.87 450.63 330.72 450.42 330.37C449.04 328.11 449.86 325.17 451.09 323.49C451.67 322.7 452.29 322.25 452.55 322.08C452.87 321.86 454.8 320.58 456.67 321.29C457.39 321.56 457.9 322.05 458.09 322.24C458.59 322.72 458.87 323.22 459.04 323.56L462.42 317.63L461.97 317.01C461.48 316.53 460.95 316.12 460.4 315.79C459.84 315.46 459.22 315.19 458.52 314.97C457.89 314.84 457.22 314.76 456.52 314.75C455.82 314.74 455.1 314.8 454.37 314.94C453.72 315.07 453.06 315.27 452.4 315.54C451.74 315.82 451.08 316.15 450.43 316.53C449.74 317.01 449.13 317.52 448.58 318.06C448.03 318.6 447.51 319.17 447.02 319.78C446.56 320.45 446.15 321.12 445.78 321.81C445.41 322.5 445.09 323.22 444.81 323.97C444.55 324.83 444.35 325.66 444.21 326.45C444.07 327.25 444 328.04 444 328.84C444 329.35 444.03 329.85 444.08 330.32C444.13 330.79 444.2 331.26 444.28 331.72L445.17 334.5L442.78 334.96L440.48 335.4V309.04L435.16 310.07V342.7L442.62 341.26C442.62 341.26 442.67 341.26 442.69 341.26L463.94 337.16C463.94 337.16 463.89 337.16 463.87 337.16L475.13 334.99C476.55 334.72 477.85 334.14 479.04 333.27C479.66 332.83 480.22 332.36 480.71 331.88C481.21 331.39 481.69 330.84 482.14 330.21C482.56 329.59 482.96 328.93 483.34 328.24C483.72 327.55 484.04 326.81 484.32 326.03C484.59 325.28 484.79 324.51 484.9 323.73C485.01 322.95 485.07 322.18 485.07 321.41C485.07 320.85 485.07 320.01 484.9 319.03L484.91 319.02ZM479.24 324.59C479.02 325.27 478.71 325.88 478.32 326.43C477.93 326.98 477.47 327.44 476.94 327.83C476.41 328.22 475.84 328.47 475.25 328.6C474.63 328.73 474.05 328.72 473.51 328.55C472.97 328.39 472.49 328.11 472.08 327.72C471.67 327.33 471.35 326.83 471.11 326.23C470.87 325.63 470.77 324.95 470.79 324.21C470.8 323.51 470.93 322.83 471.17 322.17C471.41 321.51 471.73 320.92 472.12 320.39C472.52 319.86 472.98 319.42 473.51 319.06C474.04 318.7 474.61 318.46 475.2 318.35C475.79 318.24 476.36 318.26 476.88 318.42C477.41 318.58 477.87 318.85 478.26 319.22C478.65 319.6 478.96 320.07 479.19 320.64C479.42 321.21 479.54 321.84 479.55 322.54C479.56 323.24 479.45 323.93 479.23 324.6L479.24 324.59Z" fill="#2E245A"/>
<path d="M503.43 126.12C507.71 125.22 510.08 124.11 510.55 122.77C511.54 120.97 511.19 119.18 509.51 117.39C508.46 116.33 506.93 115.48 504.93 114.85C499.67 112.64 490.7 112.67 478 114.93C465.31 117.13 450.61 122.93 433.9 132.32C419.85 139.96 406.5 150.35 393.83 163.49C410.17 150.28 426.61 141.22 443.14 136.29C459.67 131.42 472.77 128.72 482.43 128.17C492.09 127.63 499.09 126.94 503.44 126.11L503.43 126.12Z" fill="#DC2B58"/>
<path d="M499.16 68.0701C492.9 67.8401 483.22 71.0801 470.1 77.7901C456.86 84.4901 442.21 95.6002 426.16 111.12C412.71 123.83 400.49 139.11 389.5 156.95C404.25 137.74 420.03 122.7 436.83 111.82C453.7 100.95 467.23 93.5201 477.43 89.5401C487.75 85.5601 495.17 82.3901 499.67 80.0201C504.12 77.5801 506.48 75.63 506.77 74.15C507.47 72.08 506.68 70.3901 504.41 69.0601C503.09 68.3501 501.34 68.0201 499.17 68.0601L499.16 68.0701Z" fill="#DC2B58"/>
<path d="M420.42 6.3101C419.51 4.1401 418.49 2.64011 417.36 1.82011C415.29 0.260112 413.4 0.189926 411.69 1.62993C410.46 2.35993 409.59 5.27995 409.06 10.3999C408.61 15.3399 408.51 23.35 408.78 34.42C408.98 45.43 407.25 60.78 403.59 80.47C399.99 100.17 392.12 120.52 379.99 141.51C392.29 124.56 401.74 107.45 408.35 90.19C416.62 69.37 421.31 51.6099 422.4 36.8999C423.63 22.0699 422.97 11.8801 420.42 6.30009V6.3101Z" fill="#DC2B58"/>
<path d="M480.86 24.94C483.93 17.94 484.28 14.1402 481.89 13.5502C479.57 13.0202 476.68 13.98 473.22 16.42C469.82 18.93 465.72 22.7901 460.9 28.0001C456.14 33.2801 448.53 45.0401 438.07 63.2901C427.55 81.4801 410.3 108.9 386.32 145.58C398 131.45 408.49 117.92 417.79 104.99C427.15 92.1301 435.16 81.8901 441.81 74.2501C448.58 66.6901 456.03 58.2701 464.16 48.9901C472.28 39.7801 477.85 31.76 480.84 24.94H480.86Z" fill="#DC2B58"/>
<path d="M365.09 24.4499C365.99 28.7299 368.03 35.4501 371.21 44.6101C374.39 53.8301 376.87 66.9998 378.66 84.1398C380.44 101.34 378.31 119.99 372.26 140.08C379.51 123.36 384.07 107.07 385.92 91.2299C388.18 72.1299 387.92 56.3 385.15 43.76C382.32 31.21 378.92 22.88 374.97 18.77C373.58 17.19 372.16 16.1301 370.71 15.6001C368.41 14.7001 366.62 15.0498 365.33 16.6398C364.34 17.5698 364.26 20.1699 365.09 24.4499Z" fill="#DC2B58"/>
<path d="M76.29 162.84C75.19 159.3 73.4801 156.08 71.1401 153.16C69.2401 150.8 66.5098 148.03 62.0098 144.96C58.6198 142.66 55.3598 141.12 48.8198 138.02C44.3398 135.9 42.0401 134.96 37.5801 132.56C33.8501 130.54 31.8701 129.25 29.8501 127.25C28.4401 125.86 26.6499 124.05 25.3999 121.08C23.9799 117.73 23.9902 114.64 23.9902 113.2C23.9902 111.89 24.0999 109.26 25.3999 106.18C26.5999 103.33 28.2301 101.54 29.0601 100.64C30.0101 99.6199 31.52 98.02 33.98 96.74C35.2 96.11 39.7399 93.7301 44.6699 95.3301C45.9999 95.7601 46.9901 96.3801 47.6401 96.8201C47.0401 97.7401 46.1399 99.2199 45.3799 101.19C44.4799 103.48 41.9098 110.11 45.0698 115.16C46.2898 117.1 48.02 118.28 48.5 118.59C49.18 119.04 50.7502 119.95 52.9502 120.31C54.8402 120.62 56.2901 120.38 57.6401 120.15C58.0601 120.08 59.97 119.75 62.48 118.67C63.9 118.06 66.1202 117.08 68.4102 115.08C69.0202 114.55 71.4201 112.26 73.3301 108.45C74.6801 105.74 75.3599 102.28 75.3599 98.0701C75.3599 93.8601 74.42 90.3399 72.54 87.3799C70.57 84.3599 67.9602 81.97 64.7402 80.2C61.4602 78.44 57.6899 77.3101 53.4199 76.8501C49.0999 76.4301 44.5999 76.6901 39.9199 77.6201C35.1799 78.5701 30.5001 80.3299 25.8701 82.9299C21.2901 85.4799 17.1898 88.75 13.5498 92.76C9.9098 96.77 6.9399 101.48 4.6499 106.89C2.4199 112.19 1.2998 118.1 1.2998 124.61C1.2998 128.98 1.88984 132.83 3.08984 136.16C4.73984 140.75 6.8502 143.92 7.7002 145.05C10.1102 148.32 12.5502 150.3 14.1802 151.61C16.2002 153.23 18.4002 154.68 21.4302 156.29C31.3102 161.53 39.2099 162.75 46.1299 167.41C46.9299 167.95 47.9801 168.73 49.1401 169.79C51.2201 171.72 52.9601 174.12 54.3701 176.97C55.7201 179.78 56.3999 183.16 56.3999 187.11C56.3999 190.55 55.7502 193.52 54.4502 196.01C54.0602 196.75 52.7098 199.59 49.7598 202.41C48.5198 203.6 42.8499 209.06 35.3799 208.54C34.3999 208.47 31.9502 208.27 29.2402 206.79C27.6802 205.93 26.5701 204.94 25.8701 204.2C26.7501 203.86 27.8999 203.31 29.1299 202.45C30.5099 201.47 31.3698 200.53 31.5698 200.3C32.9998 198.7 33.6399 197.18 34.3799 195.47C35.3199 193.27 35.4998 191.93 35.5498 191.49C35.6298 190.85 35.6399 190.29 35.6299 189.69C35.5699 186.67 35.5099 184.26 34.1499 181.65C33.0499 179.58 31.6798 178.07 30.0098 177.12C29.1198 176.63 28.3702 176.24 28.1802 176.16C27.7602 175.98 26.5699 175.53 24.6299 175.33C23.7499 175.24 21.66 175.09 19.02 175.64C16.24 176.21 14.3 177.25 13.25 177.82C10.07 179.55 8.08006 181.6 7.31006 182.43C4.58006 185.41 3.41979 188.35 2.77979 189.84C1.52979 192.81 0.910156 196.32 0.910156 200.37C0.910156 205.63 1.9302 210 3.9502 213.49C5.8802 216.97 8.53992 219.68 11.9199 221.6C15.2499 223.48 19.1198 224.65 23.5498 225.11C27.8698 225.53 32.3901 225.24 37.1201 224.25C41.7101 223.36 46.2799 221.89 50.8599 219.8C55.3899 217.72 59.5498 214.93 63.3398 211.45C67.1398 207.86 70.36 203.46 73.02 198.26C75.63 193 77.2399 186.73 77.8599 179.45L78.02 174.61C78.02 170.24 77.4498 166.31 76.2998 162.83L76.29 162.84ZM152.85 179.77L152.54 128.26C152.54 122.96 151.95 117.94 150.75 113.2C149.5 108.46 147.52 104.46 144.81 101.18C142.1 97.8999 138.64 95.5699 134.43 94.1599C130.16 92.6499 125.06 92.5 119.14 93.7C113.2 94.89 108.15 96.7701 104 99.3101C101.76 100.68 97.7 103.11 93.77 107.74C90.83 111.21 89.05 114.6 88 117.03C87.54 118.21 87.0202 119.77 86.6602 121.66C86.2502 123.81 86.21 125.47 86.21 125.85C86.2 126.74 86.2101 129.63 87.3101 133.02C87.8101 134.61 88.32 135.56 88.54 135.95C89.26 137.27 90.0102 138.11 90.2002 138.33C91.4002 139.74 92.8302 140.74 94.4902 141.37C96.1102 141.94 97.8999 142.02 99.8799 141.61C102.25 141.12 104.37 140.24 106.22 138.97C107.96 137.78 109.02 136.56 109.25 136.29C109.62 135.86 113.34 131.4 112.83 125.76C112.67 123.9 112.1 122.53 111.97 122.25C111.25 120.55 110.29 119.49 110.1 119.28C108.79 117.86 107.34 117.15 106.43 116.79C107.28 115.34 108.79 113.14 111.35 111.25C112.36 110.51 118.3 106.09 123.91 107.89C130.74 110.09 133.56 120.36 131.79 127.25C131.06 130.15 129.54 132.3 126.88 136.07C125.88 137.48 123.59 140.66 119.55 144.5C112.25 151.41 104.81 155.88 99.3301 160.81C98.4101 161.63 97.7302 162.32 97.4702 162.58C94.6602 165.39 92.8902 167.86 92.4702 168.45C90.4902 171.27 88.8498 174.42 87.5498 177.9C86.2998 181.28 85.6802 185.13 85.6802 189.45C85.6802 194.6 86.3798 198.74 87.7798 201.86C89.0898 204.93 90.8298 207.21 93.0098 208.72C95.0898 210.29 97.4102 211.22 99.9502 211.54C102.56 211.74 105.08 211.59 107.53 211.07C112.32 210.13 116.73 208.13 120.8 205.06C124.85 201.93 128.31 197.91 131.17 192.96L132.97 204.9L154.82 199.13L152.87 179.77H152.85ZM130.84 169.94C129.95 173.03 128.51 176.34 128.51 176.34C127.73 178.12 126.72 180.37 124.92 183.05C122.62 186.48 120.59 188.25 120 188.74C118.88 189.69 117.85 190.39 116.64 190.94C115.99 191.24 115.04 191.59 113.75 191.87C111.26 192.38 109.3 191.76 107.91 190C105.82 187.36 105.78 184.1 105.8 183.21C105.86 180.6 106.76 178.75 107.75 176.73C109.42 173.35 111.36 171.13 112.36 170.02C114.82 167.25 118.8 163.03 124.45 157.92C125.64 156.8 126.87 155.52 128.14 154.06C129.46 152.53 130.59 151.04 131.55 149.65C131.84 151.69 133.18 161.78 130.85 169.94H130.84ZM233.19 181.33L231.32 118.44L232.88 74.1101L211.34 78.01C213.19 104.66 212.75 124.99 211.34 134.04C211 136.24 210.19 140.36 209.16 144.65C208.8 146.12 207.05 153.26 204.4 158.62C203.46 160.51 202.66 161.69 201.98 162.67C200.64 164.62 199.82 165.42 199.3 165.85C198.49 166.56 197.76 167.2 196.59 167.59C195.06 168.1 193.72 167.89 192.98 167.76C192.77 167.73 191.38 167.48 190.11 166.73C187.97 165.46 186.93 163.24 186.13 160.96C184.49 156.27 184.17 152.23 184.03 150.35C183.65 145.24 183.37 141.22 183.48 134.74C183.59 129.09 183.94 124.81 184.18 121.86C184.31 120.35 184.74 115.35 185.98 106.57C186.73 101.16 187.83 94.0599 189.41 85.6499L165.38 87.8401C163.87 97.5701 162.8 107.38 162.18 117.26L161.16 147.78C161.16 155.21 161.7 161.82 162.8 167.6C163.89 173.42 165.58 178.24 167.87 182.04C169.54 184.81 171.94 188.16 176.45 190.24C180.79 192.24 185.58 192.29 188.62 191.33C189.26 191.13 190.67 190.62 192.25 189.87C194.14 188.97 195.49 188.12 195.96 187.82C199.07 185.82 201.06 183.67 202.75 181.81C204.66 179.71 205.89 177.98 206.24 177.47C207.72 175.36 208.79 173.4 209.54 171.82L208.59 185.86L233.18 181.33H233.19ZM317.72 20.49L290.41 25.6399L292.13 67.0801C291.33 66.3601 290.23 65.4799 288.83 64.6299C288.55 64.4599 287.37 63.74 285.65 63.03C284.6 62.59 282.67 61.7999 280.03 61.3899C278.97 61.2299 277.01 60.94 274.5 61.23C271.16 61.63 268.79 62.8301 266.84 63.8101C266.18 64.1501 264.74 64.9201 263.04 66.1101C262.71 66.3401 261.16 67.4701 259.43 69.1201C257.04 71.4001 254.85 74.2201 252.88 77.5501C250.8 80.7701 248.98 84.6201 247.42 89.1001C245.91 93.6801 244.71 98.9301 243.83 104.86C242.94 110.68 242.5 117.32 242.5 124.76C242.5 136.05 243.36 145.28 245.08 152.47C246.8 159.6 248.98 165.14 251.64 169.09C254.29 172.99 257.25 175.55 260.53 176.75C261.87 177.23 264.32 178.02 267.38 177.85C275.9 177.4 281.89 170.24 285.19 166.29C287.05 164.07 288.62 161.67 289.13 160.87C290.84 158.2 292.1 155.77 292.99 153.81L292.29 172.69L313.91 167.93L313.29 131.09C313.29 112.68 313.68 94.3401 314.47 76.0701L317.74 20.51L317.72 20.49ZM291.37 137.43C291.08 139.65 289.89 146.36 284.24 150.67C281.28 152.92 275.94 155.96 272.54 152.89C271.57 152 270.93 150.83 270.39 149.64C266.38 140.82 266.38 130.29 266.38 120.77C266.38 113.55 266.49 108.45 267.78 101.66C268.79 96.3699 270.15 92.08 271.3 89.01C272.73 85.23 275.57 81.27 279.3 79.52C284.42 77.12 289.59 80.2301 292.07 84.8301C291.84 102.35 291.62 119.89 291.39 137.42L291.37 137.43ZM325.85 57.01L328.59 99L329.36 140.05L329.13 165.02L350.59 160.03L351.06 103.67L353.71 51L325.85 57.01ZM109.72 334.52C109.72 334.21 109.75 333.79 109.8 333.27C109.8 332.75 109.83 332.38 109.88 332.17C109.26 332.53 108.34 332.97 107.15 333.5C100.93 336.04 94.0202 338.52 86.4702 340.76C80.4102 342.55 74.6402 343.98 69.2202 345.13L68.2798 297.28C71.9398 296.57 75.7698 295.91 79.7598 295.34C85.9198 294.44 91.7801 293.84 97.3101 293.46L96.3701 274.97L96.6001 271.69L68.27 279.73L68.6602 247.55C71.2002 246.95 73.7701 246.37 76.3901 245.83C88.0201 243.41 99.17 241.82 109.71 240.83L108.62 220.54L93.6299 224.37L43.4502 233.57C44.4702 243.21 45.4699 249.64 46.1899 262.71C47.1499 280.2 47.2 293.38 47.21 296.5C47.25 316.42 46.2798 331.6 45.5698 342.54C44.8898 352.97 44.1 361.79 43.46 368.37L84.2002 359L110.89 353.93L109.71 334.49L109.72 334.52ZM261.92 290.36C261.34 289.19 260.35 287.25 258.18 285.75C256.31 284.47 254.5 284.16 253.73 284.03C247.26 282.99 241.84 287.79 240.61 288.88C237.94 291.23 236.69 293.63 236.39 294.18C235.8 295.35 234.38 298.2 234.6 301.91C234.72 303.98 235.3 305.39 235.46 305.73C236.15 307.34 237.08 308.35 237.41 308.7C237.74 309.04 238.23 309.56 239.03 310.03C239.89 310.54 240.69 310.77 241.23 310.89C240.78 311.85 239.98 313.19 238.65 314.48C238.24 314.88 234.68 318.24 230.81 317.96C224.51 317.51 221.13 307.7 220.16 304.88C218.73 300.74 218.49 297.05 218.52 294.58C225.49 291.2 231.71 287.3 237.17 282.87C242.53 278.39 247.03 273.74 250.67 268.91C254.31 264.01 257.1 259.04 259.02 254C260.84 249 261.76 244.21 261.76 239.63C261.76 234.59 260.93 230.32 259.26 226.83C257.6 223.24 255.34 220.4 252.47 218.33C248.68 215.56 245 214.87 242.56 214.43C237.26 213.45 233.05 214.24 230.55 214.74C229.14 215.01 225.81 215.76 221.88 217.63C220.84 218.12 217.3 219.85 213.38 223.17C209.36 226.55 207 229.84 205.65 231.75C202.28 236.51 200.59 240.64 199.4 243.61C196.78 250.14 195.8 255.41 195.11 259.29C194.06 265.18 193.54 271.8 193.54 279.19C193.54 287.05 194.06 293.89 195.11 299.72C196.15 305.49 197.57 310.43 199.4 314.55C201.17 318.65 203.27 322.03 205.73 324.69C208.17 327.25 210.8 329.2 213.61 330.54C216.37 331.89 219.25 332.67 222.27 332.88C225.29 333.03 228.29 332.83 231.24 332.26C235.67 331.37 239.83 329.87 243.73 327.73C247.68 325.55 251.08 322.94 253.95 319.92C256.87 316.95 259.18 313.67 260.89 310.09C262.61 306.44 263.47 302.75 263.47 299C263.47 295.25 262.96 292.42 261.91 290.34L261.92 290.36ZM219.1 258.21C219.24 252.81 219.33 250.04 220.08 246.74C220.47 245.01 223.81 230.32 231.52 229.26C234.97 228.78 237.71 231.18 237.89 231.34C240.91 234.06 240.9 238.7 240.89 244.24C240.88 246.47 240.65 248.3 240.5 249.31C240.4 249.97 240.15 251.98 239.33 254.39C238.18 257.77 236.62 261.07 234.64 264.3C232.61 267.47 230.24 270.52 227.54 273.42C224.78 276.29 221.8 278.91 218.57 281.31C218.7 275.39 218.87 267.54 219.11 258.21H219.1ZM341.12 239.71C341.05 233.02 340.83 227.32 339.48 220.27C338.11 213.17 336.36 209.7 334.4 206.54C332.12 202.85 329.23 200.29 325.74 198.89C320.55 196.8 315.78 197.58 313.57 198.03C310.3 198.68 307.8 199.91 306.24 200.84C303.38 202.67 301.25 204.56 299.76 206.07C298.06 207.78 296.88 209.3 296.29 210.1C294.85 212.03 293.81 213.85 293.05 215.35L293.59 207.54L269 212.07L269.87 298.54L269.4 319.07L290.87 315.25C289.52 282.76 290.05 258.88 291.02 252.35C291.79 247.15 293.07 242.3 293.07 242.3C294.13 238.26 295.15 235.48 295.46 234.63C296.79 231.09 297.92 228.13 300.3 224.87C302.18 222.29 303.36 220.73 305.61 220.03C308.93 219 311.88 220.71 312.16 220.9C313.02 221.41 314.62 222.61 316.22 226.67C317.82 230.74 318.01 234.18 318.17 237.35C318.6 246.18 318.81 250.59 318.79 252.88C318.73 259.19 318.38 263.87 318.01 268.64C317.84 270.88 317.32 277.36 316.22 285.96C315.47 291.86 314.38 299.21 312.78 307.66L334.87 305.87L338.07 290.11C338.63 286.01 339.34 280.31 339.94 273.48C341.27 258.46 341.2 247.99 341.12 239.69V239.71ZM349.93 20.1399C349.29 18.5499 348.43 17.2199 347.37 16.1799C346.3 15.1299 345.07 14.39 343.65 13.97C342.23 13.54 340.7 13.4801 339.06 13.8001C337.47 14.1001 335.98 14.7299 334.6 15.6699C333.23 16.6099 332.01 17.7699 330.96 19.1599C329.89 20.5299 329.03 22.1001 328.36 23.8401C327.7 25.5901 327.27 27.39 327.1 29.25C326.92 31.48 327.12 33.49 327.69 35.29C328.26 37.08 329.09 38.58 330.14 39.79C331.21 40.99 332.48 41.8501 334 42.3701C335.5 42.8901 337.1 42.9899 338.78 42.6699C340.46 42.3899 342.05 41.7199 343.56 40.6499C345.07 39.5699 346.39 38.27 347.51 36.71C348.64 35.17 349.51 33.44 350.14 31.51C350.76 29.6 351.05 27.6201 351.01 25.5901C350.92 23.5701 350.56 21.7599 349.91 20.1599L349.93 20.1399Z" fill="#2E245A"/>
<path d="M196.28 240.23C195.95 243.71 194.37 247.12 191.94 249.63C189.91 251.73 186.96 253.4 183.97 253.31C182.62 253.27 181.32 252.77 180.03 252.39C179.73 252.3 177.5 251.42 177.27 251.68C175.27 253.88 164.59 296.15 164.59 329.69C164.59 334.14 164.3 338.59 164.28 343.04L134.87 349.21C133.92 345.01 132.97 340.82 132.02 336.62C128.21 319.71 124.64 302.76 120.04 286.06C116.43 272.95 112.82 259.84 109.21 246.74L133.28 240.87L141.21 280.47L149.46 320.66C149.66 312.41 150.35 304.16 151.23 295.96C153.24 277.24 155.72 256.27 165.62 239.8C169.03 234.13 174.61 228.51 181.15 226.73C185.83 225.45 190.82 227.05 193.78 230.91C195.84 233.59 196.6 236.95 196.28 240.25V240.23Z" fill="#2E245A"/>
<path d="M399.31 271.15V271.21C397.93 283.61 389.58 296.7 376.65 299.2C374.37 299.64 372.05 299.86 369.73 299.87H369.59C368.94 299.87 368.29 299.82 367.66 299.74C359.97 298.71 353.89 291.96 354.26 283.7L355.24 214.33L340.41 217.41L341.11 195.43L355.41 192.45L355.55 173.46L378.48 168.23L378.25 187.56L394.35 184.35L394.08 206.25L377.9 209.9C377.9 209.9 377.52 269.2 377.52 278.11C377.52 283.16 378.88 284.13 380.06 284.01H380.07C385.44 281.25 389.75 272.81 391.3 269.46C391.71 268.55 392.46 267.85 393.37 267.48L394.04 267.21C396.72 266.12 399.62 268.28 399.3 271.15H399.31Z" fill="#2E245A"/>
<path d="M369.59 299.87C368.96 299.87 368.31 299.85 367.67 299.82V299.74C368.29 299.82 368.94 299.87 369.59 299.87Z" fill="#2E245A"/>
<path d="M430.11 186.25C434.97 181.37 441.09 179.59 445.33 181.72C446.24 182.18 447.57 183.07 448.76 184.92C447.67 185.85 446.2 187.3 444.86 189.37C444.4 190.07 443.4 191.64 442.75 193.66C442.2 195.38 440.58 200.4 443.45 204.82C446.14 208.96 450.88 209.65 451.57 209.74C455.29 210.22 458.16 208.69 459.84 207.79C462.18 206.54 463.65 205.03 464.52 204.12C467 201.53 468.17 199 468.42 198.42C469.8 195.31 470.06 192.65 470.06 190.77C470.06 186.76 469.44 183.07 468.19 179.69C466.99 176.36 465.17 173.6 462.73 171.42C460.29 169.08 457.14 167.49 453.29 166.66C449.44 165.78 444.86 165.85 439.55 166.89C434.3 167.98 429.56 169.83 425.35 172.43C421.14 174.98 417.55 178.05 414.58 181.64C411.61 185.13 409.35 188.92 407.79 193.03C406.12 197.09 405.29 201.15 405.29 205.2C405.29 209.25 405.76 212.98 406.7 216.2C407.01 217.27 408.19 220.92 410.91 225.1C411.52 226.03 413.49 228.97 417.54 232.75C422.1 237 425.54 238.83 434.79 245.78C435.7 246.46 437.82 248.09 439.63 250.85C441.17 253.21 441.71 255.19 441.82 255.61C442.32 257.54 442.31 259.12 442.29 260.99C442.28 262.4 442.16 263.24 442.04 263.88C441.92 264.48 441.7 265.4 441.28 266.45C440.5 268.37 439.49 269.63 438.71 270.59C437.71 271.81 436.95 272.73 435.59 273.56C434.31 274.33 433.15 274.63 432.7 274.73C431.66 274.96 430.83 274.97 430.36 274.96C429.92 274.96 429.11 274.96 428.1 274.73C427.44 274.58 426.49 274.3 425.45 273.71C426.95 272.26 427.95 270.85 428.57 269.81C429.63 268.06 430.11 266.61 430.21 266.3C430.42 265.65 430.8 264.47 430.91 262.94C430.96 262.25 431.11 259.57 429.74 256.54C429.31 255.59 428.46 253.75 426.62 252.25C425.79 251.57 425 251.16 424.71 251.02C424.71 251.02 423.4 250.36 421.78 250.07C420.26 249.79 414.41 249.25 408.67 253.04C405.91 254.86 404.33 256.93 403.91 257.49C400.09 262.63 400.21 268.23 400.32 269.98C400.55 273.49 401.69 276.08 402.27 277.24C404.21 281.11 406.95 283.24 408.44 284.34C409.47 285.1 412.99 287.62 419.13 288.87C432.68 291.61 446.98 285.75 454.25 278.8C457.64 275.56 460.18 271.62 460.18 271.62C460.73 270.77 462.53 267.91 464.08 263.82C465.51 260.06 466.05 257.06 466.19 256.25C466.43 254.82 466.82 252.51 466.74 249.46C466.69 247.53 466.58 244.56 465.34 241.03C464.11 237.55 462.37 235.26 461.05 233.54C459.15 231.08 457.02 228.98 453.87 226.52C447.07 221.19 442.26 219.4 434.36 213.64C433.23 212.82 431.04 211.19 429.29 208.33C428.98 207.83 427.8 205.84 427.1 202.94C426.46 200.27 426.56 198.16 426.63 196.7C426.71 195.21 426.81 193.39 427.57 191.16C428.32 188.95 429.36 187.3 430.15 186.24L430.11 186.25Z" fill="#2E245A"/>
</svg>
