<svg xmlns="http://www.w3.org/2000/svg" width="30.371" height="30.672" viewBox="0 0 30.371 30.672">
  <path id="Filter" d="M12.789,30.672a1.1,1.1,0,0,1-.768-1.2c.008-4.472,0-8.944.012-13.415a2.5,2.5,0,0,0-.714-1.8Q5.887,8.388.476,2.5A1.438,1.438,0,0,1,.53.315a1.335,1.335,0,0,1,.793-.31C1.413,0,1.5,0,1.593,0h27.19a1.424,1.424,0,0,1,1.545,1.088,1.449,1.449,0,0,1-.412,1.4c-.981,1.05-1.951,2.111-2.925,3.168Q22.982,10,18.972,14.348a2.263,2.263,0,0,0-.63,1.624c.012,2.685,0,5.37.011,8.055a2.341,2.341,0,0,1-.591,1.64q-2.024,2.307-4.029,4.63a2.166,2.166,0,0,1-.525.374Z" transform="translate(0 0)" fill="#fff"/>
</svg>
