<svg width="44" height="36" viewBox="0 0 44 36" fill="none" xmlns="http://www.w3.org/2000/svg">
<path opacity="0.12" d="M0.935532 10.8624C1.87707 15.9692 2.98762 20.2665 4.27318 23.7484C5.57685 27.3375 6.72356 30.135 7.70734 32.1408C8.67302 34.1228 9.88013 35.2952 11.3347 35.6583C12.7711 36.0154 14.4189 35.9322 16.2779 35.4025C18.0946 34.9144 19.4223 33.9442 20.2612 32.4919C21.0338 30.992 20.8406 29.4504 19.6818 27.8672C18.4808 26.2601 16.7606 25.7125 14.5154 26.2185C12.2883 26.7244 10.6105 27.8672 9.47585 29.6409C7.89455 27.1708 6.62101 24.1948 5.65533 20.7129C4.67155 17.2488 4.03788 14.1776 3.76025 11.4992L23.7316 7.38043C24.6068 12.0051 25.645 15.9214 26.846 19.1295C28.1497 22.7186 29.2964 25.5161 30.2802 27.5219C31.2459 29.5039 32.453 30.6884 33.9075 31.0693C35.344 31.4086 36.9916 31.3254 38.8506 30.8135C40.6673 30.3076 41.9951 29.3254 42.8341 27.8672C43.6066 26.3673 43.4133 24.8376 42.2545 23.2782C41.0535 21.6533 39.3335 21.1057 37.0883 21.6295C35.0362 22.0937 33.4488 23.0877 32.3382 24.6055C28.5902 18.0821 26.3691 9.88033 25.6569 0L0 5.03537C0.277633 7.08286 0.591502 9.02324 0.92949 10.8624H0.935532Z" fill="#CD3E5A"/>
</svg>
