<svg xmlns="http://www.w3.org/2000/svg" xmlns:xlink="http://www.w3.org/1999/xlink" width="153.13" height="286.533" viewBox="0 0 153.13 286.533">
  <defs>
    <clipPath id="clip-path">
      <rect id="Rectangle_124" data-name="Rectangle 124" width="116.266" height="273.009" fill="none"/>
    </clipPath>
  </defs>
  <g id="Group_199" data-name="Group 199" transform="translate(37.995) rotate(8)">
    <g id="Group_198" data-name="Group 198" clip-path="url(#clip-path)">
      <path id="Path_850" data-name="Path 850" d="M1.634,301.7a.009.009,0,0,1,.008,0,.967.967,0,0,0,.133-.083l.011-.005,54.028-39.369a1.123,1.123,0,0,0,.452-.755,1.018,1.018,0,0,0,.009-.134,1.117,1.117,0,0,0-.241-.714L45.519,247.345,53.93,236.9c.015-.021.026-.041.041-.061a.815.815,0,0,0,.056-.086c.017-.028.03-.059.044-.089s.024-.051.036-.077.022-.07.03-.106a.613.613,0,0,0,.018-.074.655.655,0,0,0,.015-.123c0-.019.008-.037.008-.056v-.017a1.116,1.116,0,0,0-.01-.161l-.005-.036c-.01-.052-.021-.1-.036-.155l0-.011a1.289,1.289,0,0,0-.063-.153c-.005-.013-.013-.024-.018-.036a1.22,1.22,0,0,0-.075-.118l-.016-.025c-.034-.043-.069-.082-.106-.121l-.039-.035-.046-.043c-.016-.013-.033-.023-.05-.035a.271.271,0,0,0-.031-.024,1.187,1.187,0,0,0-.141-.079l-.028-.013a1.135,1.135,0,0,0-.162-.058h0l-22.192-5.923-8.318-10.513a1.124,1.124,0,0,0-1.97.418L.035,300.42l0,.015A1.186,1.186,0,0,0,0,300.59v.01a1.479,1.479,0,0,0,0,.152c0,.005,0,.013,0,.018a.962.962,0,0,0,.019.149.184.184,0,0,1,.007.028.939.939,0,0,0,.043.146l0,.011a1.1,1.1,0,0,0,.062.129.082.082,0,0,0,.013.024,1.043,1.043,0,0,0,.082.123c.005.008.013.015.018.023a1.06,1.06,0,0,0,.23.214l.013.011.009.005a1.293,1.293,0,0,0,.117.069.055.055,0,0,0,.016.007.3.3,0,0,0,.03.013.968.968,0,0,0,.128.049l.018.005a1.064,1.064,0,0,0,.148.031l.03.005a1.1,1.1,0,0,0,.151.009l.011,0a.9.9,0,0,0,.144-.013l.026,0a1.037,1.037,0,0,0,.142-.036l.03-.01a1.437,1.437,0,0,0,.141-.059M8.2,286.628l20.919-52.04L46.1,239.116,35.46,241.273l-.016.005a1.029,1.029,0,0,0-.141.039,1.271,1.271,0,0,0-.131.058l-.03.015a1.186,1.186,0,0,0-.233.17l-.02.021a.814.814,0,0,0-.082.092l-.016.018c-.025.036-.051.071-.074.108Z" transform="translate(0 -28.814)" fill="#0a8ae2"/>
      <path id="Path_851" data-name="Path 851" d="M108.891,54.123c7.4,17.039,14.475,34.973,14.424,53.849-.051,18.2-7.925,36.866-23.289,47.315a37.134,37.134,0,0,1-26.984,6.131,26.215,26.215,0,0,1-13.468-6.595,19.623,19.623,0,0,1-6.14-13.094,19.989,19.989,0,0,1,3.183-12.118,16.307,16.307,0,0,1,12.306-7.526c5.15-.441,10.466,2.072,14,5.71,4.01,4.124,5.917,9.386,6.714,14.985a58.417,58.417,0,0,1-.244,15.046,72.837,72.837,0,0,1-2.96,13.647,81.33,81.33,0,0,1-14.295,26.544Q70,200.67,67.6,203.106c-2.1,2.148-5.959,2.469-8.136.2a5.848,5.848,0,0,1-.2-8.137,73.468,73.468,0,0,0,6.827-8.065q-.453.628-.906,1.252a74.376,74.376,0,0,0,6.2-10.191q1.34-2.666,2.462-5.438c.173-.42.336-.845.5-1.269.292-.749-.507,1.4-.109.278.075-.214.154-.427.231-.641q.516-1.449.969-2.915a72.887,72.887,0,0,0,2.584-11.643c.062-.45.118-.9.172-1.353.026-.226.043-.455.076-.678-.013.094-.131,1.395-.049.445.089-1.021.168-2.041.218-3.062a53,53,0,0,0-.005-5.953c-.036-.565-.084-1.131-.147-1.693-.024-.226-.056-.45-.081-.674-.074-.7.228,1.278.047.284a26.776,26.776,0,0,0-.781-3.272c-.168-.533-.36-1.055-.563-1.578-.151-.391-.493-.738.2.444-.168-.286-.293-.613-.45-.905a16.555,16.555,0,0,0-1.643-2.5q.48.6.968,1.2a16.655,16.655,0,0,0-3-2.853l1.252.9a15.087,15.087,0,0,0-1.49-.939c-.253-.14-.514-.27-.779-.393-.438-.2-1.3-.376.324.089-.556-.159-1.095-.346-1.666-.456-.474-.093-1.314-.043.326-.008-.29-.007-.575-.037-.865-.037s-.58.028-.871.036c-1.012.034,1.376-.3.425-.081-.478.115-.937.245-1.4.391-.875.279,1.347-.681.493-.223-.175.093-.352.179-.524.277a10.337,10.337,0,0,0-1.272.858l1.2-.967A12.117,12.117,0,0,0,66,136.094c.3-.417.6-.835.9-1.251a14.093,14.093,0,0,0-1.076,1.776c-.149.294-.281.6-.418.9-.459,1.03.414-1.312.092-.224a18.5,18.5,0,0,0-.516,2.076c-.029.168-.049.334-.078.5-.14.777.063-.709.063-.709-.131.136-.059.97-.06,1.14-.011.68.073,1.341.108,2.019.03.628-.266-1.318-.111-.707.041.161.062.33.1.493.081.367.175.733.287,1.093a9.153,9.153,0,0,0,.337.945c.033-.01-.663-1.384-.293-.68.078.148.147.3.227.449A14.8,14.8,0,0,0,67.02,146.1q-.484-.6-.968-1.2a17.751,17.751,0,0,0,3.345,3.153l-1.252-.906a22.534,22.534,0,0,0,4.07,2.22c1.03.446-1.218-.4-.22-.086.4.124.8.26,1.206.375q1.07.3,2.165.507c.42.078.839.148,1.26.206.213.029.424.055.636.08l-.828-.087a14,14,0,0,0,2.56.108q1.117-.005,2.23-.1c.316-.027.632-.059.945-.1.211-.027.417-.053.627-.085q-1.417.225-.549.079a37.511,37.511,0,0,0,4.04-.978q1.052-.327,2.081-.724c.318-.121.629-.272.95-.383-1.784.621-.459.2-.035,0a37.272,37.272,0,0,0,7.165-4.493q-.6.48-1.2.966a44.871,44.871,0,0,0,8.145-8.629l-.906,1.249a51.932,51.932,0,0,0,4.171-6.878q.9-1.776,1.658-3.616c.117-.283.233-.569.347-.853.451-1.147-.371,1.032-.037.106.226-.626.446-1.252.652-1.884a54.481,54.481,0,0,0,1.932-7.863c.108-.649.2-1.3.288-1.954.038-.3.071-.6.109-.9.074-.6-.108.779-.073.711a2.142,2.142,0,0,0,.055-.6c.123-1.478.19-2.961.213-4.442a73.967,73.967,0,0,0-.387-8.626q-.111-1.072-.249-2.142-.062-.5-.134-.989c-.023-.164-.049-.329-.069-.493-.095-.691.238,1.465.047.3-.234-1.423-.493-2.843-.786-4.255a128.606,128.606,0,0,0-4.874-16.938c-2.247-6.311-4.848-12.491-7.516-18.635a5.754,5.754,0,0,1,.453-4.314,5.881,5.881,0,0,1,3.478-2.813,5.8,5.8,0,0,1,4.314.453,6.777,6.777,0,0,1,2.813,3.476" transform="translate(-7.05 -6.599)" fill="#0a8ae2"/>
      <path id="Path_852" data-name="Path 852" d="M9.044,22.317a18.885,18.885,0,1,0,15.143-22,18.886,18.886,0,0,0-15.143,22" transform="translate(-1.152 0)" fill="#ff9f2c"/>
    </g>
  </g>
</svg>
