<svg width="130" height="106" viewBox="0 0 130 106" fill="none" xmlns="http://www.w3.org/2000/svg">
<g opacity="0.12">
<path d="M29.9658 62.0765C29.9468 61.5058 29.8205 61.1182 29.5889 60.9183C29.3295 60.703 29.8053 60.2944 31.0114 59.6944C32.221 59.0501 33.4238 58.3764 34.6109 57.6771C40.8117 54.1361 45.5719 50.1235 48.8813 45.6272C52.1925 41.1356 54.943 37.3817 57.1348 34.3705L61.5468 28.8506C61.0695 29.0457 60.5839 29.2334 60.0808 29.4176C58.2664 29.9448 55.9167 30.7872 53.0363 31.9429L52.9599 32.0706C51.7544 33.2488 50.6404 34.5984 49.617 36.1306C42.4683 46.6572 34.9231 54.4968 26.984 59.6426C26.0941 60.1776 25.2142 60.6979 24.3534 61.1996C23.6019 62.0209 23.5651 62.7696 24.2515 63.4531C26.0459 62.7198 27.1333 62.7466 27.5165 63.5273C27.8867 64.2757 27.6835 65.1676 26.9152 66.21C26.1318 67.2157 25.7686 68.6333 25.8319 70.4658C25.8769 72.3059 26.2553 73.3887 26.9685 73.7185C27.6817 74.0483 33.3929 71.275 44.1133 65.3996C54.8079 59.5133 62.5183 53.4542 67.2602 47.2211C72.0233 41.0006 73.6248 32.3125 72.0558 21.1604C71.464 21.8093 70.8001 22.5304 70.0529 23.3231C69.2062 24.2261 68.4043 25.0947 67.6603 25.9343C65.5951 28.5082 63.5353 31.4228 61.4899 34.6741C61.4737 34.7129 61.4572 34.7516 61.441 34.7904C59.7691 37.3963 58.1387 40.2212 56.5401 43.2685C52.4471 50.7093 47.125 56.1779 40.5794 59.6617C34.0206 63.1133 30.3171 64.7447 29.4687 64.5559C29.8287 63.4447 29.9911 62.6232 29.9612 62.0784" fill="#349BDA"/>
<path d="M53.5824 51.7183C53.6343 51.2686 53.8024 50.8676 54.0825 50.5176C54.3963 50.1322 54.7536 49.8793 55.1495 49.7604C55.5391 49.6654 55.8874 49.7049 56.1943 49.8794C56.4537 50.0947 56.5851 50.4161 56.5864 50.8387C56.5345 51.2884 56.3736 51.7074 56.1022 52.0915C55.7992 52.451 55.4382 52.6949 55.024 52.8214C54.6418 52.9347 54.2936 52.8949 53.9837 52.7002C53.7243 52.4849 53.5893 52.1545 53.5805 51.7136" fill="#2E245A"/>
<path d="M61.5167 38.8942C61.9324 38.3387 62.4039 37.9854 62.9404 37.8304C63.5578 37.6638 64.0509 37.7301 64.4287 38.0255C64.8066 38.321 64.9865 38.7614 64.9669 39.3425C64.9642 39.9649 64.7531 40.5492 64.3421 41.1028C63.9114 41.6216 63.4103 41.9551 62.8295 42.1067C62.2563 42.2767 61.7816 42.2029 61.3963 41.8891C61.0076 41.6194 60.8093 41.1863 60.803 40.5944C60.8499 39.9753 61.0906 39.4111 61.5167 38.8942Z" fill="#2E245A"/>
<path d="M58.3414 45.3173C58.717 44.821 59.1502 44.5049 59.6499 44.3649C59.841 44.3083 60.0341 44.2828 60.2293 44.2887C60.4946 44.3088 60.742 44.3898 60.9714 44.5317C61.3159 44.798 61.4772 45.1928 61.4535 45.7113C61.4282 46.2786 61.2369 46.8066 60.8824 47.2889C60.4918 47.7484 60.042 48.0501 59.5239 48.1976C59.1342 48.2926 58.7749 48.2785 58.4508 48.1539C58.3991 48.1322 58.3271 48.0867 58.2345 48.0174C57.89 47.7512 57.725 47.3474 57.7413 46.8105C57.774 46.2616 57.9765 45.761 58.346 45.3154" fill="#2E245A"/>
<path d="M23.7535 58.1725C23.988 58.0124 24.2683 57.8333 24.59 57.6376C27.5499 55.7853 30.1192 54.0124 32.2848 52.3133C36.8386 48.7652 41.5942 43.9029 46.5492 37.7326C47.71 36.2353 48.609 35.1716 49.2525 34.5444C50.0666 33.719 50.8697 33.0371 51.6548 32.5074L50.4203 33.0119C46.2549 34.6928 40.8413 38.8494 34.1746 45.4836C27.4453 52.1219 22.9676 56.4852 20.7395 58.5687C21.4051 58.9393 22.027 59.0064 22.6144 58.7664C23.1317 58.5121 23.5069 58.3161 23.7489 58.1743" fill="#349BDA"/>
<path d="M74.6202 83.7664C69.3018 84.608 65.3877 84.5706 62.8789 83.639C60.3409 82.7268 56.6315 83.2085 51.7558 85.0969C46.8291 87.0061 42.3371 90.598 38.2976 95.8798C37.3668 97.1159 36.5864 98.6473 35.9567 100.475C45.1473 94.3972 52.8891 90.7647 59.1858 89.5679C65.4443 88.3868 70.0648 87.2577 73.0625 86.1814C78.26 84.5707 81.3832 83.019 82.4234 81.5224C79.1324 82.7185 76.5365 83.4669 74.619 83.7818M109.66 58.2263C108.263 58.7969 107.249 59.7918 106.629 61.2059C106.048 62.6262 106.046 64.0408 106.625 65.4562C107.203 66.8716 108.203 67.8992 109.604 68.4873C111.036 69.0407 112.445 69.0299 113.842 68.4593C115.238 67.8887 116.27 66.9015 116.885 65.5117C117.474 64.1106 117.476 62.6957 116.89 61.2612C116.303 59.8266 115.319 58.8376 113.91 58.2304C112.49 57.65 111.075 57.6479 109.66 58.2263ZM108.218 61.8733C108.614 60.8931 109.309 60.2077 110.303 59.8013C111.298 59.3948 112.257 59.4117 113.242 59.8201C114.23 60.2348 114.916 60.9293 115.315 61.9048C115.713 62.8803 115.704 63.8591 115.296 64.8444C114.873 65.8132 114.176 66.4922 113.201 66.8909C112.225 67.2895 111.233 67.301 110.272 66.8976C109.284 66.4829 108.598 65.7881 108.199 64.8126C107.801 63.8371 107.81 62.8586 108.218 61.8733ZM119.871 48.7108C120.24 47.8307 120.245 46.9508 119.883 46.0646C119.521 45.1783 118.914 44.5855 118.034 44.2161C117.154 43.8466 116.274 43.8415 115.387 44.2037C114.501 44.5659 113.908 45.1728 113.539 46.053C113.169 46.9332 113.162 47.8068 113.514 48.6675C113.865 49.5283 114.496 50.1783 115.376 50.5478C116.256 50.9173 117.13 50.925 117.99 50.5732C118.851 50.2215 119.501 49.591 119.871 48.7108ZM29.2828 98.2542C30.3736 97.7191 31.7668 96.5398 33.4658 94.7071C35.1491 92.8361 38.6618 89.6518 44.0168 85.1494C49.3228 80.5999 55.5442 78.0352 62.668 77.4603C69.7918 76.8853 74.0777 76.54 75.5132 76.4295C78.9545 76.1839 81.9072 75.5798 84.3622 74.6138C91.6745 71.7147 97.426 64.9596 101.615 54.3636C103.653 49.1555 105.121 43.8978 106.018 38.5908C106.655 34.7438 107.188 29.0572 107.606 21.5206C107.09 27.8697 105.499 34.2269 102.848 40.5932C100.057 47.1652 97.4762 52.156 95.0946 55.5773C92.7242 58.9716 89.3603 62.5563 85.0026 66.3313C80.618 70.0949 75.6591 72.1436 70.1323 72.4752C64.5725 72.8351 59.1279 73.9144 53.8089 75.7012C48.4949 77.4637 43.6274 80.4276 39.196 84.6047C34.7428 88.7832 31.4384 93.3332 29.2866 98.2453M23.6691 83.3162C22.2487 84.7747 21.2322 86.2018 20.6172 87.5916C19.8321 89.3485 19.7875 90.9143 20.4743 92.2855C24.3627 85.7782 31.1491 80.2813 40.8376 75.7862C43.3004 74.6755 47.4169 73.0233 53.1768 70.8405C58.5462 68.795 62.6354 67.0938 65.448 65.7286C73.7486 61.7337 80.9526 56.4759 87.0357 49.9496C93.4106 43.1181 97.9231 35.5522 100.588 27.2531C102.678 20.7145 103.82 12.7847 104.006 3.48218C104.045 1.79229 103.764 0.649924 103.16 0.0635136L101.763 12.3232C101.346 16.0356 100.98 18.7075 100.664 20.3394C99.4969 26.2035 97.2176 31.8598 93.8176 37.3044C90.5956 42.4382 86.5846 47.098 81.786 51.2689C73.4281 58.5462 62.7178 64.4189 49.6435 68.8766C44.5796 70.5592 41.9805 71.4277 41.853 71.4798C38.8935 72.5404 36.3949 73.6362 34.3441 74.7719C30.7715 76.79 27.2101 79.6369 23.6691 83.3162Z" fill="#FA8240"/>
</g>
</svg>
