<svg xmlns="http://www.w3.org/2000/svg" width="182.452" height="163.773" viewBox="0 0 182.452 163.773">
  <g id="Group_4" data-name="Group 4" transform="translate(0 -0.001)">
    <g id="Group_5" data-name="Group 5" transform="translate(0 0.001)">
      <path id="Path_28" data-name="Path 28" d="M13.262,1851.657a1.214,1.214,0,0,1,1.214,1.214v3.714a7.248,7.248,0,0,1-.294,2.152,4.166,4.166,0,0,1-.885,1.592,3.8,3.8,0,0,1-1.469.98,5.672,5.672,0,0,1-2.045.337h-3.5a4.546,4.546,0,0,1-3.526-1.317,5.348,5.348,0,0,1-1.207-3.744v-3.714a1.214,1.214,0,1,1,2.429,0v3.658a4.871,4.871,0,0,0,.124,1.2,1.727,1.727,0,0,0,.384.753,1.372,1.372,0,0,0,.645.392,3.377,3.377,0,0,0,.92.111H9.688a3.605,3.605,0,0,0,.94-.111,1.369,1.369,0,0,0,.665-.392,1.78,1.78,0,0,0,.391-.753,4.621,4.621,0,0,0,.13-1.2v-3.658a1.215,1.215,0,0,1,1.215-1.214Z" transform="translate(-1.437 -1716.579)" fill="#fff"/>
      <path id="Path_29" data-name="Path 29" d="M216.161,1780.744a1.3,1.3,0,0,1,1.3,1.3v9.771a1.627,1.627,0,0,0,.1.575,1.082,1.082,0,0,0,.315.454,1.52,1.52,0,0,0,.583.3,3.38,3.38,0,0,0,.912.1v2.662a6.1,6.1,0,0,1-1.646-.228,4.224,4.224,0,0,1-1.448-.714,3.594,3.594,0,0,1-1.029-1.263,4.079,4.079,0,0,1-.391-1.859v-9.8a1.3,1.3,0,0,1,1.3-1.3" transform="translate(-199.183 -1650.839)" fill="#fff"/>
      <path id="Path_30" data-name="Path 30" d="M266.075,1851.657a1.3,1.3,0,0,1,1.3,1.3v4.143a2.133,2.133,0,0,0,.4,1.428,1.584,1.584,0,0,0,1.249.453v2.662a2.911,2.911,0,0,1-1.488-.376,2.817,2.817,0,0,1-1.063-1.159,3.977,3.977,0,0,1-1.531,1.172,4.519,4.519,0,0,1-.892.275,4.777,4.777,0,0,1-.913.088.9.9,0,0,1-.322-.07,1.089,1.089,0,0,1-.35-.211,1.143,1.143,0,0,1-.281-.412,1.663,1.663,0,0,1-.117-.666v-.742l1.07-.561a1.568,1.568,0,0,0,1.249-.446,2.181,2.181,0,0,0,.385-1.436v-4.143a1.3,1.3,0,0,1,1.3-1.3" transform="translate(-242.95 -1716.579)" fill="#fff"/>
      <path id="Path_31" data-name="Path 31" d="M347.068,1780.744a1.3,1.3,0,0,1,1.3,1.3v9.414a4.6,4.6,0,0,1-.4,1.99,4.074,4.074,0,0,1-1.043,1.385,4.2,4.2,0,0,1-1.455.811,5.389,5.389,0,0,1-1.647.261.968.968,0,0,1-.322-.069,1.139,1.139,0,0,1-.35-.214,1.125,1.125,0,0,1-.281-.411,1.66,1.66,0,0,1-.117-.666v-.742l1.07-.561a2.289,2.289,0,0,0,.913-.165,1.651,1.651,0,0,0,.6-.419,1.632,1.632,0,0,0,.322-.584,2.245,2.245,0,0,0,.1-.672v-9.359a1.3,1.3,0,0,1,1.3-1.3" transform="translate(-317.755 -1650.839)" fill="#fff"/>
      <path id="Path_32" data-name="Path 32" d="M457.87,1780.744a1.3,1.3,0,0,1,1.3,1.3v9.771a1.62,1.62,0,0,0,.1.575,1.089,1.089,0,0,0,.316.454,1.523,1.523,0,0,0,.582.3,3.387,3.387,0,0,0,.912.1v2.662a6.1,6.1,0,0,1-1.646-.228,4.229,4.229,0,0,1-1.448-.714,3.59,3.59,0,0,1-1.029-1.263,4.071,4.071,0,0,1-.391-1.859v-9.8a1.3,1.3,0,0,1,1.3-1.3" transform="translate(-423.26 -1650.839)" fill="#fff"/>
      <path id="Path_33" data-name="Path 33" d="M517.842,1853.81h-2.208a9.714,9.714,0,0,1-1.037-.062,7.015,7.015,0,0,1-1.125-.227,6.775,6.775,0,0,1-1.125-.44,4.367,4.367,0,0,1-1.022-.7,11.652,11.652,0,0,1-1.407.631,11.78,11.78,0,0,1-1.481.447,14.463,14.463,0,0,1-1.49.26,11.58,11.58,0,0,1-1.413.091h-.687a.963.963,0,0,1-.322-.069,1.132,1.132,0,0,1-.35-.214,1.111,1.111,0,0,1-.281-.411,1.666,1.666,0,0,1-.117-.666v-.742l1.071-.561h.687c.3,0,.622-.018.96-.049a9.583,9.583,0,0,0,1.016-.149q.508-.1.988-.249a7.1,7.1,0,0,0,.878-.322q-.261-.371-.535-.775t-.57-.8q-.295-.4-.637-.791c-.229-.261-.728-.734-.728-.734l-.892.439v-.091a4.127,4.127,0,0,1,2.7-3.92c.009,0,.019,0,.028-.008a8.664,8.664,0,0,1,2.874-.495c.358,0,.733.017,1.126.049a7.007,7.007,0,0,1,1.159.193,5.076,5.076,0,0,1,1.077.4,3.315,3.315,0,0,1,.892.672,3.176,3.176,0,0,1,.617,1,3.665,3.665,0,0,1,.234,1.365,2.933,2.933,0,0,1-.226,1.126,4.813,4.813,0,0,1-.611,1.058,5.659,5.659,0,0,1-.906.938,7.76,7.76,0,0,1-1.125.775,3.077,3.077,0,0,0,.823.277,5.453,5.453,0,0,0,1.056.095h2.113Zm-8.494-7.493a8.269,8.269,0,0,1,.6.637q.295.35.59.728t.589.77q.3.389.611.787a6.461,6.461,0,0,0,.858-.528,5.507,5.507,0,0,0,.713-.611,3.424,3.424,0,0,0,.494-.624,1.162,1.162,0,0,0,.185-.6.9.9,0,0,0-.515-.858,2.2,2.2,0,0,0-.679-.212,6.083,6.083,0,0,0-.988-.069,4.62,4.62,0,0,0-.59.043c-.21.026-.423.067-.638.114s-.43.115-.645.186a6.106,6.106,0,0,0-.583.234" transform="translate(-467.027 -1708.741)" fill="#fff"/>
      <path id="Path_34" data-name="Path 34" d="M692.314,1842.262a5.912,5.912,0,0,1-.679-.039,2.384,2.384,0,0,1-.529-.112,8.408,8.408,0,0,0,.693-.787,5.961,5.961,0,0,0,.6-.956,6.114,6.114,0,0,0,.439-1.13,4.9,4.9,0,0,0,.172-1.324,4.164,4.164,0,0,0-.364-1.764,4.3,4.3,0,0,0-.974-1.36,4.216,4.216,0,0,0-1.434-.871,5.2,5.2,0,0,0-3.485,0,4.292,4.292,0,0,0-1.441.871,4.244,4.244,0,0,0-.981,1.36,4.159,4.159,0,0,0-.364,1.764,5.077,5.077,0,0,0,.165,1.324,5.518,5.518,0,0,0,.438,1.13,6.525,6.525,0,0,0,.611.956,8.428,8.428,0,0,0,.693.787,2.205,2.205,0,0,1-.6.117c-.265.024-.521.034-.768.034h-1.523l-1.07.564v.741a1.666,1.666,0,0,0,.117.665,1.141,1.141,0,0,0,.281.411,1.1,1.1,0,0,0,.35.212.932.932,0,0,0,.322.069h2.223a5.983,5.983,0,0,0,1.812-.266,8.216,8.216,0,0,0,1.481-.627,7.716,7.716,0,0,0,1.475.627,6.04,6.04,0,0,0,1.818.266H694v-2.662Zm-2.072-3.458a3.916,3.916,0,0,1-.364.865,5,5,0,0,1-.583.822,4.626,4.626,0,0,1-.8.729,4.843,4.843,0,0,1-.8-.729,4.513,4.513,0,0,1-.583-.822,4.107,4.107,0,0,1-.357-.865,3.225,3.225,0,0,1-.123-.878,2.177,2.177,0,0,1,.136-.776,1.739,1.739,0,0,1,.385-.616,1.85,1.85,0,0,1,.59-.407,1.977,1.977,0,0,1,1.509,0,1.781,1.781,0,0,1,.583.407,1.867,1.867,0,0,1,.384.616,2.08,2.08,0,0,1,.145.776,3.236,3.236,0,0,1-.124.878" transform="translate(-632.167 -1699.856)" fill="#fff"/>
      <path id="Path_35" data-name="Path 35" d="M836.974,1780.744a1.3,1.3,0,0,1,1.3,1.3v9.317a2.163,2.163,0,0,0,.39,1.429,1.562,1.562,0,0,0,1.242.453v2.662a2.862,2.862,0,0,1-1.481-.379,2.826,2.826,0,0,1-1.057-1.158,3.884,3.884,0,0,1-.707.691,3.823,3.823,0,0,1-.83.481,4.575,4.575,0,0,1-.9.274,4.66,4.66,0,0,1-.913.091.976.976,0,0,1-.323-.069,1.078,1.078,0,0,1-.349-.22,1.236,1.236,0,0,1-.281-.413,1.649,1.649,0,0,1-.117-.672v-.727l1.07-.561a1.589,1.589,0,0,0,1.256-.447,2.146,2.146,0,0,0,.391-1.435v-9.317a1.3,1.3,0,0,1,1.3-1.3" transform="translate(-772.189 -1650.839)" fill="#fff"/>
      <path id="Path_36" data-name="Path 36" d="M917.962,1780.744a1.3,1.3,0,0,1,1.3,1.3v9.414a4.594,4.594,0,0,1-.4,1.99,4.086,4.086,0,0,1-1.042,1.385,4.207,4.207,0,0,1-1.455.811,5.385,5.385,0,0,1-1.646.261.973.973,0,0,1-.323-.069,1.15,1.15,0,0,1-.349-.214,1.123,1.123,0,0,1-.281-.411,1.666,1.666,0,0,1-.116-.666v-.742l1.07-.561a2.287,2.287,0,0,0,.912-.165,1.546,1.546,0,0,0,.92-1,2.239,2.239,0,0,0,.1-.672v-9.359a1.3,1.3,0,0,1,1.3-1.3" transform="translate(-847.003 -1650.839)" fill="#fff"/>
      <path id="Path_37" data-name="Path 37" d="M1066.66,1853.577a1.214,1.214,0,0,1,1.214,1.214v1.956a3.612,3.612,0,0,0,.13,1.045,1.59,1.59,0,0,0,.406.691,1.525,1.525,0,0,0,.692.384,3.806,3.806,0,0,0,1.022.118h3.911v-2.663a6.044,6.044,0,0,1,.281-1.9,4.112,4.112,0,0,1,.824-1.47,3.69,3.69,0,0,1,1.372-.953,5.019,5.019,0,0,1,1.928-.343h3.348v7.329h2.06v2.662h-3.036a1.632,1.632,0,0,1-1.631-1.632v-5.985h-.782a2.276,2.276,0,0,0-.755.117,1.241,1.241,0,0,0-.549.377,1.71,1.71,0,0,0-.329.678,4.119,4.119,0,0,0-.109,1.023v4.205a1.215,1.215,0,0,1-1.215,1.216h-5.276a5.465,5.465,0,0,1-2.12-.372,4,4,0,0,1-1.469-1.022,4.056,4.056,0,0,1-.857-1.55,6.66,6.66,0,0,1-.275-1.956v-1.956a1.215,1.215,0,0,1,1.215-1.214" transform="translate(-987.721 -1716.578)" fill="#fff"/>
      <path id="Path_38" data-name="Path 38" d="M1296.908,1782.048v5.873l-.385,1.248a15.506,15.506,0,0,1,1.264-1.3,9.819,9.819,0,0,1,1.413-1.085,7.439,7.439,0,0,1,1.563-.747,5.333,5.333,0,0,1,1.743-.283,6.083,6.083,0,0,1,1.908.275,3.365,3.365,0,0,1,1.358.823,3.587,3.587,0,0,1,.816,1.394,6.171,6.171,0,0,1,.281,1.955,10.936,10.936,0,0,1-.1,1.456c-.069.514-.151,1.022-.246,1.529s-.2,1-.309,1.461c0,0,0,.01,0,.014a1.628,1.628,0,0,1-1.585,1.249h-11.517a.922.922,0,0,1-.323-.069,1.086,1.086,0,0,1-.35-.211c-.11-.1-1.07-.234-1.147-.41a1.665,1.665,0,0,1-.117-.667v-.742l1.937-.562h.37l.823-1.193v-10a1.3,1.3,0,0,1,1.3-1.3h0a1.3,1.3,0,0,1,1.3,1.3m6.82,11.2c.036-.191.085-.4.144-.645s.11-.489.151-.753.075-.539.1-.818.04-.556.04-.831a2.1,2.1,0,0,0-.136-.782,1.629,1.629,0,0,0-.384-.576,1.591,1.591,0,0,0-.6-.349,2.459,2.459,0,0,0-.777-.116,3.667,3.667,0,0,0-1.261.228,6.54,6.54,0,0,0-1.236.6,9.16,9.16,0,0,0-1.173.858,13.482,13.482,0,0,0-1.078,1.029q-.507.542-.954,1.1t-.775,1.056Z" transform="translate(-1196.979 -1650.838)" fill="#fff"/>
      <path id="Path_39" data-name="Path 39" d="M1542.721,1861.478h-1.745a9.747,9.747,0,0,1-.767,1.872,6.96,6.96,0,0,1-1.14,1.543,7.136,7.136,0,0,1-1.558,1.194,7.622,7.622,0,0,1-1.1.517,1.224,1.224,0,0,1-1.436-.465l-.02-.029a1.241,1.241,0,0,1,.557-1.829l.015-.006a5.271,5.271,0,0,0,1.173-.72,4.831,4.831,0,0,0,.877-.941,5.376,5.376,0,0,0,.619-1.137h-.535a5.54,5.54,0,0,1-2.23-.4,3.8,3.8,0,0,1-1.469-1.082,4.279,4.279,0,0,1-.8-1.6,7.714,7.714,0,0,1-.008-3.843,4.425,4.425,0,0,1,.769-1.583,3.746,3.746,0,0,1,1.351-1.091,4.378,4.378,0,0,1,1.962-.406,3.982,3.982,0,0,1,2.008.473,3.932,3.932,0,0,1,1.346,1.244,5.314,5.314,0,0,1,.749,1.74,8.491,8.491,0,0,1,.233,1.964q0,.509-.028.982c-.02.313-.041.628-.068.938h1.25Zm-7.287-5.024a4.413,4.413,0,0,0,.115,1.091,1.669,1.669,0,0,0,.379.727,1.524,1.524,0,0,0,.687.414,3.668,3.668,0,0,0,1.042.128h1.152c.028-.3.049-.61.069-.926s.028-.647.028-.995a6.116,6.116,0,0,0-.137-1.38,3.241,3.241,0,0,0-.365-.938,1.486,1.486,0,0,0-.527-.543,1.282,1.282,0,0,0-.645-.171,1.846,1.846,0,0,0-.762.15,1.379,1.379,0,0,0-.562.468,2.358,2.358,0,0,0-.349.808,4.842,4.842,0,0,0-.123,1.166" transform="translate(-1421.084 -1716.408)" fill="#fff"/>
      <path id="Path_40" data-name="Path 40" d="M1657.036,1780.744a1.3,1.3,0,0,1,1.3,1.3v9.414a4.569,4.569,0,0,1-.4,1.99,4.066,4.066,0,0,1-1.043,1.385,4.2,4.2,0,0,1-1.454.811,5.4,5.4,0,0,1-1.647.261.973.973,0,0,1-.323-.069,1.144,1.144,0,0,1-.35-.214,1.109,1.109,0,0,1-.281-.411,1.657,1.657,0,0,1-.117-.666v-.742l1.071-.561a2.288,2.288,0,0,0,.912-.165,1.544,1.544,0,0,0,.919-1,2.217,2.217,0,0,0,.1-.672v-9.359a1.3,1.3,0,0,1,1.3-1.3" transform="translate(-1532.161 -1650.839)" fill="#fff"/>
      <path id="Path_41" data-name="Path 41" d="M1766.536,1794.629v-12.556a1.3,1.3,0,0,1,2.606,0v12.556a1.3,1.3,0,1,1-2.606,0" transform="translate(-1637.667 -1650.864)" fill="#fff"/>
      <path id="Path_42" data-name="Path 42" d="M1852.525,1888.682a1.127,1.127,0,0,1,.368-1.694,7.483,7.483,0,0,0,.745-.443,6.2,6.2,0,0,0,1.544-1.483,6.548,6.548,0,0,0,.975-2,8.726,8.726,0,0,0,.344-2.546,9.738,9.738,0,0,0-.055-1.021q-.055-.513-.151-1c-.064-.324-.212-.946-.212-.946l-.255-.844,2.484-.782s.151.517.233.81.155.6.219.92.124.649.179.989.1.682.122,1.028a3.435,3.435,0,0,0,.1.686,1.518,1.518,0,0,0,.275.575,1.358,1.358,0,0,0,.514.4,1.971,1.971,0,0,0,.831.151v2.662a3.808,3.808,0,0,1-.632-.049,2.665,2.665,0,0,1-.535-.144,1.955,1.955,0,0,1-.46-.253,1.9,1.9,0,0,1-.363-.35,8.511,8.511,0,0,1-.8,2.141,8.209,8.209,0,0,1-1.235,1.714,8.635,8.635,0,0,1-1.62,1.338,10.751,10.751,0,0,1-1.085.613,1.142,1.142,0,0,1-1.409-.315Z" transform="translate(-1717.161 -1739.074)" fill="#fff"/>
      <path id="Path_43" data-name="Path 43" d="M1954.072,1803.975l1.07-.561h6.285a1.732,1.732,0,0,0,.068-.248,1.41,1.41,0,0,0,.028-.289,2.192,2.192,0,0,0-.276-1.028,4.261,4.261,0,0,0-.734-1,10.109,10.109,0,0,0-1.021-.912q-.564-.44-1.146-.811c-.389-.246-.767-.464-1.132-.652l-.025-.011a1.681,1.681,0,0,1-.179-2.9l5.448-3.647a1.251,1.251,0,1,1,1.366,2.1l-4.621,2.928c.4.219.805.452,1.207.7a11.747,11.747,0,0,1,1.153.8,9.324,9.324,0,0,1,1.015.926,6.9,6.9,0,0,1,.823,1.057,4.662,4.662,0,0,1,.743,2.58,3.659,3.659,0,0,1-.365,1.694,5.223,5.223,0,0,1-1.051,1.366h-7.587a.978.978,0,0,1-.323-.069,1.1,1.1,0,0,1-.632-.625,1.684,1.684,0,0,1-.115-.666Z" transform="translate(-1811.523 -1661.007)" fill="#fff"/>
      <path id="Path_44" data-name="Path 44" d="M2088.774,1888.775a1.231,1.231,0,0,1,.4-1.842c.222-.121.435-.25.643-.39a6.133,6.133,0,0,0,1.541-1.48,6.607,6.607,0,0,0,.975-2,8.767,8.767,0,0,0,.344-2.547,9.81,9.81,0,0,0-.054-1.021c-.038-.342-.088-.677-.152-1s-.135-.64-.212-.945-.162-.589-.254-.844l2.485-.783c.072.248.149.517.234.809s.154.6.219.919.124.65.178.99.1.68.124,1.028a3.334,3.334,0,0,0,.1.686,1.512,1.512,0,0,0,.274.575,1.367,1.367,0,0,0,.515.4,1.962,1.962,0,0,0,.83.151v2.662a3.842,3.842,0,0,1-.63-.047,2.7,2.7,0,0,1-.536-.145,1.935,1.935,0,0,1-.458-.253,1.911,1.911,0,0,1-.365-.35,8.457,8.457,0,0,1-.8,2.14,8.074,8.074,0,0,1-1.235,1.715,8.66,8.66,0,0,1-1.619,1.338,10.415,10.415,0,0,1-1.013.577,1.238,1.238,0,0,1-1.531-.342" transform="translate(-1936.158 -1739.075)" fill="#fff"/>
      <path id="Path_45" data-name="Path 45" d="M2202.453,1860.953a3.641,3.641,0,0,1-1.722-.35,2.4,2.4,0,0,1-1.008-1.035,3.624,3.624,0,0,1-.515.673,2.8,2.8,0,0,1-.692.508,3.792,3.792,0,0,1-.887.313,4.812,4.812,0,0,1-1.076.111,4.893,4.893,0,0,1-1.091-.111,3.164,3.164,0,0,1-.879-.329,3.392,3.392,0,0,1-.7-.514,3.133,3.133,0,0,1-.529-.666,2.458,2.458,0,0,1-1.023,1.049,3.57,3.57,0,0,1-1.694.35.923.923,0,0,1-.323-.069,1.1,1.1,0,0,1-.349-.212,1.13,1.13,0,0,1-.281-.411,1.641,1.641,0,0,1-.117-.665v-.741l1.07-.564a3.2,3.2,0,0,0,.742-.074.989.989,0,0,0,.487-.275,1.2,1.2,0,0,0,.267-.536,3.6,3.6,0,0,0,.083-.844v-.548a7.5,7.5,0,0,1,.233-1.86,4.784,4.784,0,0,1,.755-1.633,3.959,3.959,0,0,1,1.344-1.166,4.185,4.185,0,0,1,2-.446,4.05,4.05,0,0,1,1.956.446,3.919,3.919,0,0,1,1.33,1.166,4.955,4.955,0,0,1,.755,1.633,7.264,7.264,0,0,1,.24,1.86v.548a3.616,3.616,0,0,0,.083.844,1.14,1.14,0,0,0,.274.536,1.026,1.026,0,0,0,.5.275,3.339,3.339,0,0,0,.761.074Zm-5.9-7.726a1.789,1.789,0,0,0-.706.138,1.412,1.412,0,0,0-.57.459,2.466,2.466,0,0,0-.391.825,4.471,4.471,0,0,0-.145,1.227,4.707,4.707,0,0,0,.138,1.221,2.463,2.463,0,0,0,.376.831,1.471,1.471,0,0,0,.571.472,1.7,1.7,0,0,0,.727.152,1.646,1.646,0,0,0,.72-.152,1.421,1.421,0,0,0,.556-.472,2.377,2.377,0,0,0,.357-.831,5.245,5.245,0,0,0,.123-1.221,4.65,4.65,0,0,0-.137-1.208,2.334,2.334,0,0,0-.385-.822,1.577,1.577,0,0,0-.562-.468,1.552,1.552,0,0,0-.673-.152" transform="translate(-2029.839 -1715.885)" fill="#fff"/>
      <path id="Path_46" data-name="Path 46" d="M2355.836,1780.744a1.3,1.3,0,0,1,1.3,1.3v9.414a4.587,4.587,0,0,1-.4,1.99,4.071,4.071,0,0,1-1.043,1.385,4.192,4.192,0,0,1-1.454.811,5.391,5.391,0,0,1-1.646.261.965.965,0,0,1-.322-.069,1.08,1.08,0,0,1-.632-.625,1.657,1.657,0,0,1-.117-.666v-.742l1.071-.561a2.282,2.282,0,0,0,.911-.165,1.543,1.543,0,0,0,.92-1,2.217,2.217,0,0,0,.1-.672v-9.359a1.3,1.3,0,0,1,1.3-1.3" transform="translate(-2179.983 -1650.839)" fill="#fff"/>
      <path id="Path_47" data-name="Path 47" d="M2465.329,1794.629v-12.556a1.3,1.3,0,0,1,2.607,0v12.556a1.3,1.3,0,0,1-2.607,0" transform="translate(-2285.484 -1650.864)" fill="#fff"/>
      <path id="Path_48" data-name="Path 48" d="M0,2111.085H1.73l4.221,7.125h.028v-7.125h1.3v9.685H5.9l-4.581-7.763H1.288v7.763H0Z" transform="translate(0 -1957.082)" fill="#fff"/>
      <path id="Path_49" data-name="Path 49" d="M155.257,2149.672a2.717,2.717,0,0,1-2.159.885,2.057,2.057,0,0,1-2.269-2.159c0-1.48,1.176-2.2,2.808-2.2a6.115,6.115,0,0,1,1.578.194v-.956c0-.858-.5-1.23-1.453-1.23a3.327,3.327,0,0,0-1.978.595h-.442v-1.053a5.518,5.518,0,0,1,2.6-.623c1.715,0,2.7.623,2.7,2.215v5.134h-.554c-.553,0-.747-.153-.83-.8m-.042-.914v-1.536a6.556,6.556,0,0,0-1.342-.139c-.969,0-1.661.36-1.661,1.232a1.183,1.183,0,0,0,1.341,1.272,2.1,2.1,0,0,0,1.661-.83" transform="translate(-139.826 -1986.786)" fill="#fff"/>
      <path id="Path_50" data-name="Path 50" d="M276.6,2119.678h.872v-1.966h1.411v1.966h1.605v1h-1.605v4.289c0,.762.317.983,1.038.983h.65v.912a4.585,4.585,0,0,1-1.148.139c-1.232,0-1.951-.512-1.951-1.868v-4.455H276.6Z" transform="translate(-256.423 -1963.226)" fill="#fff"/>
      <path id="Path_51" data-name="Path 51" d="M377.534,2112.092a.83.83,0,1,1,1.659,0,.83.83,0,0,1-1.659,0m.11,8.841V2113.7h.788c.554,0,.622.166.622,1.078v6.157Z" transform="translate(-349.993 -1957.246)" fill="#fff"/>
      <path id="Path_52" data-name="Path 52" d="M448.47,2146.882a3.471,3.471,0,1,1,6.919,0,3.466,3.466,0,1,1-6.919,0m5.479,0c0-1.743-.788-2.682-2.02-2.682s-2.02.939-2.02,2.682.8,2.617,2.02,2.617,2.02-.872,2.02-2.617" transform="translate(-415.754 -1986.792)" fill="#fff"/>
      <path id="Path_53" data-name="Path 53" d="M594.241,2144.15a4.619,4.619,0,0,1,2.767-1.024c1.01,0,1.854.415,1.854,1.993v5.354h-1.411v-5.023c0-.9-.4-1.148-1.093-1.148a4.365,4.365,0,0,0-2.117.719v5.452h-1.412v-7.236h.887c.346,0,.5.153.526.913" transform="translate(-549.582 -1986.785)" fill="#fff"/>
      <path id="Path_54" data-name="Path 54" d="M728.541,2149.672a2.718,2.718,0,0,1-2.159.885,2.057,2.057,0,0,1-2.269-2.159c0-1.48,1.176-2.2,2.808-2.2a6.116,6.116,0,0,1,1.578.194v-.956c0-.858-.5-1.23-1.453-1.23a3.326,3.326,0,0,0-1.978.595h-.443v-1.053a5.521,5.521,0,0,1,2.6-.623c1.715,0,2.7.623,2.7,2.215v5.134h-.554c-.553,0-.747-.153-.83-.8m-.042-.914v-1.536a6.554,6.554,0,0,0-1.342-.139c-.969,0-1.661.36-1.661,1.232a1.184,1.184,0,0,0,1.342,1.272,2.1,2.1,0,0,0,1.66-.83" transform="translate(-671.289 -1986.786)" fill="#fff"/>
      <path id="Path_55" data-name="Path 55" d="M858.992,2120.789v-9.683h.789c.554,0,.637.136.637.938v8.744Z" transform="translate(-796.329 -1957.101)" fill="#fff"/>
      <path id="Path_56" data-name="Path 56" d="M1007.718,2111.085h5.936v1.162h-4.441v3.016h3.252v1.107h-3.252v3.267h4.593v1.133h-6.088Z" transform="translate(-934.205 -1957.082)" fill="#fff"/>
      <path id="Path_57" data-name="Path 57" d="M1126.482,2145.056v-.4h1.315l2.047,5.533h.027l1.951-5.533h1.217v.4l-2.559,6.835h-1.37Z" transform="translate(-1044.306 -1988.204)" fill="#fff"/>
      <path id="Path_58" data-name="Path 58" d="M1256.942,2147.151c.069,1.718.844,2.366,2.2,2.366a3.068,3.068,0,0,0,2.006-.663h.458v.982a4.459,4.459,0,0,1-2.671.747c-2.214,0-3.445-1.411-3.445-3.681,0-2.311,1.425-3.747,3.306-3.747,1.91,0,3.03,1.121,3.03,3.5,0,.2-.013.442-.013.5Zm.027-.927h3.46c-.027-1.562-.636-2.1-1.633-2.1-.942,0-1.674.568-1.827,2.1" transform="translate(-1163.901 -1986.811)" fill="#fff"/>
      <path id="Path_59" data-name="Path 59" d="M1393.283,2144.15a4.617,4.617,0,0,1,2.766-1.024c1.01,0,1.855.415,1.855,1.993v5.354h-1.411v-5.023c0-.9-.4-1.148-1.094-1.148a4.364,4.364,0,0,0-2.117.719v5.452h-1.412v-7.236h.886c.347,0,.5.153.526.913" transform="translate(-1290.334 -1986.785)" fill="#fff"/>
      <path id="Path_60" data-name="Path 60" d="M1520.7,2119.678h.871v-1.966h1.411v1.966h1.6v1h-1.6v4.289c0,.762.318.983,1.039.983h.649v.912a4.576,4.576,0,0,1-1.147.139c-1.232,0-1.952-.512-1.952-1.868v-4.455h-.871Z" transform="translate(-1409.767 -1963.226)" fill="#fff"/>
      <path id="Path_61" data-name="Path 61" d="M1619.34,2150.259v-1.092h.456a2.621,2.621,0,0,0,1.84.651c1.01,0,1.508-.361,1.508-1.051,0-.611-.345-.872-1.521-1.053-1.467-.206-2.283-.745-2.283-2.09,0-1.369,1.01-2.116,2.6-2.116a4.031,4.031,0,0,1,2.13.511v1.081h-.456a2.558,2.558,0,0,0-1.661-.512c-.927,0-1.356.318-1.356.925,0,.568.4.818,1.537.983,1.59.235,2.339.762,2.339,2.145s-.873,2.254-2.769,2.254a4.03,4.03,0,0,1-2.365-.637" transform="translate(-1501.209 -1987.139)" fill="#fff"/>
      <path id="Path_62" data-name="Path 62" d="M1806.006,2114.862c0-3.127,1.909-4.926,4.428-4.926a4.489,4.489,0,0,1,2.794.775v1.177h-.581a2.9,2.9,0,0,0-2.172-.8c-1.758,0-2.935,1.287-2.935,3.721,0,2.559,1.039,3.846,2.823,3.846a3.222,3.222,0,0,0,2.492-1.05h.484v1.147a4.436,4.436,0,0,1-3.031,1.039c-2.573,0-4.3-1.787-4.3-4.927" transform="translate(-1674.258 -1956.016)" fill="#fff"/>
      <path id="Path_63" data-name="Path 63" d="M1952.392,2147.151c.07,1.718.845,2.366,2.2,2.366a3.068,3.068,0,0,0,2.007-.663h.457v.982a4.453,4.453,0,0,1-2.671.747c-2.212,0-3.445-1.411-3.445-3.681,0-2.311,1.426-3.747,3.307-3.747,1.909,0,3.031,1.121,3.031,3.5,0,.2-.015.442-.015.5Zm.028-.927h3.459c-.028-1.562-.637-2.1-1.633-2.1-.942,0-1.674.568-1.826,2.1" transform="translate(-1808.618 -1986.811)" fill="#fff"/>
      <path id="Path_64" data-name="Path 64" d="M2088.752,2144.15a4.621,4.621,0,0,1,2.768-1.024c1.009,0,1.854.415,1.854,1.993v5.354h-1.411v-5.023c0-.9-.4-1.148-1.094-1.148a4.369,4.369,0,0,0-2.116.719v5.452h-1.411v-7.236h.884c.348,0,.5.153.526.913" transform="translate(-1935.07 -1986.785)" fill="#fff"/>
      <path id="Path_65" data-name="Path 65" d="M2216.151,2119.678h.872v-1.966h1.411v1.966h1.6v1h-1.6v4.289c0,.762.318.983,1.039.983h.649v.912a4.578,4.578,0,0,1-1.147.139c-1.232,0-1.951-.512-1.951-1.868v-4.455h-.872Z" transform="translate(-2054.483 -1963.226)" fill="#fff"/>
      <path id="Path_66" data-name="Path 66" d="M2312.647,2147.151c.069,1.718.845,2.366,2.2,2.366a3.068,3.068,0,0,0,2.006-.663h.458v.982a4.456,4.456,0,0,1-2.672.747c-2.213,0-3.444-1.411-3.444-3.681,0-2.311,1.425-3.747,3.307-3.747,1.909,0,3.031,1.121,3.031,3.5,0,.2-.016.442-.016.5Zm.027-.927h3.459c-.027-1.562-.636-2.1-1.632-2.1-.942,0-1.676.568-1.827,2.1" transform="translate(-2142.593 -1986.811)" fill="#fff"/>
      <path id="Path_67" data-name="Path 67" d="M2449,2145.711V2151h-1.41v-7.235h.884c.348,0,.5.151.526,1a2.783,2.783,0,0,1,2.075-1.067,1.3,1.3,0,0,1,.388.056v1.162s-.264-.013-.319-.013a3.191,3.191,0,0,0-2.145.816" transform="translate(-2269.038 -1987.308)" fill="#fff"/>
      <path id="Path_68" data-name="Path 68" d="M1901.53,1870.393l-.706-.685s.579-2.379,2.484-.782c0,0-.445,1.023-.452,1.038a3.65,3.65,0,0,1-.443.319c-.037,0-.883.158-.883.158" transform="translate(-1762.159 -1732.077)" fill="#fff"/>
      <path id="Path_69" data-name="Path 69" d="M2137.121,1865.4h0c-.683.19-1.558-.664-1.748-1.347l-.03-.153a1.3,1.3,0,0,1,.925-1.579,1.283,1.283,0,0,1,1.578.894l.169.607a1.282,1.282,0,0,1-.894,1.578" transform="translate(-1979.528 -1726.421)" fill="#fff"/>
      <path id="Path_70" data-name="Path 70" d="M1900.732,1865.4h0c-.683.19-1.557-.664-1.747-1.347l-.03-.153a1.3,1.3,0,0,1,.924-1.579,1.282,1.282,0,0,1,1.578.894l.169.607a1.282,1.282,0,0,1-.894,1.578" transform="translate(-1760.385 -1726.421)" fill="#fff"/>
      <path id="Path_71" data-name="Path 71" d="M1893.947,1791.631a1.272,1.272,0,1,1-1.271-1.27,1.272,1.272,0,0,1,1.271,1.27" transform="translate(-1753.426 -1659.754)" fill="#fff"/>
      <path id="Path_72" data-name="Path 72" d="M1242.646,1791.631a1.271,1.271,0,1,1-1.271-1.27,1.271,1.271,0,0,1,1.271,1.27" transform="translate(-1149.639 -1659.754)" fill="#fff"/>
      <path id="Path_73" data-name="Path 73" d="M755.63,1791.631a1.271,1.271,0,1,1-1.271-1.27,1.272,1.272,0,0,1,1.271,1.27" transform="translate(-698.15 -1659.754)" fill="#fff"/>
      <path id="Path_74" data-name="Path 74" d="M1159.274,2005.819a1.271,1.271,0,1,1-1.271-1.27,1.271,1.271,0,0,1,1.271,1.27" transform="translate(-1072.349 -1858.317)" fill="#fff"/>
      <path id="Path_75" data-name="Path 75" d="M1114.81,2005.819a1.272,1.272,0,1,1-1.271-1.27,1.271,1.271,0,0,1,1.271,1.27" transform="translate(-1031.126 -1858.317)" fill="#fff"/>
      <path id="Path_76" data-name="Path 76" d="M286.038,2005.819a1.271,1.271,0,1,1-1.271-1.27,1.271,1.271,0,0,1,1.271,1.27" transform="translate(-262.815 -1858.317)" fill="#fff"/>
      <path id="Path_77" data-name="Path 77" d="M241.59,2005.819a1.271,1.271,0,1,1-1.271-1.27,1.271,1.271,0,0,1,1.271,1.27" transform="translate(-221.609 -1858.317)" fill="#fff"/>
      <path id="Path_78" data-name="Path 78" d="M101.917,1791.631a1.271,1.271,0,1,1-1.271-1.27,1.272,1.272,0,0,1,1.271,1.27" transform="translate(-92.126 -1659.754)" fill="#fff"/>
      <path id="Path_79" data-name="Path 79" d="M57.462,1791.631a1.271,1.271,0,1,1-1.271-1.27,1.272,1.272,0,0,1,1.271,1.27" transform="translate(-50.914 -1659.754)" fill="#fff"/>
      <path id="Path_80" data-name="Path 80" d="M1486.434,1083.581a.606.606,0,0,1,.671-.528.594.594,0,0,1,.4.227.58.58,0,0,1,.124.445,47.709,47.709,0,0,1-1.938,7.469l0,0q-1.722,5.5-8.808,7.816h0q-1.375.457-2.813.961h0q-4.793,1.709-7.119,2.511a.553.553,0,0,1-.064.018q-1.377.483-3.419,1.1-1.981.588-4.6,1.315h0q-.721.2-1.4.384a.516.516,0,0,1-.06.015c-.2.045-.393.095-.581.151a.908.908,0,0,1-.1.034,40.479,40.479,0,0,1-8.643,1.579q-.888,0-4.4-.2-5.438-.066-7.454,4.043a.574.574,0,0,1-.343.3.586.586,0,0,1-.464-.026.579.579,0,0,1-.305-.343.6.6,0,0,1,.026-.464q2.292-4.81,8.582-4.72h.027q3.456.2,4.331.2h0a39.292,39.292,0,0,0,8.136-1.489.617.617,0,0,1,.253-.075c.223-.066.453-.125.69-.178l.034-.007q.642-.174,1.327-.371h0q2.6-.72,4.573-1.308,2.067-.62,3.444-1.108a.4.4,0,0,1,.086-.022q2.322-.8,7.012-2.481h0q1.444-.509,2.828-.97h0q6.428-2.1,8.039-7.038v0a47.467,47.467,0,0,0,1.889-7.25" transform="translate(-1330.416 -1004.04)" fill="#fff" fill-rule="evenodd"/>
      <path id="Path_81" data-name="Path 81" d="M1218.734,262.951a.723.723,0,0,1,.1.038q5.594,2.615,10.919,9.679v0q1.1,1.448,2.164,3.08,1.634,2.486,3.2,5.384a.349.349,0,0,1,.026.061q.824,1.537,2.753,5.5a.155.155,0,0,1,.01.023.563.563,0,0,1,.05.094q.138.335,1.3,3.412v0a36.7,36.7,0,0,0,1.535,3.559,12.232,12.232,0,0,0,5.2,5.61,48.82,48.82,0,0,0,10.078,3.846.6.6,0,0,1-.295,1.169,49.94,49.94,0,0,1-10.327-3.936,13.29,13.29,0,0,1-5.734-6.139h0a37.3,37.3,0,0,1-1.591-3.68v0q-1.079-2.86-1.265-3.326c0-.011-.009-.022-.014-.034l-.009-.018-.026-.045q-1.946-4-2.756-5.512c-.009-.019-.019-.038-.027-.056q-1.526-2.821-3.122-5.245-1.044-1.6-2.118-3.012v0q-5.085-6.746-10.41-9.283a.434.434,0,0,1-.06-.023,40.464,40.464,0,0,0-10.111-2.8l-.02,0-9.29-1.787a.6.6,0,0,1,.226-1.184l9.291,1.787a41.588,41.588,0,0,1,10.319,2.858" transform="translate(-1110.985 -239.452)" fill="#fff" fill-rule="evenodd"/>
      <path id="Path_82" data-name="Path 82" d="M477.191,5.659l0,0q1.253.943,4.129,3.148a55.774,55.774,0,0,0,4.811,3.216l0,0q1.478.849,4.419,2.737a.592.592,0,0,1,.264.381.572.572,0,0,1-.079.452.584.584,0,0,1-.381.264.575.575,0,0,1-.452-.079q-2.911-1.867-4.374-2.707l0,0a56.844,56.844,0,0,1-4.916-3.284l-.041-.034q-2.845-2.181-4.091-3.118l0,0q-.836-.617-1.508-1.124l-.011-.008c-.063-.05-.125-.1-.189-.143l-.011-.008q-7.83-5.828-18.415-3.439a.578.578,0,0,1-.071.023q-1.047.25-2.078.588-.615.2-1.222.426c-.02.011-.039.021-.06.03a11.139,11.139,0,0,0-4.852,3.8v0q-1.575,2.376.46,7.058a.6.6,0,0,1-.317.8.576.576,0,0,1-.46.008.59.59,0,0,1-.332-.321q-2.368-5.454-.339-8.234v0A12.187,12.187,0,0,1,452.349,1.9a.576.576,0,0,1,.1-.053q.675-.253,1.358-.475,1.032-.34,2.077-.6l.079-.023q11.214-2.566,19.5,3.62l.011.007c.074.053.149.108.222.166q.665.5,1.494,1.112" transform="translate(-413.585 -0.001)" fill="#fff" fill-rule="evenodd"/>
      <path id="Path_83" data-name="Path 83" d="M251.008,278.711q-5.409.792-5.245,6.61.172,6.073,3.438,9.113a17.911,17.911,0,0,1,4.988,7.462,22.743,22.743,0,0,0,5.184,7.484.6.6,0,1,1-.8.9,23.721,23.721,0,0,1-5.493-7.91c-.01-.021-.019-.043-.027-.064a16.759,16.759,0,0,0-4.668-6.986q-3.641-3.309-3.831-9.965-.2-6.926,6.278-7.839,5.534-.8,6.545-2.386a.587.587,0,0,1,.366-.283.576.576,0,0,1,.456.056.606.606,0,0,1,.227.822q-1.069,2.064-7.421,2.982" transform="translate(-226.711 -254.779)" fill="#fff" fill-rule="evenodd"/>
      <path id="Path_84" data-name="Path 84" d="M553.014,920.568a.6.6,0,0,1,.332-.783.569.569,0,0,1,.46,0,.582.582,0,0,1,.324.328q.475,1.165.89,2.454l0,0q.746,2.393,1.847,7.665v.008q.25,1.249.683,3.815a12.6,12.6,0,0,0,1.315,3.692l0,.006a10.279,10.279,0,0,0,3.121,3.322q1.691,1.183,4.212,2.707a16.255,16.255,0,0,1,5.946,6.617q2.2,4.227,7.333,12.74,2.41,4,5.094,4.691,2.632.589,5.58-2.032,4.7-4.177,9.686-2.557a.6.6,0,0,1-.369,1.146q-4.378-1.369-8.517,2.314-3.5,3.111-6.663,2.3-3.112-.7-5.844-5.236-5.163-8.559-7.371-12.808a15.155,15.155,0,0,0-5.5-6.142q-2.56-1.549-4.279-2.752a11.414,11.414,0,0,1-3.481-3.713.024.024,0,0,0,0-.008,13.649,13.649,0,0,1-1.451-4.053.413.413,0,0,1-.007-.056q-.426-2.527-.671-3.759v.006q-1.086-5.194-1.817-7.551l0,0q-.4-1.244-.86-2.371" transform="translate(-512.629 -852.643)" fill="#fff" fill-rule="evenodd"/>
      <path id="Path_85" data-name="Path 85" d="M1107.091,701.168h1.2l-.6-1.02Z" transform="translate(-1026.329 -649.072)" fill="#fff"/>
      <path id="Path_86" data-name="Path 86" d="M1132.322,657.406l-.6,1.02h1.2Z" transform="translate(-1049.159 -609.448)" fill="#fff"/>
      <path id="Path_87" data-name="Path 87" d="M1155.59,700.856h1.2l-.6-1.02Z" transform="translate(-1071.29 -648.782)" fill="#fff"/>
      <path id="Path_88" data-name="Path 88" d="M1486.224,909.138v2.346l14.3-2.1V898.446h-14.3Z" transform="translate(-1377.804 -832.904)" fill="#fff"/>
      <path id="Path_89" data-name="Path 89" d="M936.106,464.007a3.655,3.655,0,0,0-1.38-.643,4,4,0,0,0-3.057.239,2.856,2.856,0,0,0-1.146,1.688,10.757,10.757,0,0,1,1.245-.076,5.317,5.317,0,0,1,5.339,3.255,20.516,20.516,0,0,0-1-4.464" transform="translate(-862.641 -429.397)" fill="#fff"/>
      <path id="Path_90" data-name="Path 90" d="M1208.129,723.368a.26.26,0,0,1,0-.034c.006-.048.015-.1.027-.153a3.524,3.524,0,0,1,.32-.9,3.586,3.586,0,0,1,.475-.705,2.832,2.832,0,0,1,4.364,0,3.669,3.669,0,0,1,.484.706,3.527,3.527,0,0,1,.312.873,1.029,1.029,0,0,1,.028.144.261.261,0,0,1,0,.034v6.335h5.05V718.853a.724.724,0,0,0-.724-.725h-9.428a.275.275,0,0,1-.044,0,3.933,3.933,0,0,1-1.834-.812,5.681,5.681,0,0,1-1.681-2.546v14.9h2.646Z" transform="translate(-1117.543 -662.625)" fill="#fff"/>
      <path id="Path_91" data-name="Path 91" d="M1689.615,1023.409l1.247-.181v-1.7l-1.247.154Z" transform="translate(-1566.358 -947.003)" fill="#fff"/>
      <path id="Path_92" data-name="Path 92" d="M1689.615,994.13l1.247-.154v-1.589l-1.247.107Z" transform="translate(-1566.358 -919.992)" fill="#fff"/>
      <path id="Path_93" data-name="Path 93" d="M1689.615,963.035l1.247-.107v-1.742l-1.247.064Z" transform="translate(-1566.358 -891.069)" fill="#fff"/>
      <path id="Path_94" data-name="Path 94" d="M1689.615,932.1l1.247-.064V930.32l-1.247.027Z" transform="translate(-1566.358 -862.453)" fill="#fff"/>
      <path id="Path_95" data-name="Path 95" d="M1689.615,900.266l1.247-.026v-1.793h-1.247Z" transform="translate(-1566.358 -832.905)" fill="#fff"/>
      <path id="Path_96" data-name="Path 96" d="M1091.1,622.706h-8.426v21.613h8.426Zm-5.545,3.682,1.072-1.81a.266.266,0,0,1,.229-.13h0a.266.266,0,0,1,.229.131l1.065,1.81a.266.266,0,0,1-.229.4h-2.137a.266.266,0,0,1-.229-.4m.8,3.386a.266.266,0,0,1-.231.134h-2.137a.266.266,0,0,1-.229-.4l1.065-1.81a.266.266,0,0,1,.229-.131h0a.266.266,0,0,1,.229.13l1.073,1.81a.266.266,0,0,1,0,.268m3.536-.022a.266.266,0,0,1-.231.134h-2.137a.266.266,0,0,1-.229-.4l1.073-1.81a.266.266,0,0,1,.229-.13h0a.266.266,0,0,1,.229.131l1.065,1.81a.267.267,0,0,1,0,.267" transform="translate(-1003.696 -577.28)" fill="#fff"/>
      <path id="Path_97" data-name="Path 97" d="M853.8,811.65c.016.031.04.076.165.09a.664.664,0,0,0,.357-.1.6.6,0,0,0,.261-.26.261.261,0,0,0,.028-.108.372.372,0,0,0-.005-.063l-.007-.013c-.013-.021-.043-.06-.156-.07a.534.534,0,0,0-.061,0,.613.613,0,0,0-.309.091.556.556,0,0,0-.253.263c-.055.112-.033.149-.022.17" transform="translate(-791.498 -751.953)" fill="#fff"/>
      <path id="Path_98" data-name="Path 98" d="M822.546,771.927l.089.2,1.771-1.012-.089-.2Z" transform="translate(-762.542 -714.677)" fill="#fff"/>
      <path id="Path_99" data-name="Path 99" d="M941.757,533.52c-.038-.433-.09-.848-.154-1.236-1.244-1.9-2.663-2.747-4.339-2.594-.862.087-1.526.768-1.977,2.027a6.79,6.79,0,0,1,2.433-.519,4.121,4.121,0,0,1,.779.072c1.535.291,2.628,1.494,3.265,3.584v-.813c-.005-.152-.008-.309-.008-.464Z" transform="translate(-867.057 -491.033)" fill="#fff"/>
      <path id="Path_100" data-name="Path 100" d="M771.1,770.972l-.007-.013c-.013-.021-.043-.06-.156-.07a.587.587,0,0,0-.369.088.556.556,0,0,0-.253.263c-.055.112-.032.151-.021.17l.008.016a.1.1,0,0,0,.031.037.243.243,0,0,0,.121.037.67.67,0,0,0,.362-.1.6.6,0,0,0,.261-.26.26.26,0,0,0,.028-.108.362.362,0,0,0-.005-.063" transform="translate(-714.089 -714.65)" fill="#fff"/>
      <path id="Path_101" data-name="Path 101" d="M823.063,828.159c-.055.112-.033.15-.021.17s.04.076.165.09a.666.666,0,0,0,.357-.1.6.6,0,0,0,.261-.26.294.294,0,0,0,.029-.133l-.031-.073a.255.255,0,0,0-.141-.048.493.493,0,0,0-.058,0,.614.614,0,0,0-.308.092.555.555,0,0,0-.253.263" transform="translate(-762.988 -767.416)" fill="#fff"/>
      <path id="Path_102" data-name="Path 102" d="M708.811,814.344a.626.626,0,0,0-.18-.028.5.5,0,0,0-.183.035c-.121.042-.132.085-.137.1s-.023.08.053.17a.6.6,0,0,0,.321.188.612.612,0,0,0,.376.006.28.28,0,0,0,.108-.071l.035-.105a.3.3,0,0,0-.06-.1.649.649,0,0,0-.333-.2" transform="translate(-656.634 -754.912)" fill="#fff"/>
      <path id="Path_103" data-name="Path 103" d="M945.558,377.616a3.425,3.425,0,0,0-2.513-1.075,3.073,3.073,0,0,0-1.967,1.189,8.7,8.7,0,0,1,5.26,5.615,5.733,5.733,0,0,1,1.114,1.209,20.164,20.164,0,0,1,.522-2.692,9.327,9.327,0,0,0-2.417-4.247" transform="translate(-872.427 -349.064)" fill="#fff"/>
      <path id="Path_104" data-name="Path 104" d="M1018.716,487.409q.05-.73.121-1.4a6.736,6.736,0,0,0-.651-.942,20.943,20.943,0,0,1,.53,2.339" transform="translate(-943.909 -449.684)" fill="#fff"/>
      <path id="Path_105" data-name="Path 105" d="M1060.505,486.134a5.216,5.216,0,0,1,.311-.714,3.415,3.415,0,0,1,2.482-2.026,1.922,1.922,0,0,1,2.1,1.1,3.51,3.51,0,0,0-.241-2.608,1.443,1.443,0,0,0-1.184-.534c-1.487.037-2.643,1.411-3.438,4.085q-.021.343-.033.7" transform="translate(-983.141 -446.233)" fill="#fff"/>
      <path id="Path_106" data-name="Path 106" d="M1034.617,466.348a13.919,13.919,0,0,1,1.228,3.284,34.729,34.729,0,0,0-.862-5.651c-.15.71-.273,1.5-.367,2.367" transform="translate(-959.142 -430.134)" fill="#fff"/>
      <path id="Path_107" data-name="Path 107" d="M1043.215,398.94a28.138,28.138,0,0,1,.924,4.616c.39-3,1.32-5.046,2.771-6.1a5.1,5.1,0,0,1,3.962-.745c-1.98-1.9-3.848-2.253-5.693-1.077a5.574,5.574,0,0,0-1.965,3.3" transform="translate(-967.113 -366.149)" fill="#fff"/>
      <path id="Path_108" data-name="Path 108" d="M1453.281,900.646l1.871-.042v-2.158h-1.871Z" transform="translate(-1347.264 -832.904)" fill="#fff"/>
      <path id="Path_109" data-name="Path 109" d="M853.422,186.922a.513.513,0,1,0-.359-.15.48.48,0,0,0,.359.15" transform="translate(-790.692 -172.341)" fill="#fff"/>
      <path id="Path_110" data-name="Path 110" d="M1178.521,473.409l-.127.339.328-.226a.266.266,0,0,1,.306,0l.365.261-.138-.379a.266.266,0,0,1,.1-.31l.2-.139h-.276a.266.266,0,0,1-.25-.175l-.135-.37-.142.373a.266.266,0,0,1-.249.172h-.269l.2.141a.266.266,0,0,1,.094.31" transform="translate(-1092.279 -437.951)" fill="#fff"/>
      <path id="Path_111" data-name="Path 111" d="M1242.241,402.681l-.374,1,.925-.634a.266.266,0,0,1,.305,0l.973.694-.389-1.063a.266.266,0,0,1,.1-.31l.706-.488h-.912a.267.267,0,0,1-.25-.175l-.354-.968-.364.97a.266.266,0,0,1-.249.173h-.9l.686.491a.266.266,0,0,1,.094.31" transform="translate(-1150.896 -371.504)" fill="#fff"/>
      <path id="Path_112" data-name="Path 112" d="M729.79,690.263c-.054,0-.088.017-.1.155v3.419h.19v-3.43c-.005-.115-.04-.134-.091-.144" transform="translate(-676.459 -639.909)" fill="#fff"/>
      <rect id="Rectangle_8" data-name="Rectangle 8" width="1.704" height="0.608" transform="translate(65.673 54.461)" fill="#fff"/>
      <path id="Path_113" data-name="Path 113" d="M1571.431,666.7a1.067,1.067,0,0,1-.192.153,1.317,1.317,0,0,0,.177.216,1.976,1.976,0,0,0,.634.451,1.318,1.318,0,0,0,.22.077.744.744,0,0,0-.064-.23,2.1,2.1,0,0,0-.452-.622,2.243,2.243,0,0,0-.2-.183,1.19,1.19,0,0,1-.118.137" transform="translate(-1456.617 -617.935)" fill="#fff"/>
      <path id="Path_114" data-name="Path 114" d="M1542.345,637.933a1.481,1.481,0,0,0,.164.142,1.031,1.031,0,0,1,.159-.2,1.067,1.067,0,0,1,.142-.12,1.9,1.9,0,0,0-.135-.15,2.109,2.109,0,0,0-.639-.461.745.745,0,0,0-.221-.072.822.822,0,0,0,.068.223,2.1,2.1,0,0,0,.461.64" transform="translate(-1429.342 -590.596)" fill="#fff"/>
      <path id="Path_115" data-name="Path 115" d="M1542.915,666.438a1.62,1.62,0,0,0-.178.154,2.069,2.069,0,0,0-.46.644.743.743,0,0,0-.062.213.859.859,0,0,0,.221-.061,2.1,2.1,0,0,0,.632-.458,1.445,1.445,0,0,0,.161-.191,1.134,1.134,0,0,1-.192-.155,1.1,1.1,0,0,1-.123-.146" transform="translate(-1429.711 -617.821)" fill="#fff"/>
      <path id="Path_116" data-name="Path 116" d="M902.325,602.63a11.411,11.411,0,0,0,0-12.952,7.154,7.154,0,0,0-2.084-1.926v3.7a3.648,3.648,0,0,1,.416.359,2.039,2.039,0,0,1,.154.155,3.68,3.68,0,0,1,.966,2.551,4,4,0,0,1-.155,1.124,3.608,3.608,0,0,1-.812,1.435,2.215,2.215,0,0,1-.163.163,3.931,3.931,0,0,1-.406.343V598.8h1.97a.266.266,0,0,1,.266.266v1.141a.266.266,0,0,1-.266.266h-1.97v4.083a7.121,7.121,0,0,0,2.083-1.93" transform="translate(-834.569 -544.876)" fill="#fff"/>
      <path id="Path_117" data-name="Path 117" d="M1555.861,650.692a.486.486,0,0,0,.117.18.492.492,0,0,0,.242.141.144.144,0,0,0,.25,0l.024-.008a.489.489,0,0,0,.218-.13.508.508,0,0,0,.132-.2.268.268,0,0,1,.1-.135.264.264,0,0,1-.087-.141.528.528,0,0,0-.143-.255.464.464,0,0,0-.189-.117l-.015-.005a.268.268,0,0,1-.156-.121.258.258,0,0,1-.157.116.49.49,0,0,0-.347.369.272.272,0,0,1-.08.155.267.267,0,0,1,.094.158m.218-.454a.4.4,0,0,1,.281-.114.389.389,0,0,1,.4.4.4.4,0,0,1-.4.4.388.388,0,0,1-.281-.122.373.373,0,0,1-.114-.274.382.382,0,0,1,.114-.281" transform="translate(-1442.274 -602.485)" fill="#fff"/>
      <path id="Path_118" data-name="Path 118" d="M1572.16,637.827a1.354,1.354,0,0,0,.184-.156,2.19,2.19,0,0,0,.469-.648.9.9,0,0,0,.056-.21.84.84,0,0,0-.212.061,2.066,2.066,0,0,0-.644.459,1.621,1.621,0,0,0-.155.178,1.049,1.049,0,0,1,.147.122,1.088,1.088,0,0,1,.154.194" transform="translate(-1457.192 -590.357)" fill="#fff"/>
      <path id="Path_119" data-name="Path 119" d="M1427.987,456.728l-.127.339.328-.226a.266.266,0,0,1,.306,0l.365.261-.138-.379a.266.266,0,0,1,.1-.31l.2-.139h-.276a.266.266,0,0,1-.25-.175l-.135-.37-.142.373a.266.266,0,0,1-.249.172h-.269l.2.141a.266.266,0,0,1,.094.31" transform="translate(-1323.547 -422.486)" fill="#fff"/>
      <path id="Path_120" data-name="Path 120" d="M1453.281,1014.383l1.871-.225v-2.174l-1.871.16Z" transform="translate(-1347.264 -938.161)" fill="#fff"/>
      <path id="Path_121" data-name="Path 121" d="M1453.281,1051.53l1.871-.272v-2.124l-1.871.225Z" transform="translate(-1347.264 -972.6)" fill="#fff"/>
      <path id="Path_122" data-name="Path 122" d="M912.905,602.079a10.319,10.319,0,0,0,0-12.24,6.22,6.22,0,0,0-3.6-2.379,8.287,8.287,0,0,1,1.587,1.628,11.942,11.942,0,0,1,0,13.59,7.965,7.965,0,0,1-1.869,1.836l.069-.011a5.466,5.466,0,0,0,1.242-.366,6.712,6.712,0,0,0,2.57-2.058" transform="translate(-842.711 -544.605)" fill="#fff"/>
      <path id="Path_123" data-name="Path 123" d="M1453.281,975.436l1.871-.16v-2.312l-1.871.095Z" transform="translate(-1347.264 -901.986)" fill="#fff"/>
      <path id="Path_124" data-name="Path 124" d="M1184.355,1128.84v-4.069h-3.3a4.952,4.952,0,0,0,1.742,3.9,7.65,7.65,0,0,1,1.233,1.166h5.6a6.439,6.439,0,0,1,.709-.73h-5.721a.266.266,0,0,1-.266-.266" transform="translate(-1094.902 -1042.719)" fill="#fff"/>
      <path id="Path_125" data-name="Path 125" d="M1453.281,937.634l1.871-.095v-2.213l-1.871.042Z" transform="translate(-1347.264 -867.094)" fill="#fff"/>
      <path id="Path_126" data-name="Path 126" d="M972.109,1213.477h3.043l-1.524-2.486Z" transform="translate(-901.194 -1122.649)" fill="#fff"/>
      <path id="Path_127" data-name="Path 127" d="M917.066,1213.45h3.063l-1.543-2.488Z" transform="translate(-850.166 -1122.622)" fill="#fff"/>
      <path id="Path_128" data-name="Path 128" d="M1241.247,1124.77h-7.721v3.8h6.094a5,5,0,0,0,1.627-3.8" transform="translate(-1143.541 -1042.718)" fill="#fff"/>
      <path id="Path_129" data-name="Path 129" d="M1085.5,1108.777l-.126,0a1.549,1.549,0,0,0-1.593,1.045,3.9,3.9,0,0,0-.115,2.232,1.218,1.218,0,0,0,1.326,1.028h1.465v-3.453a.79.79,0,0,0-.172-.627,1.091,1.091,0,0,0-.785-.228" transform="translate(-1004.511 -1027.892)" fill="#fff"/>
      <path id="Path_130" data-name="Path 130" d="M1027.57,1213.477h3.043l-1.524-2.486Z" transform="translate(-952.609 -1122.649)" fill="#fff"/>
      <path id="Path_131" data-name="Path 131" d="M900.417,652.565a3.081,3.081,0,0,0,.695-1.227,3.478,3.478,0,0,0,.134-.976,3.123,3.123,0,0,0-.828-2.194,1.7,1.7,0,0,0-.125-.126l-.05-.049v4.743l.043-.041a1.787,1.787,0,0,0,.132-.131" transform="translate(-834.569 -600.723)" fill="#fff"/>
      <rect id="Rectangle_9" data-name="Rectangle 9" width="3.209" height="0.715" transform="translate(75.506 70.713)" fill="#fff"/>
      <path id="Path_132" data-name="Path 132" d="M740.033,858.832h-4.38l-.211.608h4.98Z" transform="translate(-681.792 -796.18)" fill="#fff"/>
      <rect id="Rectangle_10" data-name="Rectangle 10" width="3.209" height="0.715" transform="translate(53.178 70.713)" fill="#fff"/>
      <path id="Path_133" data-name="Path 133" d="M711.885,878.462a.9.9,0,0,1,.83-.8.27.27,0,0,1,.043,0h17.375c.366-.027.386-.17.375-.34-.02-.248-.122-.349-.375-.367H713.981c-.586-.053-.919-.378-.912-.892a.856.856,0,0,1,.92-.87h14.776c.319-.017.315-.145.312-.258,0-.145-.051-.325-.363-.457H712.946l-1.57,4.487h.606a.8.8,0,0,1-.1-.494" transform="translate(-659.481 -810.677)" fill="#fff"/>
      <rect id="Rectangle_11" data-name="Rectangle 11" width="3.209" height="0.715" transform="translate(64.288 70.713)" fill="#fff"/>
      <rect id="Rectangle_12" data-name="Rectangle 12" width="3.209" height="0.715" transform="translate(58.737 70.713)" fill="#fff"/>
      <rect id="Rectangle_13" data-name="Rectangle 13" width="3.209" height="0.715" transform="translate(69.916 70.713)" fill="#fff"/>
      <path id="Path_134" data-name="Path 134" d="M620.936,381.483v3.939c0,.007,0,.013,0,.02a1.525,1.525,0,0,1-.181.649c.243,0,.47-.009.683-.022a8.871,8.871,0,0,0,1.481-.221c.911-.2,1.355-.854,1.364-2.01v-4.57a7.658,7.658,0,0,0-2.655,1.556c-.231.2-.464.421-.692.658" transform="translate(-575.47 -351.601)" fill="#fff"/>
      <path id="Path_135" data-name="Path 135" d="M676.238,375.34a.266.266,0,0,1,.013.083v3.167a2.156,2.156,0,0,0,1.5-.31.878.878,0,0,0,.29-.645v-2.451q-.246.01-.509.01a5.808,5.808,0,0,0-1.291.145" transform="translate(-626.906 -347.815)" fill="#fff"/>
      <path id="Path_136" data-name="Path 136" d="M649.176,823.654v-1.542a3.7,3.7,0,0,1-2.595.836,3.057,3.057,0,0,0,2.595.706" transform="translate(-599.413 -762.139)" fill="#fff"/>
      <path id="Path_137" data-name="Path 137" d="M741.93,875.716H727.164c-.375.024-.409.184-.411.346s.028.316.416.354H743.31a.863.863,0,0,1,.879.861c.036.539-.285.87-.878.91h-17.38c-.3.054-.351.192-.367.334-.008.071-.029.256.4.435h20.032l-2.883-4.487h-.461a1,1,0,0,1,.112.44c.007.229-.06.767-.83.806" transform="translate(-672.632 -810.677)" fill="#fff"/>
      <path id="Path_138" data-name="Path 138" d="M391.359,302.154a7.277,7.277,0,0,1,4.813-1.974c1.658,0,2.784-.294,3.347-.866a1.54,1.54,0,0,0,.433-1.161,1.253,1.253,0,0,0-.419-.935c-.679-.621-2.173-.866-4.44-.727a.266.266,0,0,1-.114-.513c.875-.345.92-.559.922-.568s-.017-.049-.077-.1a2.88,2.88,0,0,0-1.88-.468,5.75,5.75,0,0,0-2.223.344l-.02.008a.157.157,0,0,0-.032.014.276.276,0,0,1-.035.018,6.9,6.9,0,0,0-3.409,3.376,6.861,6.861,0,0,1-4.458,3.855,36.212,36.212,0,0,1-5.663.7c-2.294.138-3.8.494-4.485,1.057a1.9,1.9,0,0,0-.864,1.723,2.064,2.064,0,0,0,1.289,1.517,8.108,8.108,0,0,0,2.872.831q.5.07.95.122h0c.828.09,1.616.154,2.341.189h0c.489.02.962.028,1.406.023,2.8.06,4.55-.256,5.2-.937a13.406,13.406,0,0,0,1.64-2.027,17.7,17.7,0,0,1,2.1-2.726c.263-.279.533-.538.8-.77" transform="translate(-345.55 -273.333)" fill="#fff"/>
      <path id="Path_139" data-name="Path 139" d="M1186.861,1272.064a.266.266,0,0,1-.218.113h-7.377a.286.286,0,0,0-.206.061c-.015.019-.056.1,0,.339l.919,2.46h9.6a3.09,3.09,0,0,1,.25-4.074,3.109,3.109,0,0,1,.747-.557h-1.5a6.435,6.435,0,0,0-.6.28,4.572,4.572,0,0,0-1.627,1.379" transform="translate(-1093.023 -1177.729)" fill="#fff"/>
      <path id="Path_140" data-name="Path 140" d="M696.907,949.448h27.072a4.457,4.457,0,0,1,2.562-2.684,4.909,4.909,0,0,0,2.367-2.646,6.737,6.737,0,0,0,.274-.845H696.2l-.8,2.279a4.29,4.29,0,0,0-.15.541,1.166,1.166,0,0,0,.131.955l.016.022,1.5,2.378h.019m22.556-4.54a.266.266,0,0,1,.266-.266h3.742a.266.266,0,0,1,.266.266v1.247a.266.266,0,0,1-.266.266h-3.742a.266.266,0,0,1-.266-.266Zm-5.59,0a.266.266,0,0,1,.266-.266h3.742a.266.266,0,0,1,.266.266v1.247a.266.266,0,0,1-.266.266H714.14a.266.266,0,0,1-.266-.266Zm-5.628,0a.266.266,0,0,1,.266-.266h3.742a.266.266,0,0,1,.266.266v1.247a.266.266,0,0,1-.266.266h-3.742a.266.266,0,0,1-.266-.266Zm-5.552,0a.266.266,0,0,1,.266-.266H706.7a.266.266,0,0,1,.266.266v1.247a.266.266,0,0,1-.266.266H702.96a.266.266,0,0,1-.266-.266Zm-5.559,0a.266.266,0,0,1,.266-.266h3.742a.266.266,0,0,1,.266.266v1.247a.266.266,0,0,1-.266.266H697.4a.266.266,0,0,1-.266-.266Z" transform="translate(-644.49 -874.461)" fill="#fff"/>
      <path id="Path_141" data-name="Path 141" d="M1034.272,1291.151a1.213,1.213,0,1,0,.854.355,1.162,1.162,0,0,0-.854-.355m.761,1.972a1.08,1.08,0,1,1-.006-1.532l.006.006a1.092,1.092,0,0,1,0,1.526" transform="translate(-957.694 -1196.962)" fill="#fff"/>
      <path id="Path_142" data-name="Path 142" d="M1349.79,1300.22a.539.539,0,1,0,.387.155.533.533,0,0,0-.387-.155" transform="translate(-1250.815 -1205.369)" fill="#fff"/>
      <path id="Path_143" data-name="Path 143" d="M1072.5,1317.991h-5.938a.266.266,0,1,1,0-.532h.6c-.076-.582-.425-1.218-1.836-1.293a2.965,2.965,0,0,1-.847,1.573,3.008,3.008,0,0,1-1.192.747h20.436a2.909,2.909,0,0,1-.911-.494Z" transform="translate(-985.719 -1220.151)" fill="#fff"/>
      <path id="Path_144" data-name="Path 144" d="M1042.672,1300.22a.551.551,0,0,0-.387.94.529.529,0,0,0,.387.155.535.535,0,0,0,.393-.161.548.548,0,0,0-.393-.934" transform="translate(-966.101 -1205.369)" fill="#fff"/>
      <path id="Path_145" data-name="Path 145" d="M1019.989,1275.86c.009-.1.014-.2.014-.3a2.544,2.544,0,1,0-4.344,1.8c.056.056.114.109.174.16l.019.018.011.011a2.552,2.552,0,0,0,4.126-1.685m-1.3.922a1.744,1.744,0,1,1,.511-1.23,1.684,1.684,0,0,1-.511,1.23" transform="translate(-940.877 -1180.145)" fill="#fff"/>
      <path id="Path_146" data-name="Path 146" d="M1358.452,1247.092a2.983,2.983,0,0,1,.9,2.181,3.279,3.279,0,0,1-.076.715l.832-.375c-.141-1.3,0-2.145.439-2.564a1.077,1.077,0,0,1,.776-.3l.3-2.094h-5.4v1.537h.053a2.973,2.973,0,0,1,2.173.9" transform="translate(-1257.29 -1153.859)" fill="#fff"/>
      <path id="Path_147" data-name="Path 147" d="M467.21,597.5a7.81,7.81,0,0,1-1.36-.113,2.6,2.6,0,0,0,2.012,2.713,22.038,22.038,0,0,1-.441-2.6l-.21,0" transform="translate(-431.866 -553.81)" fill="#fff"/>
      <path id="Path_148" data-name="Path 148" d="M1071.045,1237.578c0,.024,0,.047,0,.07,1.714.1,2.226.988,2.319,1.823h4.416l-.854-2.287a.229.229,0,0,1-.008-.026.917.917,0,0,1,.083-.806.759.759,0,0,1,.625-.272h7.248a5,5,0,0,1,1.441-1.266.271.271,0,0,1-.077-.056l-.75-.792h-2.228a.266.266,0,0,1-.13-.034l-3.377-1.89h-.889v1.658a.266.266,0,0,1-.266.266h-1.06l-1.487,1.826a.266.266,0,0,1-.206.1h-2.654a.266.266,0,0,1-.2-.088l-.864-.961H1069.4a3.114,3.114,0,0,1,.746.557,2.981,2.981,0,0,1,.9,2.181" transform="translate(-991.386 -1142.165)" fill="#fff"/>
      <path id="Path_149" data-name="Path 149" d="M956.9,1270.963a3.108,3.108,0,0,1,.747-.557h-.725l-.308.4h0l-.387.508a.266.266,0,0,1-.146.1,5.886,5.886,0,0,0-3.173,2.129h0a9.567,9.567,0,0,0-.969,1.5h4.711a3.091,3.091,0,0,1,.25-4.074" transform="translate(-882.492 -1177.73)" fill="#fff"/>
      <path id="Path_150" data-name="Path 150" d="M934.189,1278.526a9.556,9.556,0,0,0-5.331,2.107h2.318a6.439,6.439,0,0,1,3.012-2.107" transform="translate(-861.098 -1185.258)" fill="#fff"/>
      <path id="Path_151" data-name="Path 151" d="M448.062,488.571c-.576-.032-1.188-.082-1.825-.147v.4c.01.257.1.538.654.6l1.186.144a1.416,1.416,0,0,1-.014-.279Z" transform="translate(-413.684 -452.794)" fill="#fff"/>
      <path id="Path_152" data-name="Path 152" d="M1341.388,1291.151a1.213,1.213,0,1,0,.854.355,1.162,1.162,0,0,0-.854-.355m.762,1.972a1.093,1.093,0,1,1,.311-.763,1.069,1.069,0,0,1-.311.763" transform="translate(-1242.406 -1196.962)" fill="#fff"/>
      <path id="Path_153" data-name="Path 153" d="M636.376,164.821a.508.508,0,0,0,.359-.869.493.493,0,0,0-.213-.13.548.548,0,0,0-.293,0,.492.492,0,0,0-.212.13.51.51,0,0,0,.359.869" transform="translate(-589.48 -151.853)" fill="#fff"/>
      <path id="Path_154" data-name="Path 154" d="M699.245,163.073h-9.8v6.616h9.8Zm-.981,5.43a.266.266,0,0,1-.266.266h-7.141a.266.266,0,0,1-.266-.266v-4.274a.266.266,0,0,1,.266-.266H698a.266.266,0,0,1,.266.266Z" transform="translate(-639.155 -151.177)" fill="#fff"/>
      <path id="Path_155" data-name="Path 155" d="M1326.887,1276.652a2.547,2.547,0,0,0,.232-1.094,2.544,2.544,0,1,0-4.344,1.8c.056.056.114.109.172.159l0,0a2.556,2.556,0,0,0,3.427-.16,2.662,2.662,0,0,0,.511-.7m-1.085.129a1.745,1.745,0,1,1,.511-1.23,1.685,1.685,0,0,1-.511,1.23" transform="translate(-1225.589 -1180.145)" fill="#fff"/>
      <path id="Path_156" data-name="Path 156" d="M433.809,535.193a5.436,5.436,0,0,0,2.187-.549c.671-.34,1-.72,1-1.163s-.335-.831-1-1.17a5.752,5.752,0,0,0-2.624-.549q-.1,0-.2.007a.267.267,0,0,1-.271-.18,1,1,0,0,0-.451-.491,2.686,2.686,0,0,0-2.615,0,.73.73,0,0,0,0,1.375l.019.013a.274.274,0,0,1,.162.181.268.268,0,0,1-.046.236.9.9,0,0,0-.215.579c0,.443.323.823.988,1.162a5.064,5.064,0,0,0,1.06.389,6.925,6.925,0,0,0,1.572.167q.222,0,.437-.007" transform="translate(-398.028 -492.04)" fill="#fff"/>
      <path id="Path_157" data-name="Path 157" d="M433.027,148.611a3.863,3.863,0,0,0-1.658-.814,13.883,13.883,0,0,0-1.635-.342q-.958-.145-1.795-.281-2.951-.494-4.388-.867-.47-.118-.943-.247a47.907,47.907,0,0,1-8.723-3.441,11.934,11.934,0,0,1-5-5.118q-.152-.272-.3-.555a32.776,32.776,0,0,1-1.483-3.445q-1.08-2.86-1.209-3.164a.331.331,0,0,0-.031-.061q-1.825-3.765-2.593-5.194-1.453-2.677-2.966-4.989-.981-1.5-2-2.844-4.829-6.411-9.909-8.8a34.46,34.46,0,0,0-11.423-3.171q-6.053-.738-8.457-1.97a14.185,14.185,0,0,1-1.939-1.331,7.4,7.4,0,0,0-2.16-1.179,28.845,28.845,0,0,1-5.118-2.411q-2.745-1.757-4.122-2.555a50.229,50.229,0,0,1-4.616-3.08q-2.7-2.069-3.871-2.958-3.955-2.928-4.145-3.08a18.123,18.123,0,0,0-2.015-1.255q-.16-.053-.319-.114a20.919,20.919,0,0,0-12.662,0q-.692.167-1.384.38-.92.274-1.833.616a16.943,16.943,0,0,0-2.829,1.331,5.922,5.922,0,0,0-1.491,1.217,3.627,3.627,0,0,0-.221.289,5.047,5.047,0,0,0-.51,2.768,5.17,5.17,0,0,0,.357,1.392q.068.175.152.35.16.555.373,1.285a25.072,25.072,0,0,1,.882,3.628,3.424,3.424,0,0,1-.449,1.506A6.514,6.514,0,0,1,319.1,102a8.844,8.844,0,0,1-3.749,1.932,13.852,13.852,0,0,1-3.392.388,5.528,5.528,0,0,1-2.2-.365.087.087,0,0,1-.023-.015,7,7,0,0,0-1.81-.327,3.571,3.571,0,0,0-1.164.148,2.624,2.624,0,0,0-.441.179A6.323,6.323,0,0,0,304.8,106.4a12.421,12.421,0,0,0-.654,4.274q0,2.608.882,3.384.112.112,1.742,1.145l.281.179a4.086,4.086,0,0,1,1.681,1.635q.57,1.392,1.369,3.711a12.882,12.882,0,0,0,2.03,3.453q1.384,1.681,6.282,7.141,4.327,4.8,6.031,7.057A23.861,23.861,0,0,1,328,145.554q.707,2.243,1.734,7.179.236,1.171.639,3.582a12.2,12.2,0,0,0,1.255,3.536q1.848,3.24,6.86,5.194.814,1.43,2.434,4.183,2.806,4.768,5.027,8.229,7.065,10.974,10.685,10.974,1.5,0,3.08-1.993a10.914,10.914,0,0,0,.989-1.46,3.9,3.9,0,0,0,.319-.73,46.609,46.609,0,0,0,5.514.517,19.069,19.069,0,0,0,4.1-.274q3.407-.677,5.012.707a7.051,7.051,0,0,0,4.206,1.551,4.086,4.086,0,0,0,4.031-2.35q.236-.426.9-1.9l.114-.244a2.887,2.887,0,0,1,.654-.989q.624-.449,1.323-.928,1.369-.935,3.011-1.977.631-.388,1.194-.723,1.376-.829,2.357-1.338.167.008.335.023,3.05.175,3.848.175a12.456,12.456,0,0,0,1.43-.1,44.168,44.168,0,0,0,4.533-.89q.905-.213,1.916-.479l.327-.087.358-.1.464-.122q.411-.106.837-.228,3.278-.905,5.5-1.6,1.164-.373,2.038-.677.723-.243,1.7-.586,1.97-.684,4.966-1.764.468-.165.928-.323,3.769-1.31,7.05-2.293a3.2,3.2,0,0,0,1.7-1.742,14.925,14.925,0,0,0,.981-2.54q.182-.631.357-1.346.19-.791.365-1.688a41.869,41.869,0,0,0,.943-7.582q0-2.791-.973-3.749m-39.112-24.118a.375.375,0,0,1,.21-.3.263.263,0,0,1,.116-.02.958.958,0,0,1,.63.1,2.616,2.616,0,0,1,.8.57,2.255,2.255,0,0,1,.319.4l.012.022.034.068a.829.829,0,0,1,.051-.109,2.005,2.005,0,0,1,.318-.409,2.584,2.584,0,0,1,.816-.575,1.1,1.1,0,0,1,.6-.094.268.268,0,0,1,.139.018.444.444,0,0,1,.2.23.27.27,0,0,1,.005.1,1.165,1.165,0,0,1-.09.589,2.708,2.708,0,0,1-.585.824,1.8,1.8,0,0,1-.411.312l-.1.051.068.032.026.015a2.475,2.475,0,0,1,.393.324,2.646,2.646,0,0,1,.573.8,1.268,1.268,0,0,1,.1.4.709.709,0,0,1-.008.226.348.348,0,0,1-.284.331.269.269,0,0,1-.058,0,1.037,1.037,0,0,1-.2.017.259.259,0,0,1-.046,0,1.632,1.632,0,0,1-.364-.117,2.467,2.467,0,0,1-.8-.558,1.794,1.794,0,0,1-.329-.438c-.009-.016-.018-.032-.026-.048-.008.016-.017.031-.027.047a1.882,1.882,0,0,1-.314.409,2.62,2.62,0,0,1-.806.574,1.1,1.1,0,0,1-.581.093l-.022,0a.265.265,0,0,1-.214-.077l-.024-.026-.022-.02a.266.266,0,0,1-.077-.214,1,1,0,0,1,.089-.611,2.588,2.588,0,0,1,.574-.814,2,2,0,0,1,.4-.315l.038-.021-.051-.028a1.908,1.908,0,0,1-.413-.317,2.623,2.623,0,0,1-.574-.806,1.017,1.017,0,0,1-.1-.624m2.311,4.124a.4.4,0,0,1-.4.4.386.386,0,0,1-.281-.122.374.374,0,0,1-.114-.274.382.382,0,0,1,.114-.281.4.4,0,0,1,.281-.114.39.39,0,0,1,.4.4m-1.772.951a.262.262,0,0,1-.084.19.246.246,0,0,1-.19.084.271.271,0,0,1-.2-.084.275.275,0,0,1-.076-.19.261.261,0,0,1,.274-.274.258.258,0,0,1,.19.076.27.27,0,0,1,.084.2m-1.46-2.882a.4.4,0,0,1,.281-.114.39.39,0,0,1,.4.4.4.4,0,0,1-.4.4.386.386,0,0,1-.281-.122.373.373,0,0,1-.114-.274.382.382,0,0,1,.114-.281m-1.305,7.659a3.068,3.068,0,0,0,1.379.38,3.11,3.11,0,0,0,1.461-.38.266.266,0,0,1,.247.472,3.619,3.619,0,0,1-1.685.441h-.03a3.593,3.593,0,0,1-1.62-.442.266.266,0,0,1,.249-.47m3.381,2.829a.382.382,0,0,1,.114.281.4.4,0,0,1-.4.4.386.386,0,0,1-.281-.122.373.373,0,0,1-.114-.274.382.382,0,0,1,.114-.281.4.4,0,0,1,.281-.114.383.383,0,0,1,.282.114m-3.263.281a.4.4,0,0,1-.4.4.386.386,0,0,1-.281-.122.373.373,0,0,1-.114-.274.382.382,0,0,1,.114-.281.4.4,0,0,1,.281-.114.39.39,0,0,1,.4.4m-.45-14.968a.266.266,0,0,1-.156.342,10.24,10.24,0,0,1-3.588.588q-.468,0-.957-.032a.266.266,0,1,1,.035-.531,10.408,10.408,0,0,0,4.323-.524.266.266,0,0,1,.342.156m-.93,2.521a3.834,3.834,0,0,1-1.476.253,17.891,17.891,0,0,1-6.273-1.683.266.266,0,1,1,.2-.492c3.581,1.486,6.05,1.967,7.34,1.43a.266.266,0,1,1,.2.491m.019,1.4a.36.36,0,0,1-.182.175.291.291,0,0,1-.243,0q-.038-.023-.069-.046a.251.251,0,0,1-.106-.129.3.3,0,0,1,0-.228.408.408,0,0,1,.175-.183.291.291,0,0,1,.243,0,.279.279,0,0,1,.16.145.343.343,0,0,1,.023.038.35.35,0,0,1,0,.228m-2.167,1a.235.235,0,0,1-.122.129.022.022,0,0,1-.015.008.226.226,0,0,1-.2,0,.253.253,0,0,1-.122-.106.05.05,0,0,0-.023-.03.266.266,0,0,1-.008-.167.118.118,0,0,1,.008-.031.227.227,0,0,1,.152-.137.21.21,0,0,1,.19,0,.231.231,0,0,1,.137.122v.015a.2.2,0,0,1,0,.2m-.145,1.262a.321.321,0,0,1,.19-.183.29.29,0,0,1,.266.008.281.281,0,0,1,.038.015.275.275,0,0,1,.16.175.307.307,0,0,1,0,.266.351.351,0,0,1-.2.182.275.275,0,0,1-.266,0,.349.349,0,0,1-.19-.19.324.324,0,0,1,0-.274m-4.28-.253a.266.266,0,0,1,.468-.255c1.092,2,1.535,3.361,1.357,4.148a.266.266,0,0,1-.519-.118c.1-.444-.044-1.461-1.3-3.776m.394,3.264c-.01.025-.018.043-.023.053a.162.162,0,0,1-.091.076.044.044,0,0,0-.03.015.241.241,0,0,1-.129.023.111.111,0,0,1-.069-.023.263.263,0,0,1-.129-.145.124.124,0,0,1-.023-.091.19.19,0,0,1,.023-.1.268.268,0,0,1,.342-.137.2.2,0,0,1,.137.137.2.2,0,0,1-.007.19m-1.7-6.569a.266.266,0,0,1,.335-.414c2.588,2.1,4.016,3.923,4.367,5.582a.266.266,0,0,1-.205.315.27.27,0,0,1-.056.006.266.266,0,0,1-.26-.211c-.32-1.513-1.727-3.289-4.181-5.278m2.9,0a.1.1,0,0,1,.076-.076.084.084,0,0,1,.106,0,.114.114,0,0,1,.076.076.148.148,0,0,1,0,.114.14.14,0,0,1-.076.076.148.148,0,0,1-.114,0,.151.151,0,0,1-.068-.19m4.494-4.251a.209.209,0,0,1,.152-.137.247.247,0,0,1,.19,0,.375.375,0,0,1,.1.069.289.289,0,0,1,.053.076.245.245,0,0,1-.015.205.258.258,0,0,1-.137.137.143.143,0,0,1-.046.008.336.336,0,0,1-.152-.023.229.229,0,0,1-.145-.137.328.328,0,0,1,0-.2m-.4-.7a.266.266,0,0,1,0,.376c-1.228,1.255-3.547,2.02-7.087,2.338h-.024a.266.266,0,0,1-.023-.531c3.361-.3,5.634-1.035,6.754-2.18a.266.266,0,0,1,.376,0m-4.019.723a.21.21,0,0,1,.114-.114.162.162,0,0,1,.152,0,.181.181,0,0,1,.114.122.162.162,0,0,1,0,.152.182.182,0,0,1-.114.114.2.2,0,0,1-.152,0,.21.21,0,0,1-.114-.114.177.177,0,0,1,0-.16m3.38-4.049a.266.266,0,0,1,.122.356c-.572,1.164-1.872,2.323-3.977,3.543a.266.266,0,0,1-.267-.461,9.262,9.262,0,0,0,3.766-3.317.266.266,0,0,1,.356-.122m-1.2-1.16a.227.227,0,0,1,.144-.144.274.274,0,0,1,.236,0,.174.174,0,0,1,.068.038.248.248,0,0,1,.084.122.278.278,0,0,1,0,.221.307.307,0,0,1-.084.122.512.512,0,0,1-.076.038.229.229,0,0,1-.228,0,.2.2,0,0,1-.091-.068.4.4,0,0,1-.038-.061.323.323,0,0,0-.015-.038.229.229,0,0,1,0-.228m-2.672-4.021a.266.266,0,0,1,.253-.185h.911l.331-.87a.269.269,0,0,1,.251-.172.266.266,0,0,1,.248.175l.317.867h.939a.266.266,0,0,1,.152.485l-.729.506.363.994a.266.266,0,0,1-.4.308l-.913-.652-.873.6a.266.266,0,0,1-.4-.313l.354-.942-.7-.5a.266.266,0,0,1-.1-.3m-1.017,4.059a.1.1,0,0,1,.038-.061.357.357,0,0,1,.129-.114.2.2,0,0,1,.122-.023.194.194,0,0,1,.091.03.3.3,0,0,1,.167.167.278.278,0,0,1,0,.221.308.308,0,0,1-.167.152.326.326,0,0,1-.091.03.285.285,0,0,1-.129-.03.311.311,0,0,1-.16-.152.328.328,0,0,1,0-.221m2.359-.024a.266.266,0,0,1,.5.186,13.249,13.249,0,0,1-4.474,5.691.266.266,0,0,1-.328-.42,12.731,12.731,0,0,0,4.3-5.457M381.38,120.4c1.192-2.818,1.353-5.3.479-7.391a.266.266,0,0,1,.491-.206c.932,2.223.771,4.849-.48,7.8a.266.266,0,1,1-.49-.207m1.631,11.041a.267.267,0,0,1-.252.182.262.262,0,0,1-.085-.014.266.266,0,0,1-.168-.337c.392-1.167-.168-3.513-1.665-6.973a.266.266,0,1,1,.489-.211c1.573,3.635,2.122,6.041,1.681,7.354m-1.2-1.986a.348.348,0,0,1-.16.16.3.3,0,0,1-.228,0,.2.2,0,0,1-.053-.038.247.247,0,0,1-.107-.122.3.3,0,0,1,0-.228.347.347,0,0,1,.16-.16.4.4,0,0,1,.175-.008.317.317,0,0,1,.053.008.4.4,0,0,1,.16.16.258.258,0,0,1,0,.228m-4.041,2.308a.266.266,0,0,1-.42-.327,12.7,12.7,0,0,0,2.455-6.5.266.266,0,0,1,.529.06,13.222,13.222,0,0,1-2.564,6.765m1.228.954a.451.451,0,0,1-.183.183.534.534,0,0,1-.068.023.286.286,0,0,1-.175-.023.3.3,0,0,1-.167-.183.258.258,0,0,1,0-.243.211.211,0,0,1,.106-.129.1.1,0,0,1,.061-.038.291.291,0,0,1,.243,0,.3.3,0,0,1,.183.167.653.653,0,0,1,0,.243m-4.017-3.3a.266.266,0,0,1-.515-.136c.457-1.73,2.2-3.506,5.186-5.279a.266.266,0,1,1,.272.458c-2.86,1.7-4.523,3.367-4.943,4.957m1.484-.684a.392.392,0,0,0-.038.061.492.492,0,0,1-.106.091.268.268,0,0,1-.2-.015.266.266,0,0,1-.137-.35l.015-.03a.254.254,0,0,1,.122-.106.267.267,0,0,1,.2,0,.283.283,0,0,1,.144.152.327.327,0,0,1,0,.2m2.974-5.795a.266.266,0,1,1-.031.531c-3.437-.2-5.722.247-6.791,1.335a.266.266,0,0,1-.38-.373c1.2-1.22,3.554-1.708,7.2-1.494m-5.438-.495a.258.258,0,0,1,.114-.106.276.276,0,0,1,.129,0c.005,0,.013.005.023.015a.261.261,0,0,1,.068.1.145.145,0,0,1,0,.129.2.2,0,0,1-.091.091.509.509,0,0,1-.061.015.151.151,0,0,1-.068-.015.219.219,0,0,1-.114-.1.282.282,0,0,1,0-.129m6.016-1.433a.266.266,0,0,1-.381.372,10.542,10.542,0,0,0-5.791-3.307.266.266,0,1,1,.083-.526,11.059,11.059,0,0,1,6.088,3.461m-5.08-4.7a.307.307,0,0,1,.16-.16.227.227,0,0,1,.205.008h.015a.251.251,0,0,1,.16.152.226.226,0,0,1,0,.213.275.275,0,0,1-.16.175.213.213,0,0,1-.106.031.43.43,0,0,1-.122-.031.407.407,0,0,1-.061-.038.952.952,0,0,1-.076-.068.181.181,0,0,1-.023-.068.214.214,0,0,1,.008-.213m3.924,1.224a.148.148,0,0,1,.122-.106.193.193,0,0,1,.167,0,.218.218,0,0,1,.106.106.3.3,0,0,0,.023.061.2.2,0,0,1-.023.091.3.3,0,0,1-.122.114.177.177,0,0,1-.16,0,.207.207,0,0,1-.114-.114.2.2,0,0,1,0-.152m-5.3-3.635.281.768-.677-.487-.631.441.251-.722-.525-.373h.677l.251-.654.236.654h.707Zm-.243,4.936a.162.162,0,0,1,0,.152.326.326,0,0,1-.106.114.245.245,0,0,1-.114.015.094.094,0,0,1-.053-.015.375.375,0,0,1-.114-.122.179.179,0,0,1,.015-.144.182.182,0,0,1,.114-.114.161.161,0,0,1,.152,0v.008a.158.158,0,0,1,.106.106m-1.057,1.02a10.388,10.388,0,0,1,7.07,2.317.266.266,0,0,1-.316.428,9.875,9.875,0,0,0-6.71-2.215.266.266,0,1,1-.045-.53m-.008,5.657a.323.323,0,0,1,.274,0,.274.274,0,0,1,.175.19.291.291,0,0,1,0,.274.187.187,0,0,1-.061.107.646.646,0,0,1-.114.091.422.422,0,0,1-.274,0,.379.379,0,0,1-.19-.2.323.323,0,0,1,0-.274.058.058,0,0,1,.008-.023.331.331,0,0,1,.183-.167m-.127,2a8.366,8.366,0,0,1,4.1-2.766.266.266,0,1,1,.183.5,7.862,7.862,0,0,0-3.844,2.572.266.266,0,0,1-.436-.306m6.21.6a.254.254,0,0,1-.114.106.188.188,0,0,1-.129,0,.161.161,0,0,1-.091-.106.145.145,0,0,1,0-.129.194.194,0,0,1,.091-.1.145.145,0,0,1,.129,0,.266.266,0,0,1,.114.1.275.275,0,0,1,0,.129m1.1,4.18a7.2,7.2,0,0,0,.917-4.111.266.266,0,0,1,.266-.267h0a.266.266,0,0,1,.266.265,7.682,7.682,0,0,1-1.015,4.421.266.266,0,0,1-.434-.309m.145-20.273a.266.266,0,0,1,.369.074c.064.1.129.2.192.312a10.067,10.067,0,0,1,1.137,4.31.266.266,0,0,1-.246.285h-.02a.266.266,0,0,1-.265-.246,9.559,9.559,0,0,0-1.067-4.083q-.088-.154-.174-.283a.266.266,0,0,1,.074-.369m-.263,2.252a.238.238,0,0,1,.122-.122.225.225,0,0,1,.152.008.085.085,0,0,0,.038.008.207.207,0,0,1,.076.107.179.179,0,0,1,0,.144.184.184,0,0,1-.122.129l-.008.008a.325.325,0,0,1-.1,0,.085.085,0,0,1-.038-.008.2.2,0,0,1-.106-.084l-.015-.046a.235.235,0,0,1,0-.144m-1.378.1a.266.266,0,0,1,.376-.024,9.594,9.594,0,0,1,2.941,6.547.266.266,0,0,1-.239.29h-.026a.266.266,0,0,1-.265-.241,9.086,9.086,0,0,0-2.763-6.2.266.266,0,0,1-.024-.376m.6,3.734a.266.266,0,1,1-.436.306c-1.161-1.655-2.326-2.622-3.46-2.874a.266.266,0,1,1,.116-.52c1.268.282,2.54,1.321,3.78,3.088m-1.61-4.79a.206.206,0,0,1,.137.137.2.2,0,0,1,.015.167.031.031,0,0,1-.015.03.206.206,0,0,1-.137.145.194.194,0,0,1-.182,0,.209.209,0,0,1-.152-.145.266.266,0,0,1,0-.2.007.007,0,0,1,.008-.008.264.264,0,0,1,.327-.129m-5.493-5.078a.266.266,0,0,1,.253-.185h1.542l.551-1.47a.261.261,0,0,1,.25-.173.266.266,0,0,1,.249.175l.537,1.468H376.4a.266.266,0,0,1,.152.485l-1.238.856.614,1.678a.266.266,0,0,1-.4.308L374,110.3l-1.466,1.005a.266.266,0,0,1-.4-.313l.6-1.6-1.2-.855a.266.266,0,0,1-.1-.3m-.9,13.8a3.249,3.249,0,0,1,1.169-.369,14.761,14.761,0,0,1,4.078.175.266.266,0,0,1-.078.527,14.285,14.285,0,0,0-3.922-.175,2.737,2.737,0,0,0-.977.3.266.266,0,0,1-.27-.459m.211,2.564a.116.116,0,0,1-.084.069.151.151,0,0,1-.068.015.193.193,0,0,0-.046-.023.219.219,0,0,1-.068-.068.148.148,0,0,1,0-.114.133.133,0,0,1,.182-.076.115.115,0,0,1,.084.076.168.168,0,0,1,0,.122m-3.919-11.732a.266.266,0,0,1,.253-.184H368l.33-.87a.266.266,0,0,1,.249-.172h0a.266.266,0,0,1,.248.175l.316.867h.939a.266.266,0,0,1,.152.485l-.729.506.363.994a.266.266,0,0,1-.4.308l-.913-.652-.873.6a.266.266,0,0,1-.4-.313l.354-.942-.7-.5a.266.266,0,0,1-.1-.3m2.791,10.121a.266.266,0,0,1-.364-.094l-.836-1.421-.843,1.422a.3.3,0,0,1-.5,0l-.836-1.421L365.4,122.9a.266.266,0,0,1-.229.131h-.023a.268.268,0,0,1-.252-.13l-.836-1.421-.842,1.422a.268.268,0,0,1-.248.13.265.265,0,0,1-.248-.131l-.836-1.421-.842,1.422a.266.266,0,0,1-.458-.271l1.072-1.81a.266.266,0,0,1,.229-.131h0a.266.266,0,0,1,.229.131l.855,1.454.862-1.454a.266.266,0,0,1,.229-.131h0a.266.266,0,0,1,.229.131l.859,1.46.865-1.461a.266.266,0,0,1,.229-.131h0a.266.266,0,0,1,.229.131l.855,1.454.862-1.454a.266.266,0,0,1,.229-.131h0a.266.266,0,0,1,.229.131l1.065,1.81a.266.266,0,0,1-.095.364m-2.9-13.945a.266.266,0,0,1-.266.436,5.022,5.022,0,0,0-4.385.472c-1.284.928-2.127,2.753-2.516,5.437.826-1.7,1.91-2.57,3.237-2.6h.016a1.97,1.97,0,0,1,1.6.749c.584.787.614,2.136.093,4.124a.269.269,0,0,1-.277.2.266.266,0,0,1-.245-.235c-.146-1.285-.721-1.835-1.809-1.727-.761.077-1.457.666-2.068,1.752a9.089,9.089,0,0,0-.795,3.536v.093s0,.007,0,.01V145.25h1.1v-21.88a.266.266,0,0,1,.266-.266h8.959a.266.266,0,0,1,.266.266v4.882a6.8,6.8,0,0,0,2.015,4.231,3.4,3.4,0,0,0,1.567.7h9.434a1.247,1.247,0,0,1,1.226,1.2.257.257,0,0,1,0,.035V145.25h1.217v-11.8a.266.266,0,0,1,.266-.266h5.05a.266.266,0,0,1,.261.32l-1.317,6.335a16.464,16.464,0,0,1,6.915-.017l-1.413-8.152a.266.266,0,0,1,.309-.308,20.767,20.767,0,0,0,7.689,0,.266.266,0,0,1,.315.3l-1.363,8.531,2.511-5.115a.266.266,0,0,1,.239-.149h0a.266.266,0,0,1,.239.151,22.255,22.255,0,0,0,1.259,2.277q.155.244.315.48a15.187,15.187,0,0,0,4.2,4.247,13.207,13.207,0,0,0,1.364.783.266.266,0,0,1,.148.238v7.27c-.02,1.629-.894,2.084-1.623,2.18-.068.008-.134.014-.2.017a1.657,1.657,0,0,1-1.267-.4,2.435,2.435,0,0,1-.611-1.795v-6.629H407V145.8h0v8.86a.266.266,0,0,1-.228.263l-1.775.258h-.009l-14.829,2.174h-.009l-2.171.316v6.614a1.479,1.479,0,0,1-.387,1.123,1.878,1.878,0,0,1-1.421.443h-15.2a.266.266,0,0,1-.212-.1,6.814,6.814,0,0,0-1.222-1.176,5.567,5.567,0,0,1-1.95-4.581.266.266,0,0,1,.265-.268.2.2,0,0,1,.051,0,.266.266,0,0,1,.049,0h3.468v-1.242a1.052,1.052,0,0,1-.95-1.019c-.027-.383-.183-.547-.542-.569a1.134,1.134,0,0,1-.938-.468.87.87,0,0,1,.028-.813.266.266,0,0,1,.242-.156h3.126v-3.421a.247.247,0,0,0-.013-.052.3.3,0,0,1-.011-.039,3.4,3.4,0,0,0-.784-1.56,3.218,3.218,0,0,0-.407-.394,2.644,2.644,0,0,0-3.324,0,3.212,3.212,0,0,0-.408.394,3.455,3.455,0,0,0-.784,1.582c-.007.038-.013.077-.017.114v10.038c.034,1.123-.5,1.768-1.495,1.81h-.7v3.825c-.07,1.484-.958,1.812-1.733,1.812l-.1,0H348.384a.266.266,0,0,1-.227-.4l1.908-3.123-.69-1.124a.266.266,0,0,1,.454-.279l.283.46v-.976l-.737-1.206a.266.266,0,1,1,.454-.277l.282.462v-.757a.266.266,0,0,1,.532,0v.757l.283-.462a.266.266,0,0,1,.454.277l-.737,1.206v.976l.283-.46a.266.266,0,1,1,.454.279l-.69,1.122L352.4,168.8l1.682-2.754-.69-1.124a.266.266,0,1,1,.454-.279l.283.46v-.976l-.737-1.206a.266.266,0,0,1,.454-.277l.282.462v-.757a.266.266,0,0,1,.532,0v.757l.282-.462a.266.266,0,1,1,.454.277l-.737,1.206v.976l.283-.46a.266.266,0,1,1,.454.279l-.69,1.123,1.714,2.8,1.707-2.8-.69-1.124a.266.266,0,0,1,.454-.279l.283.46v-.976l-.737-1.206a.266.266,0,1,1,.454-.277l.282.462v-.757a.266.266,0,0,1,.532,0v.757l.283-.462a.266.266,0,1,1,.454.277l-.737,1.206v.976l.283-.46a.266.266,0,1,1,.454.279l-.69,1.123,1.837,3h2.026c.854.031,1.249-.368,1.293-1.29v-3.813h-1.468A1.747,1.747,0,0,1,360.6,162.5a4.422,4.422,0,0,1,.129-2.53,2.055,2.055,0,0,1,2.074-1.4,1.68,1.68,0,0,1,1.311.383,1.285,1.285,0,0,1,.326,1.015V163.4h.685c.465-.019,1.007-.182.973-1.269V152.072a.268.268,0,0,1,0-.03c.006-.051.014-.107.025-.17a3.985,3.985,0,0,1,.9-1.83,3.755,3.755,0,0,1,.476-.459,3.177,3.177,0,0,1,3.992,0,3.762,3.762,0,0,1,.474.458,3.928,3.928,0,0,1,.9,1.783.809.809,0,0,1,.038.173c0,.01,0,.02,0,.029v3.7a.266.266,0,0,1-.266.266h-3.2a.252.252,0,0,0,.007.175c.025.045.126.153.521.2a1.029,1.029,0,0,1,1.026,1.06c.021.26.12.531.694.551a.266.266,0,0,1,.257.266v1.483h7.994a.266.266,0,0,1,.265.268,5.835,5.835,0,0,1-1.4,4.067h4.425v-5.818a.266.266,0,0,1,.257-.266c.575-.02.674-.291.694-.554a1.033,1.033,0,0,1,1.04-1.058c.381-.045.482-.154.507-.2a.252.252,0,0,0,.007-.175h-7.106a.266.266,0,0,1-.2-.444l.969-1.077h-3.626l.969,1.077a.266.266,0,0,1-.2.444h-2.829a.266.266,0,0,1,0-.532h2.231l-.969-1.077a.266.266,0,0,1,.2-.444H380a.266.266,0,0,1,.2.444l-.969,1.077h6.7a.266.266,0,0,1,.242.156.87.87,0,0,1,.028.813,1.122,1.122,0,0,1-.923.467c-.373.023-.53.188-.556.568a1.053,1.053,0,0,1-.95,1.021v5.843a.266.266,0,0,1-.266.266h-5.267a8.4,8.4,0,0,0-.826.73h8.769a1.407,1.407,0,0,0,1.039-.287.969.969,0,0,0,.231-.741V143.486a.266.266,0,0,1,.266-.266h21.2a.266.266,0,0,1,.266.266v6.89a1.949,1.949,0,0,0,.441,1.41,1.134,1.134,0,0,0,.876.256q.085,0,.166-.014c.486-.064,1.14-.306,1.156-1.655v-7.1a13.741,13.741,0,0,1-1.272-.74,15.715,15.715,0,0,1-4.345-4.393q-.164-.242-.324-.493c-.367-.577-.718-1.2-1.048-1.845l-3.055,6.223a.266.266,0,0,1-.5-.159l1.583-9.908a21.308,21.308,0,0,1-7.138-.007l1.419,8.185a.266.266,0,0,1-.332.3,15.9,15.9,0,0,0-7.465,0,.266.266,0,0,1-.316-.314l1.333-6.41h-4.456v11.8a.266.266,0,0,1-.266.266h-7.331a.266.266,0,0,1-.266-.266v-6.583a.506.506,0,0,0-.013-.06l0-.017a2.993,2.993,0,0,0-.265-.747,3.117,3.117,0,0,0-.413-.6,2.3,2.3,0,0,0-3.561,0,3.063,3.063,0,0,0-.677,1.369c-.007.034-.013.064-.017.093v6.545a.266.266,0,0,1-.266.266H359.039a.266.266,0,0,1-.266-.266V121.31a.567.567,0,0,1-.007-.072,21.1,21.1,0,0,0-1.428-5.809c-.119,1.448-.171,3.1-.154,4.926l.008.323s0,.01,0,.015v.062q0,.224.008.455v24.306a.266.266,0,0,1-.233.264,1.566,1.566,0,0,1-1.248-.324,3.183,3.183,0,0,1-.838-2.352v-2.357c.006-1.713-.768-1.981-1.357-2.031h-6.157a.266.266,0,0,1-.266-.266V106.891a.266.266,0,0,1,.11-.216l5.526-4.005h-.484l-5.646,4.1v25.637a.266.266,0,0,1-.532,0V106.632a.267.267,0,0,1,.11-.215l5.162-3.747h-.486l-5.22,3.779v24.372a1.77,1.77,0,0,1-.381,1.407,1.705,1.705,0,0,1-1.345.443h-4.928a.266.266,0,0,1-.266-.266v-6.9c-.067-.354-.2-.347-.26-.344s-.212.008-.265.34v6.908a.266.266,0,0,1-.266.266H331.5a.266.266,0,0,1-.266-.266v-2.889c-.053-.424-.266-.973-1.432-.952s-1.378.557-1.42.964v2.877a.266.266,0,0,1-.266.266h-3.4a.266.266,0,0,1-.266-.266v-12.1a6.361,6.361,0,0,1,3.362-5.678,6.452,6.452,0,0,1,.685-.346,15.153,15.153,0,0,1,4.175-.979h0a14.439,14.439,0,0,1,3.052.062c.3.036.6.083.905.139,2.83.521,4.242,2.8,4.195,6.767v4.385a7.122,7.122,0,0,0,3.244.867.266.266,0,0,1-.024.532,7.8,7.8,0,0,1-3.223-.8l-.02,3.208a.9.9,0,0,0,.3.7,1.038,1.038,0,0,0,.8.283,1.072,1.072,0,0,0,.824-.4,1.393,1.393,0,0,0,.355-.851.266.266,0,1,1,.531.041,1.928,1.928,0,0,1-.485,1.16,1.6,1.6,0,0,1-1.211.583,1.567,1.567,0,0,1-1.182-.433,1.426,1.426,0,0,1-.46-1.084l.022-3.507a7.272,7.272,0,0,1-2.81-3.617.266.266,0,1,1,.5-.194,6.908,6.908,0,0,0,2.315,3.168v-4.045c.044-3.726-1.185-5.766-3.759-6.24-.292-.055-.586-.1-.874-.134a13.92,13.92,0,0,0-2.913-.062,4.317,4.317,0,0,0-1.757,1.082,4.407,4.407,0,0,0,3.113,7.522,4.272,4.272,0,0,0,2.236-.593.266.266,0,1,1,.274.456,4.947,4.947,0,0,1-6-7.762,5.35,5.35,0,0,1,.558-.483,15.051,15.051,0,0,0-2.471.721,5.943,5.943,0,0,0-.623.316,5.787,5.787,0,0,0-3.093,5.226v11.822h2.867v-2.624c0-.009,0-.017,0-.025.062-.649.45-1.428,1.94-1.457s1.894.765,1.973,1.437a.251.251,0,0,1,0,.031v2.639h2.89v-3.43c0-.006,0-.013,0-.02a.633.633,0,0,1,.653-.657.268.268,0,0,1,.044,0,.643.643,0,0,1,.557.662v3.441h1.749v-6.662a.291.291,0,0,1,0-.039c.1-.687.526-.8.771-.813s.683.074.811.806a.258.258,0,0,1,0,.046v6.662h4.669a1.229,1.229,0,0,0,.951-.277,1.287,1.287,0,0,0,.236-1.009c0-.007,0-.014,0-.021V106.313a.266.266,0,0,1,.11-.216l5.4-3.909a.266.266,0,0,1,.156-.051h2.784a.266.266,0,0,1,.156.482l-6.08,4.407v13.391a6.5,6.5,0,0,1,4.939,2.7,10.849,10.849,0,0,1,0,12.9,7.3,7.3,0,0,1-2.67,2.169h3.654c.851.068,1.864.568,1.857,2.563v2.341a2.756,2.756,0,0,0,.647,1.958.953.953,0,0,0,.608.216v-20.4c-.371-3.555-1.5-5.536-3.365-5.889a5.866,5.866,0,0,0-3.43.635.266.266,0,0,1-.366-.314c.512-1.837,1.39-2.831,2.61-2.954a4.7,4.7,0,0,1,4.074,1.824c-.929-2.862-3.12-4-6.663-3.478a.266.266,0,0,1-.3-.319,3.571,3.571,0,0,1,1.473-2.4,4.491,4.491,0,0,1,3.462-.309,4.1,4.1,0,0,1,.93.334,7.833,7.833,0,0,0-5.01-4.724.266.266,0,0,1-.137-.418,3.824,3.824,0,0,1,2.581-1.692,3.916,3.916,0,0,1,2.917,1.207,9.142,9.142,0,0,1,2.332,3.776,5.406,5.406,0,0,1,1.965-2.889c2.255-1.438,4.6-.834,6.98,1.8m8.222,36.5a2.468,2.468,0,0,1,.305,3.35.266.266,0,0,1-.445-.292,1.94,1.94,0,0,0-.242-2.688,2.057,2.057,0,0,1-.689-1.528,2.286,2.286,0,0,1,.961-1.577.266.266,0,1,1,.34.41,1.794,1.794,0,0,0-.769,1.2,1.557,1.557,0,0,0,.539,1.128m1.544,1.087a2.463,2.463,0,0,1,.346,3.293l-.012.017-.029.041a.266.266,0,1,1-.444-.293c.011-.017.024-.036.04-.057a1.932,1.932,0,0,0-.283-2.63,2.056,2.056,0,0,1-.689-1.528,2.284,2.284,0,0,1,.961-1.577.266.266,0,1,1,.339.41,1.794,1.794,0,0,0-.769,1.2,1.557,1.557,0,0,0,.539,1.128m-2.492.348a.266.266,0,1,1,.327.42,2.984,2.984,0,0,0-.328.293,1.254,1.254,0,0,0-.015,1.915c.032.036.066.073.1.109a2.47,2.47,0,0,1,.308,3.353.266.266,0,0,1-.445-.292,1.94,1.94,0,0,0-.242-2.688c-.042-.042-.084-.087-.123-.132a1.771,1.771,0,0,1,.029-2.631,3.535,3.535,0,0,1,.388-.347m26.771-9.616a.266.266,0,1,1,.247.472,3.81,3.81,0,0,1-1.223.408,3.263,3.263,0,0,1-.462.033H399.3a3.212,3.212,0,0,1-.4-.033c-.063-.009-.127-.02-.19-.033a3.8,3.8,0,0,1-1.029-.375.266.266,0,0,1,.25-.47,3.269,3.269,0,0,0,.886.324c.054.011.107.02.16.028a2.674,2.674,0,0,0,.333.028,2.714,2.714,0,0,0,.409-.028,3.28,3.28,0,0,0,1.051-.353m-.135-2.411a.382.382,0,0,1,.114-.281.411.411,0,0,1,.171-.1.393.393,0,0,1,.11-.015.414.414,0,0,1,.114.015.377.377,0,0,1,.167.1.382.382,0,0,1,.114.281.4.4,0,0,1-.4.4.386.386,0,0,1-.281-.122.374.374,0,0,1-.114-.274m-2.7.274a.371.371,0,0,1-.281.122.386.386,0,0,1-.281-.122.374.374,0,0,1-.114-.274.382.382,0,0,1,.114-.281.4.4,0,0,1,.281-.114.39.39,0,0,1,.4.4.374.374,0,0,1-.114.274m-53.891-.094-1.771,1.012.993,2.233a.443.443,0,0,1,.029.052,1.185,1.185,0,0,1,.048.135.269.269,0,0,1,.007.029.789.789,0,0,1-.064.473,1.132,1.132,0,0,1-.484.505,1.222,1.222,0,0,1-.6.166l-.065,0a.7.7,0,0,1-.586-.364.661.661,0,0,1,.006-.652,1.069,1.069,0,0,1,.473-.5,1.159,1.159,0,0,1,.511-.159l-.852-1.917,0-.006-.3-.689a.266.266,0,0,1,.112-.338l2.236-1.278a.266.266,0,0,1,.376.124l.3.689,0,.007,1.147,2.6a.3.3,0,0,1,.011.031.848.848,0,0,1,.034.244.785.785,0,0,1-.078.333,1.129,1.129,0,0,1-.482.5,1.2,1.2,0,0,1-.665.164.7.7,0,0,1-.586-.363.662.662,0,0,1,.006-.652,1.07,1.07,0,0,1,.473-.5,1.155,1.155,0,0,1,.525-.16Zm-3.745,2.728a.266.266,0,1,1-.43.314l-2.019-2.765a.64.64,0,0,1-.145-.186.667.667,0,0,1,0-.656,1.07,1.07,0,0,1,.473-.5,1.1,1.1,0,0,1,.686-.154.686.686,0,0,1,.564.336l.008.015a.345.345,0,0,1,.04.081.856.856,0,0,1,.034.243.785.785,0,0,1-.078.333,1.13,1.13,0,0,1-.482.5,1.327,1.327,0,0,1-.339.135Zm-4.4-1.849a1.153,1.153,0,0,1-.152-.218l-.686,2.235-.007.02-.066.2a.271.271,0,0,1-.029.061.784.784,0,0,1-.385.3,1.04,1.04,0,0,1-.35.06,1.3,1.3,0,0,1-.351-.051,1.128,1.128,0,0,1-.587-.358.686.686,0,0,1-.159-.656.67.67,0,0,1,.466-.46,1.05,1.05,0,0,1,.695-.019,1.256,1.256,0,0,1,.43.211l.829-2.7a.266.266,0,0,1,.521.081,1.448,1.448,0,0,0,.229.946.906.906,0,0,1,.3.821.666.666,0,0,1-.6.492.266.266,0,0,1-.1-.524c.107-.019.166-.051.176-.093s-.017-.156-.183-.342m5.854-29.081a.266.266,0,0,1-.371.063,2.114,2.114,0,0,0-2.778-.007.266.266,0,0,1-.316.008,2.144,2.144,0,0,0-2.8-.008.266.266,0,0,1-.327-.42,47.826,47.826,0,0,1,6.531-.007.266.266,0,0,1,.063.371m2.378,2.108a.266.266,0,1,1-.308.434,2.114,2.114,0,0,0-2.778-.007.266.266,0,0,1-.316.008,2.145,2.145,0,0,0-2.8-.008.266.266,0,1,1-.327-.42,47.825,47.825,0,0,1,6.531-.007m-7.379,1.831a2.612,2.612,0,0,1,3.257.108.266.266,0,0,1-.308.434,2.114,2.114,0,0,0-2.778-.007.266.266,0,0,1-.316.008,2.145,2.145,0,0,0-2.8-.008.266.266,0,0,1-.327-.42,2.618,2.618,0,0,1,3.274-.115m-.015,7.71a.468.468,0,0,1-.456.456.446.446,0,0,1-.327-.137.433.433,0,0,1-.129-.319.442.442,0,0,1,.456-.456.434.434,0,0,1,.319.129.447.447,0,0,1,.137.327m7.219-27.041a1.037,1.037,0,1,1-.306.736,1.008,1.008,0,0,1,.306-.736M331.722,89.84a.266.266,0,0,1,.266-.266h10.327a.266.266,0,0,1,.266.266v7.149a.266.266,0,0,1-.266.266H331.988a.266.266,0,0,1-.266-.266Zm-3.6.093a1.026,1.026,0,0,1,.441-.265,1.081,1.081,0,0,1,.589,0,1.026,1.026,0,0,1,.442.265,1.042,1.042,0,1,1-1.471,0m11.55,75.546q.114.038.243.076-.061.053-.243-.076m89.66-13.467-1.719,11.575a.266.266,0,0,1-.185.215l-18.883,5.841a.268.268,0,0,1-.079.012H390.355a3.6,3.6,0,0,1-.228,2.278c-.363.677-1.136.973-2.3.877a.809.809,0,0,0-.7.2c-.209.217-.422.746-.254,2.031a.266.266,0,0,1-.152.276l-3.037,1.416c-.784,2.8-1.934,4.448-3.42,4.911-1.368.426-3.017-.152-4.9-1.716H360.706c-1.3,1.846-2.659,2.781-4.052,2.781h-.073c-1.727-.04-3.428-1.449-5.2-4.305a.266.266,0,0,1,.226-.406h29.332c.824-.042.874-.392.893-.524a.534.534,0,0,0-.034-.365.186.186,0,0,0-.125-.031H349.3a.266.266,0,0,1-.255-.344,7.538,7.538,0,0,1,.541-1.337h-1.207a.266.266,0,0,1-.185-.074,8.679,8.679,0,0,1-2.6-6.582v-4.567a1.346,1.346,0,0,0-1.447-1.265l-1.356-.138c-1.1-.122-1.355-.752-1.372-1.26-.018-.425.115-1.152,1.218-1.21H358.43c.342.01.571-.087.593-.59.015-.435-.16-.629-.6-.665H336.1a.266.266,0,0,1-.045,0,1.147,1.147,0,0,1-1.088-1.2,1.062,1.062,0,0,1,1.114-1.1h24.41a.53.53,0,0,0,.553-.616c0-.4-.163-.576-.55-.608h-26.12a.262.262,0,0,1-.049,0,1.161,1.161,0,0,1-1.107-1.192,1.015,1.015,0,0,1,.594-.977l-1.4-2.221a1.671,1.671,0,0,1-.225-1.374,4.874,4.874,0,0,1,.169-.614l.743-2.1h-.174a1.25,1.25,0,0,1-1.2-1.2.262.262,0,0,1,0-.043v-5.519a3.632,3.632,0,0,1-3.467-1.383l-.015-.019h0a.265.265,0,0,1-.046-.152v-2.584a1.376,1.376,0,0,0-.413-1.15,1.319,1.319,0,0,0-.819-.227h-1.833a1.613,1.613,0,0,1-1.434-.7,2.457,2.457,0,0,1-.452-1.6V115.172a.267.267,0,0,1,0-.031c.168-1.441,1.143-2.244,2.9-2.387l.189-.014a.687.687,0,0,0,.563-.72v-3.348a18.323,18.323,0,0,0-1.578,2.14,13.939,13.939,0,0,1-1.705,2.11c-.771.8-2.6,1.164-5.59,1.1-.362,0-.749,0-1.15-.013v.713a.624.624,0,0,0,.1.424l0,0c.165.216.556.321,1.132.3h2.031c.969-.009,2.125.413,2.167,2.5v12.455a.266.266,0,0,1-.395.233c-1.786-.985-3.067-2.857-3.811-5.566-1.732-.321-2.638-1.468-2.7-3.413a5.48,5.48,0,0,1-.975-.378c-.849-.433-1.279-.983-1.279-1.637a1.389,1.389,0,0,1,.17-.667,1.262,1.262,0,0,1-.573-1.028,1.336,1.336,0,0,1,.734-1.138,3.214,3.214,0,0,1,3.181,0,1.639,1.639,0,0,1,.589.583h.052a6.274,6.274,0,0,1,2.866.607c.853.438,1.286.991,1.286,1.644s-.433,1.2-1.287,1.637a5.791,5.791,0,0,1-2.123.585,20.654,20.654,0,0,0,.524,2.9l0,.011a8.5,8.5,0,0,0,3.2,5.156V117.963c-.036-1.789-.948-1.985-1.632-1.977h-2.026a1.909,1.909,0,0,1-1.488-.425l-1.525-.185a1.124,1.124,0,0,1-1.124-1.121v-.474c-.235-.029-.477-.06-.722-.095a8.62,8.62,0,0,1-3.052-.887,2.581,2.581,0,0,1-1.571-1.922,2.418,2.418,0,0,1,1.053-2.2c.782-.646,2.35-1.032,4.793-1.178a35.719,35.719,0,0,0,5.576-.686,6.358,6.358,0,0,0,4.106-3.584,7.424,7.424,0,0,1,3.662-3.614.693.693,0,0,1,.106-.047q.127-.054.265-.1a.266.266,0,0,1-.208-.26V92.023a.266.266,0,0,1,.266-.266h1.27a.266.266,0,0,1,.266.266v6.022a38.472,38.472,0,0,0,4.015.5,42.944,42.944,0,0,0,5.907,0c1.347-.091,2.733-.244,4.125-.457V93.7a.266.266,0,0,1,.266-.266h1.27a.266.266,0,0,1,.266.266v8.394a3.126,3.126,0,0,1,2.3-.821,2.037,2.037,0,0,1-.058-.485,2.388,2.388,0,0,1,1.294-2.019c.108-.069.221-.134.335-.194a6.158,6.158,0,0,1,5.274,0c.115.06.227.125.335.194a2.432,2.432,0,0,1,1.29,1.889,5.074,5.074,0,0,1,.841-.067,4.21,4.21,0,0,1,2.319.62,1.926,1.926,0,0,1,1.027,1.623,1.648,1.648,0,0,1-.049.4q.153-.013.315-.013a2.927,2.927,0,0,1,1.537.388,1.247,1.247,0,0,1,.714,1.072,1.055,1.055,0,0,1-.112.476.266.266,0,0,1-.476-.238.521.521,0,0,0,.056-.238c0-.085,0-.343-.456-.616a2.406,2.406,0,0,0-1.263-.312,2.984,2.984,0,0,0-.582.054,2.449,2.449,0,0,1-.714.65,3.642,3.642,0,0,1-1.312.53.266.266,0,0,1-.108-.521,3.109,3.109,0,0,0,1.136-.458,1.828,1.828,0,0,0,.606-.573l0,0a1.1,1.1,0,0,0,.173-.6,1.413,1.413,0,0,0-.783-1.176,3.689,3.689,0,0,0-2.03-.535,4.259,4.259,0,0,0-1.045.121.266.266,0,0,1-.331-.278q.007-.089.007-.177a1.871,1.871,0,0,0-1.048-1.57c-.1-.061-.195-.118-.3-.171a5.631,5.631,0,0,0-4.78,0c-.1.053-.2.111-.3.171a1.87,1.87,0,0,0-1.048,1.57,1.5,1.5,0,0,0,.142.64v0a1.935,1.935,0,0,0,.442.586.266.266,0,0,1-.363.389,2.556,2.556,0,0,1-.484-.6c-1.466-.009-2.291.458-2.521,1.433a.266.266,0,0,1-.525-.061v-9.21h-.738v4.35a.266.266,0,0,1-.225.263c-1.482.233-2.961.4-4.4.5a43.435,43.435,0,0,1-5.98,0,38.857,38.857,0,0,1-4.292-.544.266.266,0,0,1-.218-.262V92.289h-.738V99.21a.265.265,0,0,1-.075.185,7.322,7.322,0,0,1,1.909-.208,3.305,3.305,0,0,1,2.229.6.622.622,0,0,1,.252.59.747.747,0,0,1-.253.423c1.822-.007,3.047.289,3.72.9a1.787,1.787,0,0,1,.591,1.317,2.076,2.076,0,0,1-.586,1.546,4.185,4.185,0,0,1-2.684.981v2.492c0,.005,0,.011,0,.016a1.4,1.4,0,0,1-.475,1.025,2.57,2.57,0,0,1-1.844.439v.931a2.259,2.259,0,0,1-1.777,2.526,9.389,9.389,0,0,1-1.566.233c-.255.016-.524.023-.8.023l-.774.038h-.005l-.2.015c-1.478.12-2.266.743-2.408,1.9v17.278a1.927,1.927,0,0,0,.352,1.273,1.093,1.093,0,0,0,.994.476h1.841a1.829,1.829,0,0,1,1.143.337,1.864,1.864,0,0,1,.621,1.572v2.344a3.1,3.1,0,0,0,3.045-1.136.266.266,0,0,1,.484.153v2.459s0,.007,0,.011v5.8c.107.606.429.71.7.73h.334l1.692-4.835,0-.011.394-1.135a.266.266,0,0,1,.251-.179h4.715a.266.266,0,0,1,.224.123l.651,1.018h11.361a.266.266,0,0,1,.224.122l3.146,4.9h11.034a.266.266,0,0,1,.26.321,7.514,7.514,0,0,1-.375,1.254,5.441,5.441,0,0,1-2.615,2.92c-1.417.744-2.2,1.59-2.323,2.514a.266.266,0,0,1-.264.231H334.39c-.036,0-.072.009-.108.016l-.019,0c-.356.067-.508.237-.511.568,0,.247.07.543.649.659h26.125a1.148,1.148,0,0,1,0,2.287H336.112c-.426.033-.6.2-.611.583-.005.271.065.561.624.664h22.325a1.077,1.077,0,0,1,1.1,1.218,1.02,1.02,0,0,1-1.133,1.1H342.65c-.637.034-.714.336-.7.658.011.306.122.665.9.751l1.344.136a1.871,1.871,0,0,1,1.933,1.746.267.267,0,0,1,0,.033v4.586a8.182,8.182,0,0,0,2.359,6.122h1.565a.266.266,0,0,1,.223.412,5.892,5.892,0,0,0-.608,1.268h7.89a2.91,2.91,0,0,1-.912-.494H350.97a.266.266,0,0,1-.24-.382,11.032,11.032,0,0,1,.9-1.55h-2.541a.266.266,0,0,1-.2-.44c1.353-1.569,3.653-2.515,6.838-2.811l.317-.41a.266.266,0,0,1,.211-.1h6.563a.266.266,0,0,1,.2.088l.864.961h2.409l1.487-1.826a.266.266,0,0,1,.206-.1h.92v-1.658a.266.266,0,0,1,.266-.266h.958v-.677h-1.156a.266.266,0,0,1,0-.532h2.822a.266.266,0,0,1,0,.532h-1.133v.787l3.241,1.814h2.273a.266.266,0,0,1,.193.083l.75.792h3.247v-1.612a.266.266,0,0,1,.266-.266h5.97a.266.266,0,0,1,.264.3l-.38,2.646a.267.267,0,0,1-.106.177.27.27,0,0,1-.2.048.65.65,0,0,0-.591.132c-.222.214-.447.788-.257,2.31a.266.266,0,0,1-.155.276l-1.482.669a3.216,3.216,0,0,1-.569.76,3,3,0,0,1-1.254.767.617.617,0,0,1,.329.189.955.955,0,0,1,.164.791c-.06.422-.352.932-1.407.985H352.093c1.556,2.387,3.069,3.614,4.5,3.647,1.256.029,2.519-.867,3.753-2.665a.266.266,0,0,1,.219-.116h14.891a.266.266,0,0,1,.171.063c1.768,1.488,3.273,2.053,4.475,1.678,1.322-.412,2.364-1.981,3.1-4.663a.266.266,0,0,1,.144-.171l2.974-1.386a2.811,2.811,0,0,1,.422-2.275,1.32,1.32,0,0,1,1.129-.363c.933.076,1.534-.125,1.787-.6a3.363,3.363,0,0,0,.118-2.231.27.27,0,0,1-.005-.054.273.273,0,0,1,.266-.274h18.387l18.685-5.779,1.635-11.013-4.281,1.095a1.117,1.117,0,0,0-.884.935l-1.4,9.471a.267.267,0,0,1-.185.216l-1.688.517a.266.266,0,0,1-.341-.294l1.5-10.1-4.281,1.095a1.117,1.117,0,0,0-.884.935l-1.473,9.9a.266.266,0,0,1-.185.215l-1.734.532a.266.266,0,0,1-.341-.294l1.569-10.578-4.281,1.095a1.117,1.117,0,0,0-.885.934l-.676,4.561c.459.145.884.578.81,1.709,0,.007,0,.015,0,.022l-.411,2.715a1.5,1.5,0,0,1-1.493,1.458h-9.843l-.029,0a1.142,1.142,0,0,1-1.112-1.293v-1.43a8.37,8.37,0,0,1-1.078.009,13.806,13.806,0,0,1-3.012-.429,6.493,6.493,0,0,1-1.943-.854,3.3,3.3,0,0,1-1.747-2.778,2.935,2.935,0,0,1,1.557-2.427,9.644,9.644,0,0,1,4.1-1.335,12.575,12.575,0,0,1,4.746.2l.023.007.016,0,.024.007c1,.361,1.507.784,1.558,1.294.049.491-.33.975-1.16,1.48-.145.079-.27.153-.383.225-.58.372-.9.744-.96,1.105a1.058,1.058,0,0,0,.3.836,1.6,1.6,0,0,1,.4,1.184,1.332,1.332,0,0,1-.582.872,3.2,3.2,0,0,1-1.322.53v1.507c-.016.476.171.7.623.753h9.818c.344-.013.832-.132.977-1.009l.408-2.7c.048-.756-.162-1.024-.36-1.125l-.5,3.307a1.062,1.062,0,0,1-.367.747,1.04,1.04,0,0,1-.787.179h-3.824c-.762-.012-1.4-.759-1.946-2.283-.591-1.615-.533-2.076-.4-2.313a.459.459,0,0,1,.317-.229.273.273,0,0,1,.049,0h7l.681-4.594a.25.25,0,0,1,0-.025,1.657,1.657,0,0,1,1.282-1.337l4.66-1.192a.266.266,0,0,1,.329.3l-1.565,10.556,1.17-.359,1.451-9.751c0-.008,0-.016,0-.024a1.657,1.657,0,0,1,1.282-1.337l4.66-1.192a.266.266,0,0,1,.329.3l-1.5,10.078,1.124-.344,1.382-9.317c0-.008,0-.016,0-.025a1.657,1.657,0,0,1,1.282-1.337l4.66-1.192a.266.266,0,0,1,.329.3" transform="translate(-281.959 -78.21)" fill="#fff"/>
      <rect id="Rectangle_14" data-name="Rectangle 14" width="6.609" height="3.742" transform="translate(51.968 13.318)" fill="#fff"/>
      <path id="Path_158" data-name="Path 158" d="M1525.4,1155.024l-.019-.009-.016-.008-.015-.007-.021-.01a2,2,0,0,0-1.789.032c-.312.194-.312.369-.312.426s0,.23.312.419a1.945,1.945,0,0,0,1.852,0c.315-.19.315-.363.315-.42s0-.229-.308-.423" transform="translate(-1412.113 -1070.551)" fill="#fff"/>
      <path id="Path_159" data-name="Path 159" d="M1474.51,1105.176a2.591,2.591,0,0,0,1.006-.416.817.817,0,0,0,.371-.52,1.1,1.1,0,0,0-.29-.778,1.564,1.564,0,0,1-.408-1.248,2.3,2.3,0,0,1,1.2-1.471c.124-.079.26-.159.4-.238.813-.5.912-.818.9-.966s-.193-.477-1.2-.843l-.033-.01a10.965,10.965,0,0,0-2.67-.314,14.038,14.038,0,0,0-1.866.129,9.136,9.136,0,0,0-3.872,1.25,2.415,2.415,0,0,0-1.319,1.984,2.765,2.765,0,0,0,1.506,2.332,5.981,5.981,0,0,0,1.793.787,13.3,13.3,0,0,0,2.9.41,7.687,7.687,0,0,0,1.051-.011v-.6a2.8,2.8,0,0,0-.193-1.142,1.185,1.185,0,0,1-.49.511,2.472,2.472,0,0,1-2.407,0,1.007,1.007,0,0,1-.567-.873,1.025,1.025,0,0,1,.567-.88,2.524,2.524,0,0,1,2.312-.051l.041.021.038.019a2.389,2.389,0,0,1,1.233,2.4Z" transform="translate(-1359.732 -1018.246)" fill="#fff"/>
      <path id="Path_160" data-name="Path 160" d="M1629.911,1164.757h0c.452,1.255.953,1.922,1.45,1.93h3.836l.033,0a.548.548,0,0,0,.409-.068.575.575,0,0,0,.168-.4l.5-3.3h-6.839a4.321,4.321,0,0,0,.447,1.833" transform="translate(-1510.586 -1078.089)" fill="#fff"/>
    </g>
  </g>
</svg>
