<svg xmlns="http://www.w3.org/2000/svg" xmlns:xlink="http://www.w3.org/1999/xlink" width="169.651" height="128.385" viewBox="0 0 169.651 128.385">
  <defs>
    <clipPath id="clip-path">
      <rect id="Rectangle_2" data-name="Rectangle 2" width="169.651" height="128.385" fill="none"/>
    </clipPath>
  </defs>
  <g id="SE_logo" data-name="SE logo" transform="translate(13 -23)">
    <g id="Group_1" data-name="Group 1" transform="translate(-13 23)" clip-path="url(#clip-path)">
      <path id="Path_1" data-name="Path 1" d="M177.576,317.091a.768.768,0,0,0,.329.22.777.777,0,0,0,.408.024.959.959,0,0,0,.408-.172,1.476,1.476,0,0,0,.337-.336,1.557,1.557,0,0,0,.224-.444,1.519,1.519,0,0,0,.074-.505,1.39,1.39,0,0,0-.094-.463.979.979,0,0,0-.218-.339.763.763,0,0,0-.317-.189.8.8,0,0,0-.391-.015,1,1,0,0,0-.38.16,1.387,1.387,0,0,0-.312.3,1.548,1.548,0,0,0-.221.4,1.744,1.744,0,0,0-.108.461,1.327,1.327,0,0,0,.051.515,1.061,1.061,0,0,0,.21.384" transform="translate(-112.733 -200.184)" fill="#fff"/>
      <path id="Path_2" data-name="Path 2" d="M184.159,315.857a.761.761,0,0,0,.329.22.777.777,0,0,0,.408.025.969.969,0,0,0,.408-.173,1.468,1.468,0,0,0,.338-.335,1.567,1.567,0,0,0,.223-.444,1.518,1.518,0,0,0,.074-.5,1.405,1.405,0,0,0-.093-.463.994.994,0,0,0-.218-.338.763.763,0,0,0-.318-.19.8.8,0,0,0-.391-.015.993.993,0,0,0-.38.16,1.354,1.354,0,0,0-.312.3,1.557,1.557,0,0,0-.221.4,1.751,1.751,0,0,0-.108.462,1.33,1.33,0,0,0,.051.514,1.063,1.063,0,0,0,.21.384" transform="translate(-116.918 -199.4)" fill="#fff"/>
      <path id="Path_3" data-name="Path 3" d="M199.046,344.642a.762.762,0,0,0-.317-.189.81.81,0,0,0-.391-.015,1.044,1.044,0,0,0-.544.279,1.471,1.471,0,0,0-.337.5,1.7,1.7,0,0,0-.124.6,1.345,1.345,0,0,0,.1.566.891.891,0,0,0,.326.4.8.8,0,0,0,.561.112.961.961,0,0,0,.408-.172,1.481,1.481,0,0,0,.337-.336,1.566,1.566,0,0,0,.224-.444,1.518,1.518,0,0,0,.073-.505,1.4,1.4,0,0,0-.093-.463.981.981,0,0,0-.218-.339" transform="translate(-125.462 -218.981)" fill="#fff"/>
      <path id="Path_4" data-name="Path 4" d="M192.429,345.876a.768.768,0,0,0-.318-.19.812.812,0,0,0-.391-.015.987.987,0,0,0-.38.16,1.363,1.363,0,0,0-.312.3,1.542,1.542,0,0,0-.221.4,1.756,1.756,0,0,0-.108.462,1.324,1.324,0,0,0,.051.515,1.064,1.064,0,0,0,.209.383.76.76,0,0,0,.329.22.777.777,0,0,0,.408.025.958.958,0,0,0,.409-.173,1.471,1.471,0,0,0,.337-.335,1.572,1.572,0,0,0,.224-.444,1.519,1.519,0,0,0,.074-.505,1.392,1.392,0,0,0-.093-.463.981.981,0,0,0-.218-.339" transform="translate(-121.243 -219.765)" fill="#fff"/>
      <path id="Path_5" data-name="Path 5" d="M181.457,325.567l-2.978.574a.666.666,0,0,1,.093-.025l-.369.071v-5.243a2.93,2.93,0,0,0-1.184-.292,3.139,3.139,0,0,0-1.145.188,4.112,4.112,0,0,0-1.071.587,6.391,6.391,0,0,0-.967.9,8.347,8.347,0,0,0-.83,1.132,10.2,10.2,0,0,0-.669,1.284,9.513,9.513,0,0,0-.47,1.357,7.987,7.987,0,0,0-.238,1.342v2.084l6.494-1.253a.683.683,0,0,0,.1-.012l5.01-.967v-7.729l-1.774.342Zm-4.994.956-2.88.555a7.887,7.887,0,0,1,.176-.876,7.8,7.8,0,0,1,.3-.916,6.592,6.592,0,0,1,.417-.865,3.826,3.826,0,0,1,.541-.732,2.641,2.641,0,0,1,.663-.512,1.776,1.776,0,0,1,.785-.208Z" transform="translate(-109.12 -203.179)" fill="#fff"/>
      <path id="Path_6" data-name="Path 6" d="M214.976,320.451a6.715,6.715,0,0,0-.343-1.069,7.559,7.559,0,0,0-.462-.959,3.6,3.6,0,0,0-.6-.866,3.174,3.174,0,0,0-1.1-.679,3.822,3.822,0,0,0-.383-.123,3.9,3.9,0,0,0-1.763-.047,4.183,4.183,0,0,0-.884.3,5.253,5.253,0,0,0-.9.508v2.411l.21-.254a3.11,3.11,0,0,1,.388-.339,3.055,3.055,0,0,1,2.27-.555,1.639,1.639,0,0,1,.306.1,1.292,1.292,0,0,1,.157.086,2.516,2.516,0,0,1,.4.32,2.848,2.848,0,0,1,.431.549,4.921,4.921,0,0,1,.323.629,4.331,4.331,0,0,1,.218.709,5.439,5.439,0,0,1,.111.79l-5.674,1.094v2.078l7.459-1.439c.021-.267.038-.6.04-.976,0-.561-.03-.982-.04-1.1a7.55,7.55,0,0,0-.156-1.165" transform="translate(-132.037 -201.31)" fill="#fff"/>
      <path id="Path_7" data-name="Path 7" d="M259.391,299.677q-.353.078-.731.141l-.193.031a.994.994,0,0,1-.51-.042,1.106,1.106,0,0,1-.391-.259,1.148,1.148,0,0,1-.3-.45,1.632,1.632,0,0,1-.1-.581V294.5l-1.763.34v4.576a1.511,1.511,0,0,1-.156.651,1.379,1.379,0,0,1-.357.453,1.13,1.13,0,0,1-.456.228.777.777,0,0,1-.456-.022.73.73,0,0,1-.357-.309,1.094,1.094,0,0,1-.156-.628c.013-.487,0-2.209,0-4.576l-1.774.342c.077,2.32.061,4.035,0,4.576a1.877,1.877,0,0,1-.229.719,1.38,1.38,0,0,1-.434.478.97.97,0,0,1-.364.154.816.816,0,0,1-.169.016.835.835,0,0,1-.527-.219,1.013,1.013,0,0,1-.221-.345,1.65,1.65,0,0,1-.054-.18.731.731,0,0,1-.023-.123c0-.031,0-.055,0-.063v-4.622l-1.757.339c0,2.057-.008,3.563,0,4.022a2.36,2.36,0,0,1-.068.614,2.037,2.037,0,0,1-.221.551,1.87,1.87,0,0,1-.323.4.831.831,0,0,1-.207.147,1.117,1.117,0,0,1-.181.065c-.04.011-.07.017-.083.019l-.794.153c-.18.04-1.479.327-2.568.5a1.976,1.976,0,0,1-.85-.036,1.242,1.242,0,0,1-.624-.341,1.466,1.466,0,0,1-.306-.609,1.589,1.589,0,0,1-.062-.308,1.61,1.61,0,0,1,0-.294,3.264,3.264,0,0,1,.108-.709,2.038,2.038,0,0,1,.3-.679,1.926,1.926,0,0,1,.482-.467,1.685,1.685,0,0,1,.561-.275c.091-.018.2-.027.2-.027a2.019,2.019,0,0,1,.21-.007,1.831,1.831,0,0,1,.394.048.967.967,0,0,1,.329.173,1.013,1.013,0,0,1,.232.273l.221.3,1.117-1.958-.148-.206a2.8,2.8,0,0,0-.519-.4,2.876,2.876,0,0,0-.621-.271,3.5,3.5,0,0,0-.66-.073,3.456,3.456,0,0,0-.711.064,3.367,3.367,0,0,0-.652.2,5.526,5.526,0,0,0-.652.326,4.888,4.888,0,0,0-.612.506,6.536,6.536,0,0,0-.516.567,7.618,7.618,0,0,0-.411.67,5.3,5.3,0,0,0-.32.713,6.677,6.677,0,0,0-.2.82,4.64,4.64,0,0,0-.043,1.278q.026.235.065.461l.295.918-.447.086-.1.02-.239.046-.221.043.068-1.4-.068-1.049a2.92,2.92,0,0,0-.141-.724,4.893,4.893,0,0,0-.261-.627,2.752,2.752,0,0,0-.309-.492,3.117,3.117,0,0,0-.372-.392,1.91,1.91,0,0,0-.244-.191,2.031,2.031,0,0,0-.238-.133,1.872,1.872,0,0,0-.6-.155,4.252,4.252,0,0,0-2.137.366,4.075,4.075,0,0,0-.833.575,4.406,4.406,0,0,0-.652.727,4.973,4.973,0,0,0-.522.882c-.01.022-.11.242-.193.488a5.51,5.51,0,0,0-.207,2.424,3.255,3.255,0,0,0,.5,1.366,2.677,2.677,0,0,0,.456.516,2.577,2.577,0,0,0,1.014.539,2.857,2.857,0,0,0,1.242.021c.022,0,.1-.017.2-.039a4.288,4.288,0,0,0,.861-.286q-.148.328-.326.7t-.377.724l-1.014,1.532,1.485,1.1q.409-.614.738-1.182t.606-1.122l.805-2,.678-.131h.012c4.829-.915,8.346-1.6,8.707-1.676a1.41,1.41,0,0,0,.573-.237,2.228,2.228,0,0,0,.244-.2,1.988,1.988,0,0,0,.187-.213,3.229,3.229,0,0,0,.389.206,3.479,3.479,0,0,0,.405.148,2.073,2.073,0,0,0,.453.057,2.4,2.4,0,0,0,.488-.045,2.544,2.544,0,0,0,.51-.155,2.709,2.709,0,0,0,.493-.279,5.027,5.027,0,0,0,.862-.8q.2.149.391.268a2.143,2.143,0,0,0,.443.205,1.744,1.744,0,0,0,.5.087,2.347,2.347,0,0,0,.5-.04,3.017,3.017,0,0,0,.589-.177,2.084,2.084,0,0,0,.533-.327,5.3,5.3,0,0,0,.479-.4,2.9,2.9,0,0,0,.416-.492,1.335,1.335,0,0,0,.358.255,1.708,1.708,0,0,0,.442.138,4.061,4.061,0,0,0,.487.063,1.878,1.878,0,0,0,.488-.031l.289-.056,2.709-.523V290.789l-1.785.345Zm-22.265,4.134c-.215.263-.619.292-1.428.35a1.85,1.85,0,0,1-.59-.04,1.154,1.154,0,0,1-.564-.279,1.07,1.07,0,0,1-.173-.222,1.475,1.475,0,0,1-.192-.539,2.639,2.639,0,0,1,.368-1.784,2.4,2.4,0,0,1,.224-.251,2.026,2.026,0,0,1,.258-.21,1.509,1.509,0,0,1,.64-.264,1.177,1.177,0,0,1,1.031.309,1.378,1.378,0,0,1,.324.492,2.99,2.99,0,0,1,.181.733,6.333,6.333,0,0,1,.108.728,1.44,1.44,0,0,1-.187.977" transform="translate(-147.695 -184.882)" fill="#fff"/>
      <path id="Path_8" data-name="Path 8" d="M316.04,299.653l1.763-.34V288.539l-1.763.34Z" transform="translate(-200.936 -183.451)" fill="#fff"/>
      <path id="Path_9" data-name="Path 9" d="M339.838,294.775a.754.754,0,0,0,.328.22.778.778,0,0,0,.408.025.962.962,0,0,0,.408-.172,1.474,1.474,0,0,0,.337-.336,1.562,1.562,0,0,0,.224-.444,1.524,1.524,0,0,0,.074-.505,1.393,1.393,0,0,0-.094-.463.975.975,0,0,0-.218-.339.759.759,0,0,0-.317-.189.8.8,0,0,0-.391-.015,1.007,1.007,0,0,0-.38.16,1.4,1.4,0,0,0-.311.3,1.567,1.567,0,0,0-.221.4,1.772,1.772,0,0,0-.107.462,1.323,1.323,0,0,0,.051.514,1.05,1.05,0,0,0,.21.384" transform="translate(-215.898 -185.996)" fill="#fff"/>
      <path id="Path_10" data-name="Path 10" d="M346.421,293.541a.769.769,0,0,0,.329.22.778.778,0,0,0,.408.025.963.963,0,0,0,.408-.173,1.473,1.473,0,0,0,.337-.336,1.542,1.542,0,0,0,.224-.444,1.52,1.52,0,0,0,.074-.5,1.392,1.392,0,0,0-.094-.463.972.972,0,0,0-.218-.339.765.765,0,0,0-.317-.189.8.8,0,0,0-.391-.015.99.99,0,0,0-.379.16,1.366,1.366,0,0,0-.312.3,1.553,1.553,0,0,0-.221.4,1.751,1.751,0,0,0-.108.462,1.323,1.323,0,0,0,.051.514,1.061,1.061,0,0,0,.21.384" transform="translate(-220.083 -185.211)" fill="#fff"/>
      <path id="Path_11" data-name="Path 11" d="M337.737,295.808l-6.32,1.219a1.343,1.343,0,0,1-.521-.039,1.111,1.111,0,0,1-.244-.1,1,1,0,0,1-.227-.177,1.014,1.014,0,0,1-.153-.214,1.594,1.594,0,0,1-.119-.288,2.218,2.218,0,0,1-.089-.313,1.814,1.814,0,0,1-.03-.385,2.674,2.674,0,0,1,.119-.745,2.156,2.156,0,0,1,.119-.327,2.019,2.019,0,0,1,.153-.267,1.55,1.55,0,0,1,.207-.257,1.4,1.4,0,0,1,.263-.2,1.9,1.9,0,0,1,.521-.221v-2.057a3.206,3.206,0,0,0-.638.19,3.5,3.5,0,0,0-.586.32,4.516,4.516,0,0,0-1.408,1.564,4.239,4.239,0,0,0-.286.713,4.682,4.682,0,0,0-.168.743,5.985,5.985,0,0,0-.053.836,3.969,3.969,0,0,0,.028.776,3.021,3.021,0,0,0,.193.717,3.366,3.366,0,0,0,.286.6,2.564,2.564,0,0,0,.861.866,2.644,2.644,0,0,0,.547.242,3,3,0,0,0,.586.13,2.083,2.083,0,0,0,.638-.033l8.044-1.552v-7.574l-1.723.332Z" transform="translate(-208.712 -184.363)" fill="#fff"/>
      <path id="Path_12" data-name="Path 12" d="M372.091,311.272a.759.759,0,0,0-.317-.189.8.8,0,0,0-.391-.015,1.008,1.008,0,0,0-.38.16,1.4,1.4,0,0,0-.312.3,1.569,1.569,0,0,0-.221.4,1.781,1.781,0,0,0-.108.462,1.321,1.321,0,0,0,.051.514,1.049,1.049,0,0,0,.21.384.762.762,0,0,0,.328.221.782.782,0,0,0,.409.025.97.97,0,0,0,.408-.172,1.489,1.489,0,0,0,.337-.336,1.562,1.562,0,0,0,.224-.444,1.542,1.542,0,0,0,.074-.506,1.416,1.416,0,0,0-.094-.463.976.976,0,0,0-.218-.339" transform="translate(-235.471 -197.764)" fill="#fff"/>
      <path id="Path_13" data-name="Path 13" d="M378.674,310.038a.763.763,0,0,0-.317-.189.8.8,0,0,0-.391-.015.99.99,0,0,0-.38.16,1.368,1.368,0,0,0-.312.3,1.554,1.554,0,0,0-.221.4,1.772,1.772,0,0,0-.108.462,1.323,1.323,0,0,0,.051.514,1.056,1.056,0,0,0,.21.384.763.763,0,0,0,.329.221.777.777,0,0,0,.408.025.959.959,0,0,0,.408-.172,1.476,1.476,0,0,0,.337-.336,1.572,1.572,0,0,0,.3-.949,1.4,1.4,0,0,0-.094-.463.98.98,0,0,0-.218-.339" transform="translate(-239.656 -196.98)" fill="#fff"/>
      <path id="Path_14" data-name="Path 14" d="M370.942,284.6l-.676.13a.67.67,0,0,1,.093-.025l-1.513.292v-5.6l-1.757.339v5.6l-1.27.245-.292.056-.172.033-.618.119V277.08l-1.757.339V288.2l2.424-.468a.583.583,0,0,0,.092-.011l4.864-.938,2.369-.457V275.712l-1.786.344Z" transform="translate(-230.779 -175.296)" fill="#fff"/>
      <path id="Path_15" data-name="Path 15" d="M427.458,268.958a.768.768,0,0,0,.329.22.777.777,0,0,0,.408.024.962.962,0,0,0,.408-.172,1.468,1.468,0,0,0,.337-.336,1.558,1.558,0,0,0,.224-.444,1.531,1.531,0,0,0,.074-.506,1.407,1.407,0,0,0-.093-.463,1,1,0,0,0-.218-.339.773.773,0,0,0-.318-.189.8.8,0,0,0-.391-.015,1,1,0,0,0-.38.16,1.386,1.386,0,0,0-.312.3,1.561,1.561,0,0,0-.221.4,1.747,1.747,0,0,0-.108.461,1.334,1.334,0,0,0,.051.515,1.065,1.065,0,0,0,.21.384" transform="translate(-271.607 -169.582)" fill="#fff"/>
      <path id="Path_16" data-name="Path 16" d="M410.4,276.787a3.551,3.551,0,0,0-.516-1.3,2.732,2.732,0,0,0-.87-.9,2.36,2.36,0,0,0-.719-.294,2.163,2.163,0,0,0-.448-.049,3.68,3.68,0,0,0-.677.071,4.016,4.016,0,0,0-.677.191,2.9,2.9,0,0,0-.627.335,3.467,3.467,0,0,0-.547.473,5.023,5.023,0,0,0-1.176,1.95,5.126,5.126,0,0,0-.173.748,5.419,5.419,0,0,0-.06.787,4.343,4.343,0,0,0,.079.953,3.915,3.915,0,0,0,.261.811l-.748.144-2.84.548a1.508,1.508,0,0,1-.85-.036,1.55,1.55,0,0,1-.8-.666,2.144,2.144,0,0,1,.221-2.274,1.934,1.934,0,0,1,.481-.467,1.6,1.6,0,0,1,1.36-.263,1.4,1.4,0,0,1,.469.314,1.538,1.538,0,0,1,.313.437l1.117-1.959-.148-.205a2.757,2.757,0,0,0-.519-.4,2.865,2.865,0,0,0-.621-.271,3.456,3.456,0,0,0-1.372-.009,3.356,3.356,0,0,0-.652.2,5.441,5.441,0,0,0-.652.326,4.946,4.946,0,0,0-.612.506,6.552,6.552,0,0,0-.516.567,7.617,7.617,0,0,0-.411.67,5.349,5.349,0,0,0-.32.714,6.721,6.721,0,0,0-.2.819,4.687,4.687,0,0,0-.043,1.278c.017.157.039.311.066.461l.295.919-.788.152-.759.146v-8.71l-1.757.339V284.61l2.463-.475.024,0,7.023-1.354-.024,0,3.72-.718a3.169,3.169,0,0,0,1.293-.57,4.682,4.682,0,0,0,.552-.461,4.386,4.386,0,0,0,.473-.552q.21-.308.4-.651a4.972,4.972,0,0,0,.323-.73,3.888,3.888,0,0,0,.193-.759,5.238,5.238,0,0,0,.057-.766,4.319,4.319,0,0,0-.057-.787m-1.873,1.841a2.28,2.28,0,0,1-.3.606,1.992,1.992,0,0,1-.457.462,1.469,1.469,0,0,1-.558.255,1.134,1.134,0,0,1-.576-.016,1.172,1.172,0,0,1-.473-.276,1.34,1.34,0,0,1-.32-.493,1.672,1.672,0,0,1-.1-.668,2.059,2.059,0,0,1,.124-.675,2.3,2.3,0,0,1,.315-.589,1.894,1.894,0,0,1,.459-.439,1.5,1.5,0,0,1,.559-.235,1.128,1.128,0,0,1,1.012.289,1.323,1.323,0,0,1,.309.468,1.755,1.755,0,0,1,.119.628,2.073,2.073,0,0,1-.1.682" transform="translate(-250.481 -173.883)" fill="#fff"/>
      <path id="Path_17" data-name="Path 17" d="M403.627,92.1q1.9-.532,2.07-1.147a1.291,1.291,0,0,0-.42-1.594,3.28,3.28,0,0,0-1.427-.671q-2.433-.839-8.083.559a43.09,43.09,0,0,0-12.894,6.1A50.12,50.12,0,0,0,371.462,105.5a43.635,43.635,0,0,1,14.264-9.146,55.7,55.7,0,0,1,11.636-3.217,53.365,53.365,0,0,0,6.265-1.035" transform="translate(-236.173 -56.189)" fill="#fff"/>
      <path id="Path_18" data-name="Path 18" d="M398.7,50.961q-2.825.084-8.531,3.5-5.762,3.412-12.531,10.88a67.664,67.664,0,0,0-10.1,14.488,57.841,57.841,0,0,1,13.314-14.488,74.472,74.472,0,0,1,11.747-7.5,69.522,69.522,0,0,0,6.489-3.3q1.93-1.231,2.014-1.9a1.218,1.218,0,0,0-.811-1.482,3.2,3.2,0,0,0-1.594-.2" transform="translate(-233.683 -32.388)" fill="#fff"/>
      <path id="Path_19" data-name="Path 19" d="M368.321,1.595A3.148,3.148,0,0,0,367.314.308a1.245,1.245,0,0,0-1.706.056q-.532.364-.616,2.685a71.141,71.141,0,0,0,.392,7.216,73.638,73.638,0,0,1-.643,13.929,57.641,57.641,0,0,1-5.874,18.8,67.37,67.37,0,0,0,7.5-15.971q3.1-9.622,3.161-16.278.112-6.713-1.2-9.146" transform="translate(-228.166 0)" fill="#fff"/>
      <path id="Path_20" data-name="Path 20" d="M390.3,10.394q1.175-3.245.084-3.44a3.45,3.45,0,0,0-2.545,1.035,28.4,28.4,0,0,0-3.468,3.72q-1.986,2.517-6.153,11.048-4.2,8.5-13.9,25.732,4.839-6.712,8.643-12.81,3.832-6.069,6.6-9.705,2.825-3.608,6.209-8.027a29.858,29.858,0,0,0,4.531-7.552" transform="translate(-231.633 -4.408)" fill="#fff"/>
      <path id="Path_21" data-name="Path 21" d="M339.726,17.336a55.612,55.612,0,0,0,2.237,5.93,56.268,56.268,0,0,1,3.021,11.719,43,43,0,0,1-.811,16.922,52.234,52.234,0,0,0,3.132-14.936,43.847,43.847,0,0,0-1.175-14.236q-1.65-5.566-3.552-7.3a3.225,3.225,0,0,0-1.342-.867,1.286,1.286,0,0,0-1.594.42q-.42.447.084,2.349" transform="translate(-215.821 -9.196)" fill="#fff"/>
      <path id="Path_22" data-name="Path 22" d="M116.8,3.568a2.954,2.954,0,0,0-1.229-.732,3.108,3.108,0,0,0-1.514-.056,3.855,3.855,0,0,0-1.472.621,5.288,5.288,0,0,0-1.206,1.151,6.032,6.032,0,0,0-.857,1.549,6.832,6.832,0,0,0-.416,1.788,5.132,5.132,0,0,0,.2,1.992,4.108,4.108,0,0,0,.812,1.486,2.957,2.957,0,0,0,1.274.854,3.013,3.013,0,0,0,1.58.1,3.724,3.724,0,0,0,1.58-.668,5.7,5.7,0,0,0,1.306-1.3,6,6,0,0,0,.867-1.719,5.924,5.924,0,0,0,.286-1.955,5.4,5.4,0,0,0-.363-1.794,3.809,3.809,0,0,0-.845-1.312M145.2,60.76c1.607-1.613,3.629-2.2,5.028-1.5a2.9,2.9,0,0,1,1.134,1.057,6.754,6.754,0,0,0-1.289,1.47,5.979,5.979,0,0,0-.7,1.418,4.3,4.3,0,0,0,.232,3.688,3.894,3.894,0,0,0,2.682,1.624,4.427,4.427,0,0,0,2.733-.645,5.968,5.968,0,0,0,1.547-1.212,6.809,6.809,0,0,0,1.289-1.882,6.1,6.1,0,0,0,.541-2.527,10.492,10.492,0,0,0-.619-3.661,6.567,6.567,0,0,0-1.805-2.733,6.333,6.333,0,0,0-3.12-1.573,10.99,10.99,0,0,0-4.538.078,14.453,14.453,0,0,0-4.693,1.83,13.9,13.9,0,0,0-3.559,3.043A12.787,12.787,0,0,0,137.826,63,10.522,10.522,0,0,0,137,67.026a13.043,13.043,0,0,0,.464,3.635,11.506,11.506,0,0,0,1.392,2.94,13.79,13.79,0,0,0,2.192,2.527c1.506,1.406,2.642,2.007,5.7,4.306a6.588,6.588,0,0,1,1.6,1.676,5.454,5.454,0,0,1,.722,1.573,6.313,6.313,0,0,1,.154,1.779,5.034,5.034,0,0,1-.084.954,4.625,4.625,0,0,1-.251.851,5.005,5.005,0,0,1-.851,1.367,3.857,3.857,0,0,1-1.031.98,3.25,3.25,0,0,1-.954.387,3.317,3.317,0,0,1-.774.077A3.357,3.357,0,0,1,144.53,90a3.238,3.238,0,0,1-.877-.335,6.287,6.287,0,0,0,1.031-1.289,5.762,5.762,0,0,0,.541-1.16,4.572,4.572,0,0,0,.232-1.109,4.445,4.445,0,0,0-.387-2.115,3.733,3.733,0,0,0-1.031-1.418,3.456,3.456,0,0,0-.63-.408,4.028,4.028,0,0,0-.969-.314,6.268,6.268,0,0,0-4.332.98,6.265,6.265,0,0,0-2.115,7.994,6.465,6.465,0,0,0,2.037,2.347,8.74,8.74,0,0,0,3.533,1.5,13.937,13.937,0,0,0,11.6-3.327,15,15,0,0,0,1.96-2.372,13.991,13.991,0,0,0,1.289-2.579,13.709,13.709,0,0,0,.7-2.5,10.863,10.863,0,0,0,.181-2.244,8.612,8.612,0,0,0-.464-2.785,8.519,8.519,0,0,0-1.418-2.476,12.744,12.744,0,0,0-2.372-2.321c-2.248-1.761-3.835-2.354-6.446-4.255a6.057,6.057,0,0,1-1.676-1.753,6.26,6.26,0,0,1-.722-1.78,6.834,6.834,0,0,1-.154-2.063,6.368,6.368,0,0,1,.309-1.83,5.847,5.847,0,0,1,.851-1.625m-11.681,7.272-.129-7.968L127.924,61.4l.722-12.712L120.7,50.42l.181,12.481-5.08.748-.232,7.478,5.312-1.392-.361,14.853-.671,14.827L128,97.866l-.464-18.772.129-10.52,5.854-.542m-30.737-2.45a12.552,12.552,0,0,0-2.14,1.727,12.3,12.3,0,0,0-1.148,1.334,12.044,12.044,0,0,0-1.07,1.734l.18-2.579-8.123,1.5.284,28.571-.155,6.781,7.091-1.263c-.444-10.733-.271-18.623.052-20.783.257-1.717.677-3.32.677-3.32a26.117,26.117,0,0,1,.793-2.534,12.32,12.32,0,0,1,1.6-3.223c.622-.852,1.011-1.369,1.754-1.6a2.834,2.834,0,0,1,2.166.283,3.465,3.465,0,0,1,1.341,1.908,10.351,10.351,0,0,1,.645,3.532c.142,2.916.213,4.374.206,5.132-.021,2.083-.137,3.63-.258,5.209-.057.741-.229,2.881-.593,5.725-.25,1.947-.608,4.376-1.135,7.168l7.3-.593,1.057-5.209c.186-1.353.42-3.236.619-5.492a105.209,105.209,0,0,0,.387-11.165A33.62,33.62,0,0,0,113.767,72a11.988,11.988,0,0,0-1.676-4.538,6.009,6.009,0,0,0-2.862-2.527,6.957,6.957,0,0,0-4.023-.284,7.816,7.816,0,0,0-2.424.928M67.92,75.793a17.839,17.839,0,0,0-2.063,3.919A24.609,24.609,0,0,0,64.439,84.9a37.951,37.951,0,0,0-.516,6.575,39.048,39.048,0,0,0,.516,6.782,21.624,21.624,0,0,0,1.418,4.9,11.748,11.748,0,0,0,2.089,3.352,9.071,9.071,0,0,0,2.6,1.934,7.636,7.636,0,0,0,2.862.774,12.252,12.252,0,0,0,2.966-.206,14.479,14.479,0,0,0,4.126-1.5,13.823,13.823,0,0,0,3.378-2.579,12.01,12.01,0,0,0,2.3-3.249,8.511,8.511,0,0,0,.851-3.661,6.5,6.5,0,0,0-.516-2.862,3.74,3.74,0,0,0-1.238-1.521,3.518,3.518,0,0,0-1.47-.567,5.627,5.627,0,0,0-4.332,1.6,6.145,6.145,0,0,0-1.393,1.753,4.919,4.919,0,0,0-.593,2.553,3.776,3.776,0,0,0,.284,1.263,3.33,3.33,0,0,0,.645.98,2.438,2.438,0,0,0,.535.438,2.352,2.352,0,0,0,.728.284,4.19,4.19,0,0,1-.851,1.186,3.893,3.893,0,0,1-2.592,1.151c-2.08-.149-3.2-3.39-3.519-4.322a10.059,10.059,0,0,1-.542-3.4,31.809,31.809,0,0,0,6.163-3.868A28,28,0,0,0,82.8,88.067a20.5,20.5,0,0,0,2.759-4.925,13.839,13.839,0,0,0,.9-4.745,9.765,9.765,0,0,0-.825-4.229,7.067,7.067,0,0,0-2.243-2.811,7.5,7.5,0,0,0-3.275-1.289,10.12,10.12,0,0,0-3.971.1,12.315,12.315,0,0,0-2.862.954,13.3,13.3,0,0,0-2.811,1.831,14.291,14.291,0,0,0-2.553,2.836m8.277-.825a2.841,2.841,0,0,1,2.105.69c1,.9.993,2.433.989,4.261a11.444,11.444,0,0,1-.129,1.676,9.171,9.171,0,0,1-.387,1.676,16.178,16.178,0,0,1-1.547,3.275,21.256,21.256,0,0,1-2.347,3.017,23.784,23.784,0,0,1-2.965,2.6c.042-1.955.1-4.551.181-7.633a18.273,18.273,0,0,1,.322-3.789c.13-.573,1.234-5.426,3.778-5.778M53.325,76.7q-.541,6.885-1.47,14.156-.98,7.22-2.5,14.311l-2.063-13.28-1.6-13.331-8.974,2.192,4.306,16.838L44.532,114.6l9.051-2.037,1.934-9.592,2.192-9.231,5.26-18.849-9.644,1.8m-16.039.077-.361-6.7-4.951,1.263-16.58,3.043c.334,3.184.666,7,.9,11.32.316,5.781.333,10.136.335,11.165.013,6.581-.305,11.6-.542,15.214-.225,3.447-.483,6.361-.7,8.535l13.46-3.094,8.819-1.676-.387-6.421q0-.155.026-.412a1.691,1.691,0,0,1,.026-.361,9.073,9.073,0,0,1-.9.438c-2.054.837-4.335,1.658-6.833,2.4-2,.593-3.908,1.066-5.7,1.444l-.31-15.807c1.21-.237,2.474-.454,3.791-.645,2.034-.295,3.973-.493,5.8-.619l-.31-6.111.078-1.083-9.36,2.656.129-12.325q1.255-.3,2.553-.567a98.649,98.649,0,0,1,11.011-1.65m72.407-58.714.9,13.873.258,13.563-.078,8.251,7.091-1.65.155-18.617.877-17.405-9.205,1.986M106.676,5.991l-9.025,1.7.567,13.692a7.251,7.251,0,0,0-1.089-.812,7.923,7.923,0,0,0-1.051-.529,7.7,7.7,0,0,0-1.857-.542,6.509,6.509,0,0,0-1.831-.051,7.156,7.156,0,0,0-2.527.851,9.952,9.952,0,0,0-1.257.761,11.17,11.17,0,0,0-1.193.993,13.014,13.014,0,0,0-2.166,2.785,17.917,17.917,0,0,0-1.8,3.817,31.6,31.6,0,0,0-1.186,5.209,44.2,44.2,0,0,0-.439,6.575,40.465,40.465,0,0,0,.851,9.154,17.2,17.2,0,0,0,2.166,5.492,6.277,6.277,0,0,0,2.939,2.527,5.668,5.668,0,0,0,2.265.365c2.813-.15,4.792-2.516,5.883-3.82a18.583,18.583,0,0,0,1.3-1.792A19.106,19.106,0,0,0,98.5,50.033l-.232,6.24,7.143-1.573-.207-12.171q0-9.128.387-18.179l1.083-18.36M91.334,28.631A5.731,5.731,0,0,1,93.979,25.5,3.279,3.279,0,0,1,98.2,27.25q-.113,8.689-.225,17.378A6.6,6.6,0,0,1,95.614,49c-.979.745-2.744,1.751-3.866.735a3.2,3.2,0,0,1-.711-1.073c-1.328-2.915-1.328-6.391-1.328-9.537a30.708,30.708,0,0,1,.464-6.318,25.925,25.925,0,0,1,1.16-4.177M77.461,38.352l.516-14.647-7.117,1.289c.613,8.805.467,15.523,0,18.514-.114.728-.379,2.087-.722,3.507a24.859,24.859,0,0,1-1.573,4.616,9.98,9.98,0,0,1-.8,1.341,5.242,5.242,0,0,1-.883,1.051,2.51,2.51,0,0,1-.9.574,2.362,2.362,0,0,1-1.193.058,2.982,2.982,0,0,1-.947-.342,3.325,3.325,0,0,1-1.315-1.908,13.345,13.345,0,0,1-.7-3.507,49.334,49.334,0,0,1-.181-5.157c.034-1.869.15-3.281.232-4.255.042-.5.186-2.152.593-5.054.251-1.786.613-4.134,1.134-6.911l-7.942.722q-.748,4.822-1.057,9.721l-.335,10.082a35.469,35.469,0,0,0,.541,6.55,14.365,14.365,0,0,0,1.676,4.77,6.411,6.411,0,0,0,2.836,2.708,5.926,5.926,0,0,0,4.023.361,10.463,10.463,0,0,0,1.2-.483,10.036,10.036,0,0,0,3.468-2.663,14.241,14.241,0,0,0,1.154-1.431,13.257,13.257,0,0,0,1.089-1.869l-.31,4.641,8.123-1.5-.619-20.783m-48.684-.464a8.473,8.473,0,0,0-.445,1.528,8.087,8.087,0,0,0-.148,1.386,7.61,7.61,0,0,0,.361,2.372,5.263,5.263,0,0,0,.406.967,4.674,4.674,0,0,0,.548.787,3.421,3.421,0,0,0,1.418,1.006,3.245,3.245,0,0,0,1.78.077,5.689,5.689,0,0,0,2.1-.869,5.238,5.238,0,0,0,1-.884,5.082,5.082,0,0,0,1.186-3.481,3.971,3.971,0,0,0-.284-1.16,3.529,3.529,0,0,0-.619-.98,3.275,3.275,0,0,0-1.212-.825,6.06,6.06,0,0,1,1.624-1.831c.331-.246,2.3-1.705,4.152-1.109,2.256.725,3.187,4.121,2.6,6.395a8.922,8.922,0,0,1-1.625,2.914,18.083,18.083,0,0,1-2.424,2.785c-2.411,2.284-4.868,3.759-6.678,5.389-.3.273-.53.5-.616.583a15.291,15.291,0,0,0-1.653,1.944A13.724,13.724,0,0,0,28.622,58,10.969,10.969,0,0,0,28,61.817a10.109,10.109,0,0,0,.7,4.1,5.061,5.061,0,0,0,1.727,2.269,4.72,4.72,0,0,0,2.295.928,8.644,8.644,0,0,0,2.5-.154,10.551,10.551,0,0,0,4.384-1.986,13.486,13.486,0,0,0,3.43-4l.593,3.945,7.22-1.908-.645-6.395L50.1,41.6a20.238,20.238,0,0,0-.593-4.977,10.243,10.243,0,0,0-1.959-3.971,7.365,7.365,0,0,0-3.43-2.321,9.476,9.476,0,0,0-5.054-.155,15.32,15.32,0,0,0-5,1.856,13.034,13.034,0,0,0-3.378,2.785,12.356,12.356,0,0,0-1.908,3.068M40.819,51.4a17.511,17.511,0,0,0,2.347-2.733,18.015,18.015,0,0,1-.232,6.7,19.312,19.312,0,0,1-.774,2.114A13.317,13.317,0,0,1,40.974,59.7a9.078,9.078,0,0,1-1.625,1.883,4.753,4.753,0,0,1-1.109.726,4.413,4.413,0,0,1-.953.306A1.808,1.808,0,0,1,35.352,62a3.6,3.6,0,0,1-.7-2.243,4.792,4.792,0,0,1,.644-2.14A9.7,9.7,0,0,1,36.822,55.4a52.024,52.024,0,0,1,4-4M12.893,24.866a15.673,15.673,0,0,0-4.641,1.753,16.016,16.016,0,0,0-4.074,3.249,16.334,16.334,0,0,0-2.94,4.667A14.925,14.925,0,0,0,.129,40.389a11.266,11.266,0,0,0,.593,3.816,11.944,11.944,0,0,0,1.521,2.94,11.155,11.155,0,0,0,2.14,2.166,14.658,14.658,0,0,0,2.4,1.547c3.264,1.731,5.874,2.135,8.158,3.672a8.185,8.185,0,0,1,1,.789,7.975,7.975,0,0,1,1.728,2.372,7.671,7.671,0,0,1,.671,3.352,6.286,6.286,0,0,1-.645,2.939A7.542,7.542,0,0,1,16.142,66.1a6.589,6.589,0,0,1-4.751,2.024,4.82,4.82,0,0,1-2.026-.579,4.715,4.715,0,0,1-1.114-.852,5.059,5.059,0,0,0,1.077-.58,4.883,4.883,0,0,0,.806-.709,5.2,5.2,0,0,0,.928-1.6,4.756,4.756,0,0,0,.387-1.315,4.123,4.123,0,0,0,.026-.593,5.494,5.494,0,0,0-.49-2.656,3.532,3.532,0,0,0-1.367-1.5c-.294-.165-.542-.291-.607-.318a4.152,4.152,0,0,0-1.172-.275,6.11,6.11,0,0,0-1.857.1,6.682,6.682,0,0,0-1.908.722A7.624,7.624,0,0,0,2.114,59.5a7.872,7.872,0,0,0-1.5,2.45A8.932,8.932,0,0,0,0,65.427a8.5,8.5,0,0,0,1.006,4.332,6.805,6.805,0,0,0,2.63,2.682A9.874,9.874,0,0,0,7.478,73.6a14.9,14.9,0,0,0,4.487-.284,20.223,20.223,0,0,0,4.538-1.47,15.9,15.9,0,0,0,4.126-2.759,15.8,15.8,0,0,0,3.2-4.358,17.261,17.261,0,0,0,1.6-6.214l.052-1.6a12.452,12.452,0,0,0-.567-3.894,9.567,9.567,0,0,0-1.7-3.2,13.377,13.377,0,0,0-3.017-2.708,31.107,31.107,0,0,0-4.358-2.295c-1.479-.7-2.242-1.009-3.713-1.805a10.082,10.082,0,0,1-2.553-1.753A6.078,6.078,0,0,1,8.1,39.229a6.47,6.47,0,0,1-.464-2.6A5.9,5.9,0,0,1,8.1,34.3a6.087,6.087,0,0,1,1.212-1.831,5.821,5.821,0,0,1,1.624-1.289,4.651,4.651,0,0,1,3.533-.464,3.749,3.749,0,0,1,.98.49,7.667,7.667,0,0,0-.748,1.444c-.294.756-1.147,2.946-.1,4.616a3.841,3.841,0,0,0,2.6,1.7,4.354,4.354,0,0,0,1.547-.052,7.116,7.116,0,0,0,1.6-.49,7.009,7.009,0,0,0,1.96-1.186,7.524,7.524,0,0,0,1.624-2.192,7.658,7.658,0,0,0,.67-3.429,6.481,6.481,0,0,0-.928-3.533,7.129,7.129,0,0,0-2.579-2.372,10.127,10.127,0,0,0-3.739-1.109,15.216,15.216,0,0,0-4.461.258" transform="translate(0 -1.724)" fill="#fff"/>
    </g>
  </g>
</svg>
