<svg xmlns="http://www.w3.org/2000/svg" xmlns:xlink="http://www.w3.org/1999/xlink" width="684.45" height="688.448" viewBox="0 0 684.45 688.448">
  <defs>
    <clipPath id="clip-path">
      <rect id="Rectangle_128" data-name="Rectangle 128" width="500.32" height="480.007" fill="none"/>
    </clipPath>
  </defs>
  <g id="Group_203" data-name="Group 203" transform="matrix(-0.602, 0.799, -0.799, -0.602, 684.45, 288.875)">
    <g id="Group_202" data-name="Group 202" clip-path="url(#clip-path)">
      <path id="Path_854" data-name="Path 854" d="M10.14,106.907q12.144,13.872,42.539,40.45t72.278,85.025Q166.7,291.045,186.55,376.409q-7.96-75.728-34.544-136.91-30.852-73.771-66.943-113.593Q49.116,85.868,26.149,79.648q-8.22-3.081-14.4-2.274Q1.63,78.937.267,87.388q-1.911,5.578,9.873,19.519" transform="translate(0 103.598)" fill="#e12a58"/>
      <path id="Path_855" data-name="Path 855" d="M66.681,42.662q-7.05-5.726-13.21-6.782Q42.585,34.426,39.569,43q-2.845,5.571,5.524,25,8.729,19.366,32.486,58.939,23.328,39.283,50.909,118.333,27.368,78.9,26.575,179.944,9.635-86.909-1.977-163.239-12.98-92.262-39.324-148.282Q87.85,57.975,66.681,42.662" transform="translate(52.127 47.862)" fill="#e12a58"/>
      <path id="Path_856" data-name="Path 856" d="M251.335,41q-22.689,11.782-56.7,63.7Q160.5,155.9,134.272,245.6,111.7,319.349,108.657,406.669q13.981-100.208,52.691-174.244,38.5-74.182,67.419-109.864,29.275-35.749,40.469-53.152,11.413-18.189,9.238-23.73-1.928-9.126-12.758-9.29Q259.91,36.2,251.335,41" transform="translate(145.799 48.817)" fill="#e12a58"/>
      <path id="Path_857" data-name="Path 857" d="M102.5,27.241q-7.644,30.125-4.567,81.285,2.933,51.37,5.8,93.636,2.294,42.188.077,108.5-2.575,66.387-.431,142.851Q118.632,271.349,130.7,184.534q12.432-86.881,10.318-116.447-2.473-29.493-7.206-46.46-5.09-16.9-14.091-21.133Q110.368-3.672,102.5,27.241" transform="translate(130.227 0)" fill="#e12a58"/>
      <path id="Path_858" data-name="Path 858" d="M343.339,95.483q-.14-8.536-10.014-11.489-6.151-1.988-14.77-.34Q295,87.037,253.479,121.034q-41.313,34.14-82.919,102.776Q136.011,280.671,116.95,354.3q31.678-81.626,81.676-133.622,49.856-51.781,83.964-73.939Q316.555,124.8,330.5,113.014q13.728-11.929,12.843-17.531" transform="translate(156.927 111.247)" fill="#e12a58"/>
    </g>
  </g>
</svg>
