<svg id="ed2wXDNe49F1" xmlns="http://www.w3.org/2000/svg" xmlns:xlink="http://www.w3.org/1999/xlink" viewBox="0 0 684.45 688.448" shape-rendering="geometricPrecision" text-rendering="geometricPrecision"><style><![CDATA[#ed2wXDNe49F5_ts {animation: ed2wXDNe49F5_ts__ts 4300ms linear infinite normal forwards}@keyframes ed2wXDNe49F5_ts__ts { 0% {transform: translate(186.550001px,480.007px) scale(0,0)} 2.325581% {transform: translate(186.550001px,480.007px) scale(0,0)} 11.627907% {transform: translate(186.550001px,480.007px) scale(1,1)} 79.069767% {transform: translate(186.550001px,480.007px) scale(1.1,1.1)} 95.348837% {transform: translate(186.550001px,480.007px) scale(1.3,1.3)} 100% {transform: translate(186.550001px,480.007px) scale(1.3,1.3)}} #ed2wXDNe49F5 {animation: ed2wXDNe49F5_c_o 4300ms linear infinite normal forwards}@keyframes ed2wXDNe49F5_c_o { 0% {opacity: 1} 79.069767% {opacity: 1} 95.348837% {opacity: 0} 100% {opacity: 0}} #ed2wXDNe49F6_ts {animation: ed2wXDNe49F6_ts__ts 4300ms linear infinite normal forwards}@keyframes ed2wXDNe49F6_ts__ts { 0% {transform: translate(211.554002px,473.078px) scale(0,0)} 4.651163% {transform: translate(211.554002px,473.078px) scale(0,0)} 13.953488% {transform: translate(211.554002px,473.078px) scale(1,1)} 83.72093% {transform: translate(211.554002px,473.078px) scale(1.1,1.1)} 100% {transform: translate(211.554002px,473.078px) scale(1.3,1.3)}} #ed2wXDNe49F6 {animation: ed2wXDNe49F6_c_o 4300ms linear infinite normal forwards}@keyframes ed2wXDNe49F6_c_o { 0% {opacity: 1} 83.72093% {opacity: 1} 100% {opacity: 0}} #ed2wXDNe49F7_ts {animation: ed2wXDNe49F7_ts__ts 4300ms linear infinite normal forwards}@keyframes ed2wXDNe49F7_ts__ts { 0% {transform: translate(225.277031px,450.828436px) scale(0,0)} 9.302326% {transform: translate(225.277031px,450.828436px) scale(1,1)} 76.744186% {transform: translate(225.277031px,450.828436px) scale(1.1,1.1)} 93.023256% {transform: translate(225.277031px,450.828436px) scale(1.3,1.3)} 100% {transform: translate(225.277031px,450.828436px) scale(1.3,1.3)}} #ed2wXDNe49F7 {animation: ed2wXDNe49F7_c_o 4300ms linear infinite normal forwards}@keyframes ed2wXDNe49F7_c_o { 0% {opacity: 1} 76.744186% {opacity: 1} 93.023256% {opacity: 0} 100% {opacity: 0}} #ed2wXDNe49F8_ts {animation: ed2wXDNe49F8_ts__ts 4300ms linear infinite normal forwards}@keyframes ed2wXDNe49F8_ts__ts { 0% {transform: translate(254.456px,455.486px) scale(0,0)} 2.325581% {transform: translate(254.456px,455.486px) scale(0,0)} 11.627907% {transform: translate(254.456px,455.486px) scale(1,1)} 83.72093% {transform: translate(254.456px,455.486px) scale(1.1,1.1)} 100% {transform: translate(254.456px,455.486px) scale(1.3,1.3)}} #ed2wXDNe49F8 {animation: ed2wXDNe49F8_c_o 4300ms linear infinite normal forwards}@keyframes ed2wXDNe49F8_c_o { 0% {opacity: 1} 83.72093% {opacity: 1} 100% {opacity: 0}} #ed2wXDNe49F9_ts {animation: ed2wXDNe49F9_ts__ts 4300ms linear infinite normal forwards}@keyframes ed2wXDNe49F9_ts__ts { 0% {transform: translate(273.877px,465.547px) scale(0,0)} 6.976744% {transform: translate(273.877px,465.547px) scale(0,0)} 16.27907% {transform: translate(273.877px,465.547px) scale(1,1)} 79.069767% {transform: translate(273.877px,465.547px) scale(1.1,1.1)} 95.348837% {transform: translate(273.877px,465.547px) scale(1.3,1.3)} 100% {transform: translate(273.877px,465.547px) scale(1.3,1.3)}} #ed2wXDNe49F9 {animation: ed2wXDNe49F9_c_o 4300ms linear infinite normal forwards}@keyframes ed2wXDNe49F9_c_o { 0% {opacity: 1} 79.069767% {opacity: 1} 95.348837% {opacity: 0} 100% {opacity: 0}}]]></style><g transform="matrix(-.602 0.799-.799-.602 684.45 288.875)"><g clip-path="url(#ed2wXDNe49F10)"><g><g id="ed2wXDNe49F5_ts" transform="translate(186.550001,480.007) scale(0,0)"><path id="ed2wXDNe49F5" d="M10.14,106.907q12.144,13.872,42.539,40.45t72.278,85.025Q166.7,291.045,186.55,376.409q-7.96-75.728-34.544-136.91-30.852-73.771-66.943-113.593Q49.116,85.868,26.149,79.648q-8.22-3.081-14.4-2.274Q1.63,78.937,0.267,87.388q-1.911,5.578,9.873,19.519" transform="translate(-186.550001,-376.409)" fill="#e12a58"/></g><g id="ed2wXDNe49F6_ts" transform="translate(211.554002,473.078) scale(0,0)"><path id="ed2wXDNe49F6" d="M66.681,42.662q-7.05-5.726-13.21-6.782Q42.585,34.426,39.569,43q-2.845,5.571,5.524,25q8.729,19.366,32.486,58.939q23.328,39.283,50.909,118.333q27.368,78.9,26.575,179.944q9.635-86.909-1.977-163.239-12.98-92.262-39.324-148.282Q87.85,57.975,66.681,42.662" transform="translate(-159.427002,-425.216)" fill="#e12a58"/></g><g id="ed2wXDNe49F7_ts" transform="translate(225.277031,450.828436) scale(0,0)"><path id="ed2wXDNe49F7" d="M102.5,27.241q-7.644,30.125-4.567,81.285q2.933,51.37,5.8,93.636q2.294,42.188.077,108.5-2.575,66.387-.431,142.851Q118.632,271.349,130.7,184.534q12.432-86.881,10.318-116.447-2.473-29.493-7.206-46.46-5.09-16.9-14.091-21.133-9.353-4.166-17.221,26.747" transform="translate(-95.050031,-450.828436)" fill="#e12a58"/></g><g id="ed2wXDNe49F8_ts" transform="translate(254.456,455.486) scale(0,0)"><path id="ed2wXDNe49F8" d="M251.335,41q-22.689,11.782-56.7,63.7-34.135,51.2-60.363,140.9-22.572,73.749-25.615,161.069q13.981-100.208,52.691-174.244q38.5-74.182,67.419-109.864q29.275-35.749,40.469-53.152q11.413-18.189,9.238-23.73-1.928-9.126-12.758-9.29Q259.91,36.2,251.335,41" transform="translate(-108.657,-406.669)" fill="#e12a58"/></g><g id="ed2wXDNe49F9_ts" transform="translate(273.877,465.547) scale(0,0)"><path id="ed2wXDNe49F9" d="M343.339,95.483q-.14-8.536-10.014-11.489-6.151-1.988-14.77-.34-23.555,3.383-65.076,37.38-41.313,34.14-82.919,102.776-34.549,56.861-53.61,130.49q31.678-81.626,81.676-133.622q49.856-51.781,83.964-73.939q33.965-21.939,47.91-33.725q13.728-11.929,12.843-17.531" transform="translate(-116.95,-354.3)" fill="#e12a58"/></g></g><clipPath id="ed2wXDNe49F10"><rect width="500.32" height="480.007" rx="0" ry="0" transform="matrix(2.058696 0 0 2.269579-264.843396-304.703396)" fill="none"/></clipPath></g></g></svg>