<svg width="6" height="10" viewBox="0 0 6 10" fill="none" xmlns="http://www.w3.org/2000/svg">
<path d="M4.08105 4.89388L4.18711 4.99995L4.08105 5.10602L0.847714 8.33935C0.583224 8.60384 0.587452 9.04268 0.848411 9.31125C1.11488 9.57697 1.54439 9.57674 1.81058 9.31055L5.63558 5.48555L5.63569 5.48544C5.69898 5.42228 5.7492 5.34726 5.78346 5.26466C5.81772 5.18207 5.83535 5.09353 5.83535 5.00412C5.83535 4.9147 5.81772 4.82616 5.78346 4.74357C5.7492 4.66098 5.69898 4.58595 5.63569 4.52279L5.63558 4.52268L1.81058 0.697683C1.74736 0.63446 1.6723 0.584309 1.5897 0.550093C1.50709 0.515877 1.41856 0.498267 1.32915 0.498267C1.23974 0.498267 1.1512 0.515877 1.0686 0.550093C0.985993 0.584309 0.910937 0.63446 0.847714 0.697683C0.784491 0.760906 0.73434 0.835962 0.700124 0.918567C0.665908 1.00117 0.648297 1.08971 0.648297 1.17912C0.648297 1.26853 0.665908 1.35706 0.700124 1.43967C0.73434 1.52227 0.784491 1.59733 0.847714 1.66055L4.08105 4.89388Z" fill="white" stroke="#DE2A57" stroke-width="0.3"/>
</svg>
