<svg width="7" height="11" viewBox="0 0 7 11" fill="none" xmlns="http://www.w3.org/2000/svg">
<path d="M4.0891 5.73346L4.20578 5.85013L4.0891 5.9668L0.532436 9.52347C0.241499 9.8144 0.246149 10.2971 0.533199 10.5925C0.82632 10.8849 1.29878 10.8846 1.59159 10.5918L5.79909 6.38429L5.79921 6.38417C5.86883 6.31469 5.92407 6.23216 5.96175 6.14131C5.99944 6.05046 6.01884 5.95307 6.01884 5.85471C6.01884 5.75635 5.99944 5.65896 5.96175 5.56811C5.92407 5.47726 5.86883 5.39473 5.79921 5.32525L5.79909 5.32513L1.59159 1.11763C1.52205 1.04809 1.43948 0.992923 1.34862 0.955286C1.25775 0.917648 1.16037 0.898276 1.06201 0.898276C0.963663 0.898276 0.866274 0.917648 0.775409 0.955286C0.684544 0.992923 0.601982 1.04809 0.532437 1.11763C0.462892 1.18718 0.407726 1.26974 0.370088 1.36061C0.33245 1.45147 0.313078 1.54886 0.313078 1.64721C0.313078 1.74556 0.33245 1.84295 0.370088 1.93382C0.407726 2.02468 0.462892 2.10724 0.532436 2.17679L4.0891 5.73346Z" fill="white" stroke="#31225D" stroke-width="0.33"/>
</svg>
