<svg width="34" height="50" viewBox="0 0 34 50" fill="none" xmlns="http://www.w3.org/2000/svg">
<path d="M13.7536 0.458226C13.7687 0.0945767 14.374 0.0272343 14.4447 0.393408C14.5002 0.773051 14.5869 1.22509 14.3336 1.55254C14.0499 1.24866 13.8201 0.873223 13.7536 0.458226Z" fill="white"/>
<path d="M15.0019 0.392661C15.0979 0.00796753 15.7654 0.163697 15.677 0.550916C15.5735 0.938134 15.3538 1.29589 15.0583 1.5661C14.8369 1.2176 14.9194 0.773145 15.0019 0.392661Z" fill="white"/>
<path d="M12.6911 1.14784C12.6347 0.907095 12.8805 0.788404 13.048 0.688232C13.4454 0.893627 13.6693 1.32041 13.8031 1.72867C13.7585 1.96437 13.5135 1.80107 13.3831 1.74046C13.1272 1.58557 12.8073 1.44247 12.6911 1.14784Z" fill="white"/>
<path d="M16.1999 0.839531C16.4651 0.646763 16.8666 1.0222 16.689 1.29998C16.4844 1.56935 16.1612 1.71751 15.8598 1.85387C15.763 1.9128 15.5585 1.90607 15.6022 1.74697C15.7108 1.401 15.9263 1.07775 16.1999 0.839531Z" fill="white"/>
<path d="M12.2309 1.82597C12.4405 1.70896 12.6585 1.85038 12.8505 1.93456C13.0668 2.05325 13.3261 2.16015 13.4313 2.40174C13.135 2.62566 12.7175 2.5036 12.3749 2.47498C12.0634 2.427 11.9472 1.99685 12.2309 1.82597Z" fill="white"/>
<path d="M19.7638 2.46668C19.8716 2.23435 19.7503 1.94562 19.9263 1.73938C20.0576 1.97003 20.1611 2.24024 20.4036 2.37997C20.6384 2.53655 20.9347 2.48436 21.2007 2.50708C21.1056 2.81181 20.6872 2.80928 20.5711 3.10391C20.4212 3.32698 20.5391 3.64012 20.3648 3.84215C20.2167 3.65275 20.1157 3.41705 19.9069 3.28236C19.6973 3.14178 19.4338 3.16704 19.1965 3.12916C19.1914 3.0997 19.1821 3.04077 19.1771 3.01215C19.385 2.848 19.6712 2.73773 19.7638 2.46668Z" fill="white"/>
<path d="M16.6982 1.93465C16.8725 1.84458 17.1334 1.81933 17.2462 2.01546C17.3977 2.21496 17.2513 2.53063 17.0046 2.5542C16.6637 2.59292 16.2815 2.65269 15.9625 2.49443C16.0021 2.16277 16.4381 2.07018 16.6982 1.93465Z" fill="white"/>
<path d="M12.0801 3.19491C12.1719 2.97941 12.4379 2.98025 12.6357 2.9651C12.9118 2.96426 13.2477 2.91039 13.4489 3.14609C13.1433 3.40535 12.7822 3.61075 12.3882 3.69156C12.1466 3.68903 11.9715 3.41209 12.0801 3.19491Z" fill="white"/>
<path d="M15.9844 3.06596C16.3421 2.9902 16.7167 3.02303 17.0711 3.10047C17.4381 3.20486 17.2984 3.82693 16.9246 3.77474C16.5736 3.67036 16.2234 3.50537 15.9633 3.24189C15.9692 3.19812 15.9793 3.11058 15.9844 3.06596Z" fill="white"/>
<path d="M13.5011 3.6949C13.6038 3.60483 13.8386 3.68312 13.7435 3.84137C13.6315 4.15283 13.4438 4.4424 13.2031 4.66884C12.9514 4.89275 12.5162 4.59897 12.6584 4.28246C12.8386 3.97942 13.1947 3.83885 13.5011 3.6949Z" fill="white"/>
<path d="M15.5887 3.75613L15.651 3.677C16.0122 3.80748 16.3775 3.99856 16.6216 4.30244C16.8228 4.6038 16.375 4.97671 16.1056 4.75027C15.8539 4.49437 15.662 4.17449 15.5542 3.83189L15.5887 3.75613Z" fill="white"/>
<path d="M14.1762 4.0971C14.3008 3.94053 14.4271 4.11983 14.4186 4.2562C14.4473 4.57271 14.438 4.90353 14.3353 5.20657C14.1922 5.52224 13.6333 5.37493 13.6745 5.02895C13.7503 4.68214 13.9405 4.36058 14.1762 4.0971Z" fill="white"/>
<path d="M14.9353 4.11325L14.9808 4.03833C15.1668 4.0821 15.2476 4.26729 15.3411 4.41376C15.4581 4.62758 15.5776 4.85317 15.6003 5.10066C15.5784 5.44579 15.006 5.52239 14.9168 5.17894C14.8495 4.83297 14.804 4.44743 14.9353 4.11325Z" fill="white"/>
<path d="M5.4863 4.83559C5.50061 4.55612 5.68412 4.25055 5.98547 4.22193C6.56967 4.1386 7.11683 4.45006 7.57812 4.77414C8.30458 5.36844 8.86689 6.13361 9.36859 6.92068C9.96036 7.83148 10.3417 8.85341 10.7348 9.85933C11.1439 10.9318 11.3644 12.0631 11.5791 13.1869C11.6456 13.5766 11.7374 13.9664 11.7205 14.3645C11.5235 14.0506 11.4074 13.6962 11.2634 13.3569C10.8097 12.287 10.3097 11.2297 9.64974 10.2693C8.96116 9.2179 8.06972 8.31635 7.13029 7.48888C6.5865 7.01412 6.08144 6.47622 5.73883 5.83562C5.57384 5.5309 5.47367 5.18409 5.4863 4.83559Z" fill="white"/>
<path d="M18.5433 4.87081C18.7108 4.7437 18.9886 4.88344 18.9709 5.09725C18.9574 5.36325 18.9322 5.65282 18.7815 5.8801C18.6359 5.98869 18.6047 5.73616 18.5475 5.65451C18.4835 5.41208 18.3017 5.06274 18.5433 4.87081Z" fill="white"/>
<path d="M17.5375 5.50048C17.4432 5.36411 17.5552 5.1705 17.6974 5.1242C17.7993 5.12168 17.8986 5.14609 17.9988 5.16124C18.0889 5.45755 18.3557 5.79174 18.1949 6.09899C17.9281 5.96346 17.6949 5.75554 17.5375 5.50048Z" fill="white"/>
<path d="M19.4163 5.1266C19.5989 4.93299 19.9365 5.08535 19.9129 5.34967C19.7656 5.65103 19.5341 5.94312 19.2083 6.05929C19.205 5.73857 19.2572 5.40859 19.4163 5.1266Z" fill="white"/>
<path d="M26.1681 6.43149C26.6479 5.89443 27.2775 5.38515 28.0309 5.36916C28.3197 5.34643 28.5587 5.58802 28.5899 5.86497C28.6395 6.33721 28.4224 6.78419 28.1631 7.16383C27.6185 7.98204 26.7817 8.53173 26.1285 9.25145C24.8802 10.5234 24.0384 12.1278 23.3961 13.7752C23.322 13.978 23.2235 14.1716 23.1057 14.3526C23.1326 13.6674 23.3035 12.9974 23.4315 12.3265C23.6116 11.387 23.9062 10.4746 24.2808 9.59574C24.7118 8.43913 25.3499 7.3566 26.1681 6.43149Z" fill="white"/>
<path d="M20.2244 5.70836C20.4634 5.57284 20.7362 5.91712 20.5527 6.12168C20.3128 6.33296 19.9668 6.41209 19.6537 6.41967C19.6562 6.10147 19.9836 5.88093 20.2244 5.70836Z" fill="white"/>
<path d="M11.8798 6.60397C11.932 6.2841 12.0878 5.86994 12.464 5.84216C12.7603 5.88509 12.9918 6.11153 13.1408 6.35902C13.3614 6.72519 13.5247 7.13009 13.587 7.55434C13.8134 9.07712 13.5743 10.6302 13.1627 12.1C12.927 12.8129 12.7056 13.5394 12.3521 14.2044C12.3529 13.7978 12.4531 13.4022 12.4994 13.0007C12.6745 11.6614 12.6619 10.28 12.2923 8.97274C12.0886 8.20083 11.7645 7.41713 11.8798 6.60397Z" fill="white"/>
<path d="M16.9735 6.30712C16.7378 6.14634 16.9003 5.77427 17.1755 5.80626C17.4811 5.94768 17.7496 6.18169 17.9037 6.48389C17.5872 6.50915 17.253 6.46369 16.9735 6.30712Z" fill="white"/>
<path d="M19.7545 6.93831C19.9885 6.67315 20.369 6.60833 20.7049 6.61002C20.949 6.68157 20.9482 7.05448 20.7074 7.13192C20.3774 7.17064 20.0542 7.06374 19.7545 6.93831Z" fill="white"/>
<path d="M16.7749 6.78666C17.0939 6.69322 17.4668 6.79676 17.7564 6.95501C17.6049 7.22017 17.2522 7.22186 16.9845 7.27826C16.7008 7.3557 16.5131 6.93229 16.7749 6.78666Z" fill="white"/>
<path d="M21.9636 7.36936C22.1261 7.10083 22.3803 6.78516 22.7305 6.82641C22.9931 6.91143 23.1 7.20016 23.1354 7.44933C23.2027 8.08571 23.0057 8.70695 22.7818 9.29451C22.2077 10.8467 22.1917 12.5547 22.4754 14.1701C22.2919 14.0893 22.2818 13.857 22.2077 13.6953C21.7094 12.2896 21.4139 10.7988 21.4745 9.30293C21.5217 8.63876 21.5958 7.94429 21.9636 7.36936Z" fill="white"/>
<path d="M19.7369 7.40795C20.018 7.36081 20.3278 7.4534 20.577 7.58893C20.7992 7.75055 20.6384 8.10831 20.3733 8.08221C20.0778 7.94921 19.8093 7.72951 19.6552 7.43993L19.7369 7.40795Z" fill="white"/>
<path d="M17.5467 7.50652C17.6586 7.5141 17.9044 7.34406 17.8985 7.55534C17.7992 7.80788 17.5787 7.99391 17.364 8.14964C17.1864 8.302 16.8808 8.11344 16.9339 7.88532C17.0113 7.62521 17.3244 7.57975 17.5467 7.50652Z" fill="white"/>
<path d="M19.285 7.95832C19.2092 7.8472 19.407 7.76808 19.4685 7.8472C19.6974 8.02987 20.0013 8.23021 20.0375 8.54336C19.9878 8.78158 19.7378 8.78747 19.5484 8.73444C19.4432 8.48275 19.3203 8.23274 19.285 7.95832Z" fill="white"/>
<path d="M18.1469 7.89958L18.2092 7.85413C18.2403 7.86675 18.3026 7.89285 18.3346 7.90632C18.3337 8.21609 18.2664 8.54186 18.0871 8.7986C17.8893 8.93497 17.63 8.78513 17.6224 8.5528C17.7327 8.29269 17.9297 8.0772 18.1469 7.89958Z" fill="white"/>
<path d="M18.5768 8.88286C18.56 8.55204 18.6021 8.1825 18.8403 7.9325C19.0002 8.22459 19.1425 8.55289 19.1063 8.89297C19.0314 8.97462 18.9413 9.03943 18.8563 9.11014C18.7611 9.03775 18.645 8.98472 18.5768 8.88286Z" fill="white"/>
<path d="M15.8184 10.9189C16.1745 10.6689 16.3748 10.2539 16.7553 10.0333C16.906 10.2875 17.0053 10.5805 17.2158 10.7951C17.6846 10.7623 17.8993 10.1958 18.3505 10.0939C18.3858 10.1125 18.4565 10.1503 18.4919 10.1689C18.6434 10.5317 18.6257 10.95 18.8303 11.296C19.1409 11.078 19.4145 10.8111 19.7302 10.5982C20.1207 10.8961 19.8564 11.4761 20.1847 11.8187C20.4061 11.658 20.6157 11.4812 20.8506 11.3398C20.7824 11.929 20.6527 12.5098 20.5846 13.0999C20.5484 13.3264 20.5416 13.5949 20.3388 13.7439C20.183 13.8828 19.9608 13.8466 19.7899 13.7624C18.9406 13.3727 18.0205 13.1252 17.0844 13.0865C16.3285 13.0486 15.576 13.1631 14.8234 13.2203C14.6904 13.2363 14.5633 13.1791 14.4724 13.0848C14.4067 12.7565 14.6357 12.4678 14.7359 12.1698C15.0229 11.5376 15.1601 10.8044 15.6627 10.296C15.7149 10.503 15.7679 10.7101 15.8184 10.9189Z" fill="white"/>
<path d="M5.06716 10.4998C5.17743 10.3003 5.42828 10.2557 5.63536 10.2296C6.06467 10.2296 6.49818 10.318 6.88288 10.5099C7.98898 11.0445 8.90651 11.8972 9.70873 12.813C10.1263 13.3341 10.5404 13.8644 10.8695 14.4469C10.5724 14.2424 10.3258 13.9772 10.053 13.744C9.23313 13.0277 8.3038 12.414 7.26757 12.0639C6.65896 11.845 6.00322 11.7069 5.47121 11.3206C5.23046 11.1286 4.96867 10.8315 5.06716 10.4998Z" fill="white"/>
<path d="M26.4611 11.3475C27.1598 10.8155 27.9612 10.2843 28.8762 10.3062C29.0833 10.3331 29.3518 10.3836 29.4351 10.605C29.489 10.9257 29.2449 11.1943 29.0109 11.3761C28.4932 11.7448 27.8593 11.8786 27.2726 12.0958C26.3046 12.4317 25.4358 13.0075 24.6665 13.6775C24.387 13.9166 24.1361 14.1885 23.8365 14.404C24.5124 13.2356 25.4055 12.1909 26.4611 11.3475Z" fill="white"/>
<path d="M15.4581 13.5808C16.8538 13.3822 18.305 13.5758 19.5971 14.1389C19.7781 14.1869 19.7486 14.3839 19.7503 14.5287C19.7301 15.4024 19.8337 16.2712 19.9195 17.139C20.0837 18.6728 20.2966 20.2023 20.5719 21.7208C20.6569 22.1746 20.7739 22.6224 20.9153 23.0626C21.1165 23.7117 20.917 24.5366 20.3025 24.8935C19.555 25.4104 18.6307 25.524 17.7511 25.6242C16.4 25.6991 15.0069 25.7302 13.7038 25.3127C13.1297 25.1326 12.5388 24.7967 12.2913 24.2209C12.0825 23.5879 12.1608 22.9078 12.2408 22.2596C12.4984 20.544 13.0245 18.8857 13.5775 17.2459C13.9757 16.0927 14.3983 14.9454 14.8747 13.8216C14.9606 13.585 15.2594 13.633 15.4581 13.5808ZM16.4581 15.7375C16.251 16.1904 16.2165 16.7148 16.2611 17.2064C16.5869 17.2535 16.9977 17.3453 17.2746 17.1289C17.2999 16.6895 17.262 16.2451 17.2376 15.8065C17.0878 15.5733 16.6677 15.5918 16.4581 15.7375Z" fill="white"/>
<path d="M7.42503 14.372C7.9604 14.3038 8.58163 14.2365 9.04545 14.5723C9.44866 14.8771 9.48233 15.4074 9.57409 15.8636C9.5985 16.0564 9.64648 16.2921 9.50001 16.4503C9.28704 16.5059 9.0665 16.4352 8.85184 16.4209C8.32573 16.3359 7.78867 16.3805 7.26845 16.4823C6.94353 16.5497 6.64217 16.6995 6.31808 16.7702C6.21034 16.7374 6.15815 16.6658 6.16236 16.5556C6.14047 16.2155 6.15815 15.8746 6.15646 15.5353C6.13879 15.1658 6.35344 14.803 6.67332 14.6245C6.90396 14.4907 7.16492 14.4208 7.42503 14.372Z" fill="white"/>
<path d="M25.536 14.3796C26.1387 14.2584 26.7835 14.3123 27.3542 14.5438C27.7524 14.6961 28.0512 15.1019 28.0285 15.5354C28.0159 15.9201 28.068 16.3115 27.9965 16.6911C27.8736 16.8351 27.7027 16.7189 27.5605 16.6819C26.8365 16.399 26.0385 16.3064 25.2717 16.4277C25.0772 16.4411 24.8777 16.5026 24.6849 16.4504C24.5098 16.2458 24.6024 15.9546 24.6361 15.7172C24.7152 15.3822 24.7321 15.0067 24.9745 14.739C25.1117 14.5564 25.3154 14.4343 25.536 14.3796Z" fill="white"/>
<path d="M20.3617 15.1656C20.61 15.3205 20.8221 15.5234 21.0301 15.728C22.2523 16.9839 23.8601 17.7541 25.4343 18.4713C25.6464 18.558 25.7979 18.7575 25.8248 18.9848C25.9991 20.1911 26.3274 21.3679 26.6725 22.5337C26.7129 22.6971 26.7836 22.8814 26.702 23.0439C26.5665 23.2341 26.3106 23.2375 26.1026 23.2737C24.8888 23.4378 23.7044 23.7678 22.5478 24.1609C22.2304 24.2847 21.9543 24.0094 21.8769 23.7232C21.0259 21.1608 20.5048 18.489 20.3154 15.7953C20.2927 15.584 20.3061 15.371 20.3617 15.1656Z" fill="white"/>
<path d="M13.1619 15.734C13.2923 15.6759 13.5162 15.5934 13.5735 15.7878C13.5625 16.106 13.3731 16.3847 13.2747 16.6818C12.3378 18.9462 11.7864 21.3554 11.4951 23.7839C11.4935 24.0187 11.2451 24.1652 11.0313 24.097C10.1592 23.911 9.28967 23.7081 8.41927 23.5137C8.13139 23.4388 7.82245 23.3815 7.57918 23.2005C7.43103 23.0692 7.49921 22.8529 7.52362 22.6862C7.77531 21.453 8.06068 20.2265 8.39486 19.0135C8.4681 18.7341 8.7341 18.5817 8.95801 18.4335C10.3596 17.5337 11.7435 16.6052 13.1619 15.734Z" fill="white"/>
<path d="M7.28708 16.9453C7.83339 16.8527 8.41759 16.777 8.95296 16.9596C9.17603 17.032 9.45803 17.2652 9.31577 17.5236C8.98074 18.0194 8.16758 17.9833 7.96303 18.5969C7.69618 19.9774 7.46554 21.3731 7.00929 22.7082C6.92259 23.0036 6.60608 23.1526 6.31651 23.145C5.81986 23.1434 5.32068 23.0861 4.83834 22.9657C4.53193 22.8715 4.1868 22.7511 4.02939 22.4481C3.89639 22.2208 3.97383 21.943 4.09505 21.7292C4.78952 20.4951 5.77608 19.4176 6.23738 18.059C6.33839 17.8023 6.37206 17.5119 6.54294 17.2871C6.71888 17.0573 7.02108 17.0026 7.28708 16.9453Z" fill="white"/>
<path d="M25.2909 16.9369C25.9425 16.7669 26.6411 16.862 27.2809 17.0438C27.6285 17.1339 27.7876 17.4841 27.8642 17.8039C28.2801 19.2552 29.3214 20.3907 30.0604 21.677C30.1825 21.9059 30.2995 22.1997 30.1564 22.4472C29.983 22.7738 29.6017 22.8925 29.27 22.9851C28.7835 23.0929 28.2843 23.156 27.786 23.1391C27.5208 23.1299 27.2539 22.9716 27.1757 22.7082C26.7177 21.3723 26.4888 19.9749 26.2202 18.5935C26.0132 17.9858 25.2084 18.0178 24.8717 17.5278C24.7143 17.2408 25.0476 17.0051 25.2909 16.9369Z" fill="white"/>
<path d="M24.5603 25.364C24.8658 25.0441 25.2505 24.816 25.6184 24.5769C26.4147 25.4919 26.9029 26.6519 27.0864 27.8439C27.3028 29.45 26.8853 31.0822 26.1681 32.5157C25.8196 33.2935 25.2674 33.9602 24.6495 34.5394C24.3145 34.8576 23.8717 35.0697 23.407 35.0949C22.8119 35.1084 22.2639 34.7422 21.9305 34.27C21.5324 33.5856 21.6822 32.7548 21.9011 32.0376C22.3018 30.7918 23.0021 29.6116 24.0291 28.7824C24.2581 28.6023 24.5443 28.487 24.8372 28.4769C25.2396 28.487 25.5603 28.7605 25.8751 28.9794C25.844 27.8186 25.2169 26.8051 24.6082 25.8589C24.5157 25.7158 24.3936 25.5037 24.5603 25.364ZM25.0544 29.8212C24.5434 30.216 24.1932 30.769 23.8405 31.2994C23.4129 32.0107 23.0047 32.7565 22.8388 33.5781C22.7757 33.8878 22.8472 34.2414 23.0703 34.4729C23.3557 34.7077 23.7412 34.5091 23.9559 34.2759C24.4997 33.701 24.9753 33.0503 25.2943 32.3238C25.6824 31.3499 25.9745 30.3128 25.9012 29.2538C25.6091 29.4272 25.3195 29.6082 25.0544 29.8212Z" fill="white"/>
<path d="M28.5099 28.2193C29.0874 26.9002 29.8685 25.6695 30.8063 24.5778C31.393 24.619 31.9511 24.8337 32.4242 25.1805C31.5715 26.0382 30.7676 26.9541 30.1177 27.9769C29.4039 29.1621 28.8508 30.4492 28.5326 31.7969C29.3896 30.7472 30.2642 29.6756 31.4082 28.9247C31.7752 28.7084 32.239 28.6031 32.6489 28.7547C33.0252 28.8944 33.3123 29.1873 33.5943 29.4601C32.6397 30.6478 31.7928 31.9315 31.1792 33.3289C31.0378 33.6395 31.0134 33.9855 31.0302 34.3222C31.2541 34.3087 31.4772 34.2759 31.7019 34.2658C31.7247 34.3626 31.7238 34.472 31.6295 34.5318C31.3762 34.7507 31.0605 34.8946 30.7364 34.9737C30.3593 35.0672 29.9233 34.8357 29.8509 34.4417C29.7751 33.9114 30.0226 33.4122 30.1884 32.9232C30.5512 31.9071 31.0176 30.934 31.4696 29.9567C30.9022 30.1226 30.4898 30.5738 30.0925 30.9845C29.3416 31.7969 28.664 32.6816 28.1319 33.653C27.8558 34.1362 27.5949 34.6278 27.3264 35.1152C27.1849 34.946 27.0099 34.7835 26.9644 34.5596C26.8743 34.1134 26.961 33.6597 27.0284 33.2178C27.2986 31.4955 27.8154 29.817 28.5099 28.2193Z" fill="white"/>
<path d="M1.91141 26.0372C3.44597 25.4825 5.11943 25.0911 6.7508 25.4008C7.42338 25.5204 8.04798 25.9009 8.43773 26.464C8.78791 27.0406 8.88387 27.7704 8.66837 28.4127C8.42173 29.1434 7.91414 29.7882 7.24072 30.1729C6.63464 30.5753 5.92922 30.7756 5.22718 30.9339C5.69268 32.4869 6.56645 33.8834 7.59174 35.1268C7.30132 35.4475 6.95872 35.8338 6.48564 35.812C6.11189 35.817 5.82316 35.5216 5.66575 35.2101C5.05377 33.8582 4.55797 32.4491 4.27008 30.9911C4.01586 30.9734 3.76417 30.9204 3.53436 30.8084C2.77928 32.3901 2.18162 34.0476 1.79188 35.7572C1.36341 35.5586 0.907167 35.3313 0.668943 34.902C0.507322 34.6318 0.669785 34.322 0.751438 34.0543C1.58732 31.529 2.63618 29.0777 3.85424 26.714C3.09243 26.9884 2.33146 27.2948 1.66393 27.7603C1.34068 27.3967 1.00397 26.9842 0.969459 26.4783C1.24304 26.2586 1.59153 26.1685 1.91141 26.0372ZM5.5117 26.3327C5.56642 26.4185 5.62113 26.5052 5.67585 26.5928C5.08239 27.741 4.4822 28.8858 3.88707 30.0331C5.05546 30.0205 6.28361 29.8673 7.28365 29.2149C7.8468 28.8311 8.32493 28.2065 8.29799 27.4943C8.29715 26.9741 7.883 26.5263 7.39224 26.4017C6.78111 26.2334 6.1363 26.2847 5.5117 26.3327Z" fill="white"/>
<path d="M10.2617 28.0838C10.3089 27.5198 10.4705 26.9718 10.6548 26.439C11.2609 26.5585 11.787 26.9104 12.2113 27.3481C11.6801 27.9121 11.1809 28.5055 10.7424 29.1436C10.6203 29.0544 10.4048 29.0098 10.4065 28.8254C10.4006 28.5703 10.3055 28.3321 10.2617 28.0838Z" fill="white"/>
<path d="M12.4422 28.9112C12.534 28.8018 12.6392 28.678 12.7915 28.6637C13.2023 28.6511 13.5862 28.8295 13.9347 29.0299C12.906 30.4559 12.0769 32.0645 11.7713 33.8095C11.7486 33.9535 11.7763 34.0982 11.7873 34.243C12.667 33.9366 13.1442 33.073 13.5828 32.3128C14.215 31.2152 14.8514 30.1192 15.4844 29.0215C15.9137 29.1183 16.3405 29.2336 16.7403 29.4196C15.497 31.7093 15.0786 34.3541 13.7402 36.5992C13.2158 37.4199 12.6223 38.2364 11.7839 38.7625C11.2949 39.0496 10.7586 39.3055 10.182 39.324C9.47661 39.3779 8.71311 39.1599 8.22825 38.6253C8.09272 38.5008 8.11797 38.3164 8.22488 38.1834C8.52455 38.4233 8.87642 38.6228 9.27121 38.627C9.72914 38.6237 10.1761 38.4561 10.5617 38.2154C11.4253 37.6304 12.1392 36.834 12.6476 35.9241C13.2082 34.8558 13.6308 33.7169 13.9389 32.5519C13.4666 33.355 12.8723 34.0814 12.2132 34.7372C12.0424 34.9122 11.7797 34.983 11.5423 34.9325C11.1644 34.8508 10.7915 34.669 10.5516 34.3575C10.3571 34.1016 10.3436 33.7607 10.3857 33.4543C10.6214 31.7817 11.4161 30.2362 12.4422 28.9112Z" fill="white"/>
<path d="M18.8623 29.0999C19.0585 29.014 19.3043 28.8852 19.5071 29.0224C19.9045 29.2228 20.2395 29.546 20.3944 29.9694C19.4634 30.1866 18.7714 30.9173 18.2268 31.6606C17.7226 32.3609 17.3522 33.1901 17.3328 34.0647C17.3244 34.1859 17.4389 34.2675 17.4911 34.3677C17.7478 34.2482 18.0113 34.1236 18.2066 33.9123C19.3405 32.6698 19.9996 31.1025 20.8085 29.6487C21.1377 29.7623 21.4517 29.9164 21.748 30.0991C21.3498 30.9745 21.0055 31.8769 20.7488 32.8045C20.5863 33.4721 20.37 34.3197 20.8986 34.8787C20.556 35.0075 20.1721 35.175 19.8068 35.0403C19.5156 34.9309 19.412 34.5975 19.3969 34.3138C19.3741 33.6362 19.5787 32.9788 19.795 32.3441C19.4533 33.0444 19.0223 33.7036 18.5029 34.2844C18.1527 34.632 17.7647 35.0007 17.2621 35.095C16.6139 35.1144 16.2789 34.43 16.2133 33.877C16.1543 33.1 16.3488 32.3188 16.6796 31.6185C17.1779 30.6159 17.8556 29.6445 18.8623 29.0999Z" fill="white"/>
<path d="M8.99582 29.9988C9.10189 29.7883 9.26435 29.6107 9.47564 29.5046C9.9664 29.6553 10.3646 29.987 10.7004 30.3649C10.256 30.8978 9.8637 31.4811 9.61116 32.1301C9.19701 33.0772 8.93437 34.0873 8.83336 35.1168C8.46298 35.0183 8.12458 34.7784 7.96717 34.4215C7.74326 33.9071 7.86026 33.3322 7.96885 32.8061C8.1995 31.8347 8.52022 30.8784 8.99582 29.9988Z" fill="white"/>
<path d="M16.2226 35.8821C16.8152 35.5538 17.5652 35.6615 18.1494 35.9519C18.4255 36.1691 18.2058 36.5496 18.0164 36.7483C17.7328 36.5538 17.4482 36.3156 17.0888 36.2945C16.7681 36.2701 16.3825 36.2466 16.1359 36.4932C16.1426 36.6094 16.2394 36.691 16.3211 36.7626C16.7815 37.1178 17.3775 37.2415 17.8296 37.6102C18.3338 38.0581 18.1368 38.936 17.5897 39.2618C17.1965 39.4984 16.7092 39.4335 16.2866 39.3207C15.8977 39.2012 15.4961 39.0068 15.2689 38.6549C15.103 38.3645 15.3 38.0454 15.4877 37.8224C15.7192 38.3005 16.1805 38.6456 16.7108 38.713C17.125 38.7997 17.6823 38.7399 17.8237 38.2651C17.2933 37.7357 16.4566 37.6877 15.9415 37.1405C15.5904 36.7626 15.8 36.111 16.2226 35.8821Z" fill="white"/>
<path d="M27.1698 38.8603C27.3003 37.9731 27.6665 37.1162 28.1977 36.3948C28.3963 36.5556 28.6859 36.7037 28.701 36.9916C28.5234 37.4504 28.2002 37.8351 28.0015 38.2846C28.4098 37.8334 28.7827 37.3376 29.281 36.9781C29.4317 36.8721 29.611 36.7702 29.8029 36.7938C29.9814 36.8173 30.0883 36.9756 30.2104 37.0892C29.7575 37.5547 29.478 38.1886 29.4578 38.8385C29.6144 38.8494 29.8425 38.7324 29.9006 38.9504C29.6893 39.16 29.3551 39.2905 29.0672 39.1701C28.8871 39.0843 28.8046 38.878 28.7978 38.6895C28.7852 38.3452 28.9199 38.0211 29.0361 37.7037C28.3854 38.1785 27.978 38.8839 27.4476 39.4723C27.3012 39.3006 27.1017 39.1104 27.1698 38.8603Z" fill="white"/>
<path d="M19.5627 36.5445C19.8548 36.4334 20.2117 36.5866 20.3439 36.8644C20.359 37.207 20.2092 37.5361 20.0063 37.8047C19.7176 38.1717 19.2647 38.3392 18.8548 38.5294C18.8834 38.7037 18.9288 38.8754 19.0004 39.0379C19.4533 38.984 19.7942 38.6742 20.0905 38.3543C20.1284 38.3947 20.2041 38.4747 20.242 38.5151C19.9718 38.8375 19.6965 39.2113 19.2706 39.33C18.9423 39.4402 18.5711 39.2719 18.3951 38.984C18.1426 38.6321 18.2411 38.1641 18.3834 37.7887C18.6081 37.255 18.997 36.7356 19.5627 36.5445ZM18.9415 38.1851C19.3657 37.9334 19.7967 37.5917 19.8935 37.0774C19.3977 37.2474 19.114 37.7188 18.9415 38.1851Z" fill="white"/>
<path d="M23.5257 36.5513C23.9399 36.4174 24.4306 36.4721 24.8052 36.691C25.0721 36.8812 24.8717 37.2045 24.6907 37.3728C24.3203 37.0286 23.7488 36.8812 23.2917 37.1439C23.6646 37.5311 24.2235 37.6287 24.6259 37.9705C25.0729 38.4251 24.7017 39.2921 24.083 39.3502C23.5712 39.3931 23.0156 39.2248 22.6494 38.8561C22.4432 38.5934 22.6014 38.2432 22.8321 38.0572C22.9617 38.2879 23.1132 38.5286 23.3691 38.6355C23.7362 38.8114 24.301 38.8813 24.5342 38.4655C24.0973 38.09 23.4449 38.0446 23.0821 37.5782C22.8051 37.1969 23.1242 36.6767 23.5257 36.5513Z" fill="white"/>
<path d="M25.6639 36.9023C25.8752 36.6885 26.1412 36.51 26.4502 36.4873C26.6143 36.5589 26.7204 36.7121 26.8433 36.8366C26.9754 36.8998 27.1665 36.9225 27.2002 37.0951C27.4367 38.0842 26.685 39.1835 25.6841 39.3435C25.2313 39.3233 24.9451 38.8519 24.9653 38.4327C24.9939 37.8594 25.2447 37.2954 25.6639 36.9023ZM25.9855 37.6431C25.7153 38.0513 25.4653 38.5657 25.6564 39.0581C26.483 38.8157 26.8652 37.8661 26.7296 37.069C26.4476 37.2079 26.1547 37.3653 25.9855 37.6431Z" fill="white"/>
<path d="M21.1015 36.8895C21.2665 36.7094 21.4997 36.626 21.7236 36.5477C21.9012 36.674 22.0687 36.8179 22.1857 37.004C22.3053 36.7287 22.5923 36.9728 22.7716 37.0536C22.5191 37.5654 22.3111 38.1101 22.2573 38.6825C22.2186 38.8652 22.3339 39.0242 22.3987 39.1859C22.2009 39.2078 21.9761 39.3264 21.7884 39.2094C21.5839 39.0242 21.6706 38.7153 21.6832 38.4779C21.4643 38.8306 21.1756 39.1522 20.7816 39.3096C20.5097 39.2187 20.306 38.983 20.2959 38.6909C20.2698 38.0082 20.6276 37.36 21.1015 36.8895ZM20.8641 38.8904C21.0274 38.7894 21.1891 38.6791 21.3019 38.5209C21.6436 38.0705 21.9164 37.5722 22.1638 37.0654C21.4138 37.3264 20.8869 38.1042 20.8641 38.8904Z" fill="white"/>
<path d="M12.6659 40.3981C12.9142 40.2945 13.0548 40.7137 12.7972 40.7929C12.5447 40.8821 12.4075 40.4688 12.6659 40.3981Z" fill="white"/>
<path d="M14.4497 40.5707C14.4463 40.3636 14.8125 40.3392 14.8395 40.5404C14.8959 41.0505 14.81 41.5682 14.8773 42.0775C14.9396 42.3056 15.2174 42.2988 15.406 42.3022C16.1013 42.2896 16.7983 42.319 17.4927 42.2887C18.0382 42.1305 17.4751 41.3527 18.0037 41.1725C18.2352 41.3796 18.1721 41.702 18.1695 41.9798C18.1729 42.3729 17.8236 42.7172 17.4305 42.7113C16.757 42.729 16.0828 42.7105 15.4093 42.7197C15.1223 42.7265 14.7864 42.6869 14.6021 42.4377C14.4076 42.2147 14.4371 41.904 14.4371 41.6296C14.4472 41.2769 14.4194 40.9225 14.4497 40.5707Z" fill="white"/>
<path d="M20.0508 40.5405C20.0887 40.3502 20.4145 40.3553 20.4347 40.5506C20.4658 41.0228 20.449 41.4992 20.4431 41.9732C20.4499 42.2897 20.231 42.6003 19.9204 42.6777C19.6544 42.74 19.3791 42.7165 19.1097 42.7207C19.1055 42.9648 19.1299 43.2123 19.0794 43.4539C18.9565 43.6003 18.672 43.5313 18.6998 43.3217C18.6863 42.6988 18.688 42.075 18.699 41.4529C18.6703 41.2433 18.9624 41.1566 19.0769 41.3233C19.1443 41.644 19.0971 41.9765 19.1081 42.3031C19.3985 42.2695 19.8202 42.4092 20.002 42.1079C20.0896 41.5918 19.9877 41.0607 20.0508 40.5405Z" fill="white"/>
<path d="M21.0601 40.4469C21.1839 40.3358 21.4086 40.4511 21.3783 40.6178C21.3943 41.2373 21.3901 41.8586 21.3808 42.4781C21.4347 42.7247 21.0197 42.7997 20.9852 42.5589C20.9499 41.9697 20.981 41.3779 20.9701 40.7887C20.9953 40.6784 20.9305 40.5008 21.0601 40.4469Z" fill="white"/>
<path d="M0.635146 40.9614C0.806027 40.4951 1.41884 40.4319 1.83468 40.5582C2.24968 40.671 2.42729 41.2527 2.1251 41.5667C1.80859 41.884 1.27322 41.8983 1.03583 42.3125C1.46262 42.3276 1.89276 42.2897 2.31618 42.3672C2.27072 42.4993 2.31618 42.7418 2.10489 42.7115C1.62676 42.7241 1.1318 42.778 0.662925 42.6643C0.584639 42.4354 0.577905 42.145 0.766463 41.9665C1.02489 41.6685 1.4382 41.5894 1.72778 41.336C1.88771 41.1769 1.72188 40.9 1.51144 40.9151C1.2185 40.8385 1.01647 41.0767 0.900307 41.3099C0.768147 41.2299 0.55181 41.1601 0.635146 40.9614Z" fill="white"/>
<path d="M3.39958 40.5723C3.65043 40.4805 3.93496 40.4814 4.18833 40.5647C4.52588 40.6868 4.72707 41.0412 4.75653 41.3863C4.7801 41.7331 4.78094 42.1144 4.56545 42.409C4.31965 42.787 3.79185 42.8341 3.39706 42.7003C2.98122 42.5345 2.81202 42.0479 2.84148 41.6304C2.81455 41.2162 2.9888 40.7381 3.39958 40.5723ZM3.65885 40.9241C3.42736 40.9831 3.35244 41.2516 3.34908 41.462C3.34487 41.6944 3.32298 41.9469 3.43662 42.1599C3.58478 42.4444 4.08143 42.4225 4.19591 42.1186C4.29692 41.8316 4.28598 41.5067 4.21948 41.2137C4.16392 40.9696 3.88613 40.8492 3.65885 40.9241Z" fill="white"/>
<path d="M5.36536 40.9579C5.53624 40.4983 6.13728 40.4343 6.55059 40.5547C6.97569 40.6599 7.16088 41.2551 6.84942 41.5716C6.52954 41.8814 6.00343 41.9032 5.76268 42.3123C6.18778 42.3267 6.61709 42.2921 7.03882 42.3637C6.99589 42.4655 7.06155 42.6878 6.90077 42.6987C6.45631 42.7492 6.00175 42.7374 5.5556 42.7063C5.27529 42.7071 5.33001 42.3283 5.37462 42.1465C5.58423 41.7155 6.10276 41.6288 6.44537 41.3468C6.62719 41.1869 6.4521 40.8956 6.23071 40.9125C5.94535 40.8434 5.74332 41.0741 5.63473 41.3056C5.495 41.234 5.27866 41.1591 5.36536 40.9579Z" fill="white"/>
<path d="M7.57817 40.9672C7.73643 40.5051 8.3383 40.4344 8.74825 40.5505C9.19187 40.6465 9.38463 41.2719 9.04961 41.5885C8.72384 41.8789 8.21624 41.9125 7.97718 42.3124C8.39386 42.325 8.81222 42.2981 9.22638 42.3553C9.22722 42.4647 9.22806 42.5742 9.2289 42.6845C8.68764 42.751 8.13627 42.7467 7.59417 42.6828C7.57733 42.4698 7.50326 42.2248 7.64973 42.0397C7.89553 41.6962 8.33493 41.6078 8.65144 41.3553C8.81643 41.2248 8.71121 40.9285 8.50245 40.9251C8.20109 40.8199 7.9595 41.0573 7.84249 41.3098C7.71118 41.2408 7.49989 41.1583 7.57817 40.9672Z" fill="white"/>
<path d="M11.571 41.1363C11.5617 40.9687 11.7966 40.8669 11.9077 40.9965C11.938 41.0504 11.9977 41.159 12.0272 41.2129C12.5095 41.244 13.0104 41.1472 13.4793 41.2878C14.0281 41.5075 14.0584 42.356 13.5306 42.6186C13.0508 42.8131 12.5138 42.6868 12.0095 42.7222C11.9683 42.9267 11.9405 43.1532 11.7823 43.3072C11.4826 43.6473 10.8698 43.6052 10.6214 43.2264C10.3874 42.8863 10.4952 42.4452 10.4825 42.0597C10.4531 41.8509 10.7241 41.7583 10.8613 41.8955C10.9539 42.2272 10.8512 42.5799 10.9262 42.9149C10.996 43.1431 11.3395 43.1868 11.4843 43.0101C11.5693 42.9065 11.5558 42.7659 11.5634 42.643C11.5726 42.1405 11.5432 41.6371 11.571 41.1363ZM11.9843 41.638C11.9843 41.8577 11.9843 42.0782 11.9843 42.2996C12.4119 42.2828 12.8471 42.34 13.2705 42.2676C13.5601 42.2078 13.5685 41.7322 13.2764 41.6716C12.8513 41.595 12.4136 41.654 11.9843 41.638Z" fill="white"/>
<path d="M23.5619 41.533C23.8305 41.1323 24.4988 41.1373 24.7674 41.5355C24.9441 41.751 24.9113 42.0431 24.9231 42.3024C25.6066 42.3032 26.2901 42.3024 26.9745 42.3024C26.977 41.9968 26.956 41.6904 26.9854 41.3865C26.9905 41.1693 27.3584 41.1609 27.3777 41.3781C27.4097 41.6845 27.3861 41.9943 27.3895 42.3024C27.552 42.3024 27.7153 42.3024 27.8786 42.3024C27.8819 41.996 27.8601 41.6879 27.8904 41.3823C27.9047 41.1963 28.1799 41.1584 28.265 41.3166C28.3272 41.6399 28.2852 41.9741 28.2936 42.3024C28.4569 42.3015 28.6202 42.3015 28.7843 42.3024C28.7843 42.0204 28.77 41.7384 28.7894 41.4581C28.77 41.3015 28.9426 41.2577 29.0377 41.1786C29.116 41.2872 29.2263 41.3916 29.2035 41.5414C29.2002 41.9 29.2338 42.2653 29.1766 42.6214C29.0832 42.7325 28.9241 42.714 28.7953 42.7233C26.9972 42.7199 25.1992 42.7207 23.4012 42.7216C23.2235 42.7174 22.9542 42.7645 22.9466 42.9893C22.8885 43.1753 22.9988 43.5112 22.7269 43.5364C22.5998 43.5398 22.4996 43.4304 22.5097 43.3075C22.4811 43.0372 22.5148 42.7393 22.7168 42.5398C22.8902 42.3394 23.1697 42.3301 23.4113 42.2881C23.4214 42.0322 23.3885 41.746 23.5619 41.533ZM23.982 41.7182C23.7732 41.8301 23.8549 42.1088 23.8237 42.3015C24.0518 42.3041 24.28 42.3049 24.5081 42.3032C24.4955 42.1458 24.5056 41.985 24.461 41.8335C24.4003 41.7165 24.2581 41.6794 24.1596 41.6054C24.1158 41.6332 24.0266 41.6896 23.982 41.7182Z" fill="white"/>
<path d="M29.7608 41.745C29.9022 41.229 30.6312 41.0631 30.9957 41.4453C31.2373 41.6633 31.2263 42.0042 31.2272 42.3022C31.5134 42.3022 31.7996 42.3014 32.0866 42.3022C32.0925 42.027 32.0648 41.7147 32.2676 41.495C32.5656 41.1111 33.2407 41.1591 33.4781 41.585C33.6524 41.8755 33.5934 42.2383 33.5774 42.5607C33.5614 42.713 33.3754 42.7097 33.2618 42.7189C32.5816 42.724 31.9014 42.7164 31.2213 42.7198C31.1691 42.9858 31.3753 43.4782 30.994 43.5413C30.6699 43.426 30.8543 42.9841 30.8063 42.7198C30.4654 42.697 30.1 42.7846 29.7751 42.6575C29.6825 42.3679 29.7111 42.0413 29.7608 41.745ZM30.297 41.7147C30.0832 41.8233 30.1649 42.1061 30.132 42.3006C30.3593 42.3022 30.5866 42.3022 30.8147 42.2997C30.7937 42.128 30.8307 41.9369 30.7406 41.7829C30.6581 41.7138 30.563 41.6616 30.4738 41.6052C30.43 41.6322 30.3416 41.6869 30.297 41.7147ZM32.5698 41.7845C32.4873 41.9411 32.5193 42.128 32.5016 42.2997C32.7281 42.3022 32.9554 42.3022 33.1826 42.3022C33.1709 42.144 33.181 41.9815 33.1372 41.8292C33.074 41.7155 32.936 41.676 32.8375 41.6027C32.7466 41.6616 32.6515 41.7138 32.5698 41.7845Z" fill="white"/>
<path d="M16.2772 43.1725C16.3782 43.064 16.5996 43.1667 16.5929 43.314C16.6392 43.4453 16.4624 43.5833 16.342 43.532C16.1754 43.5143 16.1274 43.2517 16.2772 43.1725Z" fill="white"/>
<path d="M16.9413 43.1593C17.1669 43.0069 17.3841 43.4093 17.1392 43.5179C16.9161 43.6576 16.6997 43.2721 16.9413 43.1593Z" fill="white"/>
<path d="M11.8477 44.3705C11.9866 44.2308 12.1474 44.1163 12.3166 44.017C12.5455 44.3453 12.7492 44.6988 12.846 45.0911C13.0565 45.895 12.7964 46.7788 12.2585 47.3984C12.0834 47.5971 11.8157 47.8008 11.5362 47.7141C11.2332 47.6492 11.037 47.321 11.0892 47.0221C11.1524 46.4918 11.4352 45.985 11.8452 45.6458C12 45.4918 12.2105 45.5465 12.3999 45.5818C12.2938 45.1458 12.1027 44.7375 11.8477 44.3705ZM11.6137 47.023C11.5741 47.177 11.4891 47.3816 11.6751 47.475C12.1928 47.1408 12.3788 46.4876 12.431 45.9068C12.0851 46.2132 11.7517 46.5709 11.6137 47.023Z" fill="white"/>
<path d="M0.957665 44.8385C1.5688 44.5262 2.28094 44.3587 2.9611 44.511C3.32307 44.5919 3.65641 44.942 3.57897 45.3326C3.55708 45.623 3.35589 45.8453 3.14208 46.0212C3.33822 46.2434 3.49058 46.5431 3.37105 46.8436C2.99477 47.799 1.48125 48.2292 0.803619 47.352C1.08056 46.5608 1.40381 45.7847 1.80113 45.0464C1.61257 45.1398 1.42654 45.2409 1.24555 45.3503C1.13023 45.1912 1.03258 45.0203 0.957665 44.8385ZM2.04356 45.7754C2.36175 45.7712 2.69762 45.7796 2.98551 45.6213C3.17744 45.5237 3.37105 45.3158 3.29865 45.0843C3.13956 44.8166 2.78349 44.8839 2.52085 44.8663C2.35165 45.1634 2.18751 45.4639 2.04356 45.7754ZM1.84658 46.2257C1.6858 46.5852 1.54354 46.953 1.42906 47.331C1.99558 47.3849 2.67069 47.2451 2.97289 46.7123C3.09073 46.5212 3.01077 46.3082 2.89123 46.1433C2.55284 46.2417 2.19592 46.3074 1.84658 46.2257Z" fill="white"/>
<path d="M14.0161 47.1922C14.1382 46.2461 14.4387 45.3033 14.9606 44.4994C15.15 44.5836 15.3343 44.6804 15.5027 44.8024C15.1264 45.2393 14.9488 45.7966 14.7796 46.3362C14.6289 46.8412 14.5094 47.3631 14.5237 47.8934C14.224 47.8008 13.9597 47.5281 14.0161 47.1922Z" fill="white"/>
<path d="M22.843 44.6238C23.0711 44.6953 23.2816 44.8107 23.4609 44.9698C23.274 45.181 23.093 45.3991 22.9247 45.6263C22.8767 45.5944 22.7807 45.5304 22.7327 45.4984C22.6856 45.2004 22.7487 44.9049 22.843 44.6238Z" fill="white"/>
<path d="M29.3095 44.6229C29.5368 44.6962 29.7473 44.8115 29.9274 44.9689C29.7321 45.1886 29.5469 45.4159 29.3701 45.6507C29.0536 45.3822 29.2052 44.9546 29.3095 44.6229Z" fill="white"/>
<path d="M28.0857 44.92C28.2667 44.9689 28.446 45.027 28.6211 45.096C28.4973 45.2761 28.3736 45.4554 28.244 45.6313C28.4115 45.6271 28.547 45.6945 28.6228 45.8494C28.4351 45.8948 28.2448 45.9319 28.0554 45.9655C27.8315 46.4226 27.6488 46.9159 27.669 47.4328C27.8643 47.3696 28.0563 47.2964 28.2473 47.2215C28.2734 47.5094 27.9578 47.5927 27.7684 47.7274C27.5116 47.66 27.1884 47.5615 27.1236 47.2652C27.132 46.8317 27.2776 46.4167 27.4249 46.0144C27.2178 45.9899 27.2061 45.7795 27.1598 45.6221C27.2995 45.628 27.4401 45.6356 27.5807 45.644C27.7229 45.3855 27.8946 45.1448 28.0857 44.92Z" fill="white"/>
<path d="M4.05038 45.8468C4.23725 45.6523 4.49905 45.4907 4.77852 45.5235C4.95024 45.5749 5.19857 45.6961 5.13206 45.9175C5.07903 46.5168 4.52767 46.8561 4.0226 47.0581C4.07226 47.1633 4.0689 47.3275 4.20274 47.3679C4.50831 47.3182 4.71623 47.0699 4.93088 46.8729C4.96708 46.91 5.03947 46.984 5.07567 47.0211C4.83913 47.3039 4.55881 47.5825 4.18927 47.6726C3.83993 47.6827 3.52763 47.3721 3.53268 47.0244C3.531 46.5808 3.74902 46.1616 4.05038 45.8468ZM4.10846 46.7382C4.41234 46.5783 4.63794 46.3072 4.75074 45.984C4.44517 46.1431 4.22463 46.4158 4.10846 46.7382Z" fill="white"/>
<path d="M5.1641 47.0205C5.28868 46.4581 5.50081 45.8546 5.97136 45.4893C6.13298 45.5019 6.2803 45.5785 6.42677 45.6425C6.06564 46.1189 5.7887 46.6669 5.69442 47.2629C6.22979 46.8311 6.44023 46.1492 6.80472 45.5894C6.96887 45.6383 7.13302 45.693 7.29464 45.7519C6.80136 46.6955 6.69614 47.8521 5.90234 48.6232C5.5429 49.023 4.78445 49.151 4.4469 48.6628C4.45868 48.6207 4.48225 48.5382 4.49404 48.4969C4.76509 48.704 5.12537 48.6358 5.37622 48.4304C5.76849 48.108 5.98315 47.6291 6.18097 47.1737C5.98399 47.3311 5.7988 47.6703 5.50586 47.5718C5.26595 47.5179 5.08665 47.2646 5.1641 47.0205Z" fill="white"/>
<path d="M7.15989 46.9345C7.20535 46.2864 7.64139 45.6163 8.30556 45.4774C8.39984 45.5666 8.49327 45.6576 8.58924 45.7468C8.71887 45.8074 8.87292 45.8756 8.87965 46.0423C8.99413 46.7679 8.45455 47.5238 7.73399 47.6593C7.37792 47.645 7.10939 47.2788 7.15989 46.9345ZM7.69863 47.4076C8.2862 47.2047 8.54967 46.5498 8.47896 45.9682C7.95285 46.2165 7.57489 46.8209 7.69863 47.4076Z" fill="white"/>
<path d="M8.8923 47.2796C8.99332 46.6079 9.25679 45.9505 9.68189 45.4185C9.83257 45.5439 10.0093 45.6584 10.0851 45.8494C9.99082 46.1525 9.79301 46.4075 9.6398 46.6828C9.96557 46.3444 10.2543 45.9286 10.7004 45.7417C10.9025 45.6499 11.0666 45.8242 11.1929 45.9572C10.8713 46.3065 10.6836 46.7535 10.6171 47.2207C10.7442 47.2308 10.8713 47.2418 10.9984 47.2552C10.8646 47.5431 10.4252 47.6854 10.1962 47.4278C9.97146 47.1542 10.1659 46.7821 10.2333 46.4867C9.79553 46.8571 9.49923 47.352 9.11117 47.7679C9.01436 47.6189 8.83927 47.4775 8.8923 47.2796Z" fill="white"/>
<path d="M15.7696 45.4598C15.943 45.5423 16.1122 45.6349 16.2746 45.7393C16.1341 46.0306 15.9691 46.3092 15.8066 46.5895C16.0549 46.2983 16.2772 45.9658 16.6122 45.7671C16.8193 45.6316 17.044 45.7713 17.2275 45.8757C17.14 46.0634 17.0466 46.2486 16.9489 46.4313C17.1955 46.1636 17.4161 45.8235 17.7781 45.7056C17.938 45.6417 18.0777 45.7755 18.2158 45.8361C18.0289 46.3294 17.7444 46.7882 17.6619 47.3176C17.7393 47.3151 17.8942 47.3101 17.9717 47.3075C17.9666 47.688 17.3243 47.7731 17.1981 47.4246C17.076 47.071 17.2562 46.7099 17.3774 46.3824C17.0112 46.7789 16.709 47.2276 16.3824 47.656C16.2755 47.5592 16.1517 47.4734 16.0793 47.3471C16.0869 46.9675 16.2738 46.6257 16.4304 46.2915C16.0154 46.7023 15.714 47.204 15.3638 47.667C15.2544 47.5222 15.0827 47.3842 15.1037 47.1838C15.1542 46.5584 15.4682 45.9961 15.7696 45.4598Z" fill="white"/>
<path d="M20.8422 45.7165C21.0812 45.5447 21.4078 45.3991 21.6983 45.5178C21.774 45.602 21.8346 45.6996 21.9003 45.7939C21.1688 45.8629 20.7235 46.5936 20.5273 47.2342C21.0173 46.9109 21.3556 46.4109 21.5821 45.8789C21.7269 45.8991 21.8691 45.9345 22.003 45.9968C21.6722 46.7055 21.4752 47.4733 21.0981 48.1618C20.88 48.5364 20.5812 48.9455 20.114 48.9952C19.8068 49.0566 19.5197 48.9001 19.2983 48.7023C19.3261 48.6593 19.3808 48.5735 19.4086 48.5305C19.625 48.6812 19.9078 48.6972 20.1267 48.5406C20.5492 48.2443 20.7538 47.7409 20.9272 47.2738C20.7748 47.3655 20.6216 47.4573 20.4684 47.5482C20.2942 47.4202 20.0938 47.267 20.1006 47.0263C20.0913 46.4959 20.4373 46.0262 20.8422 45.7165Z" fill="white"/>
<path d="M22.8399 47.2705C22.9425 46.6021 23.2018 45.9438 23.632 45.4177C23.7793 45.5448 23.9586 45.6585 24.0293 45.8504C23.9333 46.156 23.7347 46.4136 23.5815 46.6905C23.9123 46.3437 24.2061 45.9127 24.6682 45.7351C24.8669 45.6585 25.0142 45.831 25.1388 45.9565C24.8147 46.3125 24.6177 46.7679 24.563 47.2461C24.6413 47.236 24.7961 47.2158 24.8744 47.2065C24.9249 47.5533 24.3626 47.6745 24.1598 47.4464C23.9089 47.1762 24.1067 46.7915 24.1791 46.4893C23.7456 46.8597 23.44 47.3437 23.0654 47.7671C22.9585 47.6198 22.7826 47.4742 22.8399 47.2705Z" fill="white"/>
<path d="M29.447 46.4849C29.5943 46.0741 29.8957 45.6827 30.3149 45.5295C30.5161 45.4159 30.6465 45.6389 30.7897 45.7433C30.8982 45.814 31.0557 45.8569 31.0658 46.0118C31.1971 46.7004 30.7215 47.4336 30.0539 47.628C29.8258 47.7206 29.5758 47.5632 29.4537 47.373C29.2795 47.1053 29.3578 46.7669 29.447 46.4849ZM29.8772 47.4033C30.4807 47.224 30.7442 46.5472 30.6718 45.9647C30.144 46.2189 29.7854 46.8149 29.8772 47.4033Z" fill="white"/>
<path d="M31.0882 47.2704C31.1917 46.6028 31.4493 45.9437 31.8811 45.4185C32.0276 45.5447 32.2069 45.6575 32.2768 45.8503C32.1842 46.1567 31.9821 46.4134 31.8298 46.6921C32.1606 46.3453 32.4552 45.9117 32.9182 45.735C33.1177 45.6584 33.2642 45.8318 33.3879 45.958C33.063 46.3133 32.8668 46.7687 32.8121 47.246C32.8904 47.2359 33.0461 47.2165 33.1236 47.2064C33.1716 47.5768 32.5503 47.6862 32.3685 47.4017C32.1825 47.1214 32.3584 46.7796 32.4274 46.4892C31.9939 46.8604 31.6884 47.3445 31.3138 47.7679C31.2077 47.6206 31.0309 47.4741 31.0882 47.2704Z" fill="white"/>
<path d="M18.2209 46.7721C18.3547 46.2923 18.6451 45.7864 19.1266 45.5927C19.3068 45.4917 19.4364 45.6946 19.5745 45.7805C19.7454 45.8007 19.9112 45.847 20.0728 45.905C19.8994 46.3175 19.7083 46.7376 19.6856 47.1921C19.6814 47.3159 19.7672 47.4186 19.8119 47.5297C19.6359 47.5516 19.4373 47.6467 19.274 47.5314C19.1982 47.4219 19.2016 47.2814 19.1738 47.1585C19.0113 47.3655 18.7992 47.5516 18.5374 47.6139C18.1738 47.5272 18.1342 47.0717 18.2209 46.7721ZM18.6494 47.2839C19.0761 46.9514 19.3127 46.4455 19.5501 45.9741C19.0433 46.2098 18.683 46.7241 18.6494 47.2839Z" fill="white"/>
<path d="M25.0538 46.9405C25.1464 46.3436 25.521 45.7334 26.1178 45.5364C26.2298 45.6214 26.3409 45.7081 26.452 45.7965C26.6212 45.7855 26.7811 45.8428 26.9343 45.9093C26.7618 46.3175 26.5715 46.7342 26.5488 47.1846C26.5395 47.3108 26.6304 47.4152 26.6759 47.528C26.5067 47.544 26.3181 47.6467 26.159 47.5423C26.0336 47.4464 26.074 47.2738 26.0547 47.1391C25.8947 47.3513 25.6826 47.5289 25.4275 47.613C25.1136 47.5794 25.0058 47.2073 25.0538 46.9405ZM25.5126 47.2814C25.9385 46.948 26.1734 46.4463 26.4141 45.9775C25.9048 46.2056 25.5462 46.7241 25.5126 47.2814Z" fill="white"/>
<path d="M21.9744 47.1921C22.0325 46.6652 22.0898 46.0473 22.5401 45.6954C22.7 45.7922 22.8566 45.8966 23.0073 46.0094C22.6537 46.48 22.4652 47.0473 22.3549 47.6197C22.1765 47.5389 21.9542 47.4236 21.9744 47.1921Z" fill="white"/>
<path d="M28.4418 47.1097C28.5134 46.6072 28.5706 46.0196 29.0125 45.6947C29.17 45.7932 29.3223 45.8993 29.4696 46.0129C29.1093 46.4868 28.9334 47.0651 28.8088 47.6392C28.6144 47.5306 28.3787 47.3682 28.4418 47.1097Z" fill="white"/>
</svg>
