<svg xmlns="http://www.w3.org/2000/svg" width="36.443" height="36.279" viewBox="0 0 36.443 36.279">
  <path id="Search_icom" data-name="Search icom" d="M-5369.583,427.619l-12.159-12.153a13.266,13.266,0,0,0-2.472-18.6,13.267,13.267,0,0,0-18.6,2.472,13.266,13.266,0,0,0,2.473,18.6,13.266,13.266,0,0,0,16.309-.144l12.142,12.142a1.632,1.632,0,0,0,2.309,0,1.632,1.632,0,0,0,0-2.308m-32.663-20.229a9.993,9.993,0,0,1,10-9.99,9.993,9.993,0,0,1,9.989,10,9.992,9.992,0,0,1-9.992,9.99,10.007,10.007,0,0,1-9.993-10" transform="translate(5405.544 -394.137)" fill="#606060"/>
</svg>
