<svg xmlns="http://www.w3.org/2000/svg" width="27.099" height="28.063" viewBox="0 0 27.099 28.063">
  <path id="search" d="M12.071,0c.574.1,1.158.133,1.726.272a11.033,11.033,0,0,1,7.7,6.122,11.02,11.02,0,0,1-.872,11.412,4.045,4.045,0,0,1-.451.585c-.168.177-.122.281.031.44q3.19,3.3,6.368,6.613a1.5,1.5,0,0,1,.3,1.918,1.465,1.465,0,0,1-2.189.359,4.052,4.052,0,0,1-.3-.285q-3.183-3.307-6.361-6.62c-.157-.164-.253-.18-.446-.052a11.04,11.04,0,0,1-8.017,1.754,11,11,0,0,1-6.5-3.462A11.038,11.038,0,0,1,.145,13.105a11.044,11.044,0,0,1,.864-6.418,11.254,11.254,0,0,1,3.9-4.673A11.1,11.1,0,0,1,9.835.1a3.52,3.52,0,0,0,.755-.1Zm-.735,2.959A8.372,8.372,0,1,0,19.7,11.327a8.389,8.389,0,0,0-8.367-8.367" transform="translate(0)" fill="#fff"/>
</svg>
