<svg width="39" height="144" viewBox="0 0 39 144" fill="none" xmlns="http://www.w3.org/2000/svg">
<path d="M84.9854 116.117C73.5015 116.527 66.5986 116.769 64.2767 116.844C58.7442 117.107 53.9208 116.688 49.8065 115.587C37.5866 112.32 27.1379 102.616 18.4577 86.4825C14.2208 78.5353 10.8875 70.4086 8.46387 62.1084C6.71645 56.0732 4.80148 47.0786 2.71594 35.1279C4.74762 45.1696 8.47283 55.0288 13.9006 64.7055C19.6037 74.6873 24.6634 82.1887 29.0858 87.2095C33.5202 92.1885 39.5674 97.2812 47.2333 102.485C54.9381 107.7 63.2384 110.058 72.1311 109.558C81.1076 109.082 90.0062 109.776 98.8241 111.646C107.654 113.475 115.993 117.311 123.842 123.151C131.732 129.004 137.866 135.653 142.243 143.1C140.394 142.451 137.938 140.817 134.877 138.205C131.828 135.551 125.619 131.114 116.25 124.896C106.894 118.636 96.4753 115.71 84.9914 116.12" fill="white"/>
<path d="M5.11846 5.6103C4.73546 2.93232 4.98681 1.06222 5.8695 0L10.3667 19.3234C11.7192 25.1581 12.8023 29.3651 13.6192 31.9384C16.5814 41.0645 21.2911 49.6639 27.7511 57.7367C33.8432 65.3458 41.1142 72.0394 49.564 77.8232C64.2705 87.8769 82.4958 95.2555 104.24 99.9592C112.639 101.713 116.944 102.619 117.154 102.676C122.07 103.819 126.268 105.103 129.754 106.524C135.855 109.082 142.079 112.981 148.422 118.223C150.962 120.285 152.841 122.364 154.059 124.465C155.666 127.122 156.031 129.617 155.157 131.945C147.749 122.257 135.882 114.731 119.554 109.369C115.412 108.035 108.537 106.165 98.9197 103.756C89.9851 101.491 83.1301 99.5373 78.3546 97.8916C64.3633 93.0473 51.8919 85.9857 40.9406 76.707C29.4836 66.9735 20.8422 55.723 15.0165 42.9555C10.4654 32.8899 7.1651 20.4425 5.11547 5.61337" fill="white"/>
<path d="M0.175659 86.3866C0.175659 85.2915 0.567609 84.3521 1.34856 83.5711C2.13251 82.7902 3.06903 82.3981 4.16416 82.3981C5.25929 82.3981 6.19888 82.7902 6.97983 83.5711C7.76078 84.3521 8.15273 85.2915 8.15273 86.3866C8.15273 87.4818 7.76078 88.4214 6.97983 89.2023C6.19888 89.9833 5.25929 90.3752 4.16416 90.3752C3.06903 90.3752 2.12952 89.9833 1.34856 89.2023C0.567609 88.4214 0.175659 87.4818 0.175659 86.3866Z" fill="white"/>
<path d="M5.78295 112.855L5.73211 112.804C4.14327 111.135 3.33838 109.157 3.33838 106.919C3.33838 104.681 4.14327 102.703 5.73211 101.033L5.78295 100.982C7.44958 99.3936 9.43037 98.5887 11.6685 98.5887C13.9844 98.5887 15.9742 99.4026 17.578 101.009L17.602 101.033C19.1908 102.7 19.9957 104.681 19.9957 106.919C19.9957 109.157 19.1908 111.135 17.602 112.804L17.578 112.831C15.9742 114.435 13.9844 115.249 11.6685 115.249C9.43037 115.249 7.45258 114.444 5.78295 112.855ZM17.0604 106.919C17.0604 105.447 16.5457 104.187 15.4895 103.074C14.4422 102.033 13.1945 101.527 11.6685 101.527C10.2023 101.527 8.94862 102.036 7.83553 103.086C6.78828 104.199 6.27663 105.453 6.27663 106.919C6.27663 108.385 6.78528 109.639 7.83553 110.752C8.94862 111.802 10.2023 112.311 11.6685 112.311C13.1915 112.311 14.4422 111.805 15.4895 110.764C16.5457 109.648 17.0604 108.391 17.0604 106.919Z" fill="white"/>
</svg>
