<svg width="51" height="26" viewBox="0 0 51 26" fill="none" xmlns="http://www.w3.org/2000/svg">
<path d="M19.2984 0C21.0277 0.00120375 22.7576 -0.000601285 24.4868 0.000602461C24.4778 1.6389 24.488 3.2772 24.4814 4.9155C24.4784 5.03105 24.4995 5.14601 24.5285 5.25796C26.1515 5.24773 27.7751 5.25917 29.3987 5.25194C29.5056 5.24472 29.6076 5.27963 29.7073 5.31574C29.7097 6.98955 29.7175 8.66336 29.703 10.3366C27.975 10.3528 26.2457 10.3378 24.517 10.3444C24.514 13.0089 24.514 15.6734 24.517 18.3379C24.5484 18.9746 24.7585 19.6861 25.3255 20.049C25.9794 20.4974 26.8199 20.5257 27.5837 20.4492C28.33 20.4047 29.037 20.1074 29.6686 19.721C29.6716 21.1372 29.6704 22.5528 29.6692 23.9684C28.964 24.5233 28.0879 24.8002 27.2196 24.9777C26.8362 25.0138 26.4612 25.1288 26.0736 25.1095C25.4722 25.0987 24.8624 25.1607 24.2701 25.0337C22.7576 24.8369 21.2209 24.1411 20.3454 22.8513C19.7549 22.0436 19.4765 21.0571 19.3413 20.0791C19.3183 19.0565 19.3286 18.0333 19.3262 17.0107C19.328 14.7682 19.3232 12.5256 19.3286 10.283C20.9341 10.2926 22.539 10.2824 24.1445 10.289C24.258 10.295 24.3673 10.2631 24.4735 10.2246C24.4609 8.614 24.4723 7.00399 24.4681 5.39398C24.4886 5.28204 24.3413 5.26518 24.2646 5.25977C22.6072 5.25375 20.9498 5.26157 19.293 5.25616C19.2803 3.83754 19.2912 2.41893 19.2875 1.00091C19.2924 0.666875 19.2749 0.332836 19.2984 0Z" fill="white"/>
<path d="M6.67859 4.78607C7.44119 4.66088 8.21827 4.70422 8.98751 4.71565C11.0151 4.87756 13.0643 5.64555 14.4827 7.14C15.241 7.95674 15.8122 8.99015 15.9209 10.1102C15.9698 10.3281 15.6987 10.3101 15.561 10.3456C14.2333 10.6315 12.9122 10.9438 11.5856 11.2327C11.451 10.5093 11.1086 9.79787 10.5012 9.35489C9.53093 8.63445 8.23699 8.54537 7.08253 8.76325C6.42198 8.91913 5.73969 9.27062 5.44504 9.91342C5.32488 10.2114 5.21741 10.5502 5.33877 10.8656C5.43598 11.2977 5.74512 11.6534 6.12612 11.8683C6.69127 12.2192 7.36571 12.2806 8.00091 12.4196C8.67535 12.5436 9.34617 12.682 10.02 12.8096C11.3405 13.0365 12.6441 13.4807 13.7478 14.2517C14.5316 14.7946 15.2018 15.5169 15.6196 16.3769C15.8937 16.8976 16.0344 17.4742 16.1383 18.0489C16.1673 18.5238 16.1576 19.0011 16.1473 19.4772C16.0314 20.513 15.645 21.5242 15.0025 22.3511C14.5968 22.9229 14.0401 23.3653 13.4586 23.7481C12.5451 24.3439 11.5011 24.7231 10.4318 24.9223C10.0562 25.006 9.67101 25.0307 9.29243 25.0975C8.66629 25.1215 8.03895 25.1131 7.41281 25.1047C7.08978 25.08 6.77339 24.9994 6.44975 24.9807C5.1214 24.7472 3.81539 24.2843 2.70863 23.5031C2.17306 23.1474 1.73108 22.6761 1.29454 22.2103C0.583871 21.3538 0.0706442 20.2945 0 19.175C1.32714 18.8428 2.67421 18.5936 4.00619 18.2777C4.15412 18.2355 4.3093 18.2331 4.46266 18.2247C4.5013 18.4402 4.55021 18.6538 4.60033 18.8675C4.84969 19.7137 5.54164 20.3674 6.33141 20.7267C7.12601 21.0715 8.00876 21.1901 8.86856 21.1053C9.4476 21.0138 10.052 20.8958 10.5224 20.5232C11.0555 20.135 11.326 19.3971 11.1177 18.7658C11.0338 18.383 10.744 18.0802 10.4258 17.869C9.97472 17.5915 9.45847 17.441 8.94706 17.3189C8.23277 17.1521 7.51908 16.9812 6.80539 16.8139C5.97759 16.6243 5.14495 16.4323 4.3582 16.1067C3.46458 15.7341 2.58666 15.2593 1.91826 14.5466C1.2565 13.9436 0.845919 13.1106 0.638817 12.2499C0.546436 11.9839 0.584475 11.698 0.524699 11.4259C0.438356 10.9228 0.544625 10.4196 0.58689 9.91884C0.770444 8.89506 1.24805 7.93266 1.9237 7.14361C3.14216 5.79963 4.898 5.02682 6.67859 4.78607Z" fill="white"/>
<path d="M39.6807 4.80239C40.1885 4.69225 40.712 4.70789 41.2289 4.70127C43.318 4.64891 45.4398 5.24898 47.1382 6.4774C48.7226 7.59869 49.8221 9.32546 50.3251 11.1828C49.2328 11.565 48.1345 11.931 47.0362 12.2951C46.5676 12.4402 46.1112 12.6213 45.6372 12.7453C45.4132 12.1115 45.1457 11.4772 44.7001 10.9638C44.4048 10.6387 44.0891 10.3228 43.705 10.1025C43.1743 9.77747 42.5621 9.61436 41.9504 9.5307C41.5881 9.51565 41.2253 9.52047 40.863 9.52709C39.8679 9.62881 38.888 10.011 38.1393 10.6815C37.1424 11.5608 36.6068 12.8753 36.5054 14.1796C36.471 14.4817 36.4118 14.7826 36.4396 15.0884C36.4722 15.4086 36.538 15.7252 36.5501 16.0478C36.7149 17.1125 37.1762 18.1375 37.9116 18.9332C38.6833 19.6668 39.6856 20.1532 40.7428 20.2976C41.1673 20.3108 41.593 20.3036 42.018 20.3018C43.4424 20.173 44.7768 19.2985 45.4458 18.0352C45.6227 17.7336 45.7103 17.393 45.8606 17.08C47.381 17.6187 48.9231 18.0954 50.4464 18.6244C50.2019 19.4586 49.8499 20.2627 49.3862 20.9994C48.3815 22.5649 46.8701 23.8059 45.1234 24.4638C44.2062 24.8213 43.2329 25.0061 42.2571 25.106C41.6715 25.1138 41.0858 25.118 40.5007 25.1024C39.8142 25.0091 39.124 24.9212 38.4581 24.7226C36.6606 24.2212 35.0001 23.2071 33.7714 21.8017C32.9617 20.8916 32.3319 19.8269 31.9002 18.69C31.5518 17.7848 31.3695 16.8278 31.2499 15.8696C31.2433 15.2467 31.2481 14.6231 31.2469 14.0002C31.3767 12.717 31.672 11.4356 32.2353 10.2668C32.7896 9.09374 33.5679 8.02 34.5382 7.1533C35.9734 5.89238 37.786 5.0642 39.6807 4.80239Z" fill="white"/>
</svg>
