<svg width="73" height="30" viewBox="0 0 73 30" fill="none" xmlns="http://www.w3.org/2000/svg">
<path d="M70.0821 0.0596731C70.2046 0.0400367 70.3257 -0.00141724 70.4526 3.73018e-05C70.8412 0.0909464 71.2493 0.130946 71.6009 0.334582C72.6724 0.890218 73.2538 2.28004 72.8152 3.42113C72.4948 4.43713 71.4595 5.21095 70.3859 5.13386C69.7262 5.17022 69.0563 4.89967 68.6046 4.41531C67.6245 3.50913 67.5977 1.79131 68.5379 0.846583C68.9316 0.401492 69.5021 0.146946 70.0821 0.0596731Z" fill="white"/>
<path d="M5.07256 5.44008C5.364 5.42408 5.64383 5.33463 5.93164 5.29608C6.27165 5.27936 6.61166 5.29608 6.95167 5.28881C7.36925 5.26408 7.76145 5.4459 8.17831 5.44372C9.2208 5.66336 10.2597 5.96808 11.1913 6.49972C11.3631 6.59281 11.5197 6.71136 11.6675 6.83936C11.0695 7.83863 10.4047 8.79936 9.78192 9.78481C9.36434 9.54845 8.96851 9.26772 8.51396 9.10408C7.8267 8.81681 7.07129 8.69899 6.33037 8.78627C5.83885 8.87717 5.30165 9.02408 4.98339 9.44227C4.74416 9.71063 4.72386 10.1688 4.96672 10.4415C5.2944 10.8394 5.79753 11.0175 6.2615 11.2008C7.65488 11.7084 9.14106 12.0597 10.3633 12.9412C11.3101 13.5797 11.9996 14.635 12.0946 15.7863C12.2062 16.3746 12.1337 16.9804 12.0076 17.5601C11.6922 18.7448 10.7918 19.6954 9.74205 20.2801C8.04564 21.2095 6.01357 21.3397 4.14606 20.9594C2.65481 20.6575 1.23534 20.0248 0 19.1339C0.354507 18.5172 0.795284 17.9557 1.17371 17.3543C1.45645 16.9746 1.68771 16.5594 1.97625 16.1848C2.78023 16.9092 3.80678 17.347 4.85508 17.5724C5.26685 17.6023 5.66558 17.7455 6.08171 17.7157C6.77623 17.7135 7.56643 17.4903 7.95429 16.8648C8.14641 16.5957 8.11668 16.2132 7.93907 15.9441C7.67301 15.5106 7.19743 15.2735 6.7494 15.0714C5.30093 14.4663 3.72051 14.131 2.40905 13.2299C1.57897 12.6874 0.938102 11.8132 0.790935 10.819C0.568371 10.0634 0.748162 9.26772 0.98595 8.53972C1.18024 7.99136 1.52967 7.5179 1.90375 7.08008C2.76646 6.2299 3.89305 5.68008 5.07256 5.44008Z" fill="white"/>
<path d="M33.365 5.38475C33.8536 5.24148 34.3654 5.29893 34.8671 5.2902C35.9915 5.4262 37.1152 5.75202 38.0569 6.40511C38.6086 6.75275 39.053 7.2342 39.4981 7.70402C40.3166 6.87057 41.2881 6.17238 42.3871 5.76293C42.9925 5.51275 43.6413 5.41384 44.2807 5.29602C44.8324 5.29529 45.3957 5.23711 45.9344 5.38984C47.7337 5.62984 49.4171 6.6422 50.4596 8.13602C51.2106 9.22111 51.6028 10.5397 51.6724 11.8502C51.8174 12.4015 51.7631 12.9724 51.7718 13.536C51.7681 16.0844 51.7797 18.6327 51.766 21.1818C50.4001 21.1942 49.0343 21.184 47.6692 21.1869C47.6409 18.1258 47.6779 15.0633 47.6496 12.0022C47.5431 11.4495 47.4488 10.8684 47.1175 10.3978C46.4607 9.41529 45.1695 8.96584 44.0342 9.19202C42.8598 9.40511 41.8144 10.1171 41.08 11.0466C40.9162 11.2364 41.0307 11.4917 41.043 11.7113C41.08 12.6582 41.0604 13.6066 41.0655 14.5542C41.0648 16.7535 41.0662 18.952 41.0648 21.1513C39.7287 21.1484 38.3926 21.1455 37.0572 21.152C37.0572 18.2735 37.0565 15.3957 37.0572 12.5171C37.0463 12.2822 36.9919 12.0531 36.9521 11.8226C36.9064 11.1491 36.6389 10.4647 36.1401 9.99929C35.5174 9.35275 34.5785 9.0822 33.6999 9.14184C32.8234 9.24584 31.9883 9.62548 31.3111 10.1913C31.0233 10.4604 30.7428 10.7389 30.4818 11.0342C30.4383 11.9142 30.4767 12.7993 30.4637 13.6815C30.4608 16.1833 30.4702 18.6851 30.4586 21.1869C29.0928 21.1847 27.7269 21.192 26.3611 21.1833C26.3422 16.9862 26.3589 12.7884 26.3531 8.59057C26.3589 7.59129 26.3415 6.59129 26.3625 5.59202C27.6595 5.57602 28.9572 5.58984 30.2541 5.58475C30.3861 5.97311 30.2773 6.38984 30.3353 6.79057C30.5572 6.66111 30.7384 6.47638 30.9508 6.33384C31.6722 5.84438 32.5023 5.51129 33.365 5.38475Z" fill="white"/>
<path d="M59.7312 5.44588C60.0951 5.41679 60.4438 5.26988 60.8128 5.28733C63.1486 5.28442 65.4845 5.29024 67.8203 5.28442C67.8145 6.29097 67.821 7.29824 67.8167 8.30479C67.787 8.52733 67.9537 8.69533 68.0603 8.87061C68.6758 9.76515 69.0578 10.8073 69.2485 11.8728C69.3935 12.3186 69.2847 12.7921 69.3775 13.2466C69.3261 13.5353 69.3297 13.8284 69.3311 14.1208C69.1513 15.7077 68.5003 17.2481 67.452 18.4568C67.1193 18.9164 66.6676 19.2633 66.2297 19.6153C65.0865 20.491 63.7003 21.0473 62.2685 21.1928C61.7118 21.2146 61.1535 21.2117 60.5975 21.1942C58.4444 20.9928 56.3956 19.8444 55.0958 18.1099C54.2505 17.0204 53.7133 15.7019 53.5233 14.3375C53.4987 13.6335 53.5023 12.9288 53.5197 12.2248C53.7879 10.0655 54.9885 8.04661 56.7509 6.77752C57.6368 6.13024 58.6626 5.68442 59.7312 5.44588ZM61.1956 9.3477C60.2299 9.40079 59.2918 9.83206 58.6307 10.5433C57.9753 11.171 57.6179 12.0561 57.5128 12.9477C57.457 13.8241 57.6926 14.7281 58.1972 15.4495C58.7285 16.2852 59.6275 16.851 60.5801 17.0757C60.9868 17.2008 61.4189 17.147 61.8379 17.1492C62.9275 17.0161 63.9613 16.4168 64.5906 15.5084C65.0437 14.8975 65.2561 14.1433 65.3395 13.3964C65.3511 12.1172 64.7327 10.8226 63.6808 10.0815C62.9703 9.55352 62.075 9.30115 61.1956 9.3477Z" fill="white"/>
<path d="M21.6734 5.4458C22.1331 5.40435 22.5789 5.24435 23.0465 5.28944C23.5301 5.2538 24.0049 5.33598 24.4747 5.44435C24.4479 5.75562 24.4848 6.07489 24.3971 6.37962C24.3377 6.60435 24.3065 6.83489 24.3152 7.06762C24.3312 7.43707 24.1579 7.78326 24.1738 8.15271C24.192 8.54253 24.0752 8.9178 24.0245 9.30107C23.6272 9.24435 23.2379 9.11198 22.8319 9.13962C21.2849 9.05962 19.8001 9.96871 18.965 11.2443C18.8367 11.3971 18.8838 11.6043 18.8751 11.7876C18.878 14.9069 18.8765 18.0262 18.8765 21.1454C17.5223 21.1491 16.1681 21.1542 14.8146 21.1433C14.8131 15.9767 14.8095 10.8102 14.816 5.64435C16.1217 5.62398 17.4273 5.63635 18.733 5.6378C18.7431 6.11053 18.7199 6.58398 18.7475 7.05671C18.9577 6.90035 19.1288 6.69671 19.342 6.54253C20.0118 5.98617 20.8354 5.65017 21.6734 5.4458Z" fill="white"/>
<path d="M65.2097 21.219C66.5835 21.2182 67.9573 21.2197 69.3318 21.219C69.3376 21.5397 69.2927 21.8575 69.2303 22.1724C69.0846 23.7091 68.4241 25.1804 67.4476 26.3673C66.9938 26.8386 66.5523 27.331 66.0107 27.7026C64.9987 28.4531 63.7938 28.9193 62.5585 29.1295C62.1351 29.112 61.7284 29.2553 61.3079 29.2691C61.2941 27.8953 61.3036 26.5208 61.3036 25.147C63.0116 25.1899 64.6507 23.9448 65.0929 22.2895C65.2358 21.9491 65.214 21.5797 65.2097 21.219Z" fill="white"/>
</svg>
