<svg width="42" height="144" viewBox="0 0 42 144" fill="none" xmlns="http://www.w3.org/2000/svg">
<path d="M-43.3658 116.117C-31.8819 116.527 -24.979 116.769 -22.6571 116.844C-17.1246 117.107 -12.3012 116.688 -8.18697 115.587C4.03301 112.32 14.4816 102.616 23.1619 86.4825C27.3988 78.5353 30.732 70.4086 33.1557 62.1084C34.9031 56.0732 36.8181 47.0786 38.9036 35.1279C36.8719 45.1696 33.1467 55.0288 27.719 64.7055C22.0159 74.6873 16.9562 82.1887 12.5337 87.2095C8.09936 92.1885 2.05216 97.2812 -5.61376 102.485C-13.3186 107.7 -21.6188 110.058 -30.5115 109.558C-39.488 109.082 -48.3867 109.776 -57.2046 111.646C-66.0344 113.475 -74.3736 117.311 -82.2221 123.151C-90.1124 129.004 -96.2463 135.653 -100.624 143.1C-98.7747 142.451 -96.3181 140.817 -93.2571 138.205C-90.2081 135.551 -83.9994 131.114 -74.6309 124.896C-65.2744 118.636 -54.8557 115.71 -43.3718 116.12" fill="white"/>
<path d="M36.5011 5.6103C36.8841 2.93232 36.6328 1.06222 35.7501 0L31.2528 19.3234C29.9004 25.1581 28.8173 29.3651 28.0004 31.9384C25.0382 41.0645 20.3285 49.6639 13.8684 57.7367C7.77639 65.3458 0.505402 72.0394 -7.94446 77.8232C-22.6509 87.8769 -40.8762 95.2555 -62.6202 99.9592C-71.0192 101.713 -75.3249 102.619 -75.5344 102.676C-80.4505 103.819 -84.6485 105.103 -88.1344 106.524C-94.2354 109.082 -100.459 112.981 -106.802 118.223C-109.343 120.285 -111.222 122.364 -112.44 124.465C-114.046 127.122 -114.411 129.617 -113.538 131.945C-106.129 122.257 -94.2623 114.731 -77.9341 109.369C-73.7929 108.035 -66.9169 106.165 -57.3001 103.756C-48.3655 101.491 -41.5105 99.5373 -36.735 97.8916C-22.7437 93.0473 -10.2723 85.9857 0.678967 76.707C12.136 66.9735 20.7774 55.723 26.6031 42.9555C31.1542 32.8899 34.4545 20.4425 36.5041 5.61337" fill="white"/>
<path d="M41.444 86.3866C41.444 85.2915 41.052 84.3521 40.2711 83.5711C39.4871 82.7902 38.5506 82.3981 37.4555 82.3981C36.3603 82.3981 35.4208 82.7902 34.6398 83.5711C33.8588 84.3521 33.4669 85.2915 33.4669 86.3866C33.4669 87.4818 33.8588 88.4214 34.6398 89.2023C35.4208 89.9833 36.3603 90.3752 37.4555 90.3752C38.5506 90.3752 39.4901 89.9833 40.2711 89.2023C41.052 88.4214 41.444 87.4818 41.444 86.3866Z" fill="white"/>
<path d="M35.8367 112.855L35.8876 112.804C37.4764 111.135 38.2813 109.157 38.2813 106.919C38.2813 104.681 37.4764 102.703 35.8876 101.033L35.8367 100.982C34.1701 99.3936 32.1893 98.5887 29.9512 98.5887C27.6352 98.5887 25.6455 99.4026 24.0417 101.009L24.0177 101.033C22.4289 102.7 21.624 104.681 21.624 106.919C21.624 109.157 22.4289 111.135 24.0177 112.804L24.0417 112.831C25.6455 114.435 27.6352 115.249 29.9512 115.249C32.1893 115.249 34.1671 114.444 35.8367 112.855ZM24.5593 106.919C24.5593 105.447 25.074 104.187 26.1302 103.074C27.1774 102.033 28.4252 101.527 29.9512 101.527C31.4173 101.527 32.6711 102.036 33.7842 103.086C34.8314 104.199 35.3431 105.453 35.3431 106.919C35.3431 108.385 34.8344 109.639 33.7842 110.752C32.6711 111.802 31.4173 112.311 29.9512 112.311C28.4282 112.311 27.1774 111.805 26.1302 110.764C25.074 109.648 24.5593 108.391 24.5593 106.919Z" fill="white"/>
</svg>
