<svg width="37" height="31" viewBox="0 0 37 31" fill="none" xmlns="http://www.w3.org/2000/svg">
<path d="M7.72749 4.91077C9.70749 3.52963 12.1162 2.67146 14.5425 2.82268C14.53 4.41049 14.5487 5.99955 14.5325 7.58736C12.55 7.49537 10.615 8.41654 9.24874 9.83423C7.91124 11.3124 7.07874 13.3022 7.17499 15.3197C9.57749 15.3273 11.9812 15.3096 14.3837 15.3273C14.4262 15.3663 14.5125 15.4457 14.5562 15.4848C14.575 19.4026 14.5562 23.3205 14.565 27.2383C14.605 27.4715 14.3112 27.5546 14.1325 27.5269C10.335 27.5244 6.53749 27.5307 2.73999 27.5231C2.51624 27.5559 2.42374 27.2774 2.45374 27.0972C2.46374 23.0634 2.44749 19.0284 2.46124 14.9946C2.52999 14.3154 2.54374 13.6298 2.69499 12.962C3.23749 9.7498 5.08749 6.78841 7.72749 4.91077Z" fill="#DE2A57"/>
<path d="M20.915 7.3619C23.1025 4.52905 26.6175 2.68291 30.2087 2.80893C30.2137 4.37531 30.2037 5.94043 30.2125 7.50555C28.6775 7.59125 27.1337 8.02978 25.9075 8.99507C24.2775 10.2136 23.1975 12.1278 22.945 14.1529C22.9062 14.5436 22.7562 14.9355 22.875 15.3261C25.2537 15.3135 27.6325 15.3236 30.0112 15.3211C30.2375 15.2883 30.3487 15.553 30.3075 15.7432C30.3012 19.5729 30.3087 23.4012 30.3037 27.2296C30.3337 27.4577 30.0725 27.5699 29.8837 27.5283C26.0437 27.5169 22.2037 27.5384 18.3662 27.5182C18.3262 27.4766 18.2462 27.3934 18.2062 27.3519C18.1862 23.1921 18.2025 19.0297 18.1975 14.8699C18.3112 12.1682 19.2425 9.48653 20.915 7.3619Z" fill="#DE2A57"/>
</svg>
