<svg width="37" height="31" viewBox="0 0 37 31" fill="none" xmlns="http://www.w3.org/2000/svg">
<path d="M29.2725 4.91077C27.2925 3.52963 24.8837 2.67146 22.4575 2.82268C22.47 4.41049 22.4512 5.99955 22.4675 7.58736C24.45 7.49537 26.385 8.41654 27.7512 9.83423C29.0887 11.3124 29.9212 13.3022 29.825 15.3197C27.4225 15.3273 25.0187 15.3096 22.6162 15.3273C22.5737 15.3663 22.4875 15.4457 22.4437 15.4848C22.425 19.4026 22.4437 23.3205 22.435 27.2383C22.395 27.4715 22.6887 27.5546 22.8675 27.5269C26.665 27.5244 30.4625 27.5307 34.26 27.5231C34.4837 27.5559 34.5762 27.2774 34.5462 27.0972C34.5362 23.0634 34.5525 19.0284 34.5387 14.9946C34.47 14.3154 34.4562 13.6298 34.305 12.962C33.7625 9.7498 31.9125 6.78841 29.2725 4.91077Z" fill="#DE2A57"/>
<path d="M16.085 7.3619C13.8975 4.52905 10.3825 2.68291 6.79125 2.80893C6.78625 4.37531 6.79625 5.94043 6.7875 7.50555C8.3225 7.59125 9.86625 8.02978 11.0925 8.99507C12.7225 10.2136 13.8025 12.1278 14.055 14.1529C14.0937 14.5436 14.2437 14.9355 14.125 15.3261C11.7462 15.3135 9.3675 15.3236 6.98875 15.3211C6.7625 15.2883 6.65125 15.553 6.6925 15.7432C6.69875 19.5729 6.69125 23.4012 6.69625 27.2296C6.66625 27.4577 6.9275 27.5699 7.11625 27.5283C10.9562 27.5169 14.7962 27.5384 18.6337 27.5182C18.6737 27.4766 18.7537 27.3934 18.7937 27.3519C18.8137 23.1921 18.7975 19.0297 18.8025 14.8699C18.6887 12.1682 17.7575 9.48653 16.085 7.3619Z" fill="#DE2A57"/>
</svg>
