<svg width="59" height="38" viewBox="0 0 59 38" fill="none" xmlns="http://www.w3.org/2000/svg">
<path d="M24.7272 35.6595L24.7548 35.6319C25.6558 34.686 26.1115 33.5642 26.1115 32.2973C26.1115 31.0304 25.6558 29.9084 24.7548 28.9626L24.7272 28.9349C23.7813 28.0339 22.6594 27.5784 21.3925 27.5784C20.0807 27.5784 18.9519 28.0408 18.0406 28.9487L18.0268 28.9626C17.1258 29.9084 16.6701 31.0304 16.6701 32.2973C16.6701 33.5642 17.1258 34.6895 18.0268 35.6319L18.0406 35.6457C18.9519 36.5536 20.0773 37.0162 21.3925 37.0162C22.6594 37.0162 23.7813 36.5605 24.7272 35.6595ZM18.3341 32.2938C18.3341 31.4584 18.624 30.7472 19.2246 30.1155C19.8184 29.5252 20.5261 29.2387 21.3891 29.2387C22.221 29.2387 22.9321 29.5286 23.5604 30.1224C24.1542 30.7541 24.4442 31.4653 24.4442 32.2938C24.4442 33.1257 24.1542 33.8368 23.5604 34.4651C22.9287 35.0589 22.2176 35.3489 21.3891 35.3489C20.5606 35.3489 19.8149 35.0623 19.2246 34.472C18.624 33.8403 18.3341 33.1257 18.3341 32.2938Z" fill="white" fill-opacity="0.13"/>
<path d="M31.5934 6.67621C31.0238 9.81412 30.3472 12.455 29.5705 14.5918C28.7799 16.7977 28.0861 18.5132 27.4889 19.7456C26.9055 20.9642 26.1737 21.6857 25.2899 21.9032C24.42 22.1241 23.4224 22.0724 22.2936 21.7479C21.1924 21.451 20.3881 20.8538 19.8806 19.9597C19.4146 19.038 19.532 18.0921 20.2293 17.1187C20.9542 16.1348 22.0001 15.7966 23.3602 16.1073C24.71 16.418 25.7284 17.1187 26.4153 18.2096C27.375 16.6907 28.1448 14.8645 28.7316 12.7242C29.3288 10.5977 29.712 8.70951 29.8777 7.06288L17.7783 4.5325C17.2467 7.37354 16.6184 9.77613 15.89 11.7473C15.0995 13.9531 14.4056 15.6688 13.8084 16.9012C13.225 18.1198 12.4932 18.8447 11.6094 19.0795C10.7395 19.2866 9.74189 19.2348 8.61307 18.9241C7.51187 18.6134 6.70754 18.0094 6.20009 17.1153C5.73406 16.1936 5.85144 15.2547 6.54875 14.295C7.27368 13.2973 8.31968 12.959 9.67978 13.2835C10.926 13.57 11.8856 14.1775 12.5587 15.113C14.8267 11.1052 16.1766 6.0687 16.6046 0L32.1458 3.09302C31.9766 4.34957 31.7901 5.54402 31.583 6.67284L31.5934 6.67621Z" fill="white" fill-opacity="0.13"/>
<path d="M48.2079 6.36884C48.5324 4.90862 49.3333 3.7764 50.6071 2.96517C51.8809 2.15394 53.2479 1.91234 54.7081 2.23683C56.1683 2.56133 57.3006 3.3621 58.1119 4.63591C58.9231 5.90971 59.1647 7.27685 58.8402 8.73707C58.5157 10.1973 57.7148 11.3295 56.441 12.1407C55.1672 12.952 53.8003 13.1936 52.34 12.8691C50.8798 12.5446 49.7475 11.7438 48.9363 10.47C48.1251 9.1962 47.8834 7.82906 48.2079 6.36884Z" fill="white" fill-opacity="0.13"/>
<path d="M-4.92238 24.2574C-4.74288 23.4496 -4.30098 22.8247 -3.59677 22.3759C-2.89255 21.9271 -2.13661 21.7961 -1.32883 21.9756C-0.521049 22.1551 0.103839 22.5969 0.552606 23.3011C1.00137 24.0053 1.13252 24.7613 0.953013 25.5691C0.773506 26.3768 0.331614 27.0017 -0.372605 27.4505C-1.07682 27.8993 -1.83276 28.0303 -2.64054 27.8508C-3.44832 27.6713 -4.07321 27.2295 -4.52198 26.5253C-4.97074 25.8211 -5.10189 25.0651 -4.92238 24.2574Z" fill="white" fill-opacity="0.13"/>
</svg>
