<svg xmlns="http://www.w3.org/2000/svg" width="46.792" height="43.87" viewBox="0 0 46.792 43.87">
  <g id="weather" transform="translate(0 0)">
    <path id="Path_161" data-name="Path 161" d="M0,166.586c.07-.341.13-.683.21-1.021a8.017,8.017,0,0,1,6.784-6.116c.324-.042.414-.142.4-.479A8.695,8.695,0,0,1,24.249,155.6c.14.38.243.448.639.285a6.373,6.373,0,0,1,6.671.877,6.333,6.333,0,0,1,2.551,6.14c-.045.366-.006.483.4.508a6.023,6.023,0,0,1,.93,11.907,6.228,6.228,0,0,1-1.36.137q-12.974,0-25.949,0a8.015,8.015,0,0,1-8.05-6.915,2.651,2.651,0,0,0-.083-.3v-1.645" transform="translate(0 -131.584)" fill="#fff"/>
    <path id="Path_162" data-name="Path 162" d="M177.636,59.873A9.51,9.51,0,0,1,187.1,70.037a9.283,9.283,0,0,1-3.684,6.868c-.437.346-.584.323-.954-.094a9.459,9.459,0,0,0-8.386-3.34.672.672,0,0,1-.682-.347A11.474,11.474,0,0,0,168.554,69a.622.622,0,0,1-.371-.737,9.524,9.524,0,0,1,7.148-8.114,9.14,9.14,0,0,1,2.306-.28" transform="translate(-147.642 -52.563)" fill="#fff"/>
    <path id="Path_163" data-name="Path 163" d="M236.426,2.924c0,.472.007.944,0,1.416a1.46,1.46,0,1,1-2.919.019q-.018-1.438,0-2.877a1.459,1.459,0,1,1,2.918-.019c.013.487,0,.974,0,1.461" transform="translate(-204.988 0)" fill="#fff"/>
    <path id="Path_164" data-name="Path 164" d="M338.284,128.626c-.487,0-.975.01-1.461,0a1.459,1.459,0,1,1,.016-2.918q1.439-.019,2.877,0a1.46,1.46,0,1,1-.016,2.92c-.472.008-.944,0-1.416,0" transform="translate(-294.412 -110.35)" fill="#fff"/>
    <path id="Path_165" data-name="Path 165" d="M306.828,41.744a1.434,1.434,0,0,1-1.264-.8A1.287,1.287,0,0,1,305.7,39.4q1.111-1.21,2.32-2.328a1.447,1.447,0,0,1,2.041,2.028c-.742.806-1.535,1.565-2.322,2.327a1.34,1.34,0,0,1-.914.313" transform="translate(-268.089 -32.253)" fill="#fff"/>
    <path id="Path_166" data-name="Path 166" d="M149.567,40.3a1.446,1.446,0,0,1-.83,1.315,1.33,1.33,0,0,1-1.574-.2q-1.151-1.075-2.229-2.226a1.45,1.45,0,0,1,2.054-2.039c.754.708,1.474,1.454,2.2,2.191a1.447,1.447,0,0,1,.379.961" transform="translate(-126.912 -32.282)" fill="#fff"/>
    <path id="Path_167" data-name="Path 167" d="M310.484,201.242a1.473,1.473,0,0,1-.851,1.3,1.339,1.339,0,0,1-1.572-.223q-1.131-1.062-2.2-2.194a1.452,1.452,0,0,1,2.054-2.047c.742.7,1.451,1.434,2.167,2.16a1.453,1.453,0,0,1,.4,1" transform="translate(-268.181 -173.554)" fill="#fff"/>
  </g>
</svg>
