<svg width="64" height="38" viewBox="0 0 64 38" fill="none" xmlns="http://www.w3.org/2000/svg">
<path d="M29.7272 35.6595L29.7548 35.6319C30.6558 34.686 31.1115 33.5642 31.1115 32.2973C31.1115 31.0304 30.6558 29.9084 29.7548 28.9626L29.7272 28.9349C28.7813 28.0339 27.6594 27.5784 26.3925 27.5784C25.0807 27.5784 23.9519 28.0408 23.0406 28.9487L23.0268 28.9626C22.1258 29.9084 21.6701 31.0304 21.6701 32.2973C21.6701 33.5642 22.1258 34.6895 23.0268 35.6319L23.0406 35.6457C23.9519 36.5536 25.0773 37.0162 26.3925 37.0162C27.6594 37.0162 28.7813 36.5605 29.7272 35.6595ZM23.3341 32.2938C23.3341 31.4584 23.624 30.7472 24.2246 30.1155C24.8184 29.5252 25.5261 29.2387 26.3891 29.2387C27.221 29.2387 27.9321 29.5286 28.5604 30.1224C29.1542 30.7541 29.4442 31.4653 29.4442 32.2938C29.4442 33.1257 29.1542 33.8368 28.5604 34.4651C27.9287 35.0589 27.2176 35.3489 26.3891 35.3489C25.5606 35.3489 24.8149 35.0623 24.2246 34.472C23.624 33.8403 23.3341 33.1257 23.3341 32.2938Z" fill="white" fill-opacity="0.13"/>
<path d="M36.5934 6.67621C36.0238 9.81412 35.3472 12.455 34.5705 14.5918C33.7799 16.7977 33.0861 18.5132 32.4889 19.7456C31.9055 20.9642 31.1737 21.6857 30.2899 21.9032C29.42 22.1241 28.4224 22.0724 27.2936 21.7479C26.1924 21.451 25.3881 20.8538 24.8806 19.9597C24.4146 19.038 24.532 18.0921 25.2293 17.1187C25.9542 16.1348 27.0001 15.7966 28.3602 16.1073C29.71 16.418 30.7284 17.1187 31.4153 18.2096C32.375 16.6907 33.1448 14.8645 33.7316 12.7242C34.3288 10.5977 34.712 8.70951 34.8777 7.06288L22.7783 4.5325C22.2467 7.37354 21.6184 9.77613 20.89 11.7473C20.0995 13.9531 19.4056 15.6688 18.8084 16.9012C18.225 18.1198 17.4932 18.8447 16.6094 19.0795C15.7395 19.2866 14.7419 19.2348 13.6131 18.9241C12.5119 18.6134 11.7075 18.0094 11.2001 17.1153C10.7341 16.1936 10.8514 15.2547 11.5487 14.295C12.2737 13.2973 13.3197 12.959 14.6798 13.2835C15.926 13.57 16.8856 14.1775 17.5587 15.113C19.8267 11.1052 21.1766 6.0687 21.6046 0L37.1458 3.09302C36.9766 4.34957 36.7901 5.54402 36.583 6.67284L36.5934 6.67621Z" fill="white" fill-opacity="0.13"/>
<path d="M53.2079 6.36884C53.5324 4.90862 54.3333 3.7764 55.6071 2.96517C56.8809 2.15394 58.2479 1.91234 59.7081 2.23683C61.1683 2.56133 62.3006 3.3621 63.1119 4.63591C63.9231 5.90971 64.1647 7.27685 63.8402 8.73707C63.5157 10.1973 62.7148 11.3295 61.441 12.1407C60.1672 12.952 58.8003 13.1936 57.34 12.8691C55.8798 12.5446 54.7475 11.7438 53.9363 10.47C53.1251 9.1962 52.8834 7.82906 53.2079 6.36884Z" fill="white" fill-opacity="0.13"/>
<path d="M0.0776172 24.2574C0.257124 23.4496 0.699017 22.8247 1.40323 22.3759C2.10745 21.9271 2.86339 21.7961 3.67117 21.9756C4.47895 22.1551 5.10384 22.5969 5.55261 23.3011C6.00137 24.0053 6.13252 24.7613 5.95301 25.5691C5.77351 26.3768 5.33161 27.0017 4.6274 27.4505C3.92318 27.8993 3.16724 28.0303 2.35946 27.8508C1.55168 27.6713 0.926791 27.2295 0.478024 26.5253C0.0292583 25.8211 -0.10189 25.0651 0.0776172 24.2574Z" fill="white" fill-opacity="0.13"/>
</svg>
