<svg id="evtYOCq5NHP1" xmlns="http://www.w3.org/2000/svg" xmlns:xlink="http://www.w3.org/1999/xlink" viewBox="0 0 107.337 74.224" shape-rendering="geometricPrecision" text-rendering="geometricPrecision">
<style><![CDATA[
#evtYOCq5NHP3_tr {animation: evtYOCq5NHP3_tr__tr 2800ms linear infinite normal forwards}@keyframes evtYOCq5NHP3_tr__tr { 0% {transform: translate(1000.370556px,114.662px) rotate(-10deg)} 25% {transform: translate(1000.370556px,114.662px) rotate(10deg)} 50% {transform: translate(1000.370556px,114.662px) rotate(-10deg)} 75% {transform: translate(1000.370556px,114.662px) rotate(10deg)} 100% {transform: translate(1000.370556px,114.662px) rotate(-10deg)}} #evtYOCq5NHP4_ts {animation: evtYOCq5NHP4_ts__ts 2800ms linear infinite normal forwards}@keyframes evtYOCq5NHP4_ts__ts { 0% {transform: translate(1015.465999px,180.843047px) scale(1,1)} 53.571429% {transform: translate(1015.465999px,180.843047px) scale(1,1)} 71.428571% {transform: translate(1015.465999px,180.843047px) scale(0.5,0.5)} 89.285714% {transform: translate(1015.465999px,180.843047px) scale(1,1)} 100% {transform: translate(1015.465999px,180.843047px) scale(1,1)}} #evtYOCq5NHP5_ts {animation: evtYOCq5NHP5_ts__ts 2800ms linear infinite normal forwards}@keyframes evtYOCq5NHP5_ts__ts { 0% {transform: translate(981.885401px,171.564537px) scale(1,1)} 35.714286% {transform: translate(981.885401px,171.564537px) scale(1,1)} 53.571429% {transform: translate(981.885401px,171.564537px) scale(0.5,0.5)} 71.428571% {transform: translate(981.885401px,171.564537px) scale(1,1)} 100% {transform: translate(981.885401px,171.564537px) scale(1,1)}} #evtYOCq5NHP6_ts {animation: evtYOCq5NHP6_ts__ts 2800ms linear infinite normal forwards}@keyframes evtYOCq5NHP6_ts__ts { 0% {transform: translate(925.560831px,126.383626px) scale(1,1)} 17.857143% {transform: translate(925.560831px,126.383626px) scale(1,1)} 35.714286% {transform: translate(925.560831px,126.383626px) scale(0.5,0.5)} 53.571429% {transform: translate(925.560831px,126.383626px) scale(1,1)} 100% {transform: translate(925.560831px,126.383626px) scale(1,1)}} #evtYOCq5NHP7_ts {animation: evtYOCq5NHP7_ts__ts 2800ms linear infinite normal forwards}@keyframes evtYOCq5NHP7_ts__ts { 0% {transform: translate(1018.698514px,157.946015px) scale(1,1)} 17.857143% {transform: translate(1018.698514px,157.946015px) scale(0.5,0.5)} 35.714286% {transform: translate(1018.698514px,157.946015px) scale(1,1)} 100% {transform: translate(1018.698514px,157.946015px) scale(1,1)}}
]]></style>
<g transform="translate(-916.321-114.66)" opacity="0.15"><g id="evtYOCq5NHP3_tr" transform="translate(1000.370556,114.662) rotate(-10)"><path d="M338.763,200.277c.792774,4.681681,1.973852,9.289254,3.531,13.775c1.057151,3.049705,2.269738,6.043289,3.633,8.969c1.018,2.12,2.295,3.376,3.838,3.754c1.736045.376011,3.540915.282816,5.229-.27c1.774825-.40831,3.300339-1.535423,4.212-3.112.810835-1.62032.570811-3.568887-.609-4.944q-1.9-2.568-5.464-1.76c-2.204454.436172-4.132756,1.75919-5.333,3.659-1.811359-2.96493-3.173479-6.181851-4.042-9.546-.947621-3.220653-1.616748-6.516777-2-9.852l21.118-4.4c.749032,4.269468,1.852858,8.469025,3.3,12.555c1.057156,3.049703,2.269743,6.043287,3.633,8.969q1.527,3.18,3.838,3.79c1.737922.351825,3.536557.258952,5.229-.27c1.774624-.430869,3.296178-1.568061,4.212-3.148.813646-1.607338.572877-3.547323-.609-4.907q-1.9-2.605-5.464-1.761c-2.014502.39492-3.807603,1.531086-5.025,3.184q-5.938-10.461-7.062-26.3l-27.128,5.38q.442,3.28.982,6.23Z" transform="translate(-364.839556,-188.662)" fill="#239cd1"/></g><g id="evtYOCq5NHP4_ts" transform="translate(1015.465999,180.843047) scale(1,1)"><path d="M374.252,260.572l-.047-.047c-3.081121-3.161462-3.081121-8.202538,0-11.364l.047-.047c1.511058-1.494562,3.554723-2.32642,5.68-2.312c2.142823-.036661,4.206858.807388,5.71,2.335l.023.024c3.081121,3.161462,3.081121,8.202538,0,11.364l-.023.024c-1.502607,1.52841-3.567,2.372606-5.71,2.335-2.125277.01442-4.168942-.817438-5.68-2.312Zm10.89-5.735c.013873-1.390948-.532911-2.728894-1.517-3.712-.968568-.987856-2.303974-1.528973-3.687-1.494-2.875194,0-5.206,2.330806-5.206,5.206s2.330806,5.206,5.206,5.206c1.383313.036554,2.719326-.504809,3.687-1.494.983227-.98368,1.529856-2.321247,1.517-3.712Z" transform="translate(-379.934998,-254.843033)" fill="#239cd1"/></g><g id="evtYOCq5NHP5_ts" transform="translate(981.885401,171.564537) scale(1,1)"><path d="M340.235,251.735l-.051-.051c-3.318802-3.404707-3.318802-8.834293,0-12.239l.051-.051c1.627634-1.609077,3.828311-2.504889,6.117-2.49c2.307393-.039604,4.529912.869575,6.148,2.515l.026.026c3.317217,3.405351,3.317217,8.833649,0,12.239l-.026.026c-1.617485,1.646323-3.840407,2.555668-6.148,2.515-2.288774.01533-4.489613-.880548-6.117-2.49Zm11.727-6.176c.015523-1.498839-.573486-2.940722-1.634-4-1.042734-1.063983-2.48073-1.646788-3.97-1.609-2.003188,0-3.85421,1.068688-4.855805,2.8035s-1.001594,3.872188,0,5.607s2.852617,2.8035,4.855805,2.8035c1.487411.027662,2.921551-.55358,3.97-1.609c1.058656-1.058877,1.647428-2.498738,1.634-3.996Z" transform="translate(-346.354401,-245.564498)" fill="#239cd1"/></g><g id="evtYOCq5NHP6_ts" transform="translate(925.560831,126.383626) scale(1,1)"><path d="M299.109,198.4c-.946927-4.34138-4.830975-7.407657-9.273582-7.321066s-8.204219,3.301891-8.981255,7.676872s1.64731,8.688963,5.788386,10.300093s8.843462.06988,11.227451-3.679899c1.358743-2.054413,1.807193-4.579346,1.239-6.976Z" transform="translate(-290.029831,-200.383595)" fill="#fa8536"/></g><g id="evtYOCq5NHP7_ts" transform="translate(1018.698514,157.946015) scale(1,1)"><path d="M388,230.881c-.508256-2.309956-2.578251-3.938642-4.942943-3.889142s-4.364718,1.763382-4.775864,4.092584.88123,4.624252,3.086067,5.480356s4.707344.034547,5.97574-1.961798c.723848-1.096602.961661-2.443848.657-3.722Z" transform="translate(-383.167504,-231.946007)" fill="#fa8536"/></g></g></svg>
