<svg id="ef5m1wCVMZT1" xmlns="http://www.w3.org/2000/svg" xmlns:xlink="http://www.w3.org/1999/xlink" viewBox="0 0 199.145 102.328" shape-rendering="geometricPrecision" text-rendering="geometricPrecision">
<style><![CDATA[
#ef5m1wCVMZT3_tr {animation: ef5m1wCVMZT3_tr__tr 3000ms linear infinite normal forwards}@keyframes ef5m1wCVMZT3_tr__tr { 0% {transform: translate(648.826px,-72.999373px) rotate(20deg)} 6.666667% {transform: translate(648.826px,-72.999373px) rotate(20deg)} 20% {transform: translate(648.826px,-72.999373px) rotate(0deg)} 76.666667% {transform: translate(648.826px,-72.999373px) rotate(0deg)} 90% {transform: translate(648.826px,-72.999373px) rotate(20deg)} 100% {transform: translate(648.826px,-72.999373px) rotate(20deg)}} #ef5m1wCVMZT3_ts {animation: ef5m1wCVMZT3_ts__ts 3000ms linear infinite normal forwards}@keyframes ef5m1wCVMZT3_ts__ts { 0% {transform: scale(0,0)} 6.666667% {transform: scale(0,0)} 20% {transform: scale(1,1)} 76.666667% {transform: scale(1,1)} 90% {transform: scale(0,0)} 100% {transform: scale(0,0)}} #ef5m1wCVMZT3 {animation: ef5m1wCVMZT3_c_o 3000ms linear infinite normal forwards}@keyframes ef5m1wCVMZT3_c_o { 0% {opacity: 0} 6.666667% {opacity: 0} 20% {opacity: 0.15} 76.666667% {opacity: 0.15} 90% {opacity: 0} 100% {opacity: 0}} #ef5m1wCVMZT4_tr {animation: ef5m1wCVMZT4_tr__tr 3000ms linear infinite normal forwards}@keyframes ef5m1wCVMZT4_tr__tr { 0% {transform: translate(682.68px,-72.999373px) rotate(20deg)} 13.333333% {transform: translate(682.68px,-72.999373px) rotate(20deg)} 26.666667% {transform: translate(682.68px,-72.999373px) rotate(0deg)} 86.666667% {transform: translate(682.68px,-72.999373px) rotate(0deg)} 100% {transform: translate(682.68px,-72.999373px) rotate(20deg)}} #ef5m1wCVMZT4_ts {animation: ef5m1wCVMZT4_ts__ts 3000ms linear infinite normal forwards}@keyframes ef5m1wCVMZT4_ts__ts { 0% {transform: scale(0,0)} 13.333333% {transform: scale(0,0)} 26.666667% {transform: scale(1,1)} 86.666667% {transform: scale(1,1)} 100% {transform: scale(0,0)}} #ef5m1wCVMZT4 {animation: ef5m1wCVMZT4_c_o 3000ms linear infinite normal forwards}@keyframes ef5m1wCVMZT4_c_o { 0% {opacity: 0} 13.333333% {opacity: 0} 26.666667% {opacity: 0.15} 86.666667% {opacity: 0.15} 100% {opacity: 0}} #ef5m1wCVMZT5_tr {animation: ef5m1wCVMZT5_tr__tr 3000ms linear infinite normal forwards}@keyframes ef5m1wCVMZT5_tr__tr { 0% {transform: translate(608.212px,-82px) rotate(20deg)} 13.333333% {transform: translate(608.212px,-82px) rotate(0deg)} 66.666667% {transform: translate(608.212px,-82px) rotate(0deg)} 80% {transform: translate(608.212px,-82px) rotate(20deg)} 100% {transform: translate(608.212px,-82px) rotate(20deg)}} #ef5m1wCVMZT5_ts {animation: ef5m1wCVMZT5_ts__ts 3000ms linear infinite normal forwards}@keyframes ef5m1wCVMZT5_ts__ts { 0% {transform: scale(0,0)} 13.333333% {transform: scale(1,1)} 66.666667% {transform: scale(1,1)} 80% {transform: scale(0,0)} 100% {transform: scale(0,0)}} #ef5m1wCVMZT5 {animation: ef5m1wCVMZT5_c_o 3000ms linear infinite normal forwards}@keyframes ef5m1wCVMZT5_c_o { 0% {opacity: 0} 13.333333% {opacity: 0.15} 66.666667% {opacity: 0.15} 80% {opacity: 0} 100% {opacity: 0}}
]]></style>
<g transform="translate(-608.212 82)"><g id="ef5m1wCVMZT3_tr" transform="translate(648.826,-72.999373) rotate(20)"><g id="ef5m1wCVMZT3_ts" transform="scale(0,0)"><path id="ef5m1wCVMZT3" d="M179.4,77.3v0c-2.4-2.839-3.9-5.111-4.469-6.754v-.006c-.632-1.7-.728-3.017-.285-3.907.099266-.162579.104222-.365775.013-.533-.366-.66-2.3-1.122-5.736-1.372-4.388-.444-8.813-.989-13.153-1.62-10.632971-1.333205-21.12278-3.629984-31.34-6.862-9.011061-2.858646-17.656549-6.762205-25.76-11.631-15.7-9.581-28.206-17.251-38.224-23.45L40.614,10.108h.141c1.643,0,3.3-.032,4.914-.094c5.972-.63,14.053-.984,24.02-1.05l.382.285c5.222941,2.143328,10.207113,4.827628,14.871,8.009c8.476,5.629,16.939,10.8,25.152,15.375s16.413,8.677,24.366,12.195c7.695008,3.419681,15.566077,6.428579,23.58,9.014c7.472433,2.40655,15.084956,4.354181,22.795,5.832c3.488.538,6.668,1.007,9.719,1.432c1.357599.527791,2.487613,1.514165,3.194,2.788.504765,1.223761.452946,2.606453-.142,3.789h-.006c-2.402565-.112261-4.804057.243327-7.071,1.047-1.400831.446185-2.402562,1.682138-2.549,3.145-.076163,1.130921.1882,2.258729.759,3.238L179.4,77.3Z" transform="translate(-40.614,-9.000627)" opacity="0" fill="#c6629b"/></g></g><g id="ef5m1wCVMZT4_tr" transform="translate(682.68,-72.999373) rotate(20)"><g id="ef5m1wCVMZT4_ts" transform="scale(0,0)"><path id="ef5m1wCVMZT4" d="M161.331,43.384q1.338.191,4.1.382c2.132475-.051027,4.113991-1.111745,5.339-2.858q-13.725-5.242-55.855-22.588Q73.07,0.873,51.435,0.974h-4.29c3.302778.740072,6.527145,1.794547,9.629,3.149c4.098228,1.812184,8.078122,3.880955,11.916,6.194Q102.054,28.81,128.841,36.34c9.66688,2.670875,19.466958,4.833835,29.36,6.48c1.207.188,2.257.382,3.142.57" transform="translate(-47.145,-0.973627)" opacity="0" fill="#c6629b"/></g></g><g id="ef5m1wCVMZT5_tr" transform="translate(608.212,-82) rotate(20)"><g id="ef5m1wCVMZT5_ts" transform="scale(0,0)"><path id="ef5m1wCVMZT5" d="M191.679,102.328v0c-8.891,0-27.327-1.587-54.8-4.718-17.552227-1.891456-34.924116-5.190068-51.948-9.864-7.166609-2.021627-14.214037-4.444107-21.109-7.256-6.157337-2.509782-12.130135-5.4504-17.874-8.8-5.498625-3.231809-10.571347-7.138812-15.1-11.63-4.799834-4.792809-9.055328-10.101361-12.689-15.829-4.020098-6.351332-7.461591-13.050916-10.283-20.018C4.687258,16.336263,2.055455,8.245372,0,0C2.556,1.214,5.442,2.562,8.579,4c3.635,1.656,7.1,3.291,10.3,4.86c10.00031,5.611766,19.673576,11.787392,28.973,18.497l.285.285C56.228,33.332,64.6,39.811,73.02,46.9c5.136515,4.166058,10.531639,8.002732,16.153,11.487c5.326392,3.294942,10.878877,6.209528,16.616,8.722c5.53412,2.415968,11.243907,4.407707,17.08,5.958c5.75613,1.520186,11.622357,2.587776,17.545,3.193c13.934,1.344,24.292,2.026,30.787,2.026c4.51,0,7.27-.329,8.2-.976l-.008-.01l5.339-2.19c1.073125,1.676641,2.552156,3.055235,4.3,4.008c1.873588,1.108792,3.495971,2.595296,4.764,4.365c1.529384,2.145439,2.748399,4.495941,3.621,6.982.911496,2.20468,1.48918,4.532943,1.714,6.908.199749,1.480473-.213453,2.978333-1.144,4.147-.5.536-2.623.808-6.308.808ZM85.609,64.51c-.192,0-.385.009-.576.027-1.16025.128688-2.222511.711044-2.955,1.62-.510196,1.05383-.510196,2.28317,0,3.337.708559,1.276915,1.724158,2.357127,2.955,3.143c1.063363.572289,2.25045.876098,3.458.885.213,0,.429-.01.644-.029c1.17582-.077403,2.257374-.670335,2.955-1.62.509299-1.088016.509299-2.345984,0-3.434v.007c-1.320963-2.356805-3.779589-3.849814-6.48-3.935ZM65.884,53.91c-.259287.00009-.518364.01478-.776.044-.626128.063709-1.238305.225696-1.814.48-.753504.380689-1.404977.936155-1.9,1.62-.697739,1.27761-.697739,2.82239,0,4.1.78202,1.664301,2.043241,3.057146,3.622,4c1.303548.705156,2.759048,1.082673,4.241,1.1.300682-.000435.60112-.017126.9-.05c1.170579-.147015,2.268803-.64643,3.149-1.432.184092-.204096.344759-.428158.479-.668.697779-1.310222.697779-2.881778,0-4.192-.776101-1.597081-2.046203-2.901548-3.622-3.72v0-.005c-1.285939-.802402-2.764593-1.242889-4.28-1.275ZM48.141,38.475c-.254192.000018-.508207.01337-.761.04-1.702211.066322-3.265995.95581-4.193,2.385-.762845,1.429601-.762845,3.145399,0,4.575.812605,1.88842,2.218625,3.460494,4.005,4.478c1.401675.775821,2.973109,1.19384,4.575,1.217.383284-.000249.766128-.025972,1.146-.077c1.637682-.058772,3.134937-.940567,3.98052-2.344292s.925131-3.139527.21148-4.614708c-.919349-1.80513-2.38687-3.272651-4.192-4.192l-.006.005c-1.424313-.916952-3.072672-1.426055-4.766-1.472Z" transform="translate(0,0)" opacity="0" fill="#c6629b"/></g></g></g></svg>
