<svg id="epZkCfHsYO71" xmlns="http://www.w3.org/2000/svg" xmlns:xlink="http://www.w3.org/1999/xlink" viewBox="0 0 432.741 270" shape-rendering="geometricPrecision" text-rendering="geometricPrecision">
<style><![CDATA[
#epZkCfHsYO73_tr {animation: epZkCfHsYO73_tr__tr 3000ms linear infinite normal forwards}@keyframes epZkCfHsYO73_tr__tr { 0% {transform: translate(2191.224px,-326.513699px) rotate(0deg)} 16.666667% {transform: translate(2191.224px,-326.513699px) rotate(0deg)} 33.333333% {transform: translate(2191.224px,-326.513699px) rotate(10deg)} 50% {transform: translate(2191.224px,-326.513699px) rotate(0deg)} 66.666667% {transform: translate(2191.224px,-326.513699px) rotate(10deg)} 83.333333% {transform: translate(2191.224px,-326.513699px) rotate(0deg)} 100% {transform: translate(2191.224px,-326.513699px) rotate(10deg)}} #epZkCfHsYO73_ts {animation: epZkCfHsYO73_ts__ts 3000ms linear infinite normal forwards}@keyframes epZkCfHsYO73_ts__ts { 0% {transform: scale(0,0)} 16.666667% {transform: scale(0,0)} 33.333333% {transform: scale(1,1)} 100% {transform: scale(1,1)}} #epZkCfHsYO74_ts {animation: epZkCfHsYO74_ts__ts 3000ms linear infinite normal forwards}@keyframes epZkCfHsYO74_ts__ts { 0% {transform: translate(2146.334547px,-350.783679px) scale(0,0)} 13.333333% {transform: translate(2146.334547px,-350.783679px) scale(0,0)} 30% {transform: translate(2146.334547px,-350.783679px) scale(1,1)} 100% {transform: translate(2146.334547px,-350.783679px) scale(1,1)}} #epZkCfHsYO75_ts {animation: epZkCfHsYO75_ts__ts 3000ms linear infinite normal forwards}@keyframes epZkCfHsYO75_ts__ts { 0% {transform: translate(2112.156848px,-390.748614px) scale(0,0)} 10% {transform: translate(2112.156848px,-390.748614px) scale(0,0)} 26.666667% {transform: translate(2112.156848px,-390.748614px) scale(1,1)} 100% {transform: translate(2112.156848px,-390.748614px) scale(1,1)}} #epZkCfHsYO76_ts {animation: epZkCfHsYO76_ts__ts 3000ms linear infinite normal forwards}@keyframes epZkCfHsYO76_ts__ts { 0% {transform: translate(2051.227641px,-407.605132px) scale(0,0)} 6.666667% {transform: translate(2051.227641px,-407.605132px) scale(0,0)} 23.333333% {transform: translate(2051.227641px,-407.605132px) scale(1,1)} 100% {transform: translate(2051.227641px,-407.605132px) scale(1,1)}} #epZkCfHsYO77_ts {animation: epZkCfHsYO77_ts__ts 3000ms linear infinite normal forwards}@keyframes epZkCfHsYO77_ts__ts { 0% {transform: translate(2071.792606px,-319.266517px) scale(0,0)} 3.333333% {transform: translate(2071.792606px,-319.266517px) scale(0,0)} 20% {transform: translate(2071.792606px,-319.266517px) scale(1,1)} 100% {transform: translate(2071.792606px,-319.266517px) scale(1,1)}} #epZkCfHsYO78_to {animation: epZkCfHsYO78_to__to 3000ms linear infinite normal forwards}@keyframes epZkCfHsYO78_to__to { 0% {transform: translate(1926.369px,-452.898px)} 10% {transform: translate(1926.369px,-442.898px)} 20% {transform: translate(1936.369px,-442.898px)} 30% {transform: translate(1936.369px,-452.898px)} 40% {transform: translate(1926.369px,-452.898px)} 50% {transform: translate(1926.369px,-452.898px)} 60% {transform: translate(1926.369px,-442.898px)} 70% {transform: translate(1936.369px,-442.898px)} 80% {transform: translate(1936.369px,-452.898px)} 90% {transform: translate(1926.369px,-452.898px)} 100% {transform: translate(1926.369px,-452.898px)}} #epZkCfHsYO78_ts {animation: epZkCfHsYO78_ts__ts 3000ms linear infinite normal forwards}@keyframes epZkCfHsYO78_ts__ts { 0% {transform: scale(0,0)} 16.666667% {transform: scale(1,1)} 100% {transform: scale(1,1)}}
]]></style>
<g transform="translate(-1858.26 521.023)" opacity="0.15"><g id="epZkCfHsYO73_tr" transform="translate(2191.224,-326.513699) rotate(0)"><g id="epZkCfHsYO73_ts" transform="scale(0,0)"><path d="M64.535,623.872c1.728693,9.76202,4.299976,19.355898,7.685,28.674c2.310233,6.359311,4.949119,12.594372,7.906,18.68q3.325,6.618,8.349,7.812c3.786355.779308,7.708454.5863,11.4-.561c3.81392-.811477,7.127526-3.152981,9.166-6.477q2.66-5-1.33-10.28-4.138-5.348-11.921-3.662c-4.737177.876335-8.924865,3.616254-11.625,7.606-3.929685-6.137673-6.895136-12.841554-8.793-19.878-2.054499-6.69385-3.513178-13.556231-4.359-20.507l46.008-9.155c1.635406,8.904268,4.033233,17.65147,7.167,26.145c2.309543,6.358277,4.948446,12.592042,7.906,18.676q3.325,6.618,8.35,7.884c3.789957.730565,7.700084.538146,11.4-.561c3.812302-.857909,7.11631-3.219615,9.162-6.549q2.66-5-1.33-10.207-4.138-5.42-11.921-3.662c-4.337795.796554-8.23531,3.149999-10.96,6.618Q123.868,632.686,121.4,599.7L62.294,610.918c.64,4.553,1.354,8.868,2.143,12.974Z" transform="translate(-62.294,-609.817301)" fill="#cd3e5a"/></g></g><g id="epZkCfHsYO74_ts" transform="translate(2146.334547,-350.783679) scale(0,0)"><path d="M54.131,593.19c6.653669-1.328949,13.318545,2.231832,15.912589,8.50147s.393357,13.498518-5.254204,17.259166-13.16598,3.003612-17.950448-1.807446-5.499826-12.333558-1.707937-17.96019c2.052035-3.146535,5.305527-5.312999,9-5.993Z" transform="translate(-56.914547,-607.123321)" fill="#fa8536"/></g><g id="epZkCfHsYO75_ts" transform="translate(2112.156848,-390.748614) scale(0,0)"><path d="M45.666,583.294c6.289102-1.24244,12.627541,1.899706,15.44653,7.657289s1.413748,12.691138-3.424519,16.896805-11.899935,4.631979-17.209011,1.038906c-4.729454-3.199628-7.071294-8.929084-5.937072-14.525413s5.522042-9.961868,11.124072-11.067587Z" transform="translate(-48.406848,-597.171386)" fill="#fa8536"/></g><g id="epZkCfHsYO76_ts" transform="translate(2051.227641,-407.605132) scale(0,0)"><path d="M34.183,577.642c5.361819-1.115669,10.946449.026214,15.44,3.157c6.898429,4.65411,10.319169,13.001636,8.670471,21.158281s-8.042992,14.520265-16.207471,16.129719c-5.361407,1.116656-10.946048-.024145-15.44-3.154-6.894686-4.657085-10.312387-13.003463-8.664145-21.158733s8.039026-14.519278,16.201145-16.133267Z" transform="translate(-38.137641,-597.864868)" fill="#fa8536"/></g><g id="epZkCfHsYO77_ts" transform="translate(2071.792606,-319.266517) scale(0,0)"><path d="M56.651,592.515c13.375016-2.804612,27.314408.047475,38.513,7.88c17.204314,11.622244,25.731327,32.450485,21.616445,52.800736s-20.064219,36.229301-40.432445,40.254264c-13.375016,2.80449-27.31436-.047587-38.513-7.88-11.337588-7.567661-19.184609-19.348621-21.798598-32.726867s.221415-27.246455,7.876598-38.525133c7.434163-11.476165,19.283016-19.367317,32.738-21.803Z" transform="translate(-66.302606,-642.982483)" fill="#fa8536"/></g><g id="epZkCfHsYO78_to" transform="translate(1926.369,-452.898)"><g id="epZkCfHsYO78_ts" transform="scale(0,0)"><path d="M-0.278,670.644l-.416-.416c-12.993-13.655-19.575-29.828-19.575-48.128s6.582-34.473,19.575-48.128l.416-.416c13.629-12.994,29.827-19.575,48.129-19.575c18.939,0,35.21,6.654,48.325,19.8l.2.194C109.365,587.6,115.947,603.8,115.947,622.1s-6.582,34.477-19.575,48.132l-.2.222c-13.115,13.115-29.387,19.769-48.325,19.769-18.298-.004-34.471-6.585-48.125-19.579ZM91.944,622.1c0-12.038-4.209-22.338-12.846-31.44C70.534,582.142,60.33,578,47.851,578c-11.99,0-22.242,4.162-31.344,12.748C7.943,599.855,3.759,610.11,3.759,622.1s4.16,22.245,12.748,31.347c9.1,8.586,19.355,12.748,31.344,12.748c12.454,0,22.682-4.138,31.246-12.651c8.638-9.13,12.847-19.406,12.847-31.444Z" transform="translate(-47.839,-622.102)" fill="#239cd1"/></g></g></g></svg>
