<svg id="eAF9BK4o5g01" xmlns="http://www.w3.org/2000/svg" xmlns:xlink="http://www.w3.org/1999/xlink" viewBox="0 0 300 362.842" shape-rendering="geometricPrecision" text-rendering="geometricPrecision">
<style><![CDATA[
#eAF9BK4o5g02_to {animation: eAF9BK4o5g02_to__to 3000ms linear infinite normal forwards}@keyframes eAF9BK4o5g02_to__to { 0% {offset-distance: 0%} 24.333333% {offset-distance: 24.252847%} 60.666667% {offset-distance: 60.690054%} 67.333333% {offset-distance: 67.451849%} 91% {offset-distance: 91.037948%} 100% {offset-distance: 100%}} #eAF9BK4o5g03_to {animation: eAF9BK4o5g03_to__to 3000ms linear infinite normal forwards}@keyframes eAF9BK4o5g03_to__to { 0% {offset-distance: 0%} 25.666667% {offset-distance: 27.405767%} 45% {offset-distance: 46.670387%} 58% {offset-distance: 59.587465%} 69% {offset-distance: 70.502812%} 98.333333% {offset-distance: 100%} 100% {offset-distance: 100%}} #eAF9BK4o5g04_to {animation: eAF9BK4o5g04_to__to 3000ms linear infinite normal forwards}@keyframes eAF9BK4o5g04_to__to { 0% {offset-distance: 0%} 31.333333% {offset-distance: 31.463833%} 38% {offset-distance: 38.02796%} 53.666667% {offset-distance: 53.517677%} 78.333333% {offset-distance: 78.459925%} 100% {offset-distance: 100%}} #eAF9BK4o5g05_to {animation: eAF9BK4o5g05_to__to 3000ms linear infinite normal forwards}@keyframes eAF9BK4o5g05_to__to { 0% {offset-distance: 0%} 18% {offset-distance: 18.100838%} 34.333333% {offset-distance: 34.352789%} 41.666667% {offset-distance: 41.832908%} 47.333333% {offset-distance: 47.341847%} 83.333333% {offset-distance: 83.179964%} 100% {offset-distance: 100%}} #eAF9BK4o5g06_to {animation: eAF9BK4o5g06_to__to 3000ms linear infinite normal forwards}@keyframes eAF9BK4o5g06_to__to { 0% {offset-distance: 0%} 12.666667% {offset-distance: 12.745766%} 29.333333% {offset-distance: 28.986495%} 34.666667% {offset-distance: 34.425755%} 43.333333% {offset-distance: 43.364503%} 59.333333% {offset-distance: 58.847911%} 82.333333% {offset-distance: 82.128267%} 100% {offset-distance: 100%}} #eAF9BK4o5g07_ts {animation: eAF9BK4o5g07_ts__ts 3000ms linear infinite normal forwards}@keyframes eAF9BK4o5g07_ts__ts { 0% {transform: translate(247.113189px,362.841001px) scale(0,0)} 20% {transform: translate(247.113189px,362.841001px) scale(0,0)} 36.666667% {transform: translate(247.113189px,362.841001px) scale(1,1)} 100% {transform: translate(247.113189px,362.841001px) scale(1,1)}} #eAF9BK4o5g08_ts {animation: eAF9BK4o5g08_ts__ts 3000ms linear infinite normal forwards}@keyframes eAF9BK4o5g08_ts__ts { 0% {transform: translate(237.298327px,362.841001px) scale(0,0)} 10% {transform: translate(237.298327px,362.841001px) scale(0,0)} 26.666667% {transform: translate(237.298327px,362.841001px) scale(1,1)} 100% {transform: translate(237.298327px,362.841001px) scale(1,1)}} #eAF9BK4o5g09_ts {animation: eAF9BK4o5g09_ts__ts 3000ms linear infinite normal forwards}@keyframes eAF9BK4o5g09_ts__ts { 0% {transform: translate(247.113189px,362.841001px) scale(0,0)} 16.666667% {transform: translate(247.113189px,362.841001px) scale(1,1)} 100% {transform: translate(247.113189px,362.841001px) scale(1,1)}} #eAF9BK4o5g010_ts {animation: eAF9BK4o5g010_ts__ts 3000ms linear infinite normal forwards}@keyframes eAF9BK4o5g010_ts__ts { 0% {transform: translate(220.010697px,69.384px) scale(0,0)} 30% {transform: translate(220.010697px,69.384px) scale(0,0)} 46.666667% {transform: translate(220.010697px,69.384px) scale(1,1)} 100% {transform: translate(220.010697px,69.384px) scale(1,1)}}
]]></style>
<g id="eAF9BK4o5g02_to" style="offset-path:path('M21.51294,98.12305C71.1555,89.84929,142.41536,69.11599,187.91305,97.11456C257.58355,139.98871,151.56236,284.26223,101.1833,303.85409C86.87173,309.4197,68.61269,305.70618,54.79297,300.82863C-2.04111,280.76954,12.73012,198.52183,26.55538,153.58975C29.91425,142.67341,46.10775,97.11456,26.55538,97.11456');offset-rotate:0deg"><path d="M-0.726,330.817c-.912667-.187557-1.862315.007651-2.627.54-.782971.506654-1.32098,1.315116-1.486,2.233-.187557.912667.007651,1.862315.54,2.627.505975.782642,1.314444,1.319811,2.232,1.483.912804.187268,1.862464-.008303,2.627-.541.782743-.506427,1.320723-1.314483,1.486-2.232.187843-.912986-.007377-1.863055-.54-2.628-.507222-.781227-1.315163-1.317683-2.232-1.482Z" transform="translate(1.396421,-334.258365)" opacity="0.15" fill="#fa8536"/></g><g id="eAF9BK4o5g03_to" style="offset-path:path('M35.63174,64.843031C84.15339,55.138701,116.21916,74.919841,148.58212,110.224881C166.3668,129.626341,192.90113,174.369991,148.58212,178.801891C117.57202,181.902901,122.08868,138.177741,141.52272,142.496411C160.53274,146.720861,139.3679,180.896491,121.35301,164.683091C92.62311,138.826181,82.59695,62.826061,36.64023,62.826061');offset-rotate:0deg"><path d="M14.691,325.065c-1.329383-.276397-2.71392.006804-3.828.783-1.709628,1.154592-2.557106,3.224087-2.148358,5.246174s1.993503,3.599926,4.017358,3.999826c1.329565.27661,2.714368-.006209,3.829-.782c1.709393-1.154929,2.55666-3.224435,2.147956-5.246525s-1.993203-3.600088-4.016956-4.000475Z" transform="translate(-13.711797,-330.079605)" opacity="0.15" fill="#fa8536"/></g><g id="eAF9BK4o5g04_to" style="offset-path:path('M55.80145,183.84432C100.06988,201.55169,173.36375,226.33924,192.95548,162.66613C195.94978,152.93466,201.2506,140.86759,199.00639,130.39459C194.77777,110.66101,145.90036,98.38671,130.42938,109.2164C97.43377,132.31333,130.66274,190.8736,75.97116,216.11586C17.11051,243.28231,7.6393,162.36079,58.82691,182.83584');offset-rotate:0deg"><path d="M11,339.475c-3.31658-.695478-6.773117.011754-9.55,1.954-2.843708,1.845402-4.7997,4.782647-5.406,8.118-.695601,3.31658.011642,6.773166,1.954,9.55c1.843786,2.842943,4.77994,4.798088,8.114,5.403c3.31658.695478,6.773117-.011754,9.55-1.954c2.811174-1.876642,4.756825-4.797911,5.404961-8.115199s-.05488-6.756058-1.952961-9.552801c-1.843526-2.8432-4.779804-4.798427-8.114-5.403Z" transform="translate(-8.542526,-351.9875)" opacity="0.15" fill="#fa8536"/></g><g id="eAF9BK4o5g05_to" style="offset-path:path('M43.69962,138.462471C58.20765,102.192401,87.10036,128.356701,111.26815,114.258821C130.68037,102.935031,129.63768,70.179341,143.53969,53.749691C146.34328,50.436361,171.57177,39.649971,171.77728,38.622411C172.10327,36.992481,157.40659,23.066731,155.64151,21.478161C95.58179,-32.575589,91.95822,84.794281,81.01358,113.250341C78.13264,120.740781,53.36564,186.792551,44.7081,143.504911');offset-rotate:0deg"><path d="M4,332.235c-.029165-2.149627.831436-4.21572,2.378-5.709c1.493864-1.545826,3.559478-2.406589,5.709-2.379c2.149753-.028784,4.215822.832169,5.709,2.379c1.522195,1.509823,2.378403,3.565022,2.378403,5.709s-.856208,4.199177-2.378403,5.709c-1.493178,1.546831-3.559247,2.407784-5.709,2.379-2.149776.028903-4.215891-.832068-5.709-2.379-1.546463-1.493349-2.407045-3.559396-2.378-5.709Z" transform="translate(-12.086854,-332.234978)" opacity="0.15" fill="#239cd1"/></g><g id="eAF9BK4o5g06_to" style="offset-path:path('M82.02207,245.36193C82.02207,213.82718,131.16824,203.28368,153.62454,216.11585C185.47304,234.315,184.148788,292.932943,165.376038,320.049133C158.262248,330.324603,145.918776,338.689066,134.624896,341.915896C117.323886,346.859046,89.82875,345.393257,72.59192,338.006047C48.96723,327.881177,13.31863,272.51963,28.57234,246.37042C58.28645,195.43194,160.43816,248.53467,126.39543,303.85409C98.41035,349.32985,37.64883,279.24695,80.0051,245.36193');offset-rotate:0deg"><path d="M15.37,385.906l-.1-.1c-6.471282-6.640479-6.471282-17.228521,0-23.869l.1-.1c3.173733-3.139611,7.465815-4.888104,11.93-4.86c4.499609-.082023,8.834186,1.693696,11.983,4.909l.049.048c6.471282,6.640479,6.471282,17.228521,0,23.869l-.049.055c-3.151759,3.209892-7.485191,4.981887-11.983,4.9-4.462828.029129-8.754345-1.716255-11.93-4.852Zm22.867-12.038c.027607-2.921974-1.120024-5.732498-3.185-7.8-2.035075-2.076097-4.841797-3.212479-7.748-3.137-3.931078-.037596-7.579739,2.038056-9.556211,5.436342s-1.976472,7.59603,0,10.994316s5.625133,5.473938,9.556211,5.436342c2.905982.074265,5.712238-1.061928,7.748-3.137c2.062474-2.066302,3.209825-4.873619,3.185-7.793Z" transform="translate(-27.301001,-373.069029)" opacity="0.15" fill="#239cd1"/></g><g id="eAF9BK4o5g07_ts" transform="translate(247.113189,362.841001) scale(0,0)"><path d="M41.285,354.1v0c-3.526807-3.619204-6.77851-7.496646-9.728-11.6-3.079136-4.29133-5.861289-8.788148-8.327-13.459-3.744113-6.88188-6.811813-14.110733-9.16-21.585-2.299584-7.382294-3.85926-14.974994-4.656-22.666-.794-7.7-.035-16.91,2.257-27.363c2.847443-12.1863,6.714395-24.111631,11.56-35.65l5.7-21.811c2.271-9.171,4.158-18.577,5.609-27.956s2.5-18.968,3.136-28.54c.466699-6.58388.445307-13.193279-.064-19.774-.377272-5.161453-1.378226-10.258223-2.981-15.179-1.944577-5.57715-5.007087-10.698687-9-15.051-1.948704-2.276981-4.192891-4.283398-6.673-5.966-2.351515-1.574805-4.925774-2.788283-7.637-3.6c1.079-1.352,3.635-2.423,7.6-3.187.710038-.150511,1.434197-.224268,2.16-.22c3.7,0,8.641,1.706,14.689,5.071c3.971875,2.297061,7.271694,5.595846,9.57,9.567c3.033791,5.208203,5.275676,10.838866,6.652,16.707l.012.023c1.710216,7.124738,2.19347,14.488866,1.429,21.776-.91048,8.471364-2.880195,16.795031-5.863,24.776-3.275913,9.064557-6.088876,18.289797-8.428,27.64-2.433,9.654-4.544,19.963-6.272,30.641-2.617824,11.826593-4.027725,23.888485-4.208,36-.181342,13.267569.761697,26.526652,2.819,39.635c2.0067,12.766412,4.712434,25.413091,8.105,37.883.071-3.158.153-6.289.242-9.3l1.458,33.187Z" transform="translate(-53.78484,-362.840999)" opacity="0.15" fill="#adc880"/></g><g id="eAF9BK4o5g08_ts" transform="translate(237.298327,362.841001) scale(0,0)"><path d="M88.54,386.394v0c-3.610966-2.790963-7.015809-5.83888-10.188-9.12L76.83,353.059l.187.7c.342-15.246.98-31.3,1.9-47.707c1.202613-18.478221,3.445166-36.874028,6.717-55.1c1.725-10.238,4.23-21.6,7.446-33.763s7.234-25.481,11.94-39.572c1.664864-5.281664,3.7171-10.433311,6.14-15.413c1.896315-3.936385,4.254943-7.632778,7.026-11.011c2.192248-2.686361,4.877767-4.928932,7.912-6.607c2.708324-1.444439,5.730566-2.2,8.8-2.2c2.648476.031137,5.271935.516863,7.756,1.436-1.258,1.435-2.579,3.107-3.927,4.972-6.930159,9.104424-13.217071,18.680981-18.815,28.66-5.224406,9.333798-9.696244,19.069316-13.373,29.114-3.611,9.642-6.817,19.715-9.529,29.94s-5,20.872-6.812,31.662c-1.51,8.78-2.916,20.323-4.178,34.309-.671,8.255-1.183,16.235-1.523,23.718c1.46-4.584,5.513-16.728,12.042-36.095c1.472215-4.547733,3.333775-8.960071,5.564-13.188c1.911099-3.624857,4.241765-7.012445,6.944-10.093c2.411301-2.733725,5.216426-5.092955,8.323-7c3.002849-1.814171,6.27804-3.133364,9.7-3.907c1.794563-.449866,3.63511-.690798,5.485-.718c3.489,0,6.183,1.1,8.007,3.263c1.721927,2.292239,2.71804,5.047569,2.86,7.911.301797,4.22624.042543,8.473836-.771,12.632-3.579941-1.720036-7.502297-2.608839-11.474-2.6-2.148319.00883-4.289875.241419-6.39.694-3.153.713-6.373,2.921-9.569,6.563-3.86952,4.693445-7.128805,9.858236-9.7,15.371-3.229833,6.348695-6.022979,12.910249-8.36,19.639-2.188763,6.320906-3.884176,12.801993-5.071,19.385-1.282985,7.140729-2.172328,14.346608-2.664,21.585-.589,8.018-.888,17.019-.888,26.753Z" transform="translate(-81.399995,-386.394)" opacity="0.15" fill="#adc880"/></g><g id="eAF9BK4o5g09_ts" transform="translate(247.113189,362.841001) scale(0,0)"><path d="M42.733,270.8v0c-2.453-1.893-4.856-3.949-7.143-6.111v-19.91l5.468-41.414c2.114-6.38,5.368-16.088,9.673-28.856c1.472197-4.54774,3.333757-8.960079,5.564-13.188c1.911416-3.624666,4.242057-7.012218,6.944-10.093c2.41146-2.733952,5.216949-5.093206,8.324-7c3.002857-1.814381,6.278027-3.133903,9.7-3.908c1.794634-.449362,3.635161-.689956,5.485-.717c3.49,0,6.184,1.1,8.007,3.263c1.722067,2.291783,2.718207,5.046841,2.86,7.91.301555,4.225909.042303,8.473143-.771,12.631-3.579649-1.719857-7.501638-2.608654-11.473-2.6-2.148275.008676-4.289812.240927-6.39.693-3.154.714-6.373,2.922-9.569,6.563-3.86925,4.693641-7.128512,9.858396-9.7,15.371-3.229406,6.349238-6.022538,12.911095-8.36,19.64-2.188728,6.320576-3.884141,12.801328-5.071,19.384-1.28261,7.140754-2.171618,14.34663-2.663,21.585-.589,8.017-.888,17.018-.888,26.753Z" transform="translate(-45.40486,-270.797)" opacity="0.15" fill="#adc880"/></g><g id="eAF9BK4o5g010_ts" transform="translate(220.010697,69.384) scale(0,0)"><path d="M26.661,69.384v0c-3.128096-.685231-6.129049-1.857874-8.893-3.475-2.932145-1.737976-5.608995-3.874341-7.954-6.348-2.597606-2.541392-4.776867-5.477674-6.457-8.7-1.610279-3.149005-2.68241-6.545211-3.172-10.048-.325515-4.168013-.199785-8.358996.375-12.5.46439-4.267554,1.266913-8.491495,2.4-12.632L6.89,0c15.292,15.73,23.3,24.1,23.818,24.875c3.045827,3.860868,5.327262,8.267275,6.722,12.983c1.063504,3.739765.930634,7.718519-.38,11.379v-.012c-1.956,5.301-5.45,12.083-10.389,20.159Z" transform="translate(-26.682367,-69.384)" opacity="0.15" fill="#adc880"/></g></svg>
