<svg id="ehMrcAvanpW1" xmlns="http://www.w3.org/2000/svg" xmlns:xlink="http://www.w3.org/1999/xlink" viewBox="0 0 642.905 601.685" shape-rendering="geometricPrecision" text-rendering="geometricPrecision">
<style><![CDATA[
#ehMrcAvanpW4_to {animation: ehMrcAvanpW4_to__to 3000ms linear infinite normal forwards}@keyframes ehMrcAvanpW4_to__to { 0% {transform: translate(354.53765px,330.832399px)} 33.333333% {transform: translate(1046.142622px,-236.204239px)} 100% {transform: translate(1046.142622px,-236.204239px)}} #ehMrcAvanpW5_to {animation: ehMrcAvanpW5_to__to 3000ms linear infinite normal forwards}@keyframes ehMrcAvanpW5_to__to { 0% {transform: translate(391.688789px,421.470741px)} 33.333333% {transform: translate(1080.983794px,-97.43279px)} 100% {transform: translate(1080.983794px,-97.43279px)}} #ehMrcAvanpW6_to {animation: ehMrcAvanpW6_to__to 3000ms linear infinite normal forwards}@keyframes ehMrcAvanpW6_to__to { 0% {offset-distance: 0%} 10% {offset-distance: 9.852261%} 32.666667% {offset-distance: 32.634958%} 61.666667% {offset-distance: 61.81737%} 85% {offset-distance: 84.866398%} 100% {offset-distance: 100%}} #ehMrcAvanpW7_to {animation: ehMrcAvanpW7_to__to 3000ms linear infinite normal forwards}@keyframes ehMrcAvanpW7_to__to { 0% {offset-distance: 0%} 12.333333% {offset-distance: 12.491267%} 33.333333% {offset-distance: 33.449714%} 48% {offset-distance: 47.876017%} 50% {offset-distance: 50.071422%} 51% {offset-distance: 51.003557%} 59% {offset-distance: 58.934407%} 71% {offset-distance: 70.926436%} 90.666667% {offset-distance: 90.578831%} 94% {offset-distance: 94.034625%} 100% {offset-distance: 100%}} #ehMrcAvanpW8_to {animation: ehMrcAvanpW8_to__to 3000ms linear infinite normal forwards}@keyframes ehMrcAvanpW8_to__to { 0% {offset-distance: 0%} 30% {offset-distance: 29.962209%} 42.333333% {offset-distance: 42.193574%} 46.666667% {offset-distance: 46.563316%} 48.333333% {offset-distance: 48.231905%} 60% {offset-distance: 59.908287%} 100% {offset-distance: 100%}} #ehMrcAvanpW8_tr {animation: ehMrcAvanpW8_tr__tr 3000ms linear infinite normal forwards}@keyframes ehMrcAvanpW8_tr__tr { 0% {transform: rotate(10deg)} 16.666667% {transform: rotate(0deg)} 33.333333% {transform: rotate(10deg)} 50% {transform: rotate(0deg)} 66.666667% {transform: rotate(10deg)} 83.333333% {transform: rotate(0deg)} 100% {transform: rotate(10deg)}} #ehMrcAvanpW9_to {animation: ehMrcAvanpW9_to__to 3000ms linear infinite normal forwards}@keyframes ehMrcAvanpW9_to__to { 0% {offset-distance: 0%} 32% {offset-distance: 32.055245%} 41% {offset-distance: 41.052621%} 78% {offset-distance: 77.930363%} 100% {offset-distance: 100%}}
]]></style>
<path d="M615.792,377.656q2.416-16.889-3.158-23.589l-18.909,81.247q-8.53,36.8-13.675,53.042-18.683,57.557-59.42,108.473-38.422,47.99-91.715,84.455-92.752,63.408-229.892,93.075-52.973,11.06-54.3,11.423-31.007,7.21-52.98,16.18-38.478,16.138-78.49,49.19-16.022,13-23.7,26.245-10.134,16.759-4.618,31.452q46.727-61.106,149.7-94.925q26.118-8.417,86.759-23.6q56.348-14.283,86.468-24.657q88.241-30.553,157.312-89.075q72.259-61.389,109-141.914q28.7-63.482,41.63-157.009" transform="translate(17.014-354.067)" fill="#239cd1"/><path d="M219.218,765.825q72.428,2.588,87.074,3.059q34.892,1.658,60.841-5.285q77.067-20.607,131.81-122.375c17.493764-32.625737,31.57497-66.969203,42.02-102.485q11.021-38.062,24.168-113.444-12.813,63.334-47.031,124.364-35.969,62.957-63.849,94.622-27.967,31.4-76.3,64.227-48.593,32.892-104.685,29.741c-37.634981-2.013312-75.371208.939417-112.235,8.782Q105.34,758.561,55.841,795.4q-49.763,36.917-77.372,83.882q11.661-4.1,30.973-20.582q19.231-16.74,78.317-55.96q59.01-39.48,131.434-36.9" transform="translate(77.774-277.597)" fill="#239cd1"/><g id="ehMrcAvanpW4_to" transform="translate(354.53765,330.832399)"><rect width="61.45319" height="138.269677" rx="0" ry="0" transform="rotate(-38.696857) scale(14.862104,1.301035) translate(-30.726595,-69.134838)" fill="#fff" stroke-width="0"/></g><g id="ehMrcAvanpW5_to" transform="translate(391.688789,421.470741)"><rect width="93.072283" height="239.436722" rx="0" ry="0" transform="rotate(49.951135) scale(2.20841,3.199979) translate(-46.536141,-119.718361)" fill="#fff" stroke-width="0"/></g><g id="ehMrcAvanpW6_to" style="offset-path:path('M289.86138,212.84909C289.86138,196.56605,291.3284,179.51555,289.174,163.35753C283.26218,119.01886,233.55896,106.89326,200.50162,131.05054C162.88006,158.54321,132.69074,208.83916,137.26241,256.84159C141.2717,298.93909,211.84121,289.34625,236.24553,275.40092C258.937,262.43436,265.61079,232.62355,287.11185,219.72292');offset-rotate:0deg"><path d="M293.885,442c-.566176-2.606514-2.896427-4.448891-5.563247-4.398498s-4.925803,1.979492-5.393102,4.605536.987526,5.216005,3.473254,6.183284s5.3085.041871,6.739095-2.209322c.81476-1.231114,1.084044-2.744391.744-4.181Z" transform="translate(-288.435318,-443.18576)" fill="#c6629b"/></g><g id="ehMrcAvanpW7_to" style="offset-path:path('M295.87849,267.56449C275.75435,283.6638,280.25828,314.22679,262.52457,330.34835C228.15375,361.59454,182.1156,335.72085,147.74784,359.77828C132.48855,370.45978,99.78526,408.87649,78.097,399.01819C77.08376,398.55763,68.97326,391.95777,69.26802,390.18921C69.54213,388.54452,72.51248,389.35917,74.17301,389.20821C89.07076,387.85387,105.52854,392.79533,119.29891,385.28422C138.88716,374.59972,151.86981,350.18186,174.23478,344.08231C218.22351,332.08538,238.71256,343.73967,282.14453,313.67138C286.39844,310.72637,295.76394,306.95714,298.82149,302.8804C304.88934,294.78994,297.56479,277.95796,295.8785,269.52648');offset-rotate:0deg"><path d="M306.146,486.212c-1.009771-4.633032-5.154322-7.905674-9.895221-7.813518s-8.755137,3.523392-9.584096,8.192166s1.758694,9.272201,6.178087,10.990802s9.437236.072775,11.98023-3.92945c1.45092-2.190344,1.929198-4.884052,1.321-7.44Z" transform="translate(-296.458466,-488.327072)" fill="#fa8536"/></g><g id="ehMrcAvanpW8_to" style="offset-path:path('M441.56301,171.84258C452.97701,143.3076,502.12071,149.76132,523.20025,131.02396C530.67918,124.37602,540.35529,108.51374,542.85366,98.52025C543.98728,93.98577,543.984,89.49163,544.36546,84.91404C544.49274,83.38668,544.03761,79.29489,545.12136,80.37864C549.76595,85.02323,539.03935,110.68427,536.80646,115.15005C502.18347,184.39602,456.05945,133.77892,435.51582,174.86618');offset-rotate:0deg"><g id="ehMrcAvanpW8_tr" transform="rotate(10)"><path d="M384.936,597.862c.749336,4.381241,1.865598,8.691747,3.337,12.886c1.001358,2.854181,2.147511,5.65548,3.434,8.393q1.449,2.973,3.628,3.517c1.64155.349549,3.346133.261613,4.943-.255c1.671312-.381699,3.111825-1.434506,3.983-2.911.773614-1.514545.544098-3.347902-.579-4.625-1.187955-1.604396-3.269269-2.268628-5.167-1.649-2.076571.40515-3.897139,1.641864-5.039,3.423-1.710766-2.76932-2.99862-5.778469-3.821-8.928-.892649-3.011829-1.526616-6.094348-1.895-9.214l19.972-4.119c.706455,3.997107,1.748133,7.927651,3.114,11.75c1.001075,2.853962,2.147234,5.654943,3.434,8.392q1.449,2.973,3.628,3.547c1.642904.331886,3.342969.244183,4.943-.255c1.673238-.399697,3.111433-1.46381,3.983-2.947.77412-1.502294.544012-3.32607-.579-4.589-1.177701-1.618659-3.269364-2.286194-5.167-1.649-1.898031.367538-3.591299,1.428415-4.75,2.976q-5.622-9.785-6.681-24.6L384,592.035c.278,2.048.592,3.988.929,5.827Z" transform="translate(-405.644012,-604.936429)" fill="#cd3e5a"/></g></g><g id="ehMrcAvanpW9_to" style="offset-path:path('M335.916031,232.095811C347.876461,196.214521,339.929881,144.110821,291.923531,144.110821C279.113751,144.110821,271.971361,145.503651,262.366071,155.108941C240.795251,176.679761,204.667991,258.964521,261.678691,263.715421C289.797901,266.058691,312.352761,247.706121,333.166501,232.095811');offset-rotate:0deg"><path d="M303.8,592.439c-.508443-2.310948-2.579333-3.940333-4.945034-3.890773s-4.366535,1.764244-4.777749,4.094458.881858,4.626177,3.087701,5.48248s4.709354.034165,5.978082-1.963165c.724468-1.096729.962318-2.444544.657-3.723Z" transform="translate(-298.965702,-593.504362)" fill="#fa8536"/></g></svg>
