<svg id="eiNg7HBceMr1" xmlns="http://www.w3.org/2000/svg" xmlns:xlink="http://www.w3.org/1999/xlink" viewBox="0 0 264 373" shape-rendering="geometricPrecision" text-rendering="geometricPrecision">
<style><![CDATA[
#eiNg7HBceMr2_to {animation: eiNg7HBceMr2_to__to 2300ms linear infinite normal forwards}@keyframes eiNg7HBceMr2_to__to { 0% {offset-distance: 0%} 1.304348% {offset-distance: 0%} 29.130435% {offset-distance: 28.050834%} 50.434783% {offset-distance: 49.802598%} 51.73913% {offset-distance: 51.187539%} 56.521739% {offset-distance: 55.890052%} 68.695652% {offset-distance: 68.110445%} 100% {offset-distance: 100%}} #eiNg7HBceMr3_ts {animation: eiNg7HBceMr3_ts__ts 2300ms linear infinite normal forwards}@keyframes eiNg7HBceMr3_ts__ts { 0% {transform: translate(102px,102px) scale(1,1)} 21.73913% {transform: translate(102px,102px) scale(0.8,0.8)} 43.478261% {transform: translate(102px,102px) scale(1,1)} 65.217391% {transform: translate(102px,102px) scale(0.8,0.8)} 86.956522% {transform: translate(102px,102px) scale(1,1)} 100% {transform: translate(102px,102px) scale(1,1)}} #eiNg7HBceMr4_ts {animation: eiNg7HBceMr4_ts__ts 2300ms linear infinite normal forwards}@keyframes eiNg7HBceMr4_ts__ts { 0% {transform: translate(204px,60px) scale(1,1)} 13.043478% {transform: translate(204px,60px) scale(1,1)} 34.782609% {transform: translate(204px,60px) scale(0.8,0.8)} 56.521739% {transform: translate(204px,60px) scale(1,1)} 78.26087% {transform: translate(204px,60px) scale(0.8,0.8)} 100% {transform: translate(204px,60px) scale(1,1)}}
]]></style>
<g id="eiNg7HBceMr2_to" style="offset-path:path('M83.42752,343.36773C90.144,309.78538,131.69576,308.60603,156.74447,299.37756C178.72732,291.27861,194.54318,270.5638,205.01146,250.49959C205.61467,249.34344,202.87869,252.02139,201.95659,252.94349C198.34003,256.56005,195.34068,260.60241,192.181,264.55201C184.19893,274.5296,173.90168,284.12935,163.46519,291.43489C137.96485,309.28513,88.21341,309.66264,80.98362,345.81163');offset-rotate:0deg"><path d="M97.826,349.833c-.8411,4.624-1.8349,8.513-2.9818,11.665-1.1668,3.248-2.1892,5.78-3.0671,7.595-.8609,1.796-1.94,2.857-3.2399,3.18-1.2801.326-2.7527.25-4.415-.229-1.6256-.439-2.8093-1.32-3.5541-2.637-.6882-1.356-.5154-2.752.5155-4.185c1.0705-1.453,2.6082-1.949,4.6161-1.49c1.988.459,3.486,1.49,4.4999,3.095c1.4132-2.234,2.5516-4.93,3.4097-8.082.8779-3.135,1.4414-5.913,1.6906-8.34l-17.8302-3.727c-.7844,4.186-1.7103,7.728-2.7808,10.634-1.1668,3.248-2.1891,5.78-3.0671,7.595-.8609,1.796-1.94,2.866-3.2399,3.212-1.28.306-2.7526.229-4.415-.23-1.6256-.458-2.8093-1.348-3.5541-2.665-.6882-1.356-.5156-2.741.5152-4.157c1.0705-1.473,2.6085-1.968,4.6164-1.489c1.8351.419,3.2482,1.319,4.2422,2.693c3.3446-5.905,5.3326-13.328,5.9613-22.271l22.9023,4.557c-.2492,1.855-.5266,3.61-.8324,5.273l.0082.003Z" transform="translate(-79.325432,-340)" fill="#cd3e5a"/></g><g id="eiNg7HBceMr3_ts" transform="translate(102,102) scale(1,1)"><circle r="102" transform="translate(0,0)" fill="#de2a57"/></g><g id="eiNg7HBceMr4_ts" transform="translate(204,60) scale(1,1)"><circle r="60" transform="translate(0,0)" fill="#30b9b5"/></g><path d="M105.727,102.66l.028-.028c.901-.946,1.357-2.068,1.357-3.3347c0-1.2669-.456-2.3889-1.357-3.3347l-.028-.0277c-.946-.901-2.067-1.3565-3.334-1.3565-1.312,0-2.4409.4624-3.3523,1.3703l-.0138.0139c-.901.9458-1.3566,2.0678-1.3566,3.3347c0,1.2667.4556,2.3917,1.3566,3.3347l.0138.014c.9114.908,2.0363,1.37,3.3523,1.37c1.267,0,2.388-.456,3.334-1.356Zm-6.3928-3.3662c0-.8354.2899-1.5466.8908-2.1783.594-.5903,1.301-.8768,2.164-.8768.832,0,1.543.2899,2.172.8837.593.6317.883,1.3429.883,2.1714c0,.8322-.29,1.5432-.883,2.1712-.632.594-1.343.884-2.172.884-.828,0-1.574-.287-2.164-.877-.6009-.632-.8908-1.346-.8908-2.1782Z" fill="#fff" fill-opacity="0.13"/><path d="M112.593,73.6762c-.569,3.1379-1.246,5.7788-2.023,7.9156-.79,2.2059-1.484,3.9214-2.081,5.1538-.584,1.2186-1.315,1.9401-2.199,2.1576-.87.2209-1.868.1692-2.996-.1553-1.102-.2969-1.906-.8941-2.413-1.7882-.466-.9217-.349-1.8676.348-2.841.725-.9839,1.771-1.3221,3.131-1.0114c1.35.3107,2.368,1.0114,3.055,2.1023.96-1.5189,1.73-3.3451,2.317-5.4854.597-2.1265.98-4.0147,1.146-5.6613L98.7783,71.5325c-.5316,2.841-1.1599,5.2436-1.8883,7.2148-.7905,2.2058-1.4844,3.9215-2.0816,5.1539-.5834,1.2186-1.3153,1.9435-2.199,2.1783-.8699.2071-1.8675.1553-2.9963-.1554-1.1012-.3107-1.9056-.9147-2.413-1.8088-.466-.9217-.3487-1.8606.3486-2.8203.725-.9977,1.771-1.336,3.1311-1.0115c1.2462.2865,2.2058.894,2.8789,1.8295c2.268-4.0078,3.6179-9.0443,4.0459-15.113l15.5414,3.093c-.169,1.2566-.356,2.451-.563,3.5798l.01.0034Z" fill="#fff" fill-opacity="0.13"/><path d="M129.208,73.3688c.324-1.4602,1.125-2.5924,2.399-3.4036c1.274-.8113,2.641-1.0529,4.101-.7284s2.593,1.1253,3.404,2.3991s1.053,2.641.728,4.1012c-.324,1.4602-1.125,2.5924-2.399,3.4036-1.274.8113-2.641,1.0529-4.101.7284s-2.592-1.1253-3.404-2.3991c-.811-1.2738-1.053-2.6409-.728-4.1012Z" fill="#fff" fill-opacity="0.13"/><path d="M76.0777,91.2574c.1795-.8078.6214-1.4327,1.3257-1.8815.7042-.4488,1.4601-.5798,2.2679-.4003s1.4327.6213,1.8814,1.3255.5799,1.4602.4004,2.268c-.1795.8077-.6214,1.4326-1.3256,1.8814s-1.4601.5798-2.2679.4003-1.4327-.6213-1.8815-1.3255c-.4487-.7042-.5799-1.4602-.4004-2.2679Z" fill="#fff" fill-opacity="0.13"/></svg>
