<svg width="15" height="15" viewBox="0 0 15 15" fill="none" xmlns="http://www.w3.org/2000/svg">
<path d="M2.70944 1.13648C4.27348 0.717344 5.91551 0.889931 7.51965 0.838379C9.204 0.910103 11.0955 0.64562 12.5482 1.69907C13.4282 2.44769 14.0187 3.58183 14.0432 4.74959C14.11 6.84303 14.1122 8.93872 14.0409 11.0322C14.0343 12.052 13.5575 13.0136 12.9002 13.7667C12.0959 14.6296 10.8616 14.8582 9.73648 14.9075C7.8828 14.9591 6.0269 14.968 4.17322 14.8963C3.07037 14.8223 1.86503 14.5399 1.1298 13.6434C0.597309 12.9687 0.127209 12.1596 0.1584 11.2698C0.156172 9.17631 0.169536 7.08286 0.15394 4.98941C0.00689326 3.33528 1.09193 1.59148 2.70944 1.13648ZM4.24006 2.15407C3.23079 2.16976 2.12347 2.59338 1.65783 3.55045C1.1543 5.01855 1.35037 6.59872 1.31026 8.12062C1.33923 9.53493 1.1699 11.0165 1.71353 12.3568C2.20591 13.1749 3.16172 13.5941 4.08856 13.6187C6.06478 13.7218 8.05213 13.7218 10.0306 13.621C11.1022 13.5986 12.3343 13.0113 12.5972 11.8794C12.9648 10.4315 12.791 8.92527 12.8311 7.45045C12.8089 6.10562 12.947 4.69579 12.4257 3.42493C11.9288 2.60907 10.973 2.19217 10.0439 2.16752C8.11229 2.05993 6.17172 2.07338 4.24006 2.15407Z" fill="white"/>
<path d="M10.2534 3.47428C10.7012 3.14704 11.481 3.28153 11.6191 3.88222C11.8664 4.50756 11.1401 5.12618 10.5564 4.8886C9.92139 4.76084 9.80776 3.87997 10.2534 3.47428Z" fill="white"/>
<path d="M6.46371 4.35288C8.08791 4.03236 9.81683 4.99167 10.4162 6.54719C11.1558 8.21253 10.3137 10.3194 8.70952 11.1151C7.90744 11.4872 6.97838 11.6037 6.12061 11.3594C4.73258 11.0501 3.68542 9.75236 3.48713 8.3627C3.21309 6.51805 4.60558 4.58374 6.46371 4.35288ZM6.24537 5.69098C5.28734 6.0496 4.61895 7.09184 4.73258 8.12288C4.84621 9.35788 6.03816 10.3912 7.28361 10.223C8.82537 10.1648 9.92377 8.28426 9.19077 6.90581C8.71175 5.80081 7.35713 5.27184 6.24537 5.69098Z" fill="white"/>
</svg>
