<svg width="17" height="17" viewBox="0 0 17 17" fill="none" xmlns="http://www.w3.org/2000/svg">
<path d="M4.93059 2.46384C6.22282 0.897117 8.50873 0.536255 10.3713 1.11229C11.7839 1.55384 12.9045 2.75746 13.2967 4.18522C13.4593 4.8285 13.4348 5.49867 13.4548 6.15539C13.9762 6.19798 14.5755 6.16884 14.981 6.56332C15.5046 7.03625 15.5358 7.91712 15.0946 8.45729C14.7025 8.93022 14.1477 9.22608 13.6554 9.58022C14.0319 10.4499 14.6735 11.1806 15.5046 11.6333C16.0482 11.9919 16.9595 12.3102 16.7857 13.1418C16.5562 14.0271 15.5692 14.2445 14.8429 14.5606C14.5978 14.9192 14.4017 15.41 13.9249 15.5019C13.0204 15.7283 12.0111 15.6163 11.2135 16.1788C9.70515 17.2076 7.61308 17.2121 6.10697 16.1811C5.30935 15.614 4.29562 15.7283 3.39106 15.4997C2.92096 15.3988 2.72044 14.9125 2.46645 14.5583C1.74236 14.24 0.757586 14.0271 0.528104 13.1418C0.358778 12.3125 1.27002 11.9987 1.81365 11.6378C2.64023 11.1806 3.28412 10.4521 3.65619 9.58246C2.88531 9.04677 1.72899 8.46177 1.93396 7.32539C2.04313 6.39074 3.05909 6.11729 3.85002 6.15763C3.80101 4.84867 4.03272 3.47022 4.93059 2.46384ZM5.22692 3.64281C4.55852 4.80608 4.82365 6.2047 4.79914 7.48229C4.17976 7.38143 3.06577 6.62832 2.81624 7.56746C3.05686 8.45953 4.28671 8.53798 4.63204 9.35384C4.37582 11.1111 2.8051 12.169 1.3881 12.9782C1.94287 13.4152 2.64246 13.5676 3.26184 13.8769C3.38883 14.1056 3.47572 14.3521 3.57598 14.5919C4.20204 14.6906 4.83479 14.76 5.45417 14.8968C6.24956 15.0738 6.87116 15.6611 7.6465 15.8942C8.30821 16.0645 9.01225 16.0645 9.67396 15.8942C10.4448 15.6656 11.0642 15.0828 11.8507 14.9013C12.4745 14.7623 13.1095 14.695 13.74 14.5942C13.9116 13.5183 15.1592 13.5519 15.9212 13.0925C15.3397 12.5075 14.5621 12.1869 13.9628 11.6266C13.4259 11.1402 13.0293 10.5059 12.7887 9.82229C12.7174 9.58694 12.5971 9.2866 12.8154 9.08712C13.2855 8.63436 13.9116 8.38108 14.3616 7.90591C14.658 7.61453 14.4151 7.05194 14.0007 7.08332C13.4905 7.14384 13.007 7.33884 12.5169 7.48005C12.4924 6.20694 12.7553 4.81953 12.1002 3.6585C10.7768 1.13694 6.56148 1.13022 5.22692 3.64281Z" fill="white"/>
</svg>
