<svg width="17" height="16" viewBox="0 0 17 16" fill="none" xmlns="http://www.w3.org/2000/svg">
<path d="M2.57959 2.72358C4.11022 0.928234 6.51643 -0.0422832 8.85804 0.121337C11.0504 0.215475 13.187 1.32496 14.5171 3.08444C15.8428 4.73634 16.3819 6.9553 16.1079 9.04427C15.6066 12.3279 12.9107 15.1431 9.61555 15.6272C9.61109 13.805 9.61555 11.9805 9.61333 10.1582C10.2149 10.1582 10.8187 10.156 11.4224 10.156C11.5383 9.40289 11.6542 8.64979 11.7678 7.89892C11.0481 7.89668 10.3307 7.89668 9.61333 7.89444C9.65566 7.17944 9.47296 6.39944 9.78933 5.73151C10.226 5.03668 11.1707 5.2653 11.8614 5.19134C11.8591 4.55254 11.8591 3.91375 11.8591 3.27496C10.5335 3.1203 8.87809 2.89168 7.90223 4.0303C6.94643 5.09048 7.20488 6.58996 7.18705 7.89444C6.52757 7.89668 5.86809 7.89668 5.21084 7.89668C5.21084 8.64979 5.21084 9.40289 5.21084 10.156C5.86809 10.156 6.52757 10.1582 7.18482 10.1582C7.1826 11.9805 7.18706 13.805 7.1826 15.6272C3.74037 15.1251 0.933115 12.0567 0.64125 8.58703C0.483063 6.47789 1.15814 4.29927 2.57959 2.72358Z" fill="white"/>
</svg>
