<svg width="17" height="14" viewBox="0 0 17 14" fill="none" xmlns="http://www.w3.org/2000/svg">
<path d="M10.8444 0.573547C12.0854 0.0804433 13.5024 0.499581 14.4605 1.38268C15.1779 1.18544 15.8752 0.923202 16.5592 0.631822C16.2161 1.34458 15.6903 1.93855 15.0776 2.42941C15.7037 2.28372 16.3253 2.12682 16.9447 1.94975C16.4545 2.56165 15.9042 3.11975 15.3049 3.62182C15.4786 6.32941 14.2421 8.94061 12.4397 10.8884C9.41854 13.8582 4.41672 14.2348 0.876465 11.9911C2.61652 12.1234 4.36548 11.6594 5.78693 10.6329C4.38776 10.5499 3.19579 9.62424 2.64993 8.34889C3.15791 8.32872 3.66812 8.30182 4.17833 8.27493C2.68113 7.9051 1.58496 6.55355 1.49361 5.00924C1.99491 5.14148 2.49844 5.26924 3.00196 5.39924C1.6273 4.39958 1.1661 2.45855 1.9704 0.947857C3.65921 2.94941 6.1345 4.26286 8.75237 4.41079C8.44268 2.84406 9.31159 1.09355 10.8444 0.573547Z" fill="white"/>
</svg>
