<svg width="19" height="13" viewBox="0 0 19 13" fill="none" xmlns="http://www.w3.org/2000/svg">
<path d="M4.31569 1.02424C7.99186 0.782174 11.6836 0.788899 15.3576 1.06683C16.0438 1.12511 16.7857 1.29545 17.2602 1.8401C17.893 2.53717 17.8618 3.55028 17.9977 4.4289C18.1849 6.65907 18.1871 8.93631 17.7214 11.1351C17.4853 12.0989 16.5072 12.648 15.5759 12.6996C11.5722 13.0268 7.53735 13.0268 3.53367 12.7018C2.59346 12.6503 1.60424 12.0967 1.37253 11.1217C0.911335 8.92286 0.913572 6.64786 1.10295 4.41769C1.23663 3.492 1.21434 2.40269 1.95626 1.71907C2.58677 1.12062 3.50025 1.08028 4.31569 1.02424ZM7.80025 4.35045C7.79803 6.05614 7.79803 7.76183 7.80025 9.46752C9.29077 8.61579 10.7791 7.76407 12.2674 6.90786C10.7791 6.0539 9.28854 5.20217 7.80025 4.35045Z" fill="white"/>
</svg>
