<svg width="15" height="17" viewBox="0 0 15 17" fill="none" xmlns="http://www.w3.org/2000/svg">
<path d="M7.44554 0.827637C8.35678 0.827637 9.26802 0.827637 10.177 0.827637C10.1793 2.92333 11.9906 4.67833 14.0515 4.72315C14.047 5.63315 14.0515 6.54315 14.0493 7.45539C12.6768 7.40833 11.34 6.99367 10.1926 6.23608C10.1993 8.24884 10.2283 10.2616 10.1837 12.2744C10.0211 14.9528 7.46782 17.1942 4.80092 16.9252C2.58409 16.8625 0.563308 15.1119 0.148904 12.9311C0.108801 11.8552 -0.0159664 10.7076 0.476417 9.70798C1.34087 7.65936 3.65129 6.51177 5.80797 6.73591C5.8102 7.67057 5.80574 8.60522 5.81466 9.53988C4.86999 9.40315 3.79833 9.61384 3.22129 10.4454C2.42144 11.4921 2.72445 13.1978 3.89191 13.8344C4.99699 14.5449 6.67243 14.0899 7.20714 12.8683C7.44776 12.4066 7.44776 11.8732 7.44999 11.3644C7.43885 7.85212 7.44776 4.33988 7.44554 0.827637Z" fill="white"/>
</svg>
